<svg width="663" height="194" viewBox="0 0 663 194" fill="none" xmlns="http://www.w3.org/2000/svg">
<mask id="mask0_949_149" style="mask-type:alpha" maskUnits="userSpaceOnUse" x="0" y="0" width="663" height="194">
<rect width="663" height="194" fill="#D9D9D9"/>
</mask>
<g mask="url(#mask0_949_149)">
<rect x="0.00012207" width="670" height="196" fill="#EFEFEF"/>
<mask id="mask1_949_149" style="mask-type:alpha" maskUnits="userSpaceOnUse" x="-82" y="-357" width="821" height="962">
<path d="M508.335 601.371L542.572 568.436C544.016 567.047 544.574 564.972 544.024 563.041L528.95 510.151C528.397 508.21 528.964 506.124 530.423 504.736L570.555 466.531C572.056 465.102 572.609 462.94 571.98 460.96L555.798 410.024C555.166 408.036 555.727 405.865 557.24 404.437L597.163 366.761C598.651 365.357 599.22 363.232 598.634 361.267L582.846 308.312C582.252 306.322 582.844 304.169 584.37 302.768L623.785 266.563C625.323 265.15 625.911 262.975 625.295 260.974L609.334 209.111C608.717 207.108 609.306 204.932 610.847 203.518L651.366 166.358C652.928 164.926 653.51 162.712 652.856 160.691L636.101 108.895C635.452 106.891 636.02 104.694 637.556 103.26L678.391 65.1413C679.927 63.7073 680.494 61.511 679.846 59.5067L663.057 7.60746C662.42 5.64 662.954 3.48389 664.434 2.04659L703.668 -36.0578C705.136 -37.4837 705.674 -39.6183 705.059 -41.5753L689.422 -91.3303C688.797 -93.3195 689.364 -95.4889 690.881 -96.9122L732.169 -135.651C733.737 -137.123 734.285 -139.386 733.566 -141.418L713.885 -197.002" stroke="#22A6C3" stroke-width="10" stroke-dasharray="15 15"/>
<path d="M435.015 581.621L469.252 548.686C470.695 547.297 471.254 545.222 470.704 543.291L455.63 490.401C455.077 488.46 455.644 486.374 457.102 484.986L497.235 446.781C498.736 445.352 499.289 443.19 498.66 441.21L482.477 390.274C481.846 388.286 482.406 386.115 483.92 384.687L523.843 347.011C525.331 345.607 525.9 343.482 525.314 341.517L509.526 288.562C508.932 286.572 509.524 284.419 511.05 283.018L550.464 246.813C552.003 245.4 552.591 243.225 551.975 241.224L536.013 189.361C535.397 187.358 535.986 185.182 537.527 183.768L578.046 146.608C579.608 145.176 580.19 142.962 579.536 140.941L562.78 89.1449C562.132 87.1407 562.699 84.9444 564.235 83.5103L605.07 45.3913C606.607 43.9573 607.174 41.761 606.525 39.7567L589.736 -12.1425C589.1 -14.11 589.634 -16.2661 591.114 -17.7034L630.348 -55.8078C631.816 -57.2337 632.354 -59.3683 631.739 -61.3253L616.102 -111.08C615.477 -113.07 616.044 -115.239 617.56 -116.662L658.849 -155.401C660.417 -156.873 660.965 -159.136 660.246 -161.168L640.565 -216.752" stroke="#22A6C3" stroke-width="10" stroke-dasharray="15 15"/>
<path d="M361.694 561.874L395.93 528.939C397.374 527.55 397.933 525.475 397.382 523.544L382.309 470.654C381.756 468.713 382.323 466.627 383.781 465.239L423.913 427.034C425.414 425.605 425.967 423.442 425.339 421.463L409.156 370.527C408.524 368.539 409.085 366.367 410.598 364.939L450.521 327.264C452.009 325.86 452.578 323.735 451.992 321.77L436.204 268.815C435.611 266.825 436.202 264.672 437.728 263.271L477.143 227.066C478.681 225.653 479.269 223.478 478.653 221.477L462.692 169.614C462.076 167.611 462.665 165.434 464.205 164.021L504.725 126.861C506.286 125.429 506.868 123.215 506.215 121.194L489.459 69.3979C488.811 67.3936 489.378 65.1973 490.914 63.7633L531.749 25.6443C533.285 24.2102 533.852 22.0139 533.204 20.0097L516.415 -31.8896C515.778 -33.8571 516.313 -36.0132 517.793 -37.4505L557.026 -75.5549C558.494 -76.9808 559.033 -79.1154 558.417 -81.0724L542.78 -130.827C542.155 -132.817 542.722 -134.986 544.239 -136.409L585.527 -175.148C587.095 -176.62 587.644 -178.883 586.924 -180.915L567.243 -236.499" stroke="#22A6C3" stroke-width="10" stroke-dasharray="15 15"/>
<path d="M288.373 542.123L322.61 509.188C324.054 507.799 324.612 505.724 324.062 503.793L308.988 450.903C308.435 448.962 309.002 446.876 310.461 445.488L350.593 407.283C352.094 405.854 352.647 403.691 352.018 401.712L335.835 350.776C335.204 348.788 335.765 346.617 337.278 345.188L377.201 307.513C378.689 306.109 379.258 303.984 378.672 302.019L362.884 249.064C362.29 247.074 362.882 244.921 364.408 243.52L403.823 207.315C405.361 205.902 405.949 203.727 405.333 201.726L389.372 149.863C388.755 147.86 389.344 145.683 390.885 144.27L431.404 107.11C432.966 105.678 433.548 103.464 432.894 101.443L416.139 49.6469C415.49 47.6426 416.058 45.4463 417.594 44.0123L458.429 5.89329C459.965 4.45925 460.532 2.26297 459.884 0.258697L443.095 -51.6406C442.458 -53.608 442.992 -55.7642 444.472 -57.2015L483.706 -95.3059C485.174 -96.7318 485.712 -98.8663 485.097 -100.823L469.46 -150.578C468.835 -152.568 469.402 -154.737 470.919 -156.16L512.207 -194.899C513.775 -196.371 514.323 -198.634 513.604 -200.666L493.923 -256.25" stroke="#22A6C3" stroke-width="10" stroke-dasharray="15 15"/>
<path d="M215.051 522.374L249.288 489.439C250.732 488.05 251.29 485.975 250.74 484.044L235.666 431.154C235.113 429.213 235.68 427.127 237.139 425.739L277.271 387.534C278.772 386.105 279.325 383.942 278.696 381.963L262.513 331.027C261.882 329.039 262.443 326.867 263.956 325.439L303.879 287.764C305.367 286.36 305.936 284.235 305.35 282.27L289.562 229.315C288.968 227.325 289.56 225.172 291.086 223.771L330.501 187.566C332.039 186.153 332.627 183.978 332.011 181.977L316.05 130.114C315.433 128.111 316.022 125.934 317.563 124.521L358.082 87.3609C359.644 85.9289 360.226 83.7147 359.572 81.694L342.817 29.8979C342.168 27.8936 342.736 25.6973 344.272 24.2633L385.107 -13.8557C386.643 -15.2898 387.21 -17.4861 386.562 -19.4903L369.773 -71.3896C369.136 -73.3571 369.67 -75.5132 371.15 -76.9505L410.384 -115.055C411.852 -116.481 412.39 -118.615 411.775 -120.572L396.138 -170.327C395.513 -172.317 396.08 -174.486 397.597 -175.909L438.885 -214.648C440.453 -216.12 441.001 -218.383 440.282 -220.415L420.601 -275.999" stroke="#22A6C3" stroke-width="10" stroke-dasharray="15 15"/>
<path d="M141.73 502.622L175.967 469.687C177.411 468.298 177.969 466.223 177.419 464.292L162.346 411.402C161.792 409.461 162.359 407.375 163.818 405.987L203.95 367.782C205.451 366.353 206.004 364.191 205.375 362.211L189.193 311.275C188.561 309.287 189.122 307.116 190.635 305.687L230.558 268.012C232.046 266.608 232.615 264.483 232.029 262.518L216.241 209.563C215.648 207.573 216.239 205.42 217.765 204.019L257.18 167.814C258.718 166.401 259.306 164.226 258.69 162.225L242.729 110.362C242.112 108.359 242.701 106.183 244.242 104.769L284.761 67.609C286.323 66.1769 286.905 63.9627 286.251 61.942L269.496 10.1459C268.847 8.14163 269.415 5.94535 270.951 4.51131L311.786 -33.6077C313.322 -35.0417 313.889 -37.238 313.241 -39.2423L296.452 -91.1416C295.815 -93.109 296.349 -95.2651 297.829 -96.7024L337.063 -134.807C338.531 -136.233 339.069 -138.367 338.454 -140.324L322.817 -190.079C322.192 -192.069 322.759 -194.238 324.276 -195.661L365.564 -234.4C367.132 -235.872 367.68 -238.135 366.961 -240.167L347.28 -295.751" stroke="#22A6C3" stroke-width="10" stroke-dasharray="15 15"/>
<path d="M68.4086 482.873L102.645 449.938C104.089 448.549 104.647 446.474 104.097 444.543L89.0236 391.653C88.4704 389.712 89.0375 387.626 90.4959 386.238L130.628 348.033C132.129 346.604 132.682 344.441 132.053 342.462L115.871 291.526C115.239 289.538 115.8 287.367 117.313 285.938L157.236 248.263C158.724 246.859 159.293 244.734 158.707 242.769L142.919 189.814C142.326 187.824 142.917 185.671 144.443 184.27L183.858 148.065C185.396 146.652 185.984 144.477 185.368 142.476L169.407 90.6131C168.79 88.6102 169.38 86.4335 170.92 85.0204L211.439 47.86C213.001 46.4279 213.583 44.2137 212.929 42.193L196.174 -9.60312C195.526 -11.6074 196.093 -13.8037 197.629 -15.2377L238.464 -53.3567C240 -54.7908 240.567 -56.987 239.919 -58.9913L223.13 -110.891C222.493 -112.858 223.027 -115.014 224.507 -116.451L263.741 -154.556C265.209 -155.982 265.747 -158.116 265.132 -160.073L249.495 -209.828C248.87 -211.818 249.437 -213.987 250.954 -215.41L292.242 -254.149C293.81 -255.621 294.359 -257.884 293.639 -259.916L273.958 -315.5" stroke="#22A6C3" stroke-width="10" stroke-dasharray="15 15"/>
<path d="M-4.91125 463.123L29.3253 430.188C30.7691 428.799 31.3275 426.724 30.7772 424.793L15.7038 371.903C15.1506 369.962 15.7177 367.876 17.1761 366.488L57.3084 328.283C58.8092 326.854 59.3625 324.691 58.7336 322.712L42.5508 271.776C41.9193 269.788 42.4799 267.617 43.9932 266.188L83.9164 228.513C85.4042 227.109 85.9732 224.984 85.3873 223.019L69.5992 170.064C69.0058 168.074 69.5975 165.921 71.1234 164.52L110.538 128.315C112.076 126.902 112.664 124.727 112.048 122.726L96.0871 70.8631C95.4706 68.8602 96.0597 66.6835 97.6005 65.2704L138.12 28.11C139.681 26.6779 140.263 24.4637 139.61 22.443L122.854 -29.3531C122.206 -31.3574 122.773 -33.5537 124.309 -34.9877L165.144 -73.1067C166.68 -74.5408 167.247 -76.737 166.599 -78.7413L149.81 -130.641C149.174 -132.608 149.708 -134.764 151.188 -136.201L190.421 -174.306C191.889 -175.732 192.428 -177.866 191.813 -179.823L176.175 -229.578C175.55 -231.568 176.117 -233.737 177.634 -235.16L218.922 -273.899C220.49 -275.371 221.039 -277.634 220.319 -279.666L200.638 -335.25" stroke="#22A6C3" stroke-width="10" stroke-dasharray="15 15"/>
<path d="M-78.2317 443.376L-43.9952 410.441C-42.5513 409.052 -41.9929 406.977 -42.5433 405.045L-57.6166 352.156C-58.1698 350.215 -57.6028 348.129 -56.1444 346.741L-16.0121 308.536C-14.5112 307.107 -13.9579 304.944 -14.5868 302.965L-30.7696 252.029C-31.4011 250.041 -30.8405 247.869 -29.3273 246.441L10.5959 208.766C12.0837 207.362 12.6527 205.237 12.0669 203.272L-3.72128 150.317C-4.31465 148.326 -3.72295 146.174 -2.19708 144.773L37.2174 108.568C38.756 107.155 39.3437 104.98 38.7277 102.978L22.7666 51.1161C22.1502 49.1131 22.7392 46.9364 24.2801 45.5233L64.7992 8.3629C66.3607 6.93082 66.9429 4.71664 66.2892 2.69591L49.5337 -49.1002C48.8853 -51.1045 49.4524 -53.3007 50.9887 -54.7348L91.8235 -92.8538C93.3597 -94.2878 93.9268 -96.4841 93.2784 -98.4884L76.4895 -150.388C75.8531 -152.355 76.3872 -154.511 77.8671 -155.949L117.101 -194.053C118.569 -195.479 119.107 -197.613 118.492 -199.57L102.855 -249.325C102.23 -251.315 102.797 -253.484 104.314 -254.907L145.602 -293.646C147.17 -295.118 147.718 -297.381 146.999 -299.413L127.318 -354.997" stroke="#22A6C3" stroke-width="10" stroke-dasharray="15 15"/>
</mask>
<g mask="url(#mask1_949_149)">
<rect width="822.06" height="730.806" transform="matrix(0.257554 -0.966264 0.965585 0.260089 -82.6262 432.648)" fill="white"/>
</g>
</g>
</svg>
