<svg width="2552" height="4880" viewBox="0 0 2552 4880" fill="none" xmlns="http://www.w3.org/2000/svg">
<mask id="mask0_800_123" style="mask-type:alpha" maskUnits="userSpaceOnUse" x="0" y="0" width="2552" height="4880">
<rect width="2552" height="4880" fill="#855959"/>
</mask>
<g mask="url(#mask0_800_123)">
<path opacity="0.3" d="M1913.75 995.403L2050.1 1074.12C2055.51 1077.25 2058.85 1083.03 2058.85 1089.28V1246.72C2058.85 1252.97 2055.51 1258.75 2050.1 1261.88L1913.75 1340.6C1908.34 1343.72 1901.66 1343.72 1896.25 1340.6L1759.9 1261.88C1754.49 1258.75 1751.15 1252.97 1751.15 1246.72V1089.28C1751.15 1083.03 1754.49 1077.25 1759.9 1074.12L1896.25 995.403C1901.66 992.277 1908.34 992.277 1913.75 995.403Z" fill="white" stroke="#4FE1F9" stroke-width="11"/>
<path opacity="0.3" d="M1011.75 757.403L1092.67 804.124C1098.09 807.25 1101.42 813.027 1101.42 819.279V912.721C1101.42 918.973 1098.09 924.75 1092.67 927.876L1011.75 974.597C1006.34 977.723 999.665 977.723 994.25 974.597L913.327 927.876C907.912 924.75 904.577 918.973 904.577 912.721V819.279C904.577 813.027 907.912 807.25 913.327 804.124L994.25 757.403C999.665 754.277 1006.34 754.277 1011.75 757.403Z" fill="white" stroke="#4FE1F9" stroke-width="11"/>
<path opacity="0.3" d="M811.25 1510.4L940.237 1584.87C945.652 1588 948.987 1593.78 948.987 1600.03V1748.97C948.987 1755.22 945.652 1761 940.237 1764.13L811.25 1838.6C805.835 1841.72 799.165 1841.72 793.75 1838.6L664.763 1764.13C659.348 1761 656.013 1755.22 656.013 1748.97V1600.03C656.013 1593.78 659.348 1588 664.763 1584.87L793.75 1510.4C799.165 1507.28 805.835 1507.28 811.25 1510.4Z" fill="white" stroke="#4FE1F9" stroke-width="11"/>
<path opacity="0.3" d="M549.25 1169.4L588.171 1191.87C593.585 1195 596.921 1200.78 596.921 1207.03V1251.97C596.921 1258.22 593.585 1264 588.171 1267.13L549.25 1289.6C543.835 1292.72 537.165 1292.72 531.75 1289.6L492.829 1267.13C487.415 1264 484.079 1258.22 484.079 1251.97V1207.03C484.079 1200.78 487.415 1195 492.829 1191.87L531.75 1169.4C537.165 1166.28 543.835 1166.28 549.25 1169.4Z" fill="white" stroke="#4FE1F9" stroke-width="11"/>
<path opacity="0.3" d="M376.75 349.403L443.817 388.124C449.231 391.25 452.567 397.027 452.567 403.279V480.721C452.567 486.973 449.231 492.75 443.817 495.876L376.75 534.597C371.335 537.723 364.665 537.723 359.25 534.597L292.183 495.876C286.769 492.75 283.433 486.973 283.433 480.721V403.279C283.433 397.027 286.769 391.25 292.183 388.124L359.25 349.403C364.665 346.277 371.335 346.277 376.75 349.403Z" fill="white" stroke="#4FE1F9" stroke-width="11"/>
<path opacity="0.3" d="M1325.25 1136.4L1357.24 1154.87C1362.66 1158 1365.99 1163.78 1365.99 1170.03V1206.97C1365.99 1213.22 1362.66 1219 1357.24 1222.13L1325.25 1240.6C1319.84 1243.72 1313.16 1243.72 1307.75 1240.6L1275.76 1222.13C1270.34 1219 1267.01 1213.22 1267.01 1206.97V1170.03C1267.01 1163.78 1270.34 1158 1275.76 1154.87L1307.75 1136.4C1313.16 1133.28 1319.84 1133.28 1325.25 1136.4Z" fill="white" stroke="#4FE1F9" stroke-width="11"/>
<path opacity="0.3" d="M25.75 1327.4L92.8167 1366.12C98.2312 1369.25 101.567 1375.03 101.567 1381.28V1458.72C101.567 1464.97 98.2312 1470.75 92.8167 1473.88L25.75 1512.6C20.3355 1515.72 13.6645 1515.72 8.25 1512.6L-58.8166 1473.88C-64.2312 1470.75 -67.5666 1464.97 -67.5666 1458.72V1381.28C-67.5666 1375.03 -64.2312 1369.25 -58.8166 1366.12L8.25 1327.4C13.6645 1324.28 20.3355 1324.28 25.75 1327.4Z" fill="white" stroke="#4FE1F9" stroke-width="11"/>
<path opacity="0.3" d="M1326.75 1970.4L1381.69 2002.12C1387.11 2005.25 1390.44 2011.03 1390.44 2017.28V2080.72C1390.44 2086.97 1387.11 2092.75 1381.69 2095.88L1326.75 2127.6C1321.34 2130.72 1314.66 2130.72 1309.25 2127.6L1254.31 2095.88C1248.89 2092.75 1245.56 2086.97 1245.56 2080.72V2017.28C1245.56 2011.03 1248.89 2005.25 1254.31 2002.12L1309.25 1970.4C1314.66 1967.28 1321.34 1967.28 1326.75 1970.4Z" fill="white" stroke="#4FE1F9" stroke-width="11"/>
<path opacity="0.3" d="M2389.75 1727.4L2444.69 1759.12C2450.11 1762.25 2453.44 1768.03 2453.44 1774.28V1837.72C2453.44 1843.97 2450.11 1849.75 2444.69 1852.88L2389.75 1884.6C2384.34 1887.72 2377.66 1887.72 2372.25 1884.6L2317.31 1852.88C2311.89 1849.75 2308.56 1843.97 2308.56 1837.72V1774.28C2308.56 1768.03 2311.89 1762.25 2317.31 1759.12L2372.25 1727.4C2377.66 1724.28 2384.34 1724.28 2389.75 1727.4Z" fill="white" stroke="#4FE1F9" stroke-width="11"/>
<path opacity="0.3" d="M1936.25 2161.4L1962.18 2176.37C1967.59 2179.5 1970.93 2185.28 1970.93 2191.53V2221.47C1970.93 2227.72 1967.59 2233.5 1962.18 2236.63L1936.25 2251.6C1930.84 2254.72 1924.16 2254.72 1918.75 2251.6L1892.82 2236.63C1887.41 2233.5 1884.07 2227.72 1884.07 2221.47V2191.53C1884.07 2185.28 1887.41 2179.5 1892.82 2176.37L1918.75 2161.4C1924.16 2158.28 1930.84 2158.28 1936.25 2161.4Z" fill="white" stroke="#4FE1F9" stroke-width="11"/>
<path opacity="0.3" d="M1675.25 1647.4L1752.28 1691.87C1757.69 1695 1761.03 1700.78 1761.03 1707.03V1795.97C1761.03 1802.22 1757.69 1808 1752.28 1811.13L1675.25 1855.6C1669.84 1858.72 1663.16 1858.72 1657.75 1855.6L1580.72 1811.13C1575.31 1808 1571.97 1802.22 1571.97 1795.97V1707.03C1571.97 1700.78 1575.31 1695 1580.72 1691.87L1657.75 1647.4C1663.16 1644.28 1669.84 1644.28 1675.25 1647.4Z" fill="white" stroke="#4FE1F9" stroke-width="11"/>
<path opacity="0.3" d="M2103.75 217.403L2158.69 249.124C2164.11 252.25 2167.44 258.027 2167.44 264.279V327.721C2167.44 333.973 2164.11 339.75 2158.69 342.876L2103.75 374.597C2098.34 377.723 2091.66 377.723 2086.25 374.597L2031.31 342.876C2025.89 339.75 2022.56 333.973 2022.56 327.721V264.279C2022.56 258.027 2025.89 252.25 2031.31 249.124L2086.25 217.403C2091.66 214.277 2098.34 214.277 2103.75 217.403Z" fill="white" stroke="#4FE1F9" stroke-width="11"/>
<path opacity="0.3" d="M1599.75 642.403L1654.69 674.124C1660.11 677.25 1663.44 683.027 1663.44 689.279V752.721C1663.44 758.973 1660.11 764.75 1654.69 767.876L1599.75 799.597C1594.34 802.723 1587.66 802.723 1582.25 799.597L1527.31 767.876C1521.89 764.75 1518.56 758.973 1518.56 752.721V689.279C1518.56 683.027 1521.89 677.25 1527.31 674.124L1582.25 642.403C1587.66 639.277 1594.34 639.277 1599.75 642.403Z" fill="white" stroke="#4FE1F9" stroke-width="11"/>
<path opacity="0.3" d="M1334.25 87.4027L1424.27 139.374C1429.68 142.5 1433.02 148.277 1433.02 154.529V258.471C1433.02 264.723 1429.68 270.5 1424.27 273.626L1334.25 325.597C1328.84 328.723 1322.16 328.723 1316.75 325.597L1226.73 273.626C1221.32 270.5 1217.98 264.723 1217.98 258.471V154.529C1217.98 148.277 1221.32 142.5 1226.73 139.374L1316.75 87.4027C1322.16 84.2766 1328.84 84.2766 1334.25 87.4027Z" fill="white" stroke="#4FE1F9" stroke-width="11"/>
<path opacity="0.3" d="M396.25 2102.4L514.845 2170.87C520.26 2174 523.595 2179.78 523.595 2186.03V2322.97C523.595 2329.22 520.26 2335 514.845 2338.13L396.25 2406.6C390.835 2409.72 384.165 2409.72 378.75 2406.6L260.155 2338.13C254.74 2335 251.405 2329.22 251.405 2322.97V2186.03C251.405 2179.78 254.74 2174 260.155 2170.87L378.75 2102.4C384.165 2099.28 390.835 2099.28 396.25 2102.4Z" fill="white" stroke="#4FE1F9" stroke-width="11"/>
<path opacity="0.3" d="M2141.75 3498.4L2278.1 3577.12C2283.51 3580.25 2286.85 3586.03 2286.85 3592.28V3749.72C2286.85 3755.97 2283.51 3761.75 2278.1 3764.88L2141.75 3843.6C2136.34 3846.72 2129.66 3846.72 2124.25 3843.6L1987.9 3764.88C1982.49 3761.75 1979.15 3755.97 1979.15 3749.72V3592.28C1979.15 3586.03 1982.49 3580.25 1987.9 3577.12L2124.25 3498.4C2129.66 3495.28 2136.34 3495.28 2141.75 3498.4Z" fill="white" stroke="#4FE1F9" stroke-width="11"/>
<path opacity="0.3" d="M847.75 4052.4L928.673 4099.12C934.088 4102.25 937.423 4108.03 937.423 4114.28V4207.72C937.423 4213.97 934.088 4219.75 928.673 4222.88L847.75 4269.6C842.335 4272.72 835.665 4272.72 830.25 4269.6L749.327 4222.88C743.912 4219.75 740.577 4213.97 740.577 4207.72V4114.28C740.577 4108.03 743.912 4102.25 749.327 4099.12L830.25 4052.4C835.665 4049.28 842.335 4049.28 847.75 4052.4Z" fill="white" stroke="#4FE1F9" stroke-width="11"/>
<path opacity="0.3" d="M1195.25 3457.4L1301.72 3518.87C1307.14 3522 1310.47 3527.78 1310.47 3534.03V3656.97C1310.47 3663.22 1307.14 3669 1301.72 3672.13L1195.25 3733.6C1189.84 3736.72 1183.16 3736.72 1177.75 3733.6L1071.28 3672.13C1065.86 3669 1062.53 3663.22 1062.53 3656.97V3534.03C1062.53 3527.78 1065.86 3522 1071.28 3518.87L1177.75 3457.4C1183.16 3454.28 1189.84 3454.28 1195.25 3457.4Z" fill="white" stroke="#4FE1F9" stroke-width="11"/>
<path opacity="0.3" d="M498.75 3107.4L582.271 3155.62C587.686 3158.75 591.021 3164.53 591.021 3170.78V3267.22C591.021 3273.47 587.686 3279.25 582.271 3282.38L498.75 3330.6C493.335 3333.72 486.665 3333.72 481.25 3330.6L397.729 3282.38C392.314 3279.25 388.979 3273.47 388.979 3267.22V3170.78C388.979 3164.53 392.314 3158.75 397.729 3155.62L481.25 3107.4C486.665 3104.28 493.335 3104.28 498.75 3107.4Z" fill="white" stroke="#4FE1F9" stroke-width="11"/>
<path opacity="0.3" d="M740.75 2651.4L807.817 2690.12C813.231 2693.25 816.567 2699.03 816.567 2705.28V2782.72C816.567 2788.97 813.231 2794.75 807.817 2797.88L740.75 2836.6C735.335 2839.72 728.665 2839.72 723.25 2836.6L656.183 2797.88C650.769 2794.75 647.433 2788.97 647.433 2782.72V2705.28C647.433 2699.03 650.769 2693.25 656.183 2690.12L723.25 2651.4C728.665 2648.28 735.335 2648.28 740.75 2651.4Z" fill="white" stroke="#4FE1F9" stroke-width="11"/>
<path opacity="0.3" d="M1865.75 3006.4L1932.82 3045.12C1938.23 3048.25 1941.57 3054.03 1941.57 3060.28V3137.72C1941.57 3143.97 1938.23 3149.75 1932.82 3152.88L1865.75 3191.6C1860.34 3194.72 1853.66 3194.72 1848.25 3191.6L1781.18 3152.88C1775.77 3149.75 1772.43 3143.97 1772.43 3137.72V3060.28C1772.43 3054.03 1775.77 3048.25 1781.18 3045.12L1848.25 3006.4C1853.66 3003.28 1860.34 3003.28 1865.75 3006.4Z" fill="white" stroke="#4FE1F9" stroke-width="11"/>
<path opacity="0.3" d="M112.75 3700.4L179.817 3739.12C185.231 3742.25 188.567 3748.03 188.567 3754.28V3831.72C188.567 3837.97 185.231 3843.75 179.817 3846.88L112.75 3885.6C107.335 3888.72 100.665 3888.72 95.25 3885.6L28.1834 3846.88C22.7688 3843.75 19.4334 3837.97 19.4334 3831.72V3754.28C19.4334 3748.03 22.7688 3742.25 28.1834 3739.12L95.25 3700.4C100.665 3697.28 107.335 3697.28 112.75 3700.4Z" fill="white" stroke="#4FE1F9" stroke-width="11"/>
<path opacity="0.3" d="M1413.75 4343.4L1468.69 4375.12C1474.11 4378.25 1477.44 4384.03 1477.44 4390.28V4453.72C1477.44 4459.97 1474.11 4465.75 1468.69 4468.88L1413.75 4500.6C1408.34 4503.72 1401.66 4503.72 1396.25 4500.6L1341.31 4468.88C1335.89 4465.75 1332.56 4459.97 1332.56 4453.72V4390.28C1332.56 4384.03 1335.89 4378.25 1341.31 4375.12L1396.25 4343.4C1401.66 4340.28 1408.34 4340.28 1413.75 4343.4Z" fill="white" stroke="#4FE1F9" stroke-width="11"/>
<path opacity="0.3" d="M2476.75 4100.4L2531.69 4132.12C2537.11 4135.25 2540.44 4141.03 2540.44 4147.28V4210.72C2540.44 4216.97 2537.11 4222.75 2531.69 4225.88L2476.75 4257.6C2471.34 4260.72 2464.66 4260.72 2459.25 4257.6L2404.31 4225.88C2398.89 4222.75 2395.56 4216.97 2395.56 4210.72V4147.28C2395.56 4141.03 2398.89 4135.25 2404.31 4132.12L2459.25 4100.4C2464.66 4097.28 2471.34 4097.28 2476.75 4100.4Z" fill="white" stroke="#4FE1F9" stroke-width="11"/>
<path opacity="0.3" d="M1964.25 4534.4L2041.28 4578.87C2046.69 4582 2050.03 4587.78 2050.03 4594.03V4682.97C2050.03 4689.22 2046.69 4695 2041.28 4698.13L1964.25 4742.6C1958.84 4745.72 1952.16 4745.72 1946.75 4742.6L1869.72 4698.13C1864.31 4695 1860.97 4689.22 1860.97 4682.97V4594.03C1860.97 4587.78 1864.31 4582 1869.72 4578.87L1946.75 4534.4C1952.16 4531.28 1958.84 4531.28 1964.25 4534.4Z" fill="white" stroke="#4FE1F9" stroke-width="11"/>
<path opacity="0.3" d="M1762.25 4020.4L1839.28 4064.87C1844.69 4068 1848.03 4073.78 1848.03 4080.03V4168.97C1848.03 4175.22 1844.69 4181 1839.28 4184.13L1762.25 4228.6C1756.84 4231.72 1750.16 4231.72 1744.75 4228.6L1667.72 4184.13C1662.31 4181 1658.97 4175.22 1658.97 4168.97V4080.03C1658.97 4073.78 1662.31 4068 1667.72 4064.87L1744.75 4020.4C1750.16 4017.28 1756.84 4017.28 1762.25 4020.4Z" fill="white" stroke="#4FE1F9" stroke-width="11"/>
<path opacity="0.3" d="M2190.75 2590.4L2245.69 2622.12C2251.11 2625.25 2254.44 2631.03 2254.44 2637.28V2700.72C2254.44 2706.97 2251.11 2712.75 2245.69 2715.88L2190.75 2747.6C2185.34 2750.72 2178.66 2750.72 2173.25 2747.6L2118.31 2715.88C2112.89 2712.75 2109.56 2706.97 2109.56 2700.72V2637.28C2109.56 2631.03 2112.89 2625.25 2118.31 2622.12L2173.25 2590.4C2178.66 2587.28 2185.34 2587.28 2190.75 2590.4Z" fill="white" stroke="#4FE1F9" stroke-width="11"/>
<path opacity="0.3" d="M1194.75 2940.4L1249.69 2972.12C1255.11 2975.25 1258.44 2981.03 1258.44 2987.28V3050.72C1258.44 3056.97 1255.11 3062.75 1249.69 3065.88L1194.75 3097.6C1189.34 3100.72 1182.66 3100.72 1177.25 3097.6L1122.31 3065.88C1116.89 3062.75 1113.56 3056.97 1113.56 3050.72V2987.28C1113.56 2981.03 1116.89 2975.25 1122.31 2972.12L1177.25 2940.4C1182.66 2937.28 1189.34 2937.28 1194.75 2940.4Z" fill="white" stroke="#4FE1F9" stroke-width="11"/>
<path opacity="0.3" d="M1421.25 2460.4L1511.27 2512.37C1516.68 2515.5 1520.02 2521.28 1520.02 2527.53V2631.47C1520.02 2637.72 1516.68 2643.5 1511.27 2646.63L1421.25 2698.6C1415.84 2701.72 1409.16 2701.72 1403.75 2698.6L1313.73 2646.63C1308.32 2643.5 1304.98 2637.72 1304.98 2631.47V2527.53C1304.98 2521.28 1308.32 2515.5 1313.73 2512.37L1403.75 2460.4C1409.16 2457.28 1415.84 2457.28 1421.25 2460.4Z" fill="white" stroke="#4FE1F9" stroke-width="11"/>
<path opacity="0.3" d="M483.25 4475.4L601.845 4543.87C607.26 4547 610.595 4552.78 610.595 4559.03V4695.97C610.595 4702.22 607.26 4708 601.845 4711.13L483.25 4779.6C477.835 4782.72 471.165 4782.72 465.75 4779.6L347.155 4711.13C341.74 4708 338.405 4702.22 338.405 4695.97V4559.03C338.405 4552.78 341.74 4547 347.155 4543.87L465.75 4475.4C471.165 4472.28 477.835 4472.28 483.25 4475.4Z" fill="white" stroke="#4FE1F9" stroke-width="11"/>
</g>
</svg>
