<svg width="1887" height="497" viewBox="0 0 1887 497" fill="none" xmlns="http://www.w3.org/2000/svg">
<mask id="mask0_802_213" style="mask-type:alpha" maskUnits="userSpaceOnUse" x="0" y="0" width="1887" height="497">
<rect width="1887" height="497" fill="#D9D9D9"/>
</mask>
<g mask="url(#mask0_802_213)">
<rect y="423" width="1890" height="75" fill="#4FE1F9"/>
<path d="M-0.775077 0.151864L1888.47 247.636L1888.47 310.652L-0.774959 58.6523L-0.775077 0.151864Z" fill="#4FE1F9"/>
<mask id="mask1_802_213" style="mask-type:alpha" maskUnits="userSpaceOnUse" x="-1" y="5" width="1890" height="422">
<path d="M1888.73 253.428L-0.274902 5.81543V426.153L1888.73 425.745V253.428Z" fill="#D9D9D9"/>
</mask>
<g mask="url(#mask1_802_213)">
<path d="M1888.66 425.745V247.791L-0.341217 6.22266V425.745H1888.66Z" fill="#1A849C"/>
<mask id="mask2_802_213" style="mask-type:alpha" maskUnits="userSpaceOnUse" x="-300" y="-335" width="740" height="829">
<path d="M200.864 489.728L231.96 459.408C233.357 458.046 233.967 456.138 233.572 454.367L223.438 408.908C223.041 407.128 223.66 405.21 225.07 403.847L261.402 368.75C262.854 367.348 263.464 365.359 262.999 363.542L251.821 319.866C251.354 318.042 251.971 316.045 253.434 314.642L289.555 280.022C290.993 278.643 291.615 276.688 291.19 274.885L280.45 229.412C280.019 227.586 280.663 225.606 282.138 224.226L317.734 190.922C319.221 189.53 319.863 187.529 319.412 185.692L308.47 141.193C308.018 139.354 308.661 137.351 310.151 135.96L346.744 101.771C348.255 100.36 348.893 98.3235 348.407 96.4677L336.785 52.0698C336.304 50.2294 336.927 48.2097 338.413 46.7993L375.334 11.7544C376.82 10.344 377.444 8.32433 376.962 6.48394L365.315 -38.0076C364.842 -39.8135 365.434 -41.7951 366.866 -43.2037L402.423 -78.1715C403.844 -79.5687 404.438 -81.5306 403.985 -83.3266L393.213 -125.994C392.752 -127.82 393.374 -129.815 394.841 -131.214L432.184 -166.821C433.702 -168.268 434.311 -170.349 433.765 -172.216L419.791 -219.95" stroke="#22A6C3" stroke-width="10" stroke-dasharray="15 15"/>
<path d="M138.785 475.674L169.881 445.354C171.277 443.992 171.887 442.084 171.492 440.313L161.358 394.854C160.961 393.074 161.58 391.155 162.99 389.793L199.323 354.696C200.774 353.294 201.384 351.305 200.919 349.488L189.741 305.812C189.274 303.987 189.891 301.991 191.355 300.588L227.475 265.968C228.913 264.589 229.536 262.634 229.11 260.831L218.37 215.358C217.939 213.532 218.583 211.551 220.058 210.171L255.654 176.868C257.142 175.476 257.783 173.475 257.332 171.637L246.391 127.139C245.938 125.3 246.582 123.297 248.071 121.906L284.665 87.7168C286.175 86.3059 286.813 84.2693 286.327 82.4135L274.705 38.0156C274.224 36.1752 274.848 34.1555 276.333 32.7451L313.254 -2.29979C314.74 -3.71023 315.364 -5.72987 314.882 -7.57026L303.235 -52.0618C302.763 -53.8677 303.354 -55.8493 304.786 -57.2579L340.343 -92.2257C341.764 -93.6229 342.358 -95.5848 341.905 -97.3808L331.133 -140.048C330.672 -141.874 331.294 -143.869 332.762 -145.268L370.104 -180.875C371.622 -182.323 372.232 -184.403 371.685 -186.27L357.711 -234.004" stroke="#22A6C3" stroke-width="10" stroke-dasharray="15 15"/>
<path d="M76.7041 461.621L107.8 431.3C109.196 429.939 109.806 428.031 109.412 426.259L99.2776 380.801C98.8807 379.02 99.4992 377.102 100.909 375.74L137.242 340.643C138.694 339.24 139.303 337.252 138.838 335.435L127.661 291.759C127.194 289.934 127.81 287.937 129.274 286.534L165.394 251.914C166.833 250.536 167.455 248.581 167.029 246.778L156.29 201.305C155.858 199.478 156.503 197.498 157.978 196.118L193.574 162.814C195.061 161.423 195.703 159.422 195.251 157.584L184.31 113.085C183.858 111.247 184.501 109.244 185.991 107.852L222.584 73.6635C224.094 72.2527 224.733 70.2161 224.247 68.3603L212.625 23.9624C212.143 22.122 212.767 20.1023 214.253 18.6919L251.173 -16.353C252.659 -17.7634 253.283 -19.7831 252.801 -21.6235L241.155 -66.115C240.682 -67.921 241.274 -69.9025 242.706 -71.3111L278.263 -106.279C279.683 -107.676 280.278 -109.638 279.824 -111.434L269.052 -154.101C268.591 -155.927 269.214 -157.922 270.681 -159.321L308.023 -194.929C309.541 -196.376 310.151 -198.456 309.604 -200.324L295.631 -248.057" stroke="#22A6C3" stroke-width="10" stroke-dasharray="15 15"/>
<path d="M14.6245 447.566L45.7205 417.246C47.1167 415.884 47.7268 413.976 47.3319 412.205L37.198 366.746C36.8011 364.966 37.4196 363.047 38.8297 361.685L75.1624 326.588C76.6143 325.186 77.2238 323.197 76.7588 321.38L65.581 277.704C65.1141 275.88 65.7307 273.883 67.1945 272.48L103.315 237.86C104.753 236.481 105.375 234.526 104.95 232.723L94.2101 187.25C93.7787 185.424 94.4231 183.443 95.8981 182.063L131.494 148.76C132.981 147.368 133.623 145.367 133.172 143.53L122.23 99.0307C121.778 97.1919 122.421 95.1893 123.911 93.7976L160.504 59.6088C162.015 58.198 162.653 56.1614 162.167 54.3056L150.545 9.90767C150.064 8.06728 150.687 6.04764 152.173 4.63721L189.094 -30.4077C190.58 -31.8181 191.204 -33.8378 190.722 -35.6782L179.075 -80.1697C178.603 -81.9756 179.194 -83.9572 180.626 -85.3658L216.183 -120.334C217.604 -121.731 218.198 -123.693 217.745 -125.489L206.973 -168.156C206.512 -169.982 207.134 -171.977 208.601 -173.376L245.944 -208.983C247.462 -210.431 248.071 -212.511 247.525 -214.378L233.551 -262.112" stroke="#22A6C3" stroke-width="10" stroke-dasharray="15 15"/>
<path d="M-47.4556 433.513L-16.3596 403.192C-14.9633 401.831 -14.3533 399.922 -14.7482 398.151L-24.8821 352.692C-25.2789 350.912 -24.6605 348.994 -23.2504 347.632L13.0823 312.535C14.5342 311.132 15.1437 309.144 14.6787 307.327L3.50097 263.651C3.03397 261.826 3.65061 259.829 5.11438 258.426L41.2345 223.806C42.6732 222.427 43.2953 220.472 42.8695 218.669L32.13 173.197C31.6986 171.37 32.343 169.39 33.818 168.01L69.4139 134.706C70.9014 133.314 71.5432 131.313 71.0915 129.476L60.1503 84.977C59.6982 83.1382 60.3413 81.1356 61.8309 79.7439L98.4244 45.5551C99.9344 44.1443 100.573 42.1077 100.087 40.2519L88.4652 -4.14604C87.9835 -5.98643 88.6073 -8.00607 90.0932 -9.4165L127.014 -44.4614C128.5 -45.8718 129.123 -47.8915 128.642 -49.7319L116.995 -94.2234C116.522 -96.0294 117.114 -98.0109 118.546 -99.4195L154.103 -134.387C155.524 -135.784 156.118 -137.746 155.665 -139.542L144.893 -182.209C144.432 -184.035 145.054 -186.03 146.521 -187.429L183.864 -223.037C185.382 -224.484 185.991 -226.565 185.445 -228.432L171.471 -276.166" stroke="#22A6C3" stroke-width="10" stroke-dasharray="15 15"/>
<path d="M-109.536 419.457L-78.4397 389.137C-77.0434 387.775 -76.4334 385.867 -76.8282 384.096L-86.9621 338.637C-87.359 336.857 -86.7405 334.939 -85.3304 333.576L-48.9978 298.479C-47.5458 297.077 -46.9363 295.088 -47.4014 293.271L-58.5791 249.595C-59.0461 247.771 -58.4295 245.774 -56.9657 244.371L-20.8456 209.751C-19.4069 208.372 -18.7847 206.417 -19.2106 204.614L-29.9501 159.141C-30.3815 157.315 -29.737 155.335 -28.2621 153.955L7.33383 120.651C8.82132 119.259 9.46315 117.258 9.01138 115.421L-1.92981 70.9218C-2.38192 69.083 -1.73876 67.0804 -0.249141 65.6887L36.3443 31.5C37.8544 30.0891 38.493 28.0525 38.0072 26.1967L26.3852 -18.2012C25.9034 -20.0416 26.5273 -22.0612 28.0132 -23.4717L64.9336 -58.5166C66.4195 -59.927 67.0434 -61.9467 66.5616 -63.7871L54.9151 -108.279C54.4423 -110.085 55.0338 -112.066 56.4661 -113.475L92.023 -148.442C93.4437 -149.84 94.038 -151.802 93.5846 -153.598L82.8127 -196.265C82.3517 -198.091 82.9741 -200.086 84.4412 -201.485L121.784 -237.092C123.302 -238.539 123.911 -240.62 123.365 -242.487L109.391 -290.221" stroke="#22A6C3" stroke-width="10" stroke-dasharray="15 15"/>
<path d="M-171.617 405.404L-140.521 375.083C-139.124 373.722 -138.514 371.813 -138.909 370.042L-149.043 324.583C-149.44 322.803 -148.822 320.885 -147.411 319.523L-111.079 284.426C-109.627 283.023 -109.017 281.035 -109.482 279.218L-120.66 235.542C-121.127 233.717 -120.511 231.72 -119.047 230.317L-82.9267 195.697C-81.488 194.318 -80.8658 192.364 -81.2916 190.56L-92.0311 145.088C-92.4625 143.261 -91.8181 141.281 -90.3431 139.901L-54.7472 106.597C-53.2597 105.205 -52.6179 103.204 -53.0697 101.367L-64.0109 56.8681C-64.463 55.0293 -63.8198 53.0267 -62.3302 51.635L-25.7367 17.4462C-24.2267 16.0354 -23.5881 13.9988 -24.0739 12.143L-35.6959 -32.2549C-36.1777 -34.0953 -35.5538 -36.115 -34.0679 -37.5254L2.85255 -72.5703C4.33846 -73.9807 4.96231 -76.0004 4.48055 -77.8408L-7.16596 -122.332C-7.63871 -124.138 -7.04721 -126.12 -5.61491 -127.528L29.9419 -162.496C31.3627 -163.893 31.957 -165.855 31.5035 -167.651L20.7316 -210.318C20.2706 -212.144 20.893 -214.139 22.3602 -215.538L59.7026 -251.146C61.2205 -252.593 61.8301 -254.674 61.2835 -256.541L47.3101 -304.274" stroke="#22A6C3" stroke-width="10" stroke-dasharray="15 15"/>
<path d="M-233.696 391.35L-202.6 361.029C-201.204 359.667 -200.594 357.759 -200.989 355.988L-211.123 310.529C-211.52 308.749 -210.901 306.831 -209.491 305.468L-173.158 270.372C-171.706 268.969 -171.097 266.981 -171.562 265.163L-182.74 221.488C-183.207 219.663 -182.59 217.666 -181.126 216.263L-145.006 181.643C-143.568 180.264 -142.945 178.309 -143.371 176.506L-154.111 131.034C-154.542 129.207 -153.898 127.227 -152.423 125.847L-116.827 92.5429C-115.339 91.1512 -114.697 89.1501 -115.149 87.3127L-126.09 42.8139C-126.543 40.9751 -125.899 38.9725 -124.41 37.5808L-87.8163 3.39204C-86.3063 1.98123 -85.6677 -0.0554307 -86.1535 -1.91123L-97.7755 -46.3091C-98.2572 -48.1495 -97.6334 -50.1692 -96.1475 -51.5796L-59.227 -86.6245C-57.7411 -88.0349 -57.1173 -90.0546 -57.599 -91.895L-69.2455 -136.386C-69.7183 -138.192 -69.1268 -140.174 -67.6945 -141.583L-32.1377 -176.55C-30.7169 -177.948 -30.1226 -179.91 -30.5761 -181.706L-41.348 -224.372C-41.809 -226.199 -41.1866 -228.193 -39.7194 -229.592L-2.37694 -265.2C-0.859044 -266.647 -0.249453 -268.728 -0.796076 -270.595L-14.7695 -318.329" stroke="#22A6C3" stroke-width="10" stroke-dasharray="15 15"/>
</mask>
<g mask="url(#mask2_802_213)">
<rect width="741.077" height="612.59" transform="matrix(0.302303 -0.953212 0.975319 0.2208 -298.995 368.081)" fill="white"/>
</g>
<mask id="mask3_802_213" style="mask-type:alpha" maskUnits="userSpaceOnUse" x="186" y="-225" width="450" height="763">
<path d="M395.465 533.779L428.451 504.09C430.031 502.668 430.702 500.57 430.185 498.667L417.804 453.113C417.284 451.201 417.965 449.092 419.56 447.67L457.952 413.453C459.594 411.99 460.263 409.804 459.665 407.858L446.208 364.073C445.607 362.118 446.284 359.923 447.939 358.461L486.109 324.721C487.736 323.282 488.42 321.134 487.867 319.199L474.828 273.622C474.268 271.664 474.977 269.487 476.643 268.051L514.277 235.618C515.957 234.17 516.663 231.971 516.079 230.002L502.855 185.403C502.27 183.433 502.978 181.232 504.66 179.784L543.355 146.486C545.061 145.018 545.762 142.78 545.139 140.794L531.177 96.2776C530.559 94.3077 531.244 92.0881 532.923 90.6192L571.95 56.4718C573.629 55.0029 574.314 52.7833 573.696 50.8133L559.702 6.19458C559.095 4.26059 559.744 2.08217 561.364 0.610851L598.906 -33.4834C600.514 -34.9432 601.166 -37.1002 600.581 -39.0251L587.598 -81.7864C587.004 -83.7426 587.688 -85.9353 589.346 -87.3932L628.816 -122.094C630.53 -123.6 631.197 -125.886 630.505 -127.88L613.8 -176.033" stroke="#22A6C3" stroke-width="10" stroke-dasharray="15 15"/>
<path d="M326.968 518.272L359.954 488.584C361.535 487.161 362.206 485.063 361.689 483.16L349.307 437.606C348.787 435.694 349.468 433.585 351.063 432.163L389.456 397.946C391.097 396.483 391.766 394.297 391.168 392.351L377.711 348.566C377.11 346.611 377.787 344.417 379.442 342.954L417.612 309.214C419.239 307.776 419.923 305.627 419.37 303.692L406.331 258.116C405.771 256.157 406.48 253.98 408.147 252.544L445.78 220.111C447.461 218.663 448.166 216.464 447.582 214.495L434.358 169.896C433.774 167.926 434.481 165.725 436.164 164.277L474.859 130.979C476.564 129.512 477.265 127.274 476.642 125.288L462.68 80.7708C462.063 78.8009 462.747 76.5812 464.426 75.1123L503.453 40.965C505.132 39.4961 505.817 37.2764 505.199 35.3065L491.205 -9.31226C490.599 -11.2463 491.247 -13.4247 492.867 -14.896L530.41 -48.9903C532.017 -50.45 532.669 -52.6071 532.085 -54.5319L519.102 -97.2932C518.508 -99.2494 519.191 -101.442 520.849 -102.9L560.319 -137.6C562.033 -139.107 562.7 -141.393 562.008 -143.387L545.303 -191.54" stroke="#22A6C3" stroke-width="10" stroke-dasharray="15 15"/>
<path d="M258.472 502.765L291.458 473.077C293.039 471.654 293.71 469.556 293.193 467.653L280.811 422.099C280.291 420.187 280.972 418.078 282.567 416.656L320.96 382.439C322.601 380.976 323.27 378.79 322.672 376.844L309.215 333.059C308.615 331.105 309.291 328.91 310.946 327.447L349.116 293.707C350.743 292.269 351.427 290.12 350.874 288.186L337.835 242.609C337.275 240.65 337.984 238.473 339.651 237.037L377.284 204.604C378.965 203.156 379.67 200.957 379.086 198.988L365.862 154.389C365.278 152.419 365.985 150.218 367.668 148.77L406.363 115.472C408.068 114.005 408.769 111.767 408.146 109.781L394.184 65.264C393.567 63.294 394.251 61.0744 395.93 59.6055L434.957 25.4581C436.636 23.9892 437.321 21.7696 436.703 19.7997L422.709 -24.8191C422.103 -26.7531 422.751 -28.9315 424.371 -30.4028L461.914 -64.4971C463.521 -65.9569 464.173 -68.1139 463.589 -70.0387L450.606 -112.8C450.012 -114.756 450.695 -116.949 452.353 -118.407L491.823 -153.107C493.537 -154.614 494.204 -156.9 493.513 -158.893L476.807 -207.047" stroke="#22A6C3" stroke-width="10" stroke-dasharray="15 15"/>
<path d="M189.977 487.26L222.963 457.572C224.543 456.15 225.214 454.051 224.697 452.149L212.315 406.594C211.795 404.682 212.476 402.573 214.072 401.151L252.464 366.934C254.106 365.471 254.775 363.286 254.176 361.339L240.719 317.554C240.119 315.6 240.796 313.405 242.45 311.942L280.62 278.202C282.247 276.764 282.931 274.615 282.378 272.681L269.34 227.104C268.779 225.145 269.488 222.969 271.155 221.532L308.788 189.1C310.469 187.651 311.175 185.452 310.591 183.483L297.366 138.885C296.782 136.914 297.489 134.713 299.172 133.266L337.867 99.9672C339.572 98.4999 340.273 96.2619 339.651 94.2759L325.689 49.7591C325.071 47.7891 325.756 45.5695 327.434 44.1006L366.461 9.95324C368.14 8.48434 368.825 6.26471 368.207 4.29477L354.213 -40.324C353.607 -42.258 354.255 -44.4364 355.875 -45.9077L393.418 -80.002C395.025 -81.4617 395.677 -83.6188 395.093 -85.5436L382.11 -128.305C381.516 -130.261 382.199 -132.454 383.858 -133.912L423.327 -168.612C425.041 -170.119 425.708 -172.405 425.017 -174.398L408.311 -222.552" stroke="#22A6C3" stroke-width="10" stroke-dasharray="15 15"/>
</mask>
<g mask="url(#mask3_802_213)">
<rect width="741.583" height="481.748" transform="matrix(0.302303 -0.953212 0.975319 0.2208 229.828 483.533)" fill="white"/>
</g>
<mask id="mask4_802_213" style="mask-type:alpha" maskUnits="userSpaceOnUse" x="450" y="-150" width="739" height="828">
<path d="M950.446 674.269L981.542 643.948C982.938 642.587 983.548 640.679 983.154 638.907L973.02 593.449C972.623 591.668 973.241 589.75 974.651 588.388L1010.98 553.291C1012.44 551.888 1013.05 549.9 1012.58 548.083L1001.4 504.407C1000.94 502.582 1001.55 500.585 1003.02 499.182L1039.14 464.562C1040.57 463.183 1041.2 461.229 1040.77 459.426L1030.03 413.953C1029.6 412.126 1030.24 410.146 1031.72 408.766L1067.32 375.462C1068.8 374.071 1069.44 372.07 1068.99 370.232L1058.05 325.733C1057.6 323.895 1058.24 321.892 1059.73 320.5L1096.33 286.311C1097.84 284.901 1098.47 282.864 1097.99 281.008L1086.37 236.61C1085.89 234.77 1086.51 232.75 1087.99 231.34L1124.92 196.295C1126.4 194.885 1127.03 192.865 1126.54 191.024L1114.9 146.533C1114.42 144.727 1115.02 142.745 1116.45 141.337L1152 106.369C1153.43 104.972 1154.02 103.01 1153.57 101.214L1142.79 58.5469C1142.33 56.7209 1142.96 54.726 1144.42 53.327L1181.77 17.7194C1183.28 16.272 1183.89 14.1917 1183.35 12.3244L1169.37 -35.4093" stroke="#22A6C3" stroke-width="10" stroke-dasharray="15 15"/>
<path d="M888.367 660.215L919.463 629.895C920.859 628.533 921.469 626.625 921.074 624.854L910.94 579.395C910.543 577.615 911.162 575.696 912.572 574.334L948.905 539.237C950.357 537.835 950.966 535.846 950.501 534.029L939.323 490.353C938.856 488.528 939.473 486.532 940.937 485.129L977.057 450.509C978.495 449.13 979.118 447.175 978.692 445.372L967.952 399.899C967.521 398.073 968.165 396.092 969.64 394.712L1005.24 361.409C1006.72 360.017 1007.37 358.016 1006.91 356.178L995.973 311.68C995.52 309.841 996.164 307.838 997.653 306.447L1034.25 272.258C1035.76 270.847 1036.4 268.81 1035.91 266.954L1024.29 222.557C1023.81 220.716 1024.43 218.697 1025.92 217.286L1062.84 182.241C1064.32 180.831 1064.95 178.811 1064.46 176.971L1052.82 132.479C1052.34 130.673 1052.94 128.692 1054.37 127.283L1089.93 92.3153C1091.35 90.9182 1091.94 88.9562 1091.49 87.1602L1080.72 44.4932C1080.25 42.6672 1080.88 40.6723 1082.34 39.2732L1119.69 3.66571C1121.2 2.21833 1121.81 0.137983 1121.27 -1.7293L1107.29 -49.463" stroke="#22A6C3" stroke-width="10" stroke-dasharray="15 15"/>
<path d="M826.286 646.163L857.382 615.842C858.778 614.48 859.388 612.572 858.993 610.801L848.859 565.342C848.463 563.562 849.081 561.644 850.491 560.281L886.824 525.185C888.276 523.782 888.885 521.794 888.42 519.976L877.242 476.3C876.775 474.476 877.392 472.479 878.856 471.076L914.976 436.456C916.415 435.077 917.037 433.122 916.611 431.319L905.871 385.846C905.44 384.02 906.084 382.04 907.559 380.66L943.155 347.356C944.643 345.964 945.285 343.963 944.833 342.126L933.892 297.627C933.44 295.788 934.083 293.786 935.572 292.394L972.166 258.205C973.676 256.794 974.314 254.758 973.829 252.902L962.207 208.504C961.725 206.663 962.349 204.644 963.835 203.233L1000.76 168.188C1002.24 166.778 1002.86 164.758 1002.38 162.918L990.737 118.427C990.264 116.621 990.855 114.639 992.288 113.23L1027.84 78.2626C1029.27 76.8654 1029.86 74.9035 1029.41 73.1075L1018.63 30.4405C1018.17 28.6145 1018.8 26.6195 1020.26 25.2205L1057.61 -10.387C1059.12 -11.8344 1059.73 -13.9148 1059.19 -15.782L1045.21 -63.5157" stroke="#22A6C3" stroke-width="10" stroke-dasharray="15 15"/>
<path d="M764.206 632.107L795.302 601.787C796.699 600.425 797.309 598.517 796.914 596.746L786.78 551.287C786.383 549.507 787.002 547.588 788.412 546.226L824.744 511.129C826.196 509.727 826.806 507.738 826.341 505.921L815.163 462.245C814.696 460.421 815.313 458.424 816.776 457.021L852.896 422.401C854.335 421.022 854.957 419.067 854.531 417.264L843.792 371.791C843.361 369.965 844.005 367.984 845.48 366.604L881.076 333.301C882.563 331.909 883.205 329.908 882.753 328.071L871.812 283.572C871.36 281.733 872.003 279.73 873.493 278.339L910.086 244.15C911.596 242.739 912.235 240.702 911.749 238.847L900.127 194.449C899.645 192.608 900.269 190.589 901.755 189.178L938.676 154.133C940.162 152.723 940.785 150.703 940.304 148.863L928.657 104.371C928.184 102.565 928.776 100.584 930.208 99.1752L965.765 64.2074C967.186 62.8102 967.78 60.8483 967.327 59.0523L956.555 16.3853C956.094 14.5593 956.716 12.5644 958.183 11.1653L995.526 -24.4422C997.044 -25.8896 997.653 -27.9699 997.107 -29.8372L983.133 -77.5709" stroke="#22A6C3" stroke-width="10" stroke-dasharray="15 15"/>
<path d="M702.126 618.054L733.222 587.733C734.618 586.372 735.228 584.464 734.834 582.692L724.7 537.234C724.303 535.453 724.921 533.535 726.331 532.173L762.664 497.076C764.116 495.674 764.725 493.685 764.26 491.868L753.083 448.192C752.616 446.367 753.232 444.371 754.696 442.968L790.816 408.348C792.255 406.969 792.877 405.014 792.451 403.211L781.712 357.738C781.28 355.911 781.925 353.931 783.4 352.551L818.996 319.248C820.483 317.856 821.125 315.855 820.673 314.017L809.732 269.518C809.28 267.68 809.923 265.677 811.413 264.285L848.006 230.097C849.516 228.686 850.155 226.649 849.669 224.793L838.047 180.395C837.565 178.555 838.189 176.535 839.675 175.125L876.595 140.08C878.081 138.67 878.705 136.65 878.223 134.81L866.577 90.3181C866.104 88.5121 866.696 86.5306 868.128 85.122L903.685 50.1542C905.105 48.757 905.7 46.7951 905.246 44.9991L894.474 2.3321C894.013 0.506062 894.636 -1.48887 896.103 -2.88789L933.445 -38.4954C934.963 -39.9428 935.573 -42.0231 935.026 -43.8904L921.053 -91.6241" stroke="#22A6C3" stroke-width="10" stroke-dasharray="15 15"/>
<path d="M640.046 603.998L671.142 573.678C672.538 572.316 673.148 570.408 672.753 568.637L662.619 523.178C662.222 521.398 662.841 519.48 664.251 518.117L700.584 483.02C702.036 481.618 702.645 479.63 702.18 477.812L691.002 434.136C690.535 432.312 691.152 430.315 692.616 428.912L728.736 394.292C730.174 392.913 730.797 390.958 730.371 389.155L719.631 343.682C719.2 341.856 719.844 339.876 721.319 338.496L756.915 305.192C758.403 303.8 759.045 301.799 758.593 299.962L747.652 255.463C747.2 253.624 747.843 251.621 749.332 250.23L785.926 216.041C787.436 214.63 788.074 212.593 787.589 210.738L775.967 166.34C775.485 164.499 776.109 162.48 777.595 161.069L814.515 126.024C816.001 124.614 816.625 122.594 816.143 120.754L804.497 76.2625C804.024 74.4565 804.615 72.4749 806.048 71.0663L841.604 36.0985C843.025 34.7014 843.619 32.7394 843.166 30.9434L832.394 -11.7236C831.933 -13.5496 832.555 -15.5445 834.023 -16.9436L871.365 -52.5511C872.883 -53.9985 873.493 -56.0788 872.946 -57.9461L858.973 -105.68" stroke="#22A6C3" stroke-width="10" stroke-dasharray="15 15"/>
<path d="M577.965 589.944L609.061 559.624C610.457 558.262 611.067 556.354 610.672 554.583L600.538 509.124C600.142 507.344 600.76 505.425 602.17 504.063L638.503 468.966C639.955 467.564 640.564 465.575 640.099 463.758L628.921 420.082C628.455 418.257 629.071 416.261 630.535 414.858L666.655 380.238C668.094 378.859 668.716 376.904 668.29 375.101L657.551 329.628C657.119 327.802 657.764 325.821 659.239 324.441L694.834 291.138C696.322 289.746 696.964 287.745 696.512 285.907L685.571 241.409C685.119 239.57 685.762 237.567 687.251 236.176L723.845 201.987C725.355 200.576 725.994 198.539 725.508 196.683L713.886 152.286C713.404 150.445 714.028 148.426 715.514 147.015L752.434 111.97C753.92 110.56 754.544 108.54 754.062 106.7L742.416 62.2083C741.943 60.4023 742.534 58.4207 743.967 57.0122L779.524 22.0443C780.944 20.6472 781.539 18.6852 781.085 16.8892L770.313 -25.7778C769.852 -27.6038 770.475 -29.5987 771.942 -30.9978L809.284 -66.6053C810.802 -68.0527 811.412 -70.133 810.865 -72.0003L796.892 -119.734" stroke="#22A6C3" stroke-width="10" stroke-dasharray="15 15"/>
<path d="M515.885 575.89L546.981 545.569C548.378 544.208 548.988 542.3 548.593 540.528L538.459 495.07C538.062 493.289 538.681 491.371 540.091 490.009L576.423 454.912C577.875 453.51 578.485 451.521 578.02 449.704L566.842 406.028C566.375 404.203 566.992 402.207 568.455 400.804L604.576 366.183C606.014 364.805 606.636 362.85 606.211 361.047L595.471 315.574C595.04 313.747 595.684 311.767 597.159 310.387L632.755 277.083C634.242 275.692 634.884 273.691 634.433 271.853L623.491 227.354C623.039 225.516 623.682 223.513 625.172 222.121L661.765 187.933C663.276 186.522 663.914 184.485 663.428 182.629L651.806 138.231C651.325 136.391 651.948 134.371 653.434 132.961L690.355 97.916C691.841 96.5056 692.465 94.486 691.983 92.6456L680.336 48.1541C679.863 46.3481 680.455 44.3665 681.887 42.958L717.444 7.99014C718.865 6.59296 719.459 4.63103 719.006 2.835L708.234 -39.832C707.773 -41.658 708.395 -43.6529 709.862 -45.052L747.205 -80.6595C748.723 -82.1069 749.332 -84.1872 748.786 -86.0545L734.812 -133.788" stroke="#22A6C3" stroke-width="10" stroke-dasharray="15 15"/>
<path d="M453.806 561.838L484.902 531.517C486.298 530.156 486.908 528.247 486.514 526.476L476.38 481.017C475.983 479.237 476.601 477.319 478.011 475.957L514.344 440.86C515.796 439.457 516.405 437.469 515.94 435.652L504.763 391.976C504.296 390.151 504.912 388.154 506.376 386.751L542.496 352.131C543.935 350.752 544.557 348.798 544.131 346.995L533.392 301.522C532.96 299.695 533.605 297.715 535.08 296.335L570.676 263.031C572.163 261.64 572.805 259.638 572.353 257.801L561.412 213.302C560.96 211.463 561.603 209.461 563.093 208.069L599.686 173.88C601.196 172.47 601.835 170.433 601.349 168.577L589.727 124.179C589.245 122.339 589.869 120.319 591.355 118.909L628.275 83.8638C629.761 82.4533 630.385 80.4337 629.903 78.5933L618.257 34.1018C617.784 32.2958 618.376 30.3143 619.808 28.9057L655.365 -6.06211C656.786 -7.45928 657.38 -9.42122 656.926 -11.2172L646.154 -53.8842C645.693 -55.7102 646.316 -57.7052 647.783 -59.1042L685.125 -94.7117C686.643 -96.1591 687.253 -98.2395 686.706 -100.107L672.733 -147.84" stroke="#22A6C3" stroke-width="10" stroke-dasharray="15 15"/>
</mask>
<g mask="url(#mask4_802_213)">
<rect width="741.077" height="612.59" transform="matrix(0.302303 -0.953212 0.975319 0.2208 450.587 552.622)" fill="white"/>
</g>
<mask id="mask5_802_213" style="mask-type:alpha" maskUnits="userSpaceOnUse" x="936" y="-40" width="450" height="762">
<path d="M1145.05 718.32L1178.03 688.631C1179.61 687.209 1180.28 685.11 1179.77 683.208L1167.38 637.653C1166.86 635.741 1167.54 633.632 1169.14 632.21L1207.53 597.993C1209.17 596.53 1209.84 594.345 1209.25 592.398L1195.79 548.613C1195.19 546.659 1195.86 544.464 1197.52 543.001L1235.69 509.261C1237.32 507.823 1238 505.674 1237.45 503.74L1224.41 458.163C1223.85 456.204 1224.56 454.028 1226.22 452.591L1263.86 420.159C1265.54 418.71 1266.24 416.511 1265.66 414.542L1252.43 369.944C1251.85 367.973 1252.56 365.773 1254.24 364.325L1292.94 331.026C1294.64 329.559 1295.34 327.321 1294.72 325.335L1280.76 280.818C1280.14 278.848 1280.82 276.629 1282.5 275.16L1321.53 241.012C1323.21 239.543 1323.89 237.324 1323.28 235.354L1309.28 190.735C1308.68 188.801 1309.32 186.623 1310.94 185.151L1348.49 151.057C1350.09 149.597 1350.75 147.44 1350.16 145.515L1337.18 102.754C1336.58 100.798 1337.27 98.6052 1338.93 97.1473L1378.4 62.447C1380.11 60.9402 1380.78 58.6545 1380.09 56.6608L1363.38 8.50747" stroke="#22A6C3" stroke-width="10" stroke-dasharray="15 15"/>
<path d="M1076.55 702.813L1109.53 673.124C1111.11 671.702 1111.79 669.603 1111.27 667.701L1098.89 622.146C1098.37 620.234 1099.05 618.125 1100.64 616.703L1139.04 582.487C1140.68 581.024 1141.35 578.838 1140.75 576.891L1127.29 533.106C1126.69 531.152 1127.37 528.957 1129.02 527.495L1167.19 493.754C1168.82 492.316 1169.5 490.167 1168.95 488.233L1155.91 442.656C1155.35 440.697 1156.06 438.521 1157.73 437.085L1195.36 404.652C1197.04 403.204 1197.75 401.004 1197.16 399.036L1183.94 354.437C1183.35 352.467 1184.06 350.266 1185.74 348.818L1224.44 315.519C1226.14 314.052 1226.85 311.814 1226.22 309.828L1212.26 265.311C1211.64 263.341 1212.33 261.122 1214.01 259.653L1253.03 225.505C1254.71 224.037 1255.4 221.817 1254.78 219.847L1240.79 175.228C1240.18 173.294 1240.83 171.116 1242.45 169.645L1279.99 135.55C1281.6 134.09 1282.25 131.933 1281.66 130.009L1268.68 87.2473C1268.09 85.2911 1268.77 83.0984 1270.43 81.6405L1309.9 46.9401C1311.61 45.4334 1312.28 43.1477 1311.59 41.154L1294.88 -6.99936" stroke="#22A6C3" stroke-width="10" stroke-dasharray="15 15"/>
<path d="M1008.05 687.306L1041.04 657.617C1042.62 656.195 1043.29 654.097 1042.77 652.194L1030.39 606.64C1029.87 604.727 1030.55 602.618 1032.15 601.196L1070.54 566.98C1072.18 565.517 1072.85 563.331 1072.25 561.385L1058.8 517.599C1058.19 515.645 1058.87 513.45 1060.53 511.988L1098.7 478.247C1100.32 476.809 1101.01 474.66 1100.45 472.726L1087.42 427.149C1086.86 425.19 1087.56 423.014 1089.23 421.578L1126.86 389.145C1128.54 387.697 1129.25 385.498 1128.67 383.529L1115.44 338.93C1114.86 336.96 1115.57 334.759 1117.25 333.311L1155.94 300.013C1157.65 298.545 1158.35 296.307 1157.73 294.321L1143.76 249.804C1143.15 247.835 1143.83 245.615 1145.51 244.146L1184.54 209.999C1186.22 208.53 1186.9 206.31 1186.28 204.34L1172.29 159.721C1171.68 157.787 1172.33 155.609 1173.95 154.138L1211.49 120.043C1213.1 118.584 1213.75 116.427 1213.17 114.502L1200.19 71.7405C1199.59 69.7843 1200.28 67.5916 1201.93 66.1337L1241.4 31.4333C1243.12 29.9265 1243.78 27.6409 1243.09 25.6472L1226.39 -22.5062" stroke="#22A6C3" stroke-width="10" stroke-dasharray="15 15"/>
<path d="M939.557 671.801L972.543 642.112C974.123 640.69 974.795 638.592 974.277 636.689L961.896 591.135C961.376 589.223 962.057 587.114 963.652 585.691L1002.04 551.475C1003.69 550.012 1004.36 547.826 1003.76 545.88L990.3 502.095C989.699 500.14 990.376 497.945 992.031 496.483L1030.2 462.743C1031.83 461.304 1032.51 459.156 1031.96 457.221L1018.92 411.644C1018.36 409.685 1019.07 407.509 1020.74 406.073L1058.37 373.64C1060.05 372.192 1060.76 369.993 1060.17 368.024L1046.95 323.425C1046.36 321.455 1047.07 319.254 1048.75 317.806L1087.45 284.508C1089.15 283.04 1089.85 280.802 1089.23 278.816L1075.27 234.3C1074.65 232.33 1075.34 230.11 1077.02 228.641L1116.04 194.494C1117.72 193.025 1118.41 190.805 1117.79 188.835L1103.79 144.217C1103.19 142.283 1103.84 140.104 1105.46 138.633L1143 104.539C1144.61 103.079 1145.26 100.922 1144.67 98.9969L1131.69 56.2356C1131.1 54.2794 1131.78 52.0867 1133.44 50.6288L1172.91 15.9284C1174.62 14.4216 1175.29 12.136 1174.6 10.1423L1157.89 -38.0111" stroke="#22A6C3" stroke-width="10" stroke-dasharray="15 15"/>
</mask>
<g mask="url(#mask5_802_213)">
<rect width="741.583" height="481.748" transform="matrix(0.302303 -0.953212 0.975319 0.2208 979.408 668.074)" fill="white"/>
</g>
<mask id="mask6_802_213" style="mask-type:alpha" maskUnits="userSpaceOnUse" x="1198" y="20" width="739" height="828">
<path d="M1698.58 844.697L1729.68 814.377C1731.07 813.015 1731.68 811.107 1731.29 809.336L1721.16 763.877C1720.76 762.096 1721.38 760.178 1722.79 758.816L1759.12 723.719C1760.57 722.317 1761.18 720.328 1760.72 718.511L1749.54 674.835C1749.07 673.01 1749.69 671.014 1751.15 669.611L1787.27 634.991C1788.71 633.612 1789.33 631.657 1788.91 629.854L1778.17 584.381C1777.74 582.554 1778.38 580.574 1779.86 579.194L1815.45 545.891C1816.94 544.499 1817.58 542.498 1817.13 540.66L1806.19 496.162C1805.74 494.323 1806.38 492.32 1807.87 490.928L1844.46 456.74C1845.97 455.329 1846.61 453.292 1846.13 451.436L1834.5 407.039C1834.02 405.198 1834.65 403.178 1836.13 401.768L1873.05 366.723C1874.54 365.313 1875.16 363.293 1874.68 361.453L1863.03 316.961C1862.56 315.155 1863.15 313.174 1864.58 311.765L1900.14 276.797C1901.56 275.4 1902.16 273.438 1901.7 271.642L1890.93 228.975C1890.47 227.149 1891.09 225.154 1892.56 223.755L1929.9 188.148C1931.42 186.7 1932.03 184.62 1931.48 182.753L1917.51 135.019" stroke="#22A6C3" stroke-width="10" stroke-dasharray="15 15"/>
<path d="M1636.5 830.643L1667.6 800.323C1669 798.961 1669.61 797.053 1669.21 795.282L1659.08 749.823C1658.68 748.043 1659.3 746.125 1660.71 744.762L1697.04 709.666C1698.49 708.263 1699.1 706.275 1698.64 704.457L1687.46 660.781C1686.99 658.957 1687.61 656.96 1689.07 655.557L1725.19 620.937C1726.63 619.558 1727.25 617.603 1726.83 615.8L1716.09 570.327C1715.66 568.501 1716.3 566.521 1717.78 565.141L1753.37 531.837C1754.86 530.445 1755.5 528.444 1755.05 526.607L1744.11 482.108C1743.66 480.269 1744.3 478.266 1745.79 476.875L1782.38 442.686C1783.89 441.275 1784.53 439.239 1784.05 437.383L1772.42 392.985C1771.94 391.144 1772.57 389.125 1774.05 387.714L1810.97 352.669C1812.46 351.259 1813.08 349.239 1812.6 347.399L1800.95 302.907C1800.48 301.101 1801.07 299.12 1802.51 297.711L1838.06 262.744C1839.48 261.346 1840.08 259.384 1839.62 257.588L1828.85 214.921C1828.39 213.095 1829.01 211.1 1830.48 209.701L1867.82 174.094C1869.34 172.647 1869.95 170.566 1869.4 168.699L1855.43 120.965" stroke="#22A6C3" stroke-width="10" stroke-dasharray="15 15"/>
<path d="M1574.42 816.591L1605.52 786.27C1606.91 784.909 1607.52 783 1607.13 781.229L1597 735.77C1596.6 733.99 1597.22 732.072 1598.63 730.71L1634.96 695.613C1636.41 694.21 1637.02 692.222 1636.56 690.405L1625.38 646.729C1624.91 644.904 1625.53 642.907 1626.99 641.504L1663.11 606.884C1664.55 605.505 1665.17 603.551 1664.75 601.747L1654.01 556.275C1653.58 554.448 1654.22 552.468 1655.7 551.088L1691.29 517.784C1692.78 516.392 1693.42 514.391 1692.97 512.554L1682.03 468.055C1681.58 466.216 1682.22 464.214 1683.71 462.822L1720.3 428.633C1721.81 427.222 1722.45 425.186 1721.97 423.33L1710.34 378.932C1709.86 377.092 1710.49 375.072 1711.97 373.662L1748.89 338.617C1750.38 337.206 1751 335.187 1750.52 333.346L1738.87 288.855C1738.4 287.049 1738.99 285.067 1740.42 283.659L1775.98 248.691C1777.4 247.294 1778 245.332 1777.54 243.536L1766.77 200.869C1766.31 199.043 1766.93 197.048 1768.4 195.649L1805.74 160.041C1807.26 158.594 1807.87 156.513 1807.32 154.646L1793.35 106.913" stroke="#22A6C3" stroke-width="10" stroke-dasharray="15 15"/>
<path d="M1512.34 802.536L1543.44 772.215C1544.84 770.853 1545.45 768.945 1545.05 767.174L1534.92 721.715C1534.52 719.935 1535.14 718.017 1536.55 716.655L1572.88 681.558C1574.33 680.155 1574.94 678.167 1574.48 676.349L1563.3 632.674C1562.83 630.849 1563.45 628.852 1564.91 627.449L1601.03 592.829C1602.47 591.45 1603.09 589.495 1602.67 587.692L1591.93 542.22C1591.5 540.393 1592.14 538.413 1593.62 537.033L1629.21 503.729C1630.7 502.337 1631.34 500.336 1630.89 498.499L1619.95 454C1619.5 452.161 1620.14 450.159 1621.63 448.767L1658.22 414.578C1659.73 413.167 1660.37 411.131 1659.89 409.275L1648.26 364.877C1647.78 363.037 1648.41 361.017 1649.89 359.606L1686.81 324.562C1688.3 323.151 1688.92 321.131 1688.44 319.291L1676.79 274.8C1676.32 272.994 1676.91 271.012 1678.34 269.603L1713.9 234.636C1715.32 233.238 1715.92 231.277 1715.46 229.481L1704.69 186.814C1704.23 184.988 1704.85 182.993 1706.32 181.594L1743.66 145.986C1745.18 144.539 1745.79 142.458 1745.24 140.591L1731.27 92.8573" stroke="#22A6C3" stroke-width="10" stroke-dasharray="15 15"/>
<path d="M1450.26 788.482L1481.36 758.162C1482.75 756.8 1483.36 754.892 1482.97 753.121L1472.84 707.662C1472.44 705.882 1473.06 703.963 1474.47 702.601L1510.8 667.504C1512.25 666.102 1512.86 664.113 1512.4 662.296L1501.22 618.62C1500.75 616.796 1501.37 614.799 1502.83 613.396L1538.95 578.776C1540.39 577.397 1541.01 575.442 1540.59 573.639L1529.85 528.166C1529.42 526.34 1530.06 524.359 1531.54 522.979L1567.13 489.676C1568.62 488.284 1569.26 486.283 1568.81 484.446L1557.87 439.947C1557.42 438.108 1558.06 436.105 1559.55 434.714L1596.14 400.525C1597.65 399.114 1598.29 397.077 1597.81 395.222L1586.18 350.824C1585.7 348.983 1586.33 346.964 1587.81 345.553L1624.73 310.508C1626.22 309.098 1626.84 307.078 1626.36 305.238L1614.71 260.746C1614.24 258.94 1614.83 256.959 1616.26 255.55L1651.82 220.582C1653.24 219.185 1653.84 217.223 1653.38 215.427L1642.61 172.76C1642.15 170.934 1642.77 168.939 1644.24 167.54L1681.58 131.933C1683.1 130.485 1683.71 128.405 1683.16 126.538L1669.19 78.8041" stroke="#22A6C3" stroke-width="10" stroke-dasharray="15 15"/>
<path d="M1388.18 774.427L1419.28 744.106C1420.67 742.745 1421.28 740.836 1420.89 739.065L1410.76 693.606C1410.36 691.826 1410.98 689.908 1412.39 688.546L1448.72 653.449C1450.17 652.046 1450.78 650.058 1450.32 648.241L1439.14 604.565C1438.67 602.74 1439.29 600.743 1440.75 599.34L1476.87 564.72C1478.31 563.341 1478.93 561.386 1478.51 559.583L1467.77 514.111C1467.34 512.284 1467.98 510.304 1469.46 508.924L1505.05 475.62C1506.54 474.228 1507.18 472.227 1506.73 470.39L1495.79 425.891C1495.34 424.052 1495.98 422.05 1497.47 420.658L1534.06 386.469C1535.57 385.058 1536.21 383.022 1535.72 381.166L1524.1 336.768C1523.62 334.928 1524.25 332.908 1525.73 331.498L1562.65 296.453C1564.14 295.042 1564.76 293.023 1564.28 291.182L1552.63 246.691C1552.16 244.885 1552.75 242.903 1554.18 241.495L1589.74 206.527C1591.16 205.13 1591.76 203.168 1591.3 201.372L1580.53 158.705C1580.07 156.879 1580.69 154.884 1582.16 153.485L1619.5 117.877C1621.02 116.43 1621.63 114.349 1621.08 112.482L1607.11 64.7485" stroke="#22A6C3" stroke-width="10" stroke-dasharray="15 15"/>
<path d="M1326.1 760.372L1357.2 730.052C1358.59 728.69 1359.2 726.782 1358.81 725.011L1348.67 679.552C1348.28 677.772 1348.9 675.854 1350.31 674.491L1386.64 639.395C1388.09 637.992 1388.7 636.004 1388.24 634.186L1377.06 590.51C1376.59 588.686 1377.21 586.689 1378.67 585.286L1414.79 550.666C1416.23 549.287 1416.85 547.332 1416.43 545.529L1405.69 500.056C1405.26 498.23 1405.9 496.25 1407.37 494.87L1442.97 461.566C1444.46 460.174 1445.1 458.173 1444.65 456.336L1433.71 411.837C1433.26 409.998 1433.9 407.995 1435.39 406.604L1471.98 372.415C1473.49 371.004 1474.13 368.968 1473.64 367.112L1462.02 322.714C1461.54 320.873 1462.16 318.854 1463.65 317.443L1500.57 282.398C1502.06 280.988 1502.68 278.968 1502.2 277.128L1490.55 232.636C1490.08 230.831 1490.67 228.849 1492.1 227.44L1527.66 192.473C1529.08 191.075 1529.68 189.113 1529.22 187.317L1518.45 144.65C1517.99 142.824 1518.61 140.829 1520.08 139.43L1557.42 103.823C1558.94 102.376 1559.55 100.295 1559 98.4279L1545.03 50.6943" stroke="#22A6C3" stroke-width="10" stroke-dasharray="15 15"/>
<path d="M1264.02 746.319L1295.12 715.998C1296.51 714.637 1297.12 712.728 1296.73 710.957L1286.6 665.498C1286.2 663.718 1286.82 661.8 1288.23 660.438L1324.56 625.341C1326.01 623.938 1326.62 621.95 1326.16 620.133L1314.98 576.457C1314.51 574.632 1315.13 572.635 1316.59 571.232L1352.71 536.612C1354.15 535.233 1354.77 533.279 1354.35 531.475L1343.61 486.003C1343.18 484.176 1343.82 482.196 1345.3 480.816L1380.89 447.512C1382.38 446.12 1383.02 444.119 1382.57 442.282L1371.63 397.783C1371.18 395.944 1371.82 393.942 1373.31 392.55L1409.9 358.361C1411.41 356.95 1412.05 354.914 1411.56 353.058L1399.94 308.66C1399.46 306.82 1400.08 304.8 1401.57 303.39L1438.49 268.345C1439.98 266.934 1440.6 264.915 1440.12 263.074L1428.47 218.583C1428 216.777 1428.59 214.795 1430.02 213.387L1465.58 178.419C1467 177.022 1467.6 175.06 1467.14 173.264L1456.37 130.597C1455.91 128.771 1456.53 126.776 1458 125.377L1495.34 89.7692C1496.86 88.3218 1497.47 86.2415 1496.92 84.3742L1482.95 36.6405" stroke="#22A6C3" stroke-width="10" stroke-dasharray="15 15"/>
<path d="M1201.94 732.266L1233.04 701.945C1234.43 700.584 1235.04 698.676 1234.65 696.904L1224.52 651.446C1224.12 649.665 1224.74 647.747 1226.15 646.385L1262.48 611.288C1263.93 609.885 1264.54 607.897 1264.08 606.08L1252.9 562.404C1252.43 560.579 1253.05 558.582 1254.51 557.18L1290.63 522.559C1292.07 521.181 1292.69 519.226 1292.27 517.423L1281.53 471.95C1281.1 470.123 1281.74 468.143 1283.22 466.763L1318.81 433.459C1320.3 432.068 1320.94 430.067 1320.49 428.229L1309.55 383.73C1309.1 381.892 1309.74 379.889 1311.23 378.497L1347.82 344.309C1349.33 342.898 1349.97 340.861 1349.49 339.005L1337.86 294.607C1337.38 292.767 1338.01 290.747 1339.49 289.337L1376.41 254.292C1377.9 252.882 1378.52 250.862 1378.04 249.022L1366.39 204.53C1365.92 202.724 1366.51 200.743 1367.94 199.334L1403.5 164.366C1404.92 162.969 1405.52 161.007 1405.06 159.211L1394.29 116.544C1393.83 114.718 1394.45 112.723 1395.92 111.324L1433.26 75.7165C1434.78 74.2691 1435.39 72.1888 1434.84 70.3215L1420.87 22.5878" stroke="#22A6C3" stroke-width="10" stroke-dasharray="15 15"/>
</mask>
<g mask="url(#mask6_802_213)">
<rect width="741.077" height="612.59" transform="matrix(0.302303 -0.953212 0.975319 0.2208 1198.72 723.05)" fill="white"/>
</g>
<mask id="mask7_802_213" style="mask-type:alpha" maskUnits="userSpaceOnUse" x="1684" y="130" width="450" height="763">
<path d="M1893.18 888.748L1926.17 859.059C1927.75 857.637 1928.42 855.538 1927.9 853.636L1915.52 808.081C1915 806.169 1915.68 804.06 1917.28 802.638L1955.67 768.422C1957.31 766.959 1957.98 764.773 1957.38 762.826L1943.92 719.041C1943.32 717.087 1944 714.892 1945.66 713.43L1983.83 679.689C1985.45 678.251 1986.14 676.102 1985.58 674.168L1972.54 628.591C1971.98 626.632 1972.69 624.456 1974.36 623.02L2011.99 590.587C2013.67 589.139 2014.38 586.94 2013.8 584.971L2000.57 540.372C1999.99 538.402 2000.69 536.201 2002.38 534.753L2041.07 501.455C2042.78 499.987 2043.48 497.749 2042.86 495.763L2028.89 451.246C2028.28 449.276 2028.96 447.057 2030.64 445.588L2069.67 411.441C2071.35 409.972 2072.03 407.752 2071.41 405.782L2057.42 361.163C2056.81 359.229 2057.46 357.051 2059.08 355.58L2096.62 321.485C2098.23 320.026 2098.88 317.869 2098.3 315.944L2085.32 273.182C2084.72 271.226 2085.4 269.033 2087.06 267.576L2126.53 232.875C2128.25 231.368 2128.91 229.083 2128.22 227.089L2111.52 178.936" stroke="#22A6C3" stroke-width="10" stroke-dasharray="15 15"/>
<path d="M1824.68 873.241L1857.67 843.553C1859.25 842.131 1859.92 840.032 1859.41 838.13L1847.02 792.575C1846.5 790.663 1847.18 788.554 1848.78 787.132L1887.17 752.915C1888.81 751.452 1889.48 749.266 1888.88 747.32L1875.43 703.535C1874.83 701.581 1875.5 699.386 1877.16 697.923L1915.33 664.183C1916.96 662.745 1917.64 660.596 1917.09 658.662L1904.05 613.085C1903.49 611.126 1904.2 608.95 1905.86 607.513L1943.5 575.08C1945.18 573.632 1945.88 571.433 1945.3 569.464L1932.07 524.866C1931.49 522.895 1932.2 520.694 1933.88 519.246L1972.58 485.948C1974.28 484.481 1974.98 482.243 1974.36 480.257L1960.4 435.74C1959.78 433.77 1960.46 431.55 1962.14 430.082L2001.17 395.934C2002.85 394.465 2003.53 392.246 2002.92 390.276L1988.92 345.657C1988.32 343.723 1988.96 341.545 1990.58 340.073L2028.13 305.979C2029.73 304.519 2030.39 302.362 2029.8 300.437L2016.82 257.676C2016.22 255.72 2016.91 253.527 2018.57 252.069L2058.04 217.369C2059.75 215.862 2060.42 213.576 2059.73 211.583L2043.02 163.429" stroke="#22A6C3" stroke-width="10" stroke-dasharray="15 15"/>
<path d="M1756.19 857.734L1789.18 828.046C1790.76 826.623 1791.43 824.525 1790.91 822.622L1778.53 777.068C1778.01 775.156 1778.69 773.047 1780.28 771.625L1818.68 737.408C1820.32 735.945 1820.99 733.759 1820.39 731.813L1806.93 688.028C1806.33 686.073 1807.01 683.879 1808.66 682.416L1846.83 648.676C1848.46 647.238 1849.14 645.089 1848.59 643.154L1835.55 597.577C1834.99 595.619 1835.7 593.442 1837.37 592.006L1875 559.573C1876.68 558.125 1877.39 555.926 1876.8 553.957L1863.58 509.358C1862.99 507.388 1863.7 505.187 1865.38 503.739L1904.08 470.441C1905.78 468.974 1906.49 466.736 1905.86 464.75L1891.9 420.233C1891.28 418.263 1891.97 416.043 1893.65 414.574L1932.67 380.427C1934.35 378.958 1935.04 376.738 1934.42 374.768L1920.43 330.15C1919.82 328.216 1920.47 326.037 1922.09 324.566L1959.63 290.472C1961.24 289.012 1961.89 286.855 1961.31 284.93L1948.32 242.169C1947.73 240.213 1948.41 238.02 1950.07 236.562L1989.54 201.862C1991.25 200.355 1991.92 198.069 1991.23 196.075L1974.52 147.922" stroke="#22A6C3" stroke-width="10" stroke-dasharray="15 15"/>
<path d="M1687.69 842.229L1720.68 812.541C1722.26 811.118 1722.93 809.02 1722.41 807.117L1710.03 761.563C1709.51 759.651 1710.19 757.542 1711.79 756.12L1750.18 721.903C1751.82 720.44 1752.49 718.254 1751.89 716.308L1738.44 672.523C1737.84 670.568 1738.51 668.374 1740.17 666.911L1778.34 633.171C1779.96 631.733 1780.65 629.584 1780.1 627.65L1767.06 582.073C1766.5 580.114 1767.21 577.937 1768.87 576.501L1806.51 544.068C1808.19 542.62 1808.89 540.421 1808.31 538.452L1795.08 493.853C1794.5 491.883 1795.21 489.682 1796.89 488.234L1835.58 454.936C1837.29 453.469 1837.99 451.231 1837.37 449.245L1823.41 404.728C1822.79 402.758 1823.47 400.538 1825.15 399.069L1864.18 364.922C1865.86 363.453 1866.54 361.233 1865.92 359.264L1851.93 314.645C1851.32 312.711 1851.97 310.532 1853.59 309.061L1891.13 274.967C1892.74 273.507 1893.39 271.35 1892.81 269.425L1879.83 226.664C1879.23 224.708 1879.92 222.515 1881.57 221.057L1921.04 186.357C1922.76 184.85 1923.43 182.564 1922.73 180.57L1906.03 132.417" stroke="#22A6C3" stroke-width="10" stroke-dasharray="15 15"/>
</mask>
<g mask="url(#mask7_802_213)">
<rect width="741.583" height="481.748" transform="matrix(0.302303 -0.953212 0.975319 0.2208 1727.54 838.502)" fill="white"/>
</g>
</g>
</g>
</svg>
