<svg width="619" height="488" viewBox="0 0 619 488" fill="none" xmlns="http://www.w3.org/2000/svg">
<g clip-path="url(#clip0_144_2)">
<path d="M326.932 69.0833C327.072 69.6983 327.163 70.3234 327.205 70.9528L376.169 99.2L388.071 92.3486L400.758 108.959L380.868 123.135C379.261 124.281 377.326 124.874 375.353 124.826C373.381 124.778 371.477 124.091 369.928 122.869L319.437 83.0364C317.158 83.8798 314.677 84.0096 312.323 83.4084C309.969 82.8071 307.853 81.5035 306.258 79.6707C304.663 77.8379 303.664 75.5629 303.393 73.1483C303.122 70.7337 303.593 68.2939 304.743 66.1535C305.893 64.013 307.667 62.2733 309.83 61.1658C311.992 60.0583 314.441 59.6355 316.85 59.9536C319.259 60.2716 321.514 61.3155 323.315 62.9464C325.116 64.5773 326.377 66.7178 326.932 69.0833Z" fill="#FFB6B6"/>
<path d="M376.849 96.0818C377.004 95.3613 377.313 94.6827 377.755 94.0925C378.196 93.5022 378.76 93.0142 379.407 92.6616L402.013 80.3447C405.023 78.0726 408.812 77.0872 412.548 77.6044C416.284 78.1216 419.662 80.0993 421.942 83.1037C424.222 86.1082 425.217 89.8942 424.71 93.6315C424.202 97.3687 422.233 100.752 419.235 103.04L401.117 121.446C400.6 121.971 399.976 122.379 399.287 122.641C398.598 122.903 397.861 123.014 397.125 122.965C396.39 122.917 395.673 122.711 395.025 122.36C394.376 122.01 393.811 121.524 393.367 120.936L377.767 100.254C377.323 99.6652 377.011 98.9879 376.853 98.268C376.694 97.548 376.693 96.8023 376.849 96.0818Z" fill="#3F3D56"/>
<path d="M417.235 24.4757C420.488 14.11 427.884 4.60293 438.113 1.09876C448.343 -2.4054 463.321 2.93258 471.012 10.5969C485.079 24.6165 488.512 72.779 478.847 87.9989C476.925 87.8972 470.292 87.8219 468.346 87.749L465.594 78.5756V87.6586C450.407 87.1893 434.597 87.4831 418.778 87.787C417.36 77.0112 413.983 34.8414 417.235 24.4757Z" fill="#1C1D20"/>
<path d="M412.883 459.573H399.032L392.443 406.146L412.886 406.147L412.883 459.573Z" fill="#FFB6B6"/>
<path d="M534.137 450.96L520.734 454.453L500.881 404.416L520.663 399.261L534.137 450.96Z" fill="#FFB6B6"/>
<path d="M457.805 131.433L460.944 139.593L460.316 147.753L398.892 169.028L401.94 133.316L408.844 125.155L457.805 131.433Z" fill="#FFB6B6"/>
<path d="M438.384 57.9997C450.5 57.9997 460.322 48.1776 460.322 36.0614C460.322 23.9452 450.5 14.123 438.384 14.123C426.268 14.123 416.446 23.9452 416.446 36.0614C416.446 48.1776 426.268 57.9997 438.384 57.9997Z" fill="#FFB7B7"/>
<path d="M423.31 7.49322C427.525 4.92341 432.353 3.53329 437.29 3.46822C442.226 3.40314 447.09 4.66548 451.371 7.12328C455.653 9.58107 459.196 13.144 461.629 17.4396C464.062 21.7352 465.297 26.6056 465.204 31.5417C453.245 34.5981 440.501 35.8766 426.996 32.2778L423.909 24.7225L422.089 32.2834C417.958 35.1897 413.97 35.1844 410.126 32.2677C409.963 27.3456 411.095 22.4669 413.409 18.1194C415.722 13.7718 419.136 10.1077 423.31 7.49322Z" fill="#1C1D20"/>
<path d="M419.079 485.874H409.251L407.496 476.594L403.003 485.874H376.935C375.685 485.874 374.469 485.475 373.462 484.734C372.456 483.994 371.712 482.951 371.34 481.758C370.968 480.565 370.988 479.284 371.395 478.103C371.803 476.922 372.577 475.902 373.605 475.192L394.422 460.815V451.434L416.318 452.74L419.079 485.874Z" fill="#1C1D20"/>
<path d="M547.981 474.531L538.47 477.01L534.432 468.473L532.425 478.586L507.2 485.161C505.991 485.476 504.712 485.397 503.552 484.934C502.391 484.471 501.408 483.65 500.748 482.589C500.087 481.529 499.782 480.285 499.879 479.039C499.975 477.793 500.467 476.611 501.283 475.664L517.801 456.501L515.435 447.423L536.952 443.165L547.981 474.531Z" fill="#1C1D20"/>
<path d="M532.437 417.361L491.836 333.914L479.091 232.348C487.878 216.027 471.558 182.819 471.558 182.819V168.876L408.338 180.803C395.407 216.071 389.137 253.433 389.845 290.99L392.393 426H391.594C390.267 426 388.996 426.527 388.058 427.465C387.12 428.402 386.594 429.674 386.594 431C386.594 432.326 387.12 433.598 388.058 434.536C388.996 435.474 390.267 436 391.594 436H416.594C417.92 436 419.191 435.474 420.129 434.536C421.067 433.598 421.594 432.326 421.594 431C421.594 429.674 421.067 428.402 420.129 427.465C419.191 426.527 417.92 426 416.594 426H415.949L433.896 254.244L454.764 339.001L505.194 417.041C503.907 417.141 502.71 417.736 501.853 418.7C500.996 419.665 500.546 420.924 500.598 422.213C500.649 423.502 501.199 424.721 502.13 425.614C503.062 426.507 504.303 427.004 505.594 427H530.594C531.756 427.002 532.883 426.597 533.78 425.857C534.676 425.116 535.286 424.086 535.505 422.944C535.723 421.802 535.536 420.619 534.976 419.6C534.416 418.581 533.519 417.789 532.437 417.361Z" fill="#1C1D20"/>
<path d="M477.274 191.366C477.066 190.55 476.606 189.821 475.958 189.283C475.31 188.745 474.509 188.426 473.669 188.372C472.836 178.844 467.33 117.743 467.12 115.95L467.112 115.874L465.518 81.8167C465.46 80.5798 464.948 79.4076 464.081 78.5239C463.213 77.6403 462.051 77.1071 460.815 77.0264L452.394 76.476C452.279 76.4721 452.169 76.4234 452.089 76.3404C452.009 76.2573 451.964 76.1462 451.964 76.0306C451.964 75.1007 451.781 74.1799 451.425 73.3207C451.069 72.4616 450.547 71.6809 449.89 71.0233C449.232 70.3658 448.451 69.8442 447.592 69.4883C446.733 69.1324 445.812 68.9492 444.882 68.9492H419.951C418.336 68.9499 416.777 69.5399 415.567 70.6085C414.356 71.6771 413.577 73.1508 413.376 74.7531C413.365 74.8634 413.312 74.9654 413.229 75.0389C413.146 75.1123 413.038 75.1517 412.928 75.1492L412.925 75.1491C410.092 75.0907 407.332 76.0499 405.146 77.8524C402.959 79.6549 401.492 82.1814 401.009 84.9734C397.601 104.804 390.77 149.813 394.147 174.836C395.323 183.546 394.789 196.647 394.344 203.935C394.3 204.64 394.395 205.346 394.624 206.013C394.853 206.681 395.212 207.296 395.68 207.825C394.685 208.112 393.841 208.773 393.325 209.67C392.809 210.567 392.661 211.629 392.913 212.633C393.173 213.661 393.83 214.545 394.741 215.089C395.651 215.633 396.741 215.793 397.77 215.534L474.373 196.223C475.402 195.963 476.285 195.306 476.829 194.395C477.373 193.485 477.533 192.395 477.274 191.366Z" fill="#0D434F"/>
<path d="M350.668 334.55C350.654 332.313 349.848 330.154 348.394 328.455C346.939 326.756 344.93 325.627 342.723 325.268L206.908 302.966C205.606 302.75 204.273 302.81 202.995 303.14L171.166 311.37L152.903 316.098L119.201 324.81C117.166 325.338 115.365 326.527 114.078 328.189C112.792 329.852 112.094 331.894 112.094 333.996V476.311C112.104 478.48 112.853 480.581 114.219 482.268C115.584 483.954 117.484 485.124 119.604 485.584L257.941 484.018C258.59 484.157 259.253 484.226 259.917 484.223C260.885 484.225 261.848 484.078 262.771 483.788L344.96 485.834C346.9 485.228 348.593 484.014 349.788 482.37C350.982 480.727 351.616 478.742 351.593 476.71L350.668 334.55Z" fill="white"/>
<path d="M350.668 334.55C350.654 332.313 349.848 330.154 348.394 328.455C346.939 326.756 344.93 325.627 342.723 325.268L206.908 302.966C205.606 302.75 204.273 302.81 202.995 303.14L171.166 311.37L152.903 316.098L119.201 324.81C117.166 325.338 115.365 326.527 114.078 328.189C112.792 329.852 112.094 331.894 112.094 333.996V476.311C112.104 478.48 112.853 480.581 114.219 482.268C115.584 483.954 117.484 485.124 119.604 485.584L257.941 484.018C258.59 484.157 259.253 484.226 259.917 484.223C260.885 484.225 261.848 484.078 262.771 483.788L344.96 485.834C346.9 485.228 348.593 484.014 349.788 482.37C350.982 480.727 351.616 478.742 351.593 476.71L350.668 334.55ZM344.249 483.572L262.06 485.527C260.887 485.893 259.641 485.953 258.439 485.701L120.094 483.268C118.505 482.921 117.081 482.043 116.057 480.778C115.034 479.514 114.472 477.938 114.465 476.311V333.996C114.466 332.539 114.914 331.118 115.748 329.923C116.582 328.729 117.762 327.819 119.13 327.316C119.347 327.234 119.569 327.166 119.794 327.11L155.449 317.892L176.534 312.437L203.588 305.44C204.168 305.286 204.766 305.209 205.367 305.211C205.753 305.211 206.139 305.243 206.521 305.306L342.336 327.608C343.428 327.788 344.465 328.219 345.362 328.868C346.259 329.517 346.993 330.366 347.506 331.348C348.019 332.343 348.29 333.446 348.297 334.566L349.222 476.726C349.239 478.25 348.764 479.739 347.868 480.972C346.973 482.206 345.703 483.117 344.249 483.572Z" fill="#CCCCCC"/>
<path d="M347.506 331.347C347.414 331.408 347.312 331.453 347.206 331.482L307.257 342.281L294.822 345.641L259.451 355.199C259.35 355.224 259.246 355.237 259.142 355.239C259.071 355.238 259 355.232 258.929 355.223L116.307 329.221L115.833 329.134C115.524 329.076 115.251 328.898 115.073 328.639C114.894 328.38 114.826 328.061 114.883 327.751C114.939 327.442 115.116 327.168 115.374 326.988C115.632 326.809 115.95 326.739 116.26 326.794L119.13 327.315L259.095 352.835L289.58 344.598L306.633 339.988L345.964 329.355L346.589 329.189C346.859 329.118 347.145 329.144 347.398 329.262C347.651 329.381 347.854 329.584 347.973 329.837C348.003 329.898 348.027 329.961 348.044 330.027C348.109 330.276 348.092 330.539 347.995 330.777C347.898 331.015 347.726 331.215 347.506 331.347Z" fill="#CCCCCC"/>
<path d="M260.328 484.5C259.678 484.5 259.148 483.976 259.142 487.324L257.956 358.064C257.95 353.409 258.477 352.873 259.131 352.867H259.142C259.792 352.867 260.322 353.391 260.328 358.042L261.514 487.303C261.52 483.958 260.994 484.493 260.339 484.5H260.328Z" fill="#CCCCCC"/>
<path d="M307.594 486L294.821 486.135L289.58 344.598L155.837 317.987C155.706 317.964 155.576 317.932 155.449 317.892C154.422 317.6 153.524 316.967 152.904 316.098L171.166 311.37L176.534 312.437L303.439 337.681C304.106 337.813 304.737 338.087 305.288 338.486C305.84 338.884 306.298 339.397 306.633 339.989C307.028 340.677 307.586 485.178 307.594 486Z" fill="#1A849C"/>
<path d="M409.896 75.4898C409.885 73.8043 409.278 72.1771 408.182 70.8966C407.086 69.6162 405.572 68.7653 403.908 68.4948L301.551 51.6866C300.57 51.5241 299.565 51.5688 298.602 51.8177L274.614 58.0202L260.85 61.5832L235.45 68.1492C233.917 68.5475 232.559 69.4433 231.589 70.6963C230.62 71.9493 230.094 73.4886 230.094 75.0728V158.965C230.101 160.6 230.666 162.184 231.695 163.455C232.724 164.725 234.156 165.607 235.754 165.954L340.012 188.137C340.501 188.242 341.001 188.294 341.501 188.292C342.231 188.293 342.956 188.183 343.652 187.964L405.594 168.403C407.056 167.947 408.332 167.032 409.232 165.793C410.133 164.554 410.61 163.058 410.593 161.527L409.896 75.4898Z" fill="white"/>
<path d="M300.392 57.8467C300.317 57.8466 300.243 57.8562 300.171 57.8752L237.019 74.2069C236.827 74.2565 236.658 74.3683 236.537 74.5247C236.416 74.681 236.35 74.8732 236.35 75.071V158.962C236.351 159.166 236.421 159.364 236.55 159.523C236.678 159.682 236.857 159.792 237.057 159.835L341.314 182.018C341.465 182.05 341.622 182.042 341.769 181.996L403.713 162.435C403.895 162.378 404.054 162.264 404.167 162.109C404.279 161.954 404.338 161.768 404.336 161.576L403.642 75.5394C403.64 75.3289 403.564 75.1257 403.427 74.9659C403.29 74.806 403.101 74.6998 402.893 74.666L300.536 57.8583C300.489 57.8507 300.441 57.8468 300.392 57.8467Z" fill="#21A5C3"/>
<path d="M409.896 75.4898C409.885 73.8043 409.278 72.1771 408.182 70.8966C407.086 69.6162 405.572 68.7653 403.908 68.4948L301.551 51.6866C300.57 51.5241 299.565 51.5688 298.602 51.8177L274.614 58.0202L260.85 61.5832L235.45 68.1492C233.917 68.5475 232.559 69.4433 231.589 70.6963C230.62 71.9493 230.094 73.4886 230.094 75.0728V158.965C230.101 160.6 230.666 162.184 231.695 163.455C232.724 164.725 234.156 165.607 235.754 165.954L340.012 188.137C340.501 188.242 341.001 188.294 341.501 188.292C342.231 188.293 342.956 188.183 343.652 187.964L405.594 168.403C407.056 167.947 408.332 167.032 409.232 165.793C410.133 164.554 410.61 163.058 410.593 161.527L409.896 75.4898ZM405.058 166.699L343.116 186.26C342.232 186.535 341.293 186.58 340.387 186.391L236.123 164.208C234.925 163.947 233.852 163.285 233.081 162.332C232.31 161.379 231.886 160.191 231.881 158.965V75.0728C231.882 73.9748 232.219 72.9035 232.848 72.0032C233.476 71.1029 234.366 70.4171 235.396 70.038C235.56 69.9766 235.727 69.9249 235.897 69.8831L262.769 62.9358L278.659 58.8246L299.049 53.5516C299.486 53.4349 299.937 53.3767 300.389 53.3787C300.681 53.3786 300.972 53.4025 301.259 53.4502L403.616 70.2586C404.44 70.3937 405.221 70.7187 405.897 71.2079C406.573 71.697 407.127 72.3369 407.513 73.0768C407.9 73.827 408.104 74.6579 408.109 75.5018L408.806 161.539C408.819 162.688 408.461 163.81 407.786 164.739C407.111 165.669 406.154 166.356 405.058 166.699Z" fill="#3F3D56"/>
<path d="M407.513 73.0767C407.443 73.1224 407.367 73.1566 407.287 73.178L377.179 81.317L367.807 83.8493L341.15 91.0527C341.074 91.0715 340.996 91.0815 340.917 91.0826C340.864 91.0816 340.81 91.0776 340.757 91.0706L233.269 71.4739L232.912 71.4084C232.679 71.3648 232.473 71.2307 232.338 71.0354C232.204 70.8401 232.152 70.5996 232.195 70.3664C232.237 70.1332 232.37 69.9263 232.565 69.7911C232.76 69.6558 233 69.6032 233.234 69.6447L235.396 70.0379L340.882 89.2712L363.857 83.0627L376.709 79.589L406.351 71.5752L406.822 71.4501C407.025 71.3964 407.241 71.4159 407.432 71.5052C407.622 71.5945 407.775 71.7479 407.864 71.9386C407.888 71.9842 407.905 72.0321 407.918 72.0816C407.967 72.269 407.954 72.4672 407.881 72.6466C407.808 72.826 407.679 72.9769 407.513 73.0767Z" fill="#3F3D56"/>
<path d="M341.811 188.5C341.576 188.5 341.349 188.407 341.182 188.241C341.015 188.075 340.92 187.85 340.917 187.615L340.024 90.1968C340.022 89.9598 340.114 89.7317 340.28 89.5625C340.446 89.3934 340.672 89.2971 340.909 89.2949H340.917C341.153 89.2949 341.379 89.388 341.547 89.5538C341.714 89.7197 341.809 89.9449 341.811 90.1805L342.705 187.598C342.707 187.835 342.615 188.063 342.449 188.233C342.283 188.402 342.056 188.498 341.819 188.5H341.811Z" fill="#3F3D56"/>
<path d="M377.179 176.649L367.807 179.181L363.857 83.0621L263.061 63.0066C262.962 62.9891 262.864 62.9652 262.769 62.9351C261.994 62.7146 261.318 62.2377 260.85 61.5825L274.614 58.0195L278.659 58.8239L374.302 77.8487C374.804 77.948 375.28 78.1549 375.695 78.4552C376.111 78.7555 376.457 79.1421 376.709 79.5884C377.007 80.1068 377.173 176.029 377.179 176.649Z" fill="#1A849C"/>
<path d="M372.981 121.846C373.46 122.256 373.906 122.703 374.315 123.183L430.461 116.626L435.922 104.025L456.015 109.781L448.516 133.027C447.911 134.905 446.712 136.535 445.1 137.674C443.489 138.813 441.551 139.398 439.579 139.342L375.294 137.515C373.969 139.551 372.055 141.136 369.808 142.059C367.56 142.982 365.085 143.198 362.711 142.679C360.337 142.161 358.177 140.932 356.519 139.156C354.861 137.38 353.783 135.141 353.428 132.738C353.073 130.334 353.458 127.879 354.533 125.7C355.607 123.521 357.319 121.72 359.442 120.538C361.564 119.355 363.997 118.847 366.415 119.081C368.834 119.314 371.124 120.279 372.981 121.846Z" fill="#FFB6B6"/>
<path d="M429.146 113.718C428.84 113.047 428.683 112.318 428.685 111.581C428.687 110.844 428.848 110.116 429.157 109.447L439.945 86.0723C441.004 82.4529 443.456 79.4014 446.762 77.587C450.069 75.7726 453.959 75.3433 457.582 76.3933C461.204 77.4433 464.262 79.8869 466.085 83.1883C467.909 86.4896 468.348 90.3793 467.308 94.0043L463.755 119.586C463.654 120.316 463.396 121.016 463 121.637C462.604 122.259 462.078 122.787 461.459 123.188C460.84 123.588 460.142 123.85 459.413 123.956C458.683 124.062 457.94 124.009 457.232 123.802L432.372 116.517C431.665 116.31 431.01 115.953 430.453 115.47C429.896 114.986 429.45 114.389 429.146 113.718Z" fill="#21A5C3"/>
<path d="M617.485 487.042H1.19064C0.875452 487.041 0.573473 486.915 0.350922 486.692C0.12837 486.468 0.00341797 486.166 0.00341797 485.851C0.00341797 485.536 0.12837 485.233 0.350922 485.01C0.573473 484.787 0.875452 484.661 1.19064 484.66H617.485C617.8 484.66 618.103 484.786 618.327 485.009C618.55 485.232 618.675 485.535 618.675 485.851C618.675 486.167 618.55 486.469 618.327 486.693C618.103 486.916 617.8 487.042 617.485 487.042Z" fill="#CACACA"/>
<path d="M120.113 360.523C139.891 360.523 155.924 344.49 155.924 324.712C155.924 304.934 139.891 288.901 120.113 288.901C100.335 288.901 84.3018 304.934 84.3018 324.712C84.3018 344.49 100.335 360.523 120.113 360.523Z" fill="#21A5C3"/>
<path d="M115.227 343.35C114.609 343.35 113.999 343.206 113.446 342.93C112.893 342.653 112.412 342.251 112.041 341.757L102.271 328.73C101.637 327.885 101.365 326.823 101.514 325.777C101.664 324.731 102.223 323.787 103.068 323.153C103.913 322.52 104.975 322.247 106.021 322.397C107.067 322.546 108.011 323.105 108.645 323.95L115.036 332.472L131.453 307.848C131.742 307.411 132.115 307.035 132.55 306.742C132.985 306.45 133.473 306.246 133.987 306.142C134.501 306.038 135.03 306.037 135.544 306.139C136.058 306.24 136.548 306.442 136.984 306.732C137.42 307.023 137.794 307.397 138.086 307.833C138.377 308.269 138.579 308.758 138.681 309.272C138.783 309.786 138.783 310.315 138.68 310.829C138.577 311.343 138.374 311.832 138.082 312.267L118.542 341.576C118.189 342.107 117.713 342.544 117.156 342.853C116.598 343.161 115.975 343.331 115.338 343.349C115.301 343.35 115.264 343.35 115.227 343.35Z" fill="white"/>
<path d="M272.595 134.5C272.483 134.5 272.372 134.488 272.264 134.463L241.264 127.463C240.876 127.375 240.539 127.137 240.327 126.801C240.115 126.464 240.045 126.058 240.132 125.67C240.22 125.282 240.458 124.945 240.793 124.733C241.129 124.52 241.536 124.449 241.924 124.536L272.924 131.536C273.284 131.618 273.601 131.829 273.815 132.129C274.029 132.43 274.125 132.799 274.084 133.165C274.044 133.532 273.869 133.871 273.594 134.117C273.319 134.363 272.964 134.5 272.595 134.5Z" fill="white"/>
<path d="M153.288 416.236C153.179 416.259 153.068 416.269 152.957 416.268L121.181 415.732C120.783 415.725 120.405 415.56 120.129 415.274C119.853 414.989 119.702 414.605 119.709 414.208C119.715 413.81 119.879 413.432 120.165 413.155C120.45 412.879 120.833 412.727 121.23 412.733L153.006 413.268C153.375 413.274 153.729 413.416 154 413.667C154.271 413.917 154.44 414.259 154.475 414.626C154.509 414.993 154.408 415.361 154.189 415.658C153.97 415.955 153.649 416.161 153.288 416.236Z" fill="#E6E6E6"/>
<path d="M164.288 433.236C164.179 433.259 164.068 433.269 163.957 433.268L132.181 432.732C131.783 432.725 131.405 432.56 131.129 432.274C130.853 431.989 130.702 431.605 130.709 431.208C130.715 430.81 130.879 430.432 131.165 430.155C131.45 429.879 131.833 429.727 132.23 429.733L164.006 430.268C164.375 430.274 164.729 430.416 165 430.667C165.271 430.917 165.44 431.259 165.475 431.626C165.509 431.993 165.408 432.361 165.189 432.658C164.97 432.955 164.649 433.161 164.288 433.236Z" fill="#E6E6E6"/>
</g>
<defs>
<clipPath id="clip0_144_2">
<rect width="618.675" height="487.325" fill="white"/>
</clipPath>
</defs>
</svg>
