<svg width="760" height="734" viewBox="0 0 760 734" fill="none" xmlns="http://www.w3.org/2000/svg">
<path d="M243 728.478L280 643.428L243 555.867L280 472.97L243 386.844L280 301.795L243 215.31L280 131.337L243 49.5172L270.5 3.00036" stroke="#39393A" stroke-width="10" stroke-dasharray="18 18"/>
<path d="M164 731.564L201 646.501L164 558.925L201 476.015L164 389.874L201 304.811L164 218.311L201 134.324L164 52.4912L190.5 3.00018" stroke="#39393A" stroke-width="10" stroke-dasharray="18 18"/>
<path d="M85 731.564L122 646.501L85 558.925L122 476.015L85 389.874L122 304.811L85 218.311L122 134.324L85 52.4912L111.5 3.00016" stroke="#39393A" stroke-width="10" stroke-dasharray="18 18"/>
<path d="M6 731.564L43 646.501L6 558.925L43 476.015L6 389.874L43 304.811L6 218.311L43 134.324L6 52.4912L32.5 3.00016" stroke="#39393A" stroke-width="10" stroke-dasharray="18 18"/>
<path d="M559 728.478L596 643.428L559 555.867L596 472.97L559 386.844L596 301.795L559 215.31L596 131.337L559 49.5172L586.5 3.00036" stroke="#39393A" stroke-width="10" stroke-dasharray="18 18"/>
<path d="M480 731.564L517 646.501L480 558.925L517 476.015L480 389.874L517 304.811L480 218.311L517 134.324L480 52.4912L506.5 3.00016" stroke="#39393A" stroke-width="10" stroke-dasharray="18 18"/>
<path d="M401 731.564L438 646.501L401 558.925L438 476.015L401 389.874L438 304.811L401 218.311L438 134.324L401 52.4912L427.5 3.00016" stroke="#39393A" stroke-width="10" stroke-dasharray="18 18"/>
<path d="M322 731.564L359 646.501L322 558.925L359 476.015L322 389.874L359 304.811L322 218.311L359 134.324L322 52.4912L348.5 3.00016" stroke="#39393A" stroke-width="10" stroke-dasharray="18 18"/>
<path d="M638 731.564L675 646.501L638 558.925L675 476.015L638 389.874L675 304.811L638 218.311L675 134.324L638 52.4912L664.5 3.00016" stroke="#39393A" stroke-width="10" stroke-dasharray="18 18"/>
<path d="M717 731.564L754 646.501L717 558.925L754 476.015L717 389.874L754 304.811L717 218.311L754 134.324L717 52.4912L743.5 3.00016" stroke="#39393A" stroke-width="10" stroke-dasharray="18 18"/>
</svg>
