<svg width="530" height="969" viewBox="0 0 530 969" fill="none" xmlns="http://www.w3.org/2000/svg">
<path d="M-18.6573 33.7354C-6.83494 28.2002 6.83492 28.2001 18.6573 33.7354L464.828 242.634C480.292 249.875 490.17 265.408 490.17 282.483V685.517C490.17 702.592 480.292 718.125 464.828 725.366L18.6573 934.265C6.83494 939.8 -6.83492 939.8 -18.6573 934.265L-464.828 725.366C-480.292 718.125 -490.17 702.592 -490.17 685.517V282.483C-490.17 265.408 -480.292 249.875 -464.828 242.634L-18.6573 33.7354Z" fill="#21A5C3"/>
<path d="M-524.048 695.035C-524.048 699.629 -523.386 704.12 -522.132 708.395L-518.774 707.411C-516.406 715.485 -511.764 722.725 -505.413 728.246L-507.709 730.887C-504.347 733.81 -500.541 736.286 -496.366 738.203L-476.531 747.309L-475.071 744.128L-435.4 762.341L-436.86 765.522L-397.19 783.734L-395.729 780.553L-356.059 798.766L-357.519 801.947L-317.848 820.159L-316.388 816.978L-276.717 835.191L-278.178 838.372L-238.507 856.584L-237.047 853.403L-197.376 871.616L-198.836 874.797L-159.166 893.009L-157.705 889.828L-118.035 908.041L-119.495 911.222L-79.8242 929.434L-78.3639 926.253L-38.6932 944.466L-40.1535 947.647L-20.3182 956.753C-7.7373 962.529 6.7373 962.529 19.3182 956.753L39.1535 947.647L37.6932 944.466L77.3639 926.253L78.8242 929.434L118.495 911.222L117.035 908.041L156.705 889.828L158.166 893.009L197.836 874.797L196.376 871.616L236.047 853.403L237.507 856.584L277.178 838.372L275.717 835.191L315.388 816.978L316.848 820.159L356.519 801.947L355.059 798.766L394.729 780.553L396.19 783.734L435.86 765.522L434.4 762.341L474.071 744.128L475.531 747.309L495.366 738.203C499.541 736.286 503.347 733.81 506.709 730.887L504.413 728.246C510.764 722.725 515.406 715.485 517.774 707.411L521.132 708.395C522.386 704.12 523.048 699.629 523.048 695.035V673.981H519.548V631.874H523.048V589.767H519.548V547.66H523.048V505.553H519.548V463.447H523.048V421.34H519.548V379.233H523.048V337.126H519.548V295.019H523.048V273.965C523.048 269.371 522.386 264.88 521.132 260.605L517.774 261.589C515.406 253.515 510.764 246.275 504.413 240.754L506.709 238.113C503.347 235.19 499.541 232.714 495.366 230.797L475.531 221.691L474.071 224.872L434.4 206.659L435.86 203.478L396.19 185.266L394.729 188.447L355.059 170.234L356.519 167.053L316.848 148.841L315.388 152.022L275.717 133.809L277.178 130.628L237.507 112.416L236.047 115.597L196.376 97.3842L197.836 94.2034L158.166 75.9909L156.705 79.1717L117.035 60.9592L118.495 57.7784L78.8243 39.5659L77.364 42.7467L37.6933 24.5342L39.1536 21.3534L19.3182 12.2471C6.7373 6.47136 -7.7373 6.47138 -20.3182 12.2472L-40.1535 21.3534L-38.6932 24.5342L-78.364 42.7467L-79.8242 39.5659L-119.495 57.7784L-118.035 60.9592L-157.705 79.1717L-159.166 75.9909L-198.836 94.2034L-197.376 97.3842L-237.047 115.597L-238.507 112.416L-278.178 130.628L-276.717 133.809L-316.388 152.022L-317.848 148.841L-357.519 167.053L-356.059 170.234L-395.729 188.447L-397.19 185.266L-436.86 203.478L-435.4 206.659L-475.071 224.872L-476.531 221.691L-496.366 230.797C-500.541 232.714 -504.347 235.19 -507.709 238.113L-505.413 240.754C-511.764 246.275 -516.406 253.515 -518.774 261.589L-522.132 260.605C-523.386 264.88 -524.048 269.371 -524.048 273.965V295.019H-520.548V337.126H-524.048V379.233H-520.548V421.34H-524.048V463.447H-520.548V505.553H-524.048V547.66H-520.548V589.767H-524.048V631.874H-520.548V673.981H-524.048V695.035Z" stroke="#21A5C3" stroke-width="7" stroke-dasharray="44 44"/>
</svg>
