<svg width="521" height="937" viewBox="0 0 521 937" fill="none" xmlns="http://www.w3.org/2000/svg">
<path d="M38 265.52V668.432C38 685.545 47.9225 701.106 63.4383 708.325L495 909.125L516.42 919.091C518.322 919.976 520.5 918.587 520.5 916.489V19.4893C520.5 16.2272 517.112 14.069 514.156 15.4477L495 24.3804L63.4044 225.643C47.9069 232.869 38 248.42 38 265.52Z" fill="#21A5C3"/>
<path d="M465.19 28.5694L437.68 40.2635L435.724 35.6619L408.214 47.356L410.17 51.9575L382.66 63.6516L380.704 59.0501L353.195 70.7441L355.151 75.3456L327.641 87.0397L325.685 82.4382L298.175 94.1322L300.131 98.7338L272.621 110.428L270.665 105.826L243.155 117.52L245.111 122.122L217.601 133.816L215.645 129.214L188.135 140.909L190.091 145.51L162.581 157.204L160.625 152.603L133.115 164.297L135.071 168.898L107.562 180.592L105.606 175.991L78.0956 187.685L80.0517 192.286L52.5418 203.98L50.5858 199.379L36.8308 205.226C32.3573 207.128 28.2694 209.646 24.6512 212.659L27.8502 216.501C21.22 222.021 16.3494 229.384 13.8634 237.645L9.07549 236.204C7.71883 240.712 7 245.46 7 250.321V265.772H12V296.675H7V327.578H12V358.48H7V389.383H12V420.286H7V451.189H12V482.091H7V512.994H12V543.897H7V574.799H12V605.702H7V636.605H12V667.508H7V682.959C7 687.851 7.72802 692.628 9.10114 697.161L13.8864 695.711C16.4032 704.02 21.3328 711.413 28.0348 716.931L24.8567 720.792C28.5133 723.802 32.6427 726.311 37.1589 728.192L50.9046 733.917L52.8272 729.302L80.3187 740.753L78.3961 745.369L105.888 756.82L107.81 752.204L135.302 763.655L133.379 768.271L160.871 779.722L162.793 775.107L190.285 786.558L188.362 791.173L215.853 802.625L217.776 798.009L245.267 809.46L243.345 814.076L270.836 825.527L272.759 820.911L300.25 832.363L298.328 836.978L325.819 848.429L327.742 843.814L355.233 855.265L353.311 859.88L380.802 871.332L382.725 866.716L410.216 878.167L408.294 882.783L435.785 894.234L437.708 889.618L465.199 901.07L463.277 905.685L476.887 911.354L483.269 914.464L485.459 909.969L498.486 916.316L496.296 920.811L502.81 923.984L510 927.487V919.489V918.286H505.586L506.759 915.878H510V914.675V899.722H505V869.816H510V839.909H505V810.003H510V780.097H505V750.191H510V720.285H505V690.378H510V660.472H505V630.566H510V600.66H505V570.754H510V540.848H505V510.941H510V481.035H505V451.129H510V421.223H505V391.317H510V361.41H505V331.504H510V301.598H505V271.692H510V241.786H505V211.879H510V181.973H505V152.067H510V122.161H505V92.2547H510V62.3485H505V32.4424H510V17.4893C510 15.7845 509.562 14.1805 508.788 12.7882L504.418 15.2184C503.639 13.8171 502.167 12.8979 500.566 12.8124L500.833 7.81955C499.242 7.73461 497.608 8.04511 496.076 8.79311L491.245 11.1522L493.439 15.6452L483.776 20.3633L481.582 15.8703L476.868 18.172L463.234 23.9679L465.19 28.5694Z" stroke="#21A5C3" stroke-width="10" stroke-dasharray="30 30"/>
</svg>
