<svg width="743" height="743" viewBox="0 0 743 743" fill="none" xmlns="http://www.w3.org/2000/svg">
<path d="M388 22.228L665.728 182.575C675.939 188.469 682.228 199.364 682.228 211.153V531.847C682.228 543.636 675.939 554.531 665.728 560.425L388 720.772C377.79 726.667 365.21 726.667 355 720.772L77.2716 560.425C67.0613 554.531 60.7716 543.636 60.7716 531.847V211.153C60.7716 199.364 67.0613 188.469 77.2716 182.575L355 22.228C365.21 16.3331 377.79 16.3331 388 22.228Z" fill="#efefef" stroke="#21A5C3" stroke-width="22"/>
<path d="M247 74L298.175 100L371.981 63L441.856 100L490.5 74" stroke="#21A5C3" stroke-width="10" stroke-dasharray="18 18"/>
<path d="M93.5 164L146.175 190L219.981 153L289.856 190L362.453 153L434.142 190L507.041 153L577.823 190L632 153" stroke="#21A5C3" stroke-width="10" stroke-dasharray="18 18"/>
<path d="M74.4854 243L146.175 280L219.981 243L289.856 280L362.453 243L434.142 280L507.041 243L577.823 280L646.79 243L686 270.5" stroke="#21A5C3" stroke-width="10" stroke-dasharray="18 18"/>
<path d="M74.4854 333L146.175 370L219.981 333L289.856 370L362.453 333L434.142 370L507.041 333L577.823 370L646.79 333L688.5 359.5" stroke="#21A5C3" stroke-width="10" stroke-dasharray="18 18"/>
<path d="M74 423L145.689 460L219.496 423L289.37 460L361.967 423L433.657 460L506.556 423L577.338 460L646.305 423L688.015 449.5" stroke="#21A5C3" stroke-width="10" stroke-dasharray="18 18"/>
<path d="M73 513L144.689 550L218.496 513L288.37 550L360.967 513L432.657 550L505.556 513L576.338 550L645.305 513L687.015 539.5" stroke="#21A5C3" stroke-width="10" stroke-dasharray="18 18"/>
<path d="M177 626L219.981 603L289.855 640L362.452 603L434.142 640L507.041 603L559.5 626" stroke="#21A5C3" stroke-width="10" stroke-dasharray="18 18"/>
<path d="M326 712L363.827 693L410 712" stroke="#21A5C3" stroke-width="10" stroke-dasharray="18 18"/>
</svg>
