<svg width="1002" height="1080" viewBox="0 0 1002 1080" fill="none" xmlns="http://www.w3.org/2000/svg">
<path d="M928.8 379.404C928.8 379.404 858.276 243.324 711.418 197.575C564.559 151.826 496.8 203.364 421.632 259.2C362.513 303.134 316.267 364.457 267.862 419.17C223.538 469.26 158.522 509.89 138.089 576.85C112.169 661.543 171.245 747.922 241.142 792.072C338.688 853.697 433.08 806.89 534.902 785.052L535.464 784.922C550.156 781.667 565.074 779.537 580.09 778.55C698.285 771.833 783.238 854.82 869.163 759.11C955.087 663.401 968.479 486.238 928.8 379.404Z" fill="#21A5C3"/>
<path opacity="0.7" d="M928.8 379.404C928.8 379.404 858.276 243.324 711.418 197.575C564.559 151.826 496.8 203.364 421.632 259.2C362.513 303.134 316.267 364.457 267.862 419.17C223.538 469.26 158.522 509.89 138.089 576.85C112.169 661.543 171.245 747.922 241.142 792.072C338.688 853.697 433.08 806.89 534.902 785.052L535.464 784.922C550.156 781.667 565.074 779.537 580.09 778.55C698.285 771.833 783.238 854.82 869.163 759.11C955.087 663.401 968.479 486.238 928.8 379.404Z" fill="white"/>
<path d="M509.047 394.027C500.039 389.124 495.935 393.206 492.674 389.124C489.412 385.041 501.681 374.371 477.1 363.722C477.1 363.722 475.459 340.805 441.892 339.962C408.326 339.12 417.333 362.88 408.239 368.647C399.146 374.414 396.77 365.364 387.763 371.088C378.755 376.812 382.838 388.368 375.472 389.923C368.107 391.478 358.192 382.557 349.271 388.303C340.351 394.049 340.264 398.93 336.16 398.93C332.056 398.93 323.87 395.669 318.88 398.93C313.891 402.192 308.231 406.317 308.231 406.317H515.591C515.591 406.317 518.054 398.93 509.047 394.027Z" fill="#21A5C3"/>
<path d="M928.627 560.606C915.278 553.327 909.187 559.396 904.349 553.327C899.51 547.257 917.698 531.489 881.302 515.721C881.302 515.721 878.882 481.744 829.116 480.535C779.35 479.325 792.72 514.49 779.436 523C766.152 531.511 762.458 518.14 749.196 526.629C735.934 535.118 741.917 552.117 730.987 554.536C720.058 556.956 705.521 543.628 692.107 552.117C678.694 560.606 678.758 567.885 672.667 567.885C666.576 567.885 654.458 563.025 647.179 567.885C639.9 572.745 631.411 578.815 631.411 578.815H938.326C938.326 578.815 941.976 567.885 928.627 560.606Z" fill="#21A5C3"/>
<path d="M463.709 692.302C450.36 685.022 444.269 691.092 439.43 685.022C434.592 678.953 452.779 663.185 416.383 647.395C416.383 647.395 413.964 613.44 364.219 612.209C314.474 610.978 327.801 646.186 314.539 654.696C301.277 663.206 297.54 649.836 284.191 658.325C270.842 666.814 276.912 683.813 266.004 686.232C255.096 688.651 240.516 675.324 227.124 683.813C213.732 692.302 213.775 699.581 207.684 699.581C201.593 699.581 189.497 694.721 182.217 699.581C174.938 704.441 166.428 710.51 166.428 710.51H473.407C473.407 710.51 477.057 699.581 463.709 692.302Z" fill="#21A5C3"/>
<g opacity="0.4">
<path d="M509.047 394.027C500.039 389.124 495.935 393.206 492.674 389.124C489.412 385.041 501.681 374.371 477.1 363.722C477.1 363.722 475.459 340.805 441.892 339.962C408.326 339.12 417.333 362.88 408.239 368.647C399.146 374.414 396.77 365.364 387.763 371.088C378.755 376.812 382.838 388.368 375.472 389.923C368.107 391.478 358.192 382.557 349.271 388.303C340.351 394.049 340.264 398.93 336.16 398.93C332.056 398.93 323.87 395.669 318.88 398.93C313.891 402.192 308.231 406.317 308.231 406.317H515.591C515.591 406.317 518.054 398.93 509.047 394.027Z" fill="white"/>
<path d="M928.627 560.606C915.278 553.327 909.187 559.396 904.349 553.327C899.51 547.257 917.698 531.489 881.302 515.721C881.302 515.721 878.882 481.744 829.116 480.535C779.35 479.325 792.72 514.49 779.436 523C766.152 531.511 762.458 518.14 749.196 526.629C735.934 535.118 741.917 552.117 730.987 554.536C720.058 556.956 705.521 543.628 692.107 552.117C678.694 560.606 678.758 567.885 672.667 567.885C666.576 567.885 654.458 563.025 647.179 567.885C639.9 572.745 631.411 578.815 631.411 578.815H938.326C938.326 578.815 941.976 567.885 928.627 560.606Z" fill="white"/>
<path d="M463.709 692.302C450.36 685.022 444.269 691.092 439.43 685.022C434.592 678.953 452.779 663.185 416.383 647.395C416.383 647.395 413.964 613.44 364.219 612.209C314.474 610.978 327.801 646.186 314.539 654.696C301.277 663.206 297.54 649.836 284.191 658.325C270.842 666.814 276.912 683.813 266.004 686.232C255.096 688.651 240.516 675.324 227.124 683.813C213.732 692.302 213.775 699.581 207.684 699.581C201.593 699.581 189.497 694.721 182.217 699.581C174.938 704.441 166.428 710.51 166.428 710.51H473.407C473.407 710.51 477.057 699.581 463.709 692.302Z" fill="white"/>
</g>
<path d="M829.073 687.982C829.073 687.982 795.14 682.15 777.687 661.803C760.234 641.455 667.16 531.879 667.16 531.879C667.16 531.879 649.707 525.096 613.829 531.879L656.489 702.519L829.073 687.982Z" fill="#21A5C3"/>
<path d="M897.912 685.066C897.912 685.066 674.914 687.01 596.376 708.329V724.81C596.376 724.81 700.186 757.685 841.622 789.113C858.025 792.769 874.778 794.616 891.583 794.621H939.6V684.094L897.912 685.066Z" fill="#21A5C3"/>
<g opacity="0.3">
<path d="M655.365 698.025C707.637 691.74 773.69 688.478 823.672 686.793C813.391 684.223 790.84 677.16 777.686 661.802C774.316 657.871 768.117 650.613 760.406 641.455C723.686 666.813 680.745 681.005 652.989 688.197L655.365 698.025Z" fill="black"/>
<path d="M649.447 674.352C696.967 658.584 713.188 621.907 718.135 591.862L667.159 531.878C665.461 531.288 663.72 530.826 661.953 530.496C663.681 564.451 651.369 598.104 637.135 625.061L649.447 674.352Z" fill="black"/>
<path d="M829.073 757.771C790.56 753.257 662.753 730.491 608.018 720.641V705.521C603.871 706.428 599.962 707.357 596.376 708.329V724.81H596.57L597.11 724.983L602.942 726.775L607.889 728.287C638.712 737.619 727.963 763.776 841.493 789.005C857.895 792.661 874.649 794.508 891.454 794.513H939.6V759.024C911.39 760.32 862.488 761.703 829.073 757.771Z" fill="black"/>
<path d="M653.594 725.782L740.837 721.915L679.752 706.385H645.84L653.594 725.782Z" fill="black"/>
</g>
<path d="M939.6 777.816H157.68V831.816H939.6V777.816Z" fill="#263238" stroke="#263238" stroke-linecap="round" stroke-linejoin="round"/>
<path d="M939.6 579.096H157.68V592.056H939.6V579.096Z" fill="#263238" stroke="#263238" stroke-linecap="round" stroke-linejoin="round"/>
<path d="M254.88 216.216V808.056" stroke="#263238" stroke-linecap="round" stroke-linejoin="round"/>
<path d="M550.8 216.216V808.056" stroke="#263238" stroke-linecap="round" stroke-linejoin="round"/>
<path d="M846.72 216.216V808.056" stroke="#263238" stroke-linecap="round" stroke-linejoin="round"/>
<path d="M165.262 369.576C423.36 369.36 682.56 369.36 939.6 369.576" stroke="#263238" stroke-linecap="round" stroke-linejoin="round"/>
<path d="M342.295 459.799L349.077 469.455" stroke="#263238" stroke-miterlimit="10"/>
<path d="M279.374 370.224L333.439 447.207" stroke="#263238" stroke-miterlimit="10"/>
<path d="M641.195 685.455L647.978 695.11" stroke="#263238" stroke-miterlimit="10"/>
<path d="M578.274 595.879L632.339 672.862" stroke="#263238" stroke-miterlimit="10"/>
<path d="M665.992 768.139L672.796 777.816" stroke="#263238" stroke-miterlimit="10"/>
<path d="M603.071 678.564L657.158 755.546" stroke="#263238" stroke-miterlimit="10"/>
<path d="M420.271 320.393L427.053 330.048" stroke="#263238" stroke-miterlimit="10"/>
<path d="M357.35 230.817L411.414 307.8" stroke="#263238" stroke-miterlimit="10"/>
<path d="M676.447 274.838L683.23 284.515" stroke="#263238" stroke-miterlimit="10"/>
<path d="M613.526 185.263L667.591 262.246" stroke="#263238" stroke-miterlimit="10"/>
<path d="M920.009 677.182L926.791 686.837" stroke="#263238" stroke-miterlimit="10"/>
<path d="M857.088 587.606L911.153 664.589" stroke="#263238" stroke-miterlimit="10"/>
<path d="M329.292 683.079L336.074 692.755" stroke="#263238" stroke-miterlimit="10"/>
<path d="M266.371 593.503L320.457 670.486" stroke="#263238" stroke-miterlimit="10"/>
<path d="M377.74 287.302L384.523 296.979" stroke="#263238" stroke-miterlimit="10"/>
<path d="M314.819 197.727L368.884 274.709" stroke="#263238" stroke-miterlimit="10"/>
<path d="M729.259 532.094L736.041 541.771" stroke="#263238" stroke-miterlimit="10"/>
<path d="M666.338 442.519L720.424 519.501" stroke="#263238" stroke-miterlimit="10"/>
<path d="M163.577 641.001C166.666 642.362 174.377 642.189 174.377 642.189C174.377 642.189 172.757 637.221 172.606 636.919C170.943 633.42 165.672 627.674 161.396 628.279C160.678 628.391 159.992 628.655 159.384 629.053C158.776 629.451 158.26 629.974 157.869 630.587C157.479 631.2 157.224 631.889 157.12 632.609C157.017 633.328 157.068 634.061 157.27 634.759C157.819 636.187 158.665 637.482 159.753 638.558C160.84 639.634 162.144 640.467 163.577 641.001Z" fill="#263238"/>
<path d="M263.002 615.168C258.682 614.693 253.584 620.589 252.029 624.11C251.878 624.413 250.301 629.424 250.387 629.424C249.588 630.353 248.724 631.346 247.795 632.469C246.111 634.629 244.231 636.789 242.352 639.576C240.302 642.461 238.42 645.461 236.715 648.561C234.795 652.013 233.183 655.627 231.898 659.361C231.907 659.404 231.907 659.448 231.898 659.491C231.898 658.238 231.898 654.696 231.898 654.415C231.401 650.592 228.204 643.485 223.949 642.686C223.239 642.576 222.515 642.617 221.822 642.806C221.129 642.994 220.483 643.326 219.927 643.781C219.371 644.235 218.917 644.801 218.594 645.442C218.271 646.084 218.086 646.786 218.052 647.503C218.108 649.058 218.505 650.581 219.214 651.966C219.923 653.351 220.927 654.563 222.156 655.517C224.575 657.677 231.315 659.837 231.855 659.945C230.621 663.812 229.654 667.76 228.96 671.76C228.55 674.071 228.204 676.404 227.88 678.758C227.88 677.678 227.88 676.598 227.88 676.598C227.383 672.775 224.165 665.669 219.91 664.869C219.205 664.757 218.485 664.792 217.795 664.974C217.106 665.156 216.461 665.48 215.904 665.925C215.347 666.371 214.889 666.928 214.56 667.56C214.23 668.193 214.037 668.888 213.991 669.6C214.059 671.152 214.46 672.672 215.169 674.055C215.877 675.438 216.875 676.652 218.095 677.613C220.998 679.522 224.173 680.978 227.513 681.933C227.383 682.841 227.275 683.726 227.167 684.633C226.649 688.953 226.152 693.273 225.526 697.593C225.31 699.084 225.029 700.531 224.77 701.913C224.77 700.941 224.77 700.121 224.77 699.991C224.273 696.168 221.055 689.061 216.799 688.284C216.09 688.174 215.365 688.215 214.672 688.403C213.979 688.592 213.334 688.924 212.778 689.378C212.221 689.832 211.767 690.399 211.444 691.04C211.121 691.681 210.937 692.383 210.903 693.101C210.973 694.649 211.376 696.165 212.084 697.544C212.792 698.923 213.789 700.133 215.007 701.093C217.808 703.002 220.891 704.459 224.143 705.413C223.819 706.903 223.517 708.393 223.15 709.733C222.869 710.705 222.675 711.677 222.329 712.627L221.422 715.478C220.774 717.249 220.104 719.107 219.435 720.835L218.052 724.313C218.268 722.844 218.679 719.993 218.679 719.669C218.638 716.275 217.723 712.95 216.022 710.013C216.054 709.633 216.054 709.25 216.022 708.869C215.929 708.159 215.689 707.478 215.316 706.867C214.944 706.256 214.447 705.731 213.859 705.324C213.271 704.917 212.604 704.637 211.901 704.504C211.199 704.37 210.476 704.386 209.779 704.549C205.589 705.672 202.954 712.994 202.738 716.861C202.738 717.098 202.889 719.561 202.997 721.181C202.803 720.273 202.608 719.388 202.371 718.459C201.939 716.601 201.442 714.765 200.923 712.8C200.643 711.849 200.34 710.899 200.059 709.949C199.779 708.998 199.39 708.005 199.044 707.011C198.223 704.851 197.273 702.518 196.258 700.272C199.643 699.565 202.9 698.341 205.913 696.643C207.173 695.776 208.232 694.649 209.019 693.337C209.805 692.025 210.3 690.56 210.471 689.04C210.491 688.321 210.36 687.606 210.086 686.941C209.811 686.276 209.4 685.676 208.878 685.181C208.356 684.686 207.736 684.306 207.058 684.066C206.379 683.827 205.658 683.733 204.941 683.791C200.621 684.266 196.906 691.113 196.128 694.893C196.128 695.131 195.826 697.896 195.718 699.429C195.113 698.09 194.508 696.751 193.839 695.412C191.916 691.524 189.843 687.679 187.812 683.813C187.186 682.646 186.559 681.458 185.955 680.27C189.447 679.545 192.811 678.3 195.934 676.577C197.226 675.71 198.316 674.574 199.129 673.247C199.942 671.92 200.458 670.432 200.643 668.887C200.66 668.17 200.527 667.457 200.251 666.795C199.975 666.132 199.563 665.535 199.042 665.042C198.52 664.549 197.901 664.172 197.224 663.934C196.547 663.695 195.828 663.602 195.113 663.66C190.793 664.113 187.078 670.982 186.3 674.762C186.3 675.043 185.89 679.082 185.847 680.054C184.486 677.441 183.168 674.849 181.959 672.213C180.318 668.673 178.911 665.03 177.747 661.305C181.26 660.583 184.646 659.338 187.791 657.612C189.079 656.743 190.165 655.606 190.974 654.279C191.783 652.952 192.296 651.466 192.478 649.922C192.499 649.204 192.368 648.49 192.093 647.826C191.818 647.162 191.406 646.563 190.884 646.07C190.362 645.576 189.741 645.199 189.063 644.962C188.385 644.725 187.664 644.634 186.948 644.695C182.628 645.149 178.935 651.996 178.157 655.776C178.157 656.078 177.703 660.377 177.682 661.154C177.682 660.938 177.531 660.722 177.466 660.506C176.398 656.742 175.675 652.889 175.306 648.993C175.047 646.833 174.939 644.781 174.874 642.773C178.369 642.452 181.794 641.592 185.026 640.224C186.408 639.515 187.618 638.511 188.57 637.283C189.522 636.055 190.192 634.633 190.534 633.117C190.634 632.406 190.584 631.681 190.386 630.99C190.187 630.299 189.846 629.658 189.383 629.108C188.921 628.557 188.348 628.111 187.701 627.797C187.054 627.483 186.349 627.309 185.631 627.285C181.311 627.285 176.839 633.765 175.651 637.351C175.651 637.545 175.155 639.662 174.852 641.196C174.852 640.289 174.852 639.338 174.852 638.474C174.852 635.213 175.068 632.21 175.284 629.553C175.414 628.063 175.543 626.702 175.695 625.428C178.633 623.537 181.263 621.206 183.492 618.516C184.389 617.246 184.997 615.795 185.273 614.265C185.549 612.735 185.487 611.163 185.091 609.66C184.85 608.984 184.469 608.366 183.973 607.846C183.478 607.326 182.879 606.917 182.215 606.644C181.551 606.371 180.837 606.24 180.119 606.261C179.401 606.282 178.696 606.454 178.049 606.765C174.226 608.753 173.211 616.485 173.729 620.287C173.729 620.611 175.241 625.665 175.306 625.622C175.155 626.832 174.982 628.149 174.831 629.575C174.571 632.232 174.291 635.234 174.204 638.517C174.08 642.055 174.167 645.596 174.463 649.123C174.78 653.068 175.437 656.978 176.429 660.809C176.432 660.859 176.432 660.909 176.429 660.96C175.759 659.88 173.751 656.964 173.578 656.64C171.051 653.724 164.441 649.555 160.467 651.261C159.822 651.568 159.249 652.007 158.785 652.55C158.321 653.092 157.976 653.726 157.772 654.41C157.569 655.094 157.511 655.813 157.603 656.521C157.695 657.229 157.935 657.91 158.307 658.519C159.218 659.778 160.39 660.825 161.744 661.589C163.097 662.353 164.599 662.817 166.147 662.947C169.366 663.401 176.148 661.435 176.688 661.284C177.789 665.162 179.161 668.959 180.792 672.645C181.721 674.805 182.715 676.965 183.751 679.125C183.147 678.218 182.585 677.419 182.499 677.311C179.971 674.395 173.362 670.248 169.387 671.933C168.742 672.242 168.169 672.683 167.705 673.227C167.24 673.771 166.895 674.407 166.692 675.093C166.488 675.779 166.431 676.5 166.523 677.209C166.615 677.919 166.855 678.601 167.227 679.212C168.15 680.451 169.327 681.477 170.679 682.222C172.032 682.968 173.528 683.414 175.068 683.532C178.541 683.527 181.993 682.995 185.307 681.955L186.516 684.417C188.482 688.305 190.447 692.193 192.283 696.081C192.91 697.442 193.493 698.803 194.076 700.185C193.536 699.365 193.061 698.695 192.975 698.609C190.469 695.693 183.859 691.524 179.885 693.209C179.24 693.518 178.667 693.959 178.202 694.503C177.738 695.047 177.393 695.683 177.19 696.369C176.986 697.055 176.929 697.776 177.021 698.485C177.113 699.195 177.353 699.877 177.725 700.488C178.64 701.734 179.815 702.766 181.169 703.512C182.523 704.258 184.024 704.7 185.566 704.808C188.943 704.84 192.304 704.337 195.523 703.317C196.085 704.743 196.647 706.147 197.122 707.637C197.424 708.609 197.791 709.517 198.051 710.489C198.31 711.461 198.569 712.411 198.85 713.361C199.282 715.219 199.757 717.12 200.146 718.934C200.427 720.187 200.664 721.397 200.923 722.606C200.297 721.245 199.023 718.589 198.763 718.394C196.711 715.111 190.836 710.013 186.646 711.072C185.954 711.268 185.311 711.608 184.76 712.069C184.208 712.53 183.759 713.102 183.444 713.748C183.128 714.394 182.951 715.099 182.926 715.818C182.901 716.537 183.028 717.253 183.298 717.919C183.979 719.323 184.961 720.56 186.174 721.542C187.388 722.524 188.802 723.227 190.318 723.6C193.819 724.129 197.379 724.129 200.88 723.6C201.269 725.609 201.636 727.553 201.96 729.41C203.105 735.89 203.796 741.225 204.12 745.005C204.12 745.675 204.271 746.258 204.336 746.841H191.376L196.128 839.549H218.311L223.063 746.841H211.032L211.291 746.28C212.955 742.802 215.266 737.834 217.771 731.743C218.571 729.799 219.37 727.747 220.191 725.609C223.65 726.411 227.211 726.688 230.753 726.429C232.286 726.181 233.747 725.604 235.037 724.739C236.326 723.874 237.414 722.742 238.227 721.418C238.544 720.774 238.722 720.071 238.751 719.353C238.78 718.636 238.658 717.921 238.394 717.253C238.129 716.586 237.728 715.981 237.215 715.478C236.703 714.975 236.091 714.585 235.419 714.333C231.315 712.973 225.051 717.617 222.761 720.813C222.631 721.008 221.379 723.146 220.601 724.529C220.925 723.643 221.249 722.801 221.573 721.893C222.221 720.122 222.826 718.308 223.474 716.385C223.755 715.435 224.057 714.485 224.338 713.513C224.619 712.541 224.856 711.525 225.115 710.532C225.655 708.177 226.109 705.78 226.519 703.361C229.724 704.633 233.103 705.413 236.542 705.672C238.098 705.66 239.633 705.313 241.042 704.653C242.451 703.993 243.701 703.036 244.707 701.849C245.117 701.26 245.398 700.592 245.534 699.888C245.669 699.183 245.655 698.458 245.492 697.76C245.329 697.061 245.021 696.405 244.588 695.833C244.155 695.261 243.607 694.786 242.979 694.44C239.134 692.453 232.179 696.103 229.5 698.76C229.349 698.933 227.599 701.114 226.671 702.324C226.887 700.855 227.124 699.408 227.319 698.004C227.837 693.684 228.247 689.364 228.679 685.044C228.809 683.705 228.939 682.387 229.09 681.048C232.403 682.379 235.899 683.202 239.458 683.489C241.012 683.486 242.547 683.142 243.954 682.481C245.361 681.821 246.606 680.859 247.601 679.665C248.015 679.079 248.301 678.412 248.44 677.708C248.578 677.004 248.567 676.279 248.406 675.579C248.245 674.88 247.938 674.222 247.505 673.65C247.072 673.077 246.523 672.603 245.895 672.257C242.05 670.269 235.095 673.92 232.416 676.577C232.222 676.793 229.716 679.925 229.111 680.745C229.414 677.829 229.759 674.913 230.191 672.105C230.78 668.254 231.617 664.444 232.697 660.701C232.956 660.701 239.803 663.379 243.13 663.141C244.684 663.139 246.219 662.795 247.626 662.134C249.033 661.473 250.278 660.512 251.273 659.318C251.686 658.731 251.971 658.063 252.108 657.358C252.245 656.652 252.232 655.926 252.068 655.227C251.905 654.527 251.596 653.87 251.161 653.298C250.726 652.727 250.176 652.253 249.545 651.909C245.722 649.922 238.745 653.573 236.088 656.229C235.872 656.445 233.172 659.815 232.74 660.549C232.74 660.333 232.74 660.117 232.913 659.901C234.091 656.174 235.602 652.559 237.427 649.101C238.421 647.179 239.458 645.408 240.516 643.68C243.605 645.346 246.936 646.519 250.387 647.157C251.951 647.334 253.535 647.166 255.028 646.666C256.52 646.166 257.885 645.346 259.027 644.263C259.504 643.724 259.861 643.091 260.075 642.404C260.289 641.718 260.355 640.994 260.269 640.28C260.184 639.566 259.948 638.878 259.577 638.261C259.207 637.645 258.71 637.114 258.12 636.703C254.535 634.305 247.32 637.178 244.253 639.597C244.102 639.727 242.568 641.239 241.488 642.362C241.963 641.585 242.46 640.785 242.935 640.073C244.75 637.329 246.586 634.953 248.206 632.858C249.156 631.67 250.02 630.698 250.841 629.64C254.337 629.68 257.819 629.185 261.166 628.171C262.607 627.601 263.908 626.727 264.982 625.609C266.055 624.49 266.875 623.154 267.387 621.691C267.6 620.971 267.652 620.213 267.539 619.471C267.425 618.728 267.149 618.02 266.73 617.397C266.311 616.774 265.76 616.251 265.115 615.865C264.471 615.48 263.749 615.242 263.002 615.168ZM215.482 730.663C212.89 736.646 210.492 741.463 208.764 744.919L207.835 746.777H207.36C207.36 746.107 207.187 745.373 207.079 744.617C206.561 740.815 205.719 735.372 204.444 728.913C204.034 726.883 203.58 724.701 203.062 722.433C205.092 721.631 207.069 720.701 208.98 719.647C211.596 721.885 214.502 723.76 217.62 725.22C216.907 727.121 216.151 728.957 215.395 730.663H215.482Z" fill="#263238"/>
<path d="M240.344 642.665C240.344 642.665 241.726 637.632 241.769 637.286C242.309 633.463 241.078 625.774 237.19 623.873C236.535 623.58 235.825 623.428 235.108 623.428C234.39 623.427 233.68 623.577 233.025 623.868C232.369 624.16 231.782 624.586 231.301 625.118C230.82 625.651 230.457 626.279 230.235 626.962C229.889 628.476 229.874 630.048 230.191 631.568C230.508 633.089 231.149 634.524 232.071 635.774C233.907 638.626 240.344 642.665 240.344 642.665Z" fill="#263238"/>
<path d="M902.858 266.63H520.538C513.381 266.63 507.578 272.433 507.578 279.59V497.75C507.578 504.908 513.381 510.71 520.538 510.71H902.858C910.016 510.71 915.818 504.908 915.818 497.75V279.59C915.818 272.433 910.016 266.63 902.858 266.63Z" fill="#263238" stroke="#263238" stroke-linecap="round" stroke-linejoin="round"/>
<path d="M505.008 331.452H917.33" stroke="white" stroke-linecap="round" stroke-linejoin="round"/>
<path d="M612.878 304.949H809.46" stroke="white" stroke-width="2" stroke-linecap="round" stroke-linejoin="round"/>
<path d="M607.327 332.467V508.442" stroke="white" stroke-linecap="round" stroke-linejoin="round"/>
<path d="M714.744 332.467V508.442" stroke="white" stroke-linecap="round" stroke-linejoin="round"/>
<path d="M822.183 332.467V508.442" stroke="white" stroke-linecap="round" stroke-linejoin="round"/>
<path d="M520.344 354.974H545.94" stroke="white" stroke-linecap="round" stroke-linejoin="round"/>
<path d="M520.344 367.265H554.947" stroke="white" stroke-linecap="round" stroke-linejoin="round"/>
<path d="M520.344 379.534H545.94" stroke="white" stroke-linecap="round" stroke-linejoin="round"/>
<path d="M520.344 391.802H566.028" stroke="white" stroke-linecap="round" stroke-linejoin="round"/>
<path d="M520.344 404.093H545.94" stroke="white" stroke-linecap="round" stroke-linejoin="round"/>
<path d="M520.344 416.361H554.321" stroke="white" stroke-linecap="round" stroke-linejoin="round"/>
<path d="M520.344 428.652H545.94" stroke="white" stroke-linecap="round" stroke-linejoin="round"/>
<path d="M520.344 440.921H574.041" stroke="white" stroke-linecap="round" stroke-linejoin="round"/>
<path d="M520.344 453.189H545.94" stroke="white" stroke-linecap="round" stroke-linejoin="round"/>
<path d="M520.344 465.48H556.178" stroke="white" stroke-linecap="round" stroke-linejoin="round"/>
<path d="M520.344 477.749H545.94" stroke="white" stroke-linecap="round" stroke-linejoin="round"/>
<path d="M520.344 490.039H545.94" stroke="white" stroke-linecap="round" stroke-linejoin="round"/>
<path d="M630.05 354.974H655.624" stroke="white" stroke-linecap="round" stroke-linejoin="round"/>
<path d="M630.05 367.265H664.631" stroke="white" stroke-linecap="round" stroke-linejoin="round"/>
<path d="M630.05 379.534H655.624" stroke="white" stroke-linecap="round" stroke-linejoin="round"/>
<path d="M630.05 391.802H675.734" stroke="white" stroke-linecap="round" stroke-linejoin="round"/>
<path d="M630.05 404.093H655.624" stroke="white" stroke-linecap="round" stroke-linejoin="round"/>
<path d="M630.05 416.361H664.027" stroke="white" stroke-linecap="round" stroke-linejoin="round"/>
<path d="M630.05 428.652H655.624" stroke="white" stroke-linecap="round" stroke-linejoin="round"/>
<path d="M630.05 440.921H683.747" stroke="white" stroke-linecap="round" stroke-linejoin="round"/>
<path d="M630.05 453.189H655.624" stroke="white" stroke-linecap="round" stroke-linejoin="round"/>
<path d="M630.05 465.48H665.863" stroke="white" stroke-linecap="round" stroke-linejoin="round"/>
<path d="M630.05 477.749H655.624" stroke="white" stroke-linecap="round" stroke-linejoin="round"/>
<path d="M630.05 490.039H655.624" stroke="white" stroke-linecap="round" stroke-linejoin="round"/>
<path d="M739.735 354.974H765.31" stroke="white" stroke-linecap="round" stroke-linejoin="round"/>
<path d="M739.735 367.265H774.339" stroke="white" stroke-linecap="round" stroke-linejoin="round"/>
<path d="M739.735 379.534H765.31" stroke="white" stroke-linecap="round" stroke-linejoin="round"/>
<path d="M739.735 391.802H785.419" stroke="white" stroke-linecap="round" stroke-linejoin="round"/>
<path d="M739.735 404.093H765.31" stroke="white" stroke-linecap="round" stroke-linejoin="round"/>
<path d="M739.735 416.361H773.712" stroke="white" stroke-linecap="round" stroke-linejoin="round"/>
<path d="M739.735 428.652H765.31" stroke="white" stroke-linecap="round" stroke-linejoin="round"/>
<path d="M739.735 440.921H793.433" stroke="white" stroke-linecap="round" stroke-linejoin="round"/>
<path d="M739.735 453.189H765.31" stroke="white" stroke-linecap="round" stroke-linejoin="round"/>
<path d="M739.735 465.48H775.57" stroke="white" stroke-linecap="round" stroke-linejoin="round"/>
<path d="M739.735 477.749H765.31" stroke="white" stroke-linecap="round" stroke-linejoin="round"/>
<path d="M739.735 490.039H765.31" stroke="white" stroke-linecap="round" stroke-linejoin="round"/>
<path d="M849.42 354.974H875.016" stroke="white" stroke-linecap="round" stroke-linejoin="round"/>
<path d="M849.42 367.265H884.023" stroke="white" stroke-linecap="round" stroke-linejoin="round"/>
<path d="M849.42 379.534H875.016" stroke="white" stroke-linecap="round" stroke-linejoin="round"/>
<path d="M849.42 391.802H895.104" stroke="white" stroke-linecap="round" stroke-linejoin="round"/>
<path d="M849.42 404.093H875.016" stroke="white" stroke-linecap="round" stroke-linejoin="round"/>
<path d="M849.42 416.361H883.397" stroke="white" stroke-linecap="round" stroke-linejoin="round"/>
<path d="M849.42 428.652H875.016" stroke="white" stroke-linecap="round" stroke-linejoin="round"/>
<path d="M849.42 440.921H903.117" stroke="white" stroke-linecap="round" stroke-linejoin="round"/>
<path d="M849.42 453.189H875.016" stroke="white" stroke-linecap="round" stroke-linejoin="round"/>
<path d="M849.42 465.48H885.254" stroke="white" stroke-linecap="round" stroke-linejoin="round"/>
<path d="M849.42 477.749H875.016" stroke="white" stroke-linecap="round" stroke-linejoin="round"/>
<path d="M849.42 490.039H875.016" stroke="white" stroke-linecap="round" stroke-linejoin="round"/>
<path d="M542.613 313.848C542.613 313.114 542.613 312.422 542.613 311.688C542.613 311.58 542.743 311.45 542.851 311.364L545.4 309.442C545.52 309.346 545.598 309.206 545.616 309.053C545.616 306.418 545.616 303.804 545.616 301.19C545.623 301.097 545.623 301.003 545.616 300.91L533.52 304.733C533.52 304.582 533.52 304.495 533.52 304.387C533.52 303.588 533.52 302.767 533.52 301.968C533.511 301.875 533.531 301.781 533.577 301.7C533.624 301.619 533.694 301.554 533.779 301.514C537.638 299.095 541.512 296.683 545.4 294.278C545.501 294.221 545.583 294.135 545.637 294.031C545.691 293.928 545.713 293.811 545.702 293.695C545.702 291.06 545.702 288.446 545.702 285.811C545.676 285.411 545.757 285.01 545.937 284.651C546.117 284.292 546.388 283.987 546.725 283.767C547.061 283.548 547.449 283.421 547.85 283.401C548.251 283.38 548.65 283.467 549.007 283.651C549.414 283.837 549.753 284.145 549.977 284.532C550.201 284.919 550.3 285.366 550.26 285.811V293.652C550.248 293.787 550.277 293.923 550.342 294.042C550.408 294.161 550.507 294.258 550.627 294.322L562.118 301.493C562.225 301.547 562.315 301.63 562.377 301.734C562.438 301.837 562.468 301.956 562.464 302.076C562.464 302.962 562.464 303.826 562.464 304.754L550.303 300.953C550.303 301.082 550.303 301.19 550.303 301.277V308.88C550.292 308.994 550.313 309.108 550.362 309.211C550.412 309.313 550.488 309.401 550.584 309.463C551.448 310.09 552.29 310.738 553.132 311.386C553.257 311.496 553.335 311.651 553.348 311.818C553.348 312.466 553.348 313.114 553.348 313.826L551.188 313.2L548.38 312.401C548.152 312.358 547.918 312.358 547.689 312.401L542.937 313.762L542.613 313.848Z" fill="white"/>
<path d="M547.84 319.054C559.078 319.054 568.188 309.944 568.188 298.707C568.188 287.469 559.078 278.359 547.84 278.359C536.603 278.359 527.493 287.469 527.493 298.707C527.493 309.944 536.603 319.054 547.84 319.054Z" stroke="white" stroke-linecap="round" stroke-linejoin="round"/>
<path d="M438.005 941.134C541.969 941.134 626.249 928.929 626.249 913.874C626.249 898.82 541.969 886.615 438.005 886.615C334.04 886.615 249.761 898.82 249.761 913.874C249.761 928.929 334.04 941.134 438.005 941.134Z" fill="#21A5C3"/>
<path opacity="0.5" d="M438.005 941.134C541.969 941.134 626.249 928.929 626.249 913.874C626.249 898.82 541.969 886.615 438.005 886.615C334.04 886.615 249.761 898.82 249.761 913.874C249.761 928.929 334.04 941.134 438.005 941.134Z" fill="white"/>
<path d="M519.459 747.641C518.886 747.641 518.337 747.413 517.931 747.008C517.526 746.603 517.299 746.053 517.299 745.481V620.546C517.299 619.973 517.526 619.424 517.931 619.019C518.337 618.614 518.886 618.386 519.459 618.386C520.032 618.386 520.581 618.614 520.986 619.019C521.391 619.424 521.619 619.973 521.619 620.546V745.481C521.619 746.053 521.391 746.603 520.986 747.008C520.581 747.413 520.032 747.641 519.459 747.641Z" fill="#263238"/>
<path d="M519.459 644.933C518.599 644.933 517.775 644.591 517.168 643.984C516.56 643.376 516.219 642.552 516.219 641.693V620.546C516.219 619.687 516.56 618.863 517.168 618.255C517.775 617.647 518.599 617.306 519.459 617.306C520.318 617.306 521.142 617.647 521.75 618.255C522.357 618.863 522.699 619.687 522.699 620.546V641.693C522.699 642.552 522.357 643.376 521.75 643.984C521.142 644.591 520.318 644.933 519.459 644.933Z" fill="#263238"/>
<path d="M514.253 747.641C513.68 747.641 513.13 747.413 512.725 747.008C512.32 746.603 512.093 746.053 512.093 745.481V620.546C512.093 619.973 512.32 619.424 512.725 619.019C513.13 618.614 513.68 618.386 514.253 618.386C514.826 618.386 515.375 618.614 515.78 619.019C516.185 619.424 516.413 619.973 516.413 620.546V745.481C516.413 746.053 516.185 746.603 515.78 747.008C515.375 747.413 514.826 747.641 514.253 747.641Z" fill="#263238"/>
<path d="M514.253 644.933C513.393 644.933 512.569 644.591 511.962 643.984C511.354 643.376 511.013 642.552 511.013 641.693V620.546C511.013 619.687 511.354 618.863 511.962 618.255C512.569 617.647 513.393 617.306 514.253 617.306C515.112 617.306 515.936 617.647 516.544 618.255C517.151 618.863 517.493 619.687 517.493 620.546V641.693C517.493 642.552 517.151 643.376 516.544 643.984C515.936 644.591 515.112 644.933 514.253 644.933Z" fill="#263238"/>
<path d="M519.459 617.306H514.253V623.635H519.415L519.459 617.306Z" fill="#263238"/>
<path d="M520.97 896.875H515.916V907.329H520.97V896.875Z" fill="#263238" stroke="#263238" stroke-linecap="round" stroke-linejoin="round"/>
<path d="M556.654 896.875H551.6V907.329H556.654V896.875Z" fill="#263238" stroke="#263238" stroke-linecap="round" stroke-linejoin="round"/>
<path d="M535.745 896.875H530.69V907.329H535.745V896.875Z" fill="#263238" stroke="#263238" stroke-linecap="round" stroke-linejoin="round"/>
<path d="M571.45 896.875H566.396V907.329H571.45V896.875Z" fill="#263238" stroke="#263238" stroke-linecap="round" stroke-linejoin="round"/>
<path d="M568.08 728.654H519.112C512.754 728.654 507.6 733.809 507.6 740.167V885.622C507.6 891.98 512.754 897.134 519.112 897.134H568.08C574.438 897.134 579.592 891.98 579.592 885.622V740.167C579.592 733.809 574.438 728.654 568.08 728.654Z" fill="white" stroke="#263238" stroke-linecap="round" stroke-linejoin="round"/>
<path d="M568.101 728.654H561.6C555.241 728.654 550.087 733.809 550.087 740.167V885.622C550.087 891.98 555.241 897.134 561.6 897.134H568.101C574.46 897.134 579.614 891.98 579.614 885.622V740.167C579.614 733.809 574.46 728.654 568.101 728.654Z" fill="#263238" stroke="#263238" stroke-linecap="round" stroke-linejoin="round"/>
<path d="M541.253 728.654C539.739 728.654 538.24 728.953 536.842 729.533C535.444 730.113 534.174 730.963 533.105 732.034C532.035 733.105 531.188 734.377 530.61 735.776C530.033 737.176 529.737 738.675 529.74 740.189V885.6C529.968 888.063 530.852 890.419 532.299 892.425C533.746 894.431 535.705 896.012 537.97 897.005" stroke="#263238" stroke-linecap="round" stroke-linejoin="round"/>
<path d="M361.044 727.38C361.044 727.38 368.863 746.669 367.524 763.646C366.185 780.624 361.044 808.164 364.759 819.655C368.474 831.146 376.704 876.83 376.704 876.83C376.704 876.83 372.578 881.409 372.578 885.47C372.578 889.531 373.961 910.245 373.961 910.245H376.704L379.469 889.596C380.603 890.101 381.606 890.861 382.4 891.816C383.194 892.771 383.758 893.896 384.048 895.104C384.502 898.776 385.884 909.338 387.72 909.792C390.011 910.028 392.32 910.028 394.61 909.792C394.61 909.792 397.354 907.956 395.993 906.573C394.011 904.778 392.713 902.35 392.321 899.705C391.392 895.557 389.102 889.596 389.102 881.798V812.678C389.102 792.482 391.846 776.865 392.774 758.959C393.366 748.872 393.055 738.751 391.846 728.719L361.044 727.38Z" fill="white"/>
<mask id="mask0_1048_99" style="mask-type:luminance" maskUnits="userSpaceOnUse" x="361" y="727" width="36" height="184">
<path d="M361.044 727.38C361.044 727.38 368.863 746.669 367.524 763.646C366.185 780.624 361.044 808.164 364.759 819.655C368.474 831.146 376.704 876.83 376.704 876.83C376.704 876.83 372.578 881.409 372.578 885.47C372.578 889.531 373.961 910.245 373.961 910.245H376.704L379.469 889.596C380.603 890.101 381.606 890.861 382.4 891.816C383.194 892.771 383.758 893.896 384.048 895.104C384.502 898.776 385.884 909.338 387.72 909.792C390.011 910.028 392.32 910.028 394.61 909.792C394.61 909.792 397.354 907.956 395.993 906.573C394.011 904.778 392.713 902.35 392.321 899.705C391.392 895.557 389.102 889.596 389.102 881.798V812.678C389.102 792.482 391.846 776.865 392.774 758.959C393.366 748.872 393.055 738.751 391.846 728.719L361.044 727.38Z" fill="white"/>
</mask>
<g mask="url(#mask0_1048_99)">
<path d="M361.93 729.756C363.472 734.106 364.735 738.55 365.71 743.061H392.882C392.688 736.387 392.17 731.678 391.932 729.756H361.93Z" fill="#21A5C3"/>
<path opacity="0.5" d="M361.93 729.756C363.472 734.106 364.735 738.55 365.71 743.061H392.882C392.688 736.387 392.17 731.678 391.932 729.756H361.93Z" fill="white"/>
</g>
<path d="M361.044 727.38C361.044 727.38 368.863 746.669 367.524 763.646C366.185 780.624 361.044 808.164 364.759 819.655C368.474 831.146 376.704 876.83 376.704 876.83C376.704 876.83 372.578 881.409 372.578 885.47C372.578 889.531 373.961 910.245 373.961 910.245H376.704L379.469 889.596C380.603 890.101 381.606 890.861 382.4 891.816C383.194 892.771 383.758 893.896 384.048 895.104C384.502 898.776 385.884 909.338 387.72 909.792C390.011 910.028 392.32 910.028 394.61 909.792C394.61 909.792 397.354 907.956 395.993 906.573C394.011 904.778 392.713 902.35 392.321 899.705C391.392 895.557 389.102 889.596 389.102 881.798V812.678C389.102 792.482 391.846 776.865 392.774 758.959C393.366 748.872 393.055 738.751 391.846 728.719L361.044 727.38Z" stroke="#263238" stroke-linecap="round" stroke-linejoin="round"/>
<path d="M387.98 910.008H381.089C381.089 910.008 378.929 909.835 378.67 901.519C378.578 897.039 378.028 892.581 377.028 888.213C378.311 887.823 379.674 887.776 380.981 888.075C382.289 888.374 383.495 889.01 384.48 889.92C388.239 893.095 389.146 905.645 389.6 907.2C389.869 908.195 390.331 909.127 390.96 909.943L387.98 910.008Z" fill="white" stroke="#263238" stroke-linecap="round" stroke-linejoin="round"/>
<path d="M392.278 899.791C391.066 895.626 390.107 891.392 389.405 887.112C388.614 884.504 387.573 881.98 386.294 879.573C383.098 874.065 376.661 876.83 376.661 876.83C376.661 876.83 372.535 881.409 372.535 885.47C372.535 889.531 373.918 910.245 373.918 910.245H376.661L379.426 889.596C380.56 890.101 381.563 890.861 382.357 891.816C383.151 892.771 383.715 893.896 384.005 895.104C384.458 898.776 385.841 909.338 387.677 909.792C389.967 910.028 392.276 910.028 394.567 909.792C394.567 909.792 397.31 907.956 395.95 906.573C393.985 904.8 392.689 902.406 392.278 899.791Z" fill="#263238" stroke="#263238" stroke-linecap="round" stroke-linejoin="round"/>
<path d="M405.237 730.274C405.237 730.274 409.557 743.623 408.78 749.909C408.002 756.194 387.568 775.418 385.214 786.823C382.86 798.228 377.352 824.126 375.408 835.121C373.464 846.115 371.822 852.595 368.496 855.554C365.169 858.513 359.056 855.792 354.434 861.041C349.812 866.289 336.29 882.425 336.29 882.425L338.169 884.088L354.045 874.389C354.045 874.389 361.368 877.176 361.519 881.496C361.887 887.499 362.725 893.465 364.024 899.337C364.996 902.945 371.671 910.008 375.948 911.045C380.224 912.081 380.116 906.725 378.41 905.709C376.704 904.694 374.263 899.229 374.652 892.49C375.04 885.751 377.74 865.922 380.376 861.343C383.011 856.764 406.425 807.343 418.586 791.532C430.747 775.721 434.678 761.292 437.443 757.361C440.208 753.429 440.186 744.012 440.186 738.914C440.177 735.759 439.917 732.61 439.408 729.497L405.237 730.274Z" fill="white"/>
<mask id="mask1_1048_99" style="mask-type:luminance" maskUnits="userSpaceOnUse" x="336" y="729" width="105" height="183">
<path d="M405.237 730.274C405.237 730.274 409.557 743.623 408.78 749.909C408.002 756.194 387.568 775.418 385.214 786.823C382.86 798.228 377.352 824.126 375.408 835.121C373.464 846.115 371.822 852.595 368.496 855.554C365.169 858.513 359.056 855.792 354.434 861.041C349.812 866.289 336.29 882.425 336.29 882.425L338.169 884.088L354.045 874.389C354.045 874.389 361.368 877.176 361.519 881.496C361.887 887.499 362.725 893.465 364.024 899.337C364.996 902.945 371.671 910.008 375.948 911.045C380.224 912.081 380.116 906.725 378.41 905.709C376.704 904.694 374.263 899.229 374.652 892.49C375.04 885.751 377.74 865.922 380.376 861.343C383.011 856.764 406.425 807.343 418.586 791.532C430.747 775.721 434.678 761.292 437.443 757.361C440.208 753.429 440.186 744.012 440.186 738.914C440.177 735.759 439.917 732.61 439.408 729.497L405.237 730.274Z" fill="white"/>
</mask>
<g mask="url(#mask1_1048_99)">
<path d="M405.237 730.274C406.566 734.462 407.612 738.734 408.369 743.061H440.143C440.143 741.528 440.143 740.102 440.143 738.914C440.127 735.847 439.881 732.786 439.408 729.756H427.917L405.237 730.274Z" fill="#21A5C3"/>
<path opacity="0.5" d="M405.237 730.274C406.566 734.462 407.612 738.734 408.369 743.061H440.143C440.143 741.528 440.143 740.102 440.143 738.914C440.127 735.847 439.881 732.786 439.408 729.756H427.917L405.237 730.274Z" fill="white"/>
</g>
<path d="M405.237 730.274C405.237 730.274 409.557 743.623 408.78 749.909C408.002 756.194 387.568 775.418 385.214 786.823C382.86 798.228 377.352 824.126 375.408 835.121C373.464 846.115 371.822 852.595 368.496 855.554C365.169 858.513 359.056 855.792 354.434 861.041C349.812 866.289 336.29 882.425 336.29 882.425L338.169 884.088L354.045 874.389C354.045 874.389 361.368 877.176 361.519 881.496C361.887 887.499 362.725 893.465 364.024 899.337C364.996 902.945 371.671 910.008 375.948 911.045C380.224 912.081 380.116 906.725 378.41 905.709C376.704 904.694 374.263 899.229 374.652 892.49C375.04 885.751 377.74 865.922 380.376 861.343C383.011 856.764 406.425 807.343 418.586 791.532C430.747 775.721 434.678 761.292 437.443 757.361C440.208 753.429 440.186 744.012 440.186 738.914C440.177 735.759 439.917 732.61 439.408 729.497L405.237 730.274Z" stroke="#263238" stroke-linecap="round" stroke-linejoin="round"/>
<path d="M354.046 874.389C354.046 874.389 357.459 883.634 357.178 888.343C356.897 893.052 354.759 896.443 356.897 900.115C359.035 903.787 362.686 909.101 375.948 911.045C375.948 911.045 369.144 899.251 368.82 891.367C368.496 883.483 367.222 871.214 363.334 870.199C359.446 869.184 354.348 869.292 354.046 874.389Z" fill="white" stroke="#263238" stroke-linecap="round" stroke-linejoin="round"/>
<path d="M378.411 905.709C376.704 904.781 374.263 899.229 374.652 892.49C369.511 885.902 372.492 876.225 368.95 868.557C367.111 864.179 364.042 860.427 360.115 857.757C357.935 858.196 355.961 859.342 354.499 861.019C349.855 866.246 336.355 882.403 336.355 882.403L338.235 884.066L354.111 874.368C354.111 874.368 361.433 877.154 361.584 881.474C361.953 887.478 362.79 893.443 364.09 899.316C365.062 902.923 371.736 909.986 376.013 911.023C380.29 912.06 380.16 906.617 378.411 905.709Z" fill="#263238" stroke="#263238" stroke-linecap="round" stroke-linejoin="round"/>
<path d="M347.285 504.749C343.594 509.793 340.682 515.363 338.645 521.273C335.902 529.913 311.558 597.477 315.706 601.603C319.853 605.729 361.606 619.034 361.606 619.034L368.496 600.221L344.153 588.751L359.273 540.086C359.273 540.086 363.355 511.164 347.285 504.749Z" fill="#4FE1F9" stroke="#263238" stroke-linecap="round" stroke-linejoin="round"/>
<path d="M325.404 600.48C335.189 599.292 344.067 588.816 344.067 588.816C344.206 593.89 342.639 598.864 339.617 602.942" stroke="#263238" stroke-linecap="round" stroke-linejoin="round"/>
<path d="M353.225 555.293C353.225 555.293 349.51 552.204 342.079 536.112" stroke="#263238" stroke-linecap="round" stroke-linejoin="round"/>
<path d="M352.598 558.382C345.622 555.235 338.816 551.724 332.208 547.862" stroke="#263238" stroke-linecap="round" stroke-linejoin="round"/>
<path d="M366.099 602.985C366.099 602.985 355.083 621.345 347.739 658.065C343.299 682.43 341.913 707.252 343.613 731.959C343.613 731.959 385.841 741.161 460.663 731.959C460.663 731.959 453.319 639.252 425.779 602.985H366.099Z" fill="#4FE1F9" stroke="#263238" stroke-linecap="round" stroke-linejoin="round"/>
<path d="M342.922 714.333C342.922 725.133 343.613 731.959 343.613 731.959C343.613 731.959 385.841 741.161 460.664 731.959C460.664 731.959 460.123 725.09 458.784 714.355C395.928 720.814 355.579 716.213 342.922 714.333Z" fill="#263238" stroke="#263238" stroke-linecap="round" stroke-linejoin="round"/>
<path d="M371.52 496.476C371.52 496.476 350.871 501.53 347.199 504.749C343.527 507.967 345.363 524.945 347.652 535.961C349.942 546.977 366.012 602.921 366.012 602.921H425.693C425.693 602.921 439.474 512.935 438.999 505.138C438.523 497.34 401.825 492.286 401.825 492.286L371.52 496.476Z" fill="#4FE1F9" stroke="#263238" stroke-linecap="round" stroke-linejoin="round"/>
<path d="M362.06 588.751L366.099 602.985H425.78C425.78 602.985 426.644 597.326 427.94 588.751H362.06Z" fill="#263238" stroke="#263238" stroke-linecap="round" stroke-linejoin="round"/>
<path d="M492.609 606.398C494.972 607.438 497.476 608.122 500.04 608.429C502.74 608.429 511.876 604.368 515.592 605.037C519.307 605.707 526.737 617.544 527.752 619.229C528.768 620.913 523.843 622.447 522.007 623.959C518.94 626.508 516.196 624.175 516.607 622.944L517.276 620.244C517.276 620.244 514.252 618.386 512.2 620.244C509.672 622.437 506.432 623.634 503.085 623.613C499.024 623.613 490.255 617.544 490.255 617.544L492.609 606.398Z" fill="white" stroke="#263238" stroke-linecap="round" stroke-linejoin="round"/>
<path d="M422.107 558.446C422.107 558.446 423.943 594.259 426.233 597.931C428.523 601.603 453.773 613.051 466.171 616.744C474.442 619.092 482.885 620.782 491.422 621.799L495.094 605.275C495.094 605.275 463.428 587.822 456.991 583.675C450.555 579.528 446.429 576.331 446.429 576.331C446.429 576.331 444.593 527.666 444.139 518.486C443.686 509.306 443.686 504.727 439.56 502.416C435.122 500.457 430.507 498.924 425.779 497.836" fill="#4FE1F9"/>
<path d="M422.107 558.446C422.107 558.446 423.943 594.259 426.233 597.931C428.523 601.603 453.773 613.051 466.171 616.744C474.442 619.092 482.885 620.782 491.422 621.799L495.094 605.275C495.094 605.275 463.428 587.822 456.991 583.675C450.555 579.528 446.429 576.331 446.429 576.331C446.429 576.331 444.593 527.666 444.139 518.486C443.686 509.306 443.686 504.727 439.56 502.416C435.122 500.457 430.507 498.924 425.779 497.836" stroke="#263238" stroke-linecap="round" stroke-linejoin="round"/>
<path d="M435.434 589.291C442.238 585.576 446.428 576.331 446.428 576.331C446.428 576.331 435.434 582.465 426.772 578.75" stroke="#263238" stroke-linecap="round" stroke-linejoin="round"/>
<path d="M385.063 426.708C380.897 427.915 377.129 430.21 374.145 433.358C371.161 436.505 369.069 440.39 368.085 444.614C363.938 459.734 367.157 474.854 367.157 480.405C367.157 485.957 363.938 510.257 360.677 527.688C357.415 545.119 352.879 564.883 352.879 564.883C352.879 564.883 366.206 568.08 372.621 569.009L385.927 570.845L388.238 559.829L390.074 571.298C394.505 571.588 398.949 571.588 403.38 571.298C408.791 570.873 414.081 569.475 418.997 567.173L419.45 561.211L424.029 566.244C426.703 565.535 429.318 564.617 431.849 563.501C435.974 561.665 442.389 557.993 442.389 557.993C442.389 557.993 420.357 502.913 417.614 491.421C414.871 479.93 419.904 473.537 421.74 459.302C423.576 445.068 413.942 424.418 406.62 423.036C404.442 422.666 402.207 422.849 400.119 423.57C398.032 424.291 396.16 425.526 394.675 427.161C393.209 426.37 391.585 425.918 389.921 425.839C388.257 425.761 386.596 426.058 385.063 426.708Z" fill="#263238" stroke="#263238" stroke-linecap="round" stroke-linejoin="round"/>
</svg>
