<svg width="432" height="443" viewBox="0 0 432 443" fill="none" xmlns="http://www.w3.org/2000/svg">
<path d="M194 17.7017C207.614 9.84186 224.386 9.84186 238 17.7017L381.061 100.298C394.675 108.158 403.061 122.684 403.061 138.403V303.597C403.061 319.316 394.675 333.842 381.061 341.702L238 424.298C224.386 432.158 207.614 432.158 194 424.298L50.9385 341.702C37.3249 333.842 28.9385 319.316 28.9385 303.597V138.403C28.9385 122.684 37.3249 108.158 50.9385 100.298L194 17.7017Z" fill="#FFFEFE"/>
<path fill-rule="evenodd" clip-rule="evenodd" d="M51.972 301.176C52.2198 303.296 50.7022 305.215 48.5825 305.463C47.7195 305.563 46.9033 305.654 46.138 305.735C45.2122 305.833 44.3281 305.596 43.6069 305.121C42.9854 305.723 42.1588 306.121 41.2289 306.195C40.4329 306.259 39.8124 306.303 39.387 306.331C39.1742 306.345 39.0102 306.355 38.8974 306.362L38.7668 306.369L38.7309 306.371L38.7158 306.372C36.5845 306.484 34.765 304.847 34.6529 302.716C34.5408 300.585 36.1775 298.766 38.3086 298.654L38.3127 298.654L38.3363 298.653L38.4419 298.647C38.5379 298.641 38.6846 298.632 38.8797 298.619C39.2699 298.593 39.8533 298.552 40.6105 298.492C41.5033 298.42 42.3495 298.658 43.0437 299.115C43.6419 298.535 44.4312 298.144 45.3238 298.049C46.0623 297.971 46.8508 297.884 47.6853 297.786C49.805 297.538 51.7243 299.056 51.972 301.176Z" fill="url(#paint0_linear_620_106)"/>
<path fill-rule="evenodd" clip-rule="evenodd" d="M236.657 77.9044C236.907 75.7849 238.827 74.2693 240.947 74.5191C246.542 75.1787 251.715 76.6049 256.462 78.68C258.418 79.5348 259.31 81.813 258.455 83.7685C257.6 85.724 255.322 86.6163 253.367 85.7615C249.326 83.9951 244.892 82.7663 240.042 82.1945C237.923 81.9447 236.407 80.0239 236.657 77.9044ZM229.39 78.0094C229.653 80.1272 228.15 82.0579 226.033 82.3217C221.68 82.8639 217.052 83.8686 212.14 85.4015C210.103 86.0373 207.936 84.9012 207.3 82.864C206.665 80.8267 207.801 78.6597 209.838 78.0239C215.15 76.366 220.229 75.2563 225.077 74.6524C227.195 74.3886 229.126 75.8916 229.39 78.0094ZM200.523 85.5306C201.419 87.4675 200.576 89.7642 198.639 90.6605C196.505 91.648 194.327 92.7261 192.104 93.8987L192.103 93.8991C191.189 94.3814 190.285 94.8577 189.391 95.3288C187.895 96.1177 186.426 96.8916 184.984 97.6528C183.097 98.6489 180.759 97.9264 179.763 96.039C178.767 94.1515 179.489 91.8139 181.377 90.8178C182.818 90.0569 184.288 89.2822 185.784 88.4936C186.68 88.0216 187.585 87.5447 188.499 87.0628C190.835 85.8303 193.133 84.6925 195.393 83.6465C197.33 82.7502 199.627 83.5938 200.523 85.5306ZM264.591 87.6665C265.984 86.0491 268.423 85.8667 270.041 87.2591C274.072 90.7296 277.596 94.7446 280.634 99.1357C281.848 100.891 281.409 103.298 279.654 104.512C277.899 105.726 275.492 105.288 274.278 103.533C271.576 99.627 268.483 96.1161 264.999 93.1162C263.381 91.7238 263.199 89.2839 264.591 87.6665ZM172.385 99.9623C173.404 101.837 172.711 104.184 170.836 105.203C165.771 107.959 161.171 110.545 157.013 113.041C155.184 114.14 152.81 113.548 151.711 111.718C150.613 109.888 151.205 107.514 153.035 106.416C157.323 103.841 162.027 101.197 167.144 98.4141C169.018 97.3944 171.365 98.0875 172.385 99.9623ZM283.108 110.898C285.072 110.063 287.342 110.978 288.177 112.942C290.204 117.71 291.816 122.696 293.031 127.772C293.528 129.847 292.248 131.933 290.172 132.429C288.097 132.926 286.011 131.646 285.515 129.571C284.393 124.883 282.911 120.309 281.064 115.966C280.229 114.002 281.144 111.733 283.108 110.898ZM144.752 116.279C146.047 117.975 145.723 120.4 144.028 121.696C139.496 125.159 135.951 128.551 133.261 132.09C131.97 133.789 129.546 134.12 127.847 132.828C126.147 131.537 125.817 129.113 127.108 127.414C130.333 123.17 134.43 119.303 139.335 115.555C141.031 114.259 143.456 114.584 144.752 116.279ZM291.319 139.594C293.445 139.413 295.316 140.989 295.498 143.116C295.72 145.713 295.844 148.305 295.873 150.875L295.873 150.879C295.903 153.836 295.579 156.838 294.961 159.868C294.534 161.959 292.493 163.308 290.402 162.882C288.311 162.455 286.961 160.414 287.388 158.323C287.912 155.752 288.169 153.3 288.145 150.961C288.118 148.582 288.003 146.181 287.797 143.773C287.616 141.647 289.192 139.776 291.319 139.594ZM124.281 140.407C126.364 140.87 127.678 142.934 127.215 145.017C126.268 149.274 126.023 154.111 126.528 159.81C126.716 161.936 125.145 163.812 123.019 164C120.894 164.188 119.018 162.617 118.829 160.492C118.272 154.198 118.514 148.541 119.67 143.34C120.133 141.257 122.198 139.943 124.281 140.407ZM287.375 171.11C289.301 172.03 290.116 174.337 289.196 176.263C286.888 181.094 284.073 186.03 280.905 191.039C279.764 192.843 277.377 193.38 275.573 192.239C273.77 191.098 273.232 188.711 274.373 186.908C277.427 182.08 280.08 177.416 282.222 172.931C283.142 171.005 285.449 170.19 287.375 171.11ZM124.503 172.224C126.58 171.731 128.663 173.015 129.156 175.091C130.255 179.719 131.666 184.755 133.387 190.268C134.022 192.305 132.886 194.472 130.849 195.108C128.812 195.744 126.645 194.608 126.009 192.57C124.249 186.932 122.787 181.72 121.637 176.877C121.143 174.8 122.427 172.717 124.503 172.224ZM270.631 199.455C272.362 200.703 272.754 203.118 271.507 204.85C268.347 209.233 265.008 213.677 261.576 218.159C260.279 219.854 257.853 220.176 256.159 218.878C254.464 217.581 254.142 215.155 255.44 213.461C258.846 209.012 262.137 204.632 265.237 200.331C266.484 198.6 268.899 198.208 270.631 199.455ZM133.517 203.046C135.53 202.337 137.736 203.394 138.445 205.407C139.302 207.838 140.202 210.344 141.145 212.929L141.146 212.93C142.15 215.685 142.985 218.37 143.659 220.988C144.19 223.055 142.946 225.161 140.879 225.693C138.812 226.225 136.706 224.981 136.174 222.914C135.567 220.554 134.808 218.11 133.885 215.578C132.933 212.969 132.023 210.436 131.156 207.974C130.447 205.962 131.504 203.755 133.517 203.046ZM250.789 225.793C252.474 227.104 252.777 229.532 251.466 231.216C248.105 235.535 244.732 239.875 241.407 244.235C240.113 245.931 237.688 246.258 235.991 244.963C234.294 243.669 233.968 241.244 235.262 239.547C238.613 235.154 242.007 230.787 245.367 226.47C246.677 224.785 249.105 224.482 250.789 225.793ZM142.01 233.935C144.144 233.958 145.856 235.706 145.834 237.84C145.769 244.007 144.677 249.676 142.74 254.868C141.993 256.868 139.768 257.884 137.768 257.138C135.769 256.392 134.753 254.166 135.499 252.167C137.118 247.827 138.05 243.046 138.105 237.759C138.128 235.624 139.876 233.913 142.01 233.935ZM230.753 251.984C232.485 253.232 232.877 255.647 231.629 257.378C228.396 261.864 225.293 266.346 222.39 270.813C221.227 272.603 218.834 273.111 217.044 271.948C215.255 270.785 214.747 268.391 215.91 266.602C218.895 262.008 222.071 257.421 225.359 252.859C226.607 251.128 229.022 250.736 230.753 251.984ZM133.489 264.32C135.126 265.689 135.343 268.127 133.974 269.763C130.351 274.094 126.086 277.891 121.438 281.223C119.704 282.466 117.29 282.068 116.046 280.334C114.803 278.599 115.201 276.185 116.935 274.942C121.149 271.921 124.909 268.554 128.046 264.804C129.415 263.167 131.852 262.951 133.489 264.32ZM212.526 279.433C214.4 280.454 215.091 282.801 214.07 284.675C211.407 289.562 209.092 294.392 207.21 299.152C206.425 301.136 204.181 302.109 202.196 301.325C200.211 300.54 199.238 298.295 200.023 296.311C202.042 291.203 204.501 286.084 207.283 280.977C208.305 279.103 210.652 278.412 212.526 279.433ZM108.834 284.52C109.763 286.441 108.96 288.752 107.039 289.681C102.053 292.094 96.8902 294.158 91.7501 295.923C89.7317 296.617 87.5334 295.542 86.8401 293.524C86.1468 291.506 87.221 289.307 89.2394 288.614C94.1383 286.931 99.0089 284.981 103.672 282.724C105.593 281.795 107.904 282.598 108.834 284.52ZM78.8373 295.846C79.3469 297.919 78.08 300.012 76.0076 300.521C73.2787 301.193 70.6125 301.789 68.0422 302.318C65.9519 302.749 63.9083 301.404 63.4777 299.313C63.0471 297.223 64.3925 295.179 66.4828 294.749C68.9649 294.237 71.5352 293.662 74.162 293.017C76.2344 292.507 78.3276 293.774 78.8373 295.846ZM294.892 303.534C296.484 304.956 296.622 307.399 295.2 308.991C293.345 311.068 291.457 313.097 289.541 315.074C288.056 316.607 285.61 316.645 284.077 315.16C282.544 313.675 282.506 311.229 283.991 309.696C285.834 307.794 287.651 305.841 289.436 303.843C290.857 302.251 293.3 302.113 294.892 303.534ZM199.662 309.717C201.761 310.104 203.148 312.12 202.761 314.218C202.283 316.806 201.975 319.358 201.85 321.872L201.85 321.873C201.711 324.679 201.755 327.218 201.959 329.506C202.148 331.632 200.578 333.509 198.452 333.698C196.327 333.888 194.45 332.318 194.261 330.192C194.021 327.502 193.977 324.602 194.131 321.489M277.869 321.064C279.272 322.672 279.106 325.113 277.499 326.516C273.196 330.272 268.83 333.744 264.469 336.883C262.737 338.13 260.322 337.737 259.075 336.005C257.828 334.273 258.221 331.858 259.953 330.611C264.109 327.62 268.286 324.299 272.416 320.694C274.024 319.29 276.465 319.456 277.869 321.064ZM251.872 340.626C252.904 342.494 252.227 344.845 250.359 345.877C245.064 348.804 239.852 351.159 234.861 352.825C232.836 353.501 230.648 352.408 229.972 350.383C229.296 348.359 230.39 346.17 232.414 345.494C236.877 344.005 241.655 341.857 246.62 339.113C248.488 338.081 250.839 338.758 251.872 340.626ZM200.972 341.996C202.635 340.658 205.067 340.921 206.406 342.584C209.031 345.846 212.821 347.622 217.86 347.901C219.991 348.019 221.623 349.842 221.505 351.973C221.387 354.104 219.564 355.736 217.433 355.618C210.67 355.244 204.649 352.729 200.385 347.43C199.047 345.767 199.31 343.334 200.972 341.996Z" fill="url(#paint1_linear_620_106)"/>
<path fill-rule="evenodd" clip-rule="evenodd" d="M306.694 288.265C308.416 289.525 308.791 291.943 307.532 293.665C307.047 294.327 306.559 294.986 306.066 295.642C305.509 296.384 304.736 296.868 303.901 297.074C303.917 297.933 303.648 298.803 303.076 299.532C302.572 300.174 302.065 300.813 301.556 301.449C300.223 303.116 297.791 303.386 296.125 302.053C294.458 300.72 294.188 298.288 295.521 296.621C296.016 296.002 296.509 295.382 296.998 294.759C297.552 294.053 298.303 293.592 299.113 293.393C299.096 292.561 299.348 291.718 299.886 291.001C300.36 290.37 300.829 289.737 301.293 289.103C302.553 287.38 304.971 287.005 306.694 288.265Z" fill="url(#paint2_linear_620_106)"/>
<path d="M308.735 273.084L302.738 270.307C301.609 269.767 301.259 268.378 301.999 267.375L308.54 258.811C309.047 258.155 309.903 257.885 310.682 258.117L317.38 260.2C318.275 260.47 319.21 260.084 319.677 259.313L324.817 250.402C325.44 249.322 324.895 247.933 323.649 247.586L297.715 240.218C296.43 239.832 295.885 238.327 296.664 237.209L302.738 228.876C303.167 228.298 303.829 227.989 304.53 228.105L334.747 231.499C335.487 231.577 336.188 231.229 336.616 230.651L344.988 217.921C344.988 217.921 348.687 211.903 352.386 213.214C356.086 214.526 360.914 216.648 355.268 226.523L348.298 236.591C347.869 237.209 347.83 237.98 348.181 238.597L365.859 270.808C366.249 271.541 366.132 272.428 365.587 273.046L359.396 279.874C358.578 280.761 357.137 280.722 356.397 279.758L339.575 257.731C338.251 255.957 335.564 255.957 334.202 257.731L328.439 265.176C327.893 265.871 327.893 266.835 328.439 267.529L333.423 274.126C333.968 274.82 333.929 275.785 333.423 276.479L326.141 285.737C325.401 286.702 323.922 286.74 323.104 285.814L318.431 280.452C315.744 277.366 312.434 274.897 308.696 273.2L308.735 273.084Z" fill="url(#paint3_linear_620_106)"/>
<path d="M215.5 442.584C208.092 442.584 200.684 440.685 194.087 436.848L40.4132 347.699C27.218 340.024 19 325.761 19 310.412V132.153C19 116.843 27.218 102.54 40.4132 94.9045L194.087 5.7559C207.282 -1.91863 223.718 -1.91863 236.913 5.7559L390.587 94.9045C403.782 102.579 412 116.843 412 132.153V310.412C412 325.722 403.782 340.024 390.587 347.699L236.913 436.848C230.316 440.685 222.908 442.584 215.5 442.584ZM203.887 22.8104L50.2131 111.959C43.0368 116.106 38.5998 123.858 38.5998 132.192V310.45C38.5998 318.784 43.0368 326.536 50.2131 330.683L203.887 419.832C211.063 423.979 219.976 423.979 227.152 419.832L380.825 330.683C388.002 326.536 392.439 318.784 392.439 310.45V132.192C392.439 123.858 388.002 116.106 380.825 111.959L227.152 22.8104C219.976 18.663 211.063 18.663 203.887 22.8104Z" fill="url(#paint4_linear_620_106)"/>
<defs>
<linearGradient id="paint0_linear_620_106" x1="43.323" y1="297.76" x2="43.323" y2="306.377" gradientUnits="userSpaceOnUse">
<stop stop-color="#25AFB8"/>
<stop offset="1" stop-color="#25A3BE"/>
</linearGradient>
<linearGradient id="paint1_linear_620_106" x1="179.79" y1="74.4922" x2="179.79" y2="355.624" gradientUnits="userSpaceOnUse">
<stop stop-color="#25AFB8"/>
<stop offset="1" stop-color="#25A3BE"/>
</linearGradient>
<linearGradient id="paint2_linear_620_106" x1="301.476" y1="287.52" x2="301.476" y2="302.9" gradientUnits="userSpaceOnUse">
<stop stop-color="#25AFB8"/>
<stop offset="1" stop-color="#25A3BE"/>
</linearGradient>
<linearGradient id="paint3_linear_620_106" x1="331.196" y1="213.027" x2="331.196" y2="286.485" gradientUnits="userSpaceOnUse">
<stop stop-color="#25AFB8"/>
<stop offset="1" stop-color="#25A3BE"/>
</linearGradient>
<linearGradient id="paint4_linear_620_106" x1="215.5" y1="0" x2="215.5" y2="442.584" gradientUnits="userSpaceOnUse">
<stop stop-color="#25AFB8"/>
<stop offset="1" stop-color="#25A3BE"/>
</linearGradient>
</defs>
</svg>
