<svg width="607" height="115" viewBox="0 0 607 115" fill="none" xmlns="http://www.w3.org/2000/svg">
<path d="M160.26 61.9499H186.68C187.39 61.9499 187.96 61.3799 187.96 60.6699V52.4499C187.96 51.7399 187.39 51.1699 186.68 51.1699H160.26C159.55 51.1699 158.98 50.5999 158.98 49.8899V40.8599C158.98 40.1499 159.55 39.5799 160.26 39.5799H188.31C189.02 39.5799 189.59 39.0099 189.59 38.2999V29.6799C189.59 28.9699 189.02 28.3999 188.31 28.3999H147.28C146.57 28.3999 146 28.9699 146 29.6799V84.2599C146 84.9699 146.57 85.5399 147.28 85.5399H189.21C189.92 85.5399 190.49 84.9699 190.49 84.2599V75.5499C190.49 74.8399 189.92 74.2699 189.21 74.2699H160.26C159.55 74.2699 158.98 73.6999 158.98 72.9899V63.2199C158.98 62.5099 159.55 61.9399 160.26 61.9399V61.9499Z" fill="url(#paint0_linear_2574_158)"/>
<path d="M238.08 48.6401L238.2 59.9001C238.21 61.1501 236.62 61.6701 235.89 60.6701L212.75 28.9201C212.51 28.5901 212.12 28.3901 211.72 28.3901H201.65C200.94 28.3901 200.37 28.9601 200.37 29.6701V84.2501C200.37 84.9601 200.94 85.5301 201.65 85.5301H212.4C213.11 85.5301 213.68 84.9601 213.68 84.2501V65.6101L213.56 54.1701C213.55 52.9301 215.14 52.4001 215.87 53.4001L239.01 85.0101C239.25 85.3401 239.63 85.5301 240.04 85.5301H250.11C250.82 85.5301 251.39 84.9601 251.39 84.2501V29.6801C251.39 28.9701 250.82 28.4001 250.11 28.4001H239.36C238.65 28.4001 238.08 28.9701 238.08 29.6801V48.6501V48.6401Z" fill="url(#paint1_linear_2574_158)"/>
<path d="M296.959 47.8299L289.929 66.7699C289.519 67.8899 287.939 67.8799 287.529 66.7699L280.639 47.8399L273.289 29.2199C273.099 28.7299 272.629 28.4099 272.099 28.4099H260.099C259.189 28.4099 258.569 29.3299 258.919 30.1799L281.379 84.7599C281.579 85.2399 282.039 85.5499 282.559 85.5499H294.969C295.489 85.5499 295.959 85.2399 296.149 84.7599L318.609 30.1799C318.959 29.3399 318.339 28.4099 317.429 28.4099H305.439C304.909 28.4099 304.439 28.7299 304.249 29.2199L296.979 47.8299H296.959Z" fill="url(#paint2_linear_2574_158)"/>
<path d="M367.36 30.73C362.71 28.25 357.31 27.02 351.16 27.02C345.01 27.02 339.61 28.26 334.96 30.73C330.31 33.21 326.72 36.7 324.18 41.22C321.65 45.74 320.38 50.99 320.38 56.97C320.38 62.95 321.65 68.21 324.18 72.72C326.71 77.24 330.3 80.73 334.96 83.21C339.61 85.69 345.01 86.92 351.16 86.92C357.31 86.92 362.71 85.68 367.36 83.21C372.01 80.73 375.61 77.24 378.14 72.72C380.67 68.2 381.94 62.95 381.94 56.97C381.94 50.99 380.67 45.73 378.14 41.22C375.61 36.7 372.02 33.21 367.36 30.73ZM366.38 66.44C364.94 69.16 362.9 71.27 360.26 72.77C357.62 74.27 354.59 75.01 351.16 75.01C347.73 75.01 344.71 74.26 342.1 72.77C339.49 71.27 337.46 69.17 336.02 66.44C334.58 63.72 333.86 60.56 333.86 56.97C333.86 53.38 334.58 50.22 336.02 47.5C337.46 44.78 339.49 42.67 342.1 41.17C344.71 39.67 347.73 38.93 351.16 38.93C354.59 38.93 357.62 39.68 360.26 41.17C362.9 42.67 364.94 44.78 366.38 47.5C367.82 50.22 368.54 53.38 368.54 56.97C368.54 60.56 367.82 63.72 366.38 66.44Z" fill="url(#paint3_linear_2574_158)"/>
<path d="M423.189 28.9999L410.789 48.8499C410.289 49.6599 409.109 49.6499 408.609 48.8399L396.509 29.0199C396.279 28.6399 395.859 28.4099 395.419 28.4099H382.809C381.799 28.4099 381.189 29.5299 381.739 30.3799L402.709 62.8699C402.839 63.0799 402.909 63.3199 402.909 63.5599V84.2699C402.909 84.9799 403.479 85.5499 404.189 85.5499H414.939C415.649 85.5499 416.219 84.9799 416.219 84.2699V63.5699C416.219 63.3199 416.299 63.0699 416.439 62.8599L438.159 30.3999C438.729 29.5499 438.119 28.4099 437.099 28.4099H424.289C423.849 28.4099 423.439 28.6399 423.209 29.0099L423.189 28.9999Z" fill="url(#paint4_linear_2574_158)"/>
<path d="M457.19 29.1599L432.7 83.7399C432.32 84.5899 432.94 85.5399 433.87 85.5399H445.32C445.84 85.5399 446.3 85.2299 446.5 84.7499L450.09 76.0499C450.29 75.5699 450.75 75.2599 451.27 75.2599H477.72C478.24 75.2599 478.7 75.5699 478.9 76.0499L482.49 84.7499C482.69 85.2299 483.15 85.5399 483.67 85.5399H495.29C496.22 85.5399 496.84 84.5899 496.46 83.7399L472.13 29.1599C471.92 28.6999 471.47 28.3999 470.96 28.3999H458.33C457.83 28.3999 457.37 28.6999 457.16 29.1599H457.19ZM455.98 61.9799L463.44 44.0799C463.88 43.0299 465.37 43.0299 465.8 44.0799L473.13 61.9799C473.47 62.8199 472.86 63.7399 471.95 63.7399H457.16C456.25 63.7399 455.63 62.8099 455.98 61.9699V61.9799Z" fill="url(#paint5_linear_2574_158)"/>
<path d="M526.81 62.44H539.76C540.47 62.44 541.04 63.01 541.04 63.72V70.56C541.04 70.95 540.87 71.32 540.57 71.56C537.41 74.07 533.27 75.33 528.14 75.33C524.71 75.33 521.69 74.57 519.08 73.04C516.47 71.52 514.45 69.37 513.04 66.59C511.62 63.81 510.92 60.6 510.92 56.96C510.92 51.3 512.51 46.82 515.7 43.53C518.88 40.24 523.22 38.59 528.72 38.59C531.28 38.59 533.77 39.08 536.19 40.06C538.24 40.89 540.07 42.01 541.67 43.43C542.17 43.87 542.92 43.83 543.39 43.36L549.68 37.13C550.19 36.63 550.19 35.8 549.68 35.31C546.94 32.66 543.96 30.66 540.76 29.29C537.19 27.77 533.21 27 528.8 27C522.7 27 517.3 28.27 512.6 30.8C507.89 33.33 504.23 36.87 501.62 41.41C499.01 45.95 497.7 51.14 497.7 56.96C497.7 62.78 498.94 68.2 501.41 72.71C503.89 77.23 507.4 80.71 511.94 83.16C516.48 85.61 521.78 86.83 527.82 86.83C532.88 86.83 537.52 86 541.74 84.34C545.78 82.75 549.21 80.49 552.03 77.58C552.26 77.34 552.39 77.01 552.39 76.68V53.01C552.39 52.3 551.82 51.73 551.11 51.73H526.81C526.1 51.73 525.53 52.3 525.53 53.01V61.15C525.53 61.86 526.1 62.43 526.81 62.43V62.44Z" fill="url(#paint6_linear_2574_158)"/>
<path d="M575.32 72.9999V63.2299C575.32 62.5199 575.89 61.9499 576.6 61.9499H603.02C603.73 61.9499 604.3 61.3799 604.3 60.6699V52.4499C604.3 51.7399 603.73 51.1699 603.02 51.1699H576.6C575.89 51.1699 575.32 50.5999 575.32 49.8899V40.8599C575.32 40.1499 575.89 39.5799 576.6 39.5799H604.65C605.36 39.5799 605.93 39.0099 605.93 38.2999V29.6799C605.93 28.9699 605.36 28.3999 604.65 28.3999H563.62C562.91 28.3999 562.34 28.9699 562.34 29.6799V84.2599C562.34 84.9699 562.91 85.5399 563.62 85.5399H605.55C606.26 85.5399 606.83 84.9699 606.83 84.2599V75.5499C606.83 74.8399 606.26 74.2699 605.55 74.2699H576.6C575.89 74.2699 575.32 73.6999 575.32 72.9899V72.9999Z" fill="url(#paint7_linear_2574_158)"/>
<path fill-rule="evenodd" clip-rule="evenodd" d="M8.56334 77.739C8.62746 78.2875 8.23475 78.7842 7.6862 78.8483C7.46288 78.8744 7.25166 78.8978 7.05361 78.9188C6.81402 78.9442 6.58524 78.8828 6.39861 78.7598C6.23777 78.9156 6.02388 79.0186 5.78323 79.0379C5.57725 79.0545 5.41667 79.0658 5.30657 79.073C5.25152 79.0767 5.20908 79.0793 5.17988 79.081L5.14609 79.0829L5.1368 79.0835L5.13288 79.0837C4.58136 79.1127 4.1105 78.6891 4.08148 78.1376C4.05247 77.5861 4.47602 77.1155 5.02752 77.0864L5.02857 77.0864L5.03469 77.086L5.062 77.0845C5.08684 77.083 5.12481 77.0807 5.1753 77.0774C5.27627 77.0707 5.42725 77.0601 5.62319 77.0444C5.85423 77.0258 6.07323 77.0873 6.25286 77.2057C6.40767 77.0557 6.61192 76.9544 6.84291 76.93C7.03403 76.9097 7.23807 76.8871 7.45401 76.8618C8.00256 76.7977 8.49923 77.1904 8.56334 77.739Z" fill="url(#paint8_linear_2574_158)"/>
<path fill-rule="evenodd" clip-rule="evenodd" d="M56.3562 19.9604C56.4208 19.4119 56.9179 19.0197 57.4664 19.0844C58.9144 19.2551 60.253 19.6241 61.4814 20.1611C61.9875 20.3823 62.2184 20.9719 61.9972 21.4779C61.776 21.984 61.1864 22.2149 60.6804 21.9937C59.6347 21.5366 58.4873 21.2186 57.2322 21.0706C56.6837 21.006 56.2915 20.5089 56.3562 19.9604ZM54.4756 19.9876C54.5438 20.5356 54.1549 21.0353 53.6068 21.1035C52.4806 21.2438 51.2829 21.5038 50.0118 21.9005C49.4846 22.0651 48.9238 21.7711 48.7593 21.2438C48.5948 20.7166 48.8888 20.1559 49.416 19.9913C50.7907 19.5623 52.1051 19.2751 53.3596 19.1189C53.9077 19.0506 54.4073 19.4395 54.4756 19.9876ZM47.0055 21.9339C47.2374 22.4352 47.0191 23.0295 46.5179 23.2614C45.9657 23.517 45.402 23.796 44.8269 24.0994L44.8266 24.0995C44.59 24.2243 44.3561 24.3476 44.1248 24.4695C43.7375 24.6737 43.3575 24.8739 42.9843 25.0709C42.4958 25.3287 41.8909 25.1417 41.6331 24.6533C41.3753 24.1649 41.5623 23.5599 42.0508 23.3021C42.4238 23.1052 42.8042 22.9048 43.1914 22.7007C43.4231 22.5786 43.6573 22.4551 43.8938 22.3304C44.4983 22.0115 45.093 21.717 45.678 21.4463C46.1792 21.2144 46.7736 21.4327 47.0055 21.9339ZM63.5851 22.4866C63.9454 22.0681 64.5768 22.0209 64.9953 22.3812C66.0386 23.2793 66.9504 24.3183 67.7366 25.4547C68.0508 25.9089 67.9373 26.5318 67.4831 26.846C67.0289 27.1602 66.406 27.0467 66.0918 26.5925C65.3925 25.5818 64.5923 24.6733 63.6905 23.8969C63.2719 23.5366 63.2247 22.9052 63.5851 22.4866ZM39.7238 25.6686C39.9877 26.1537 39.8083 26.761 39.3231 27.0248C38.0123 27.7379 36.8221 28.4071 35.746 29.0532C35.2725 29.3375 34.6582 29.1842 34.3739 28.7107C34.0896 28.2372 34.2429 27.6229 34.7164 27.3386C35.8261 26.6723 37.0434 25.9881 38.3675 25.2679C38.8527 25.004 39.4599 25.1834 39.7238 25.6686ZM68.377 28.4986C68.8852 28.2825 69.4724 28.5193 69.6885 29.0276C70.2131 30.2613 70.6303 31.5517 70.9447 32.8651C71.0733 33.4022 70.7421 33.9419 70.205 34.0704C69.6678 34.199 69.1282 33.8678 68.9997 33.3307C68.7093 32.1176 68.3258 30.9339 67.848 29.8101C67.6319 29.3019 67.8687 28.7147 68.377 28.4986ZM32.5729 29.8911C32.9083 30.3299 32.8244 30.9575 32.3855 31.2928C31.2128 32.189 30.2955 33.0667 29.5995 33.9826C29.2653 34.4223 28.6379 34.5078 28.1982 34.1737C27.7585 33.8395 27.6729 33.2121 28.0071 32.7724C28.8418 31.6742 29.902 30.6736 31.1712 29.7037C31.61 29.3684 32.2376 29.4523 32.5729 29.8911ZM70.5016 35.9246C71.0519 35.8776 71.5361 36.2855 71.5831 36.8358C71.6405 37.5079 71.6727 38.1786 71.6802 38.8439L71.6802 38.8447C71.688 39.6101 71.604 40.387 71.4441 41.1709C71.3337 41.7121 70.8055 42.0612 70.2644 41.9508C69.7232 41.8404 69.374 41.3123 69.4844 40.7711C69.6202 40.1059 69.6864 39.4712 69.6803 38.8661C69.6734 38.2504 69.6436 37.6291 69.5904 37.006C69.5433 36.4558 69.9513 35.9716 70.5016 35.9246ZM27.2755 36.1347C27.8147 36.2546 28.1545 36.7888 28.0347 37.3279C27.7898 38.4294 27.7263 39.6811 27.8569 41.156C27.9057 41.7061 27.4992 42.1916 26.949 42.2403C26.3989 42.289 25.9135 41.8825 25.8647 41.3324C25.7205 39.7037 25.7832 38.2397 26.0824 36.8939C26.2022 36.3548 26.7364 36.0149 27.2755 36.1347ZM69.4811 44.0803C69.9794 44.3184 70.1904 44.9154 69.9523 45.4137C69.355 46.6639 68.6265 47.9413 67.8067 49.2374C67.5115 49.7042 66.8938 49.8432 66.427 49.548C65.9603 49.2528 65.8212 48.6351 66.1164 48.1683C66.9066 46.919 67.5932 45.712 68.1477 44.5515C68.3858 44.0532 68.9828 43.8422 69.4811 44.0803ZM27.333 44.3686C27.8704 44.241 28.4094 44.5731 28.537 45.1104C28.8215 46.3081 29.1866 47.6113 29.6319 49.0379C29.7964 49.5651 29.5024 50.1259 28.9752 50.2904C28.448 50.455 27.8872 50.161 27.7227 49.6338C27.2673 48.1747 26.8888 46.8258 26.5912 45.5726C26.4635 45.0352 26.7957 44.4962 27.333 44.3686ZM65.148 51.4154C65.5961 51.7383 65.6975 52.3633 65.3746 52.8114C64.5571 53.9458 63.693 55.0958 62.8048 56.2557C62.4691 56.6942 61.8414 56.7775 61.4029 56.4417C60.9644 56.106 60.8811 55.4783 61.2169 55.0398C62.0984 53.8885 62.9499 52.7552 63.7521 51.6421C64.075 51.194 64.7 51.0925 65.148 51.4154ZM29.6656 52.3446C30.1865 52.1611 30.7575 52.4346 30.941 52.9556C31.1626 53.5846 31.3955 54.2331 31.6396 54.9022L31.6397 54.9025C31.8996 55.6154 32.1157 56.3103 32.29 56.9876C32.4277 57.5225 32.1057 58.0676 31.5708 58.2053C31.036 58.3429 30.4908 58.0209 30.3532 57.4861C30.196 56.8755 29.9996 56.243 29.7608 55.5878C29.5144 54.9126 29.279 54.257 29.0546 53.62C28.8711 53.0991 29.1446 52.5281 29.6656 52.3446ZM60.0134 58.2312C60.4493 58.5703 60.5277 59.1986 60.1885 59.6345C59.3189 60.7521 58.446 61.8752 57.5854 63.0034C57.2505 63.4426 56.623 63.527 56.1839 63.192C55.7447 62.8571 55.6603 62.2296 55.9952 61.7905C56.8624 60.6537 57.7407 59.5235 58.6101 58.4063C58.9493 57.9704 59.5776 57.892 60.0134 58.2312ZM31.8635 60.3382C32.4157 60.344 32.8587 60.7964 32.8529 61.3487C32.8361 62.9446 32.5537 64.4115 32.0522 65.7553C31.8591 66.2727 31.2832 66.5357 30.7657 66.3426C30.2483 66.1495 29.9854 65.5735 30.1784 65.0561C30.5975 63.9331 30.8386 62.6959 30.853 61.3276C30.8588 60.7753 31.3112 60.3323 31.8635 60.3382ZM54.8285 65.0088C55.2765 65.3317 55.378 65.9567 55.0551 66.4047C54.2184 67.5656 53.4154 68.7254 52.6642 69.8814C52.3633 70.3445 51.7439 70.476 51.2808 70.1751C50.8177 69.8741 50.6863 69.2548 50.9872 68.7917C51.7598 67.6028 52.5817 66.4159 53.4325 65.2354C53.7554 64.7873 54.3804 64.6859 54.8285 65.0088ZM29.6584 68.2012C30.082 68.5556 30.1381 69.1862 29.7838 69.6098C28.8462 70.7305 27.7425 71.7132 26.5399 72.5753C26.091 72.8971 25.4663 72.7941 25.1445 72.3452C24.8227 71.8964 24.9258 71.2716 25.3746 70.9499C26.4649 70.1683 27.438 69.2968 28.2498 68.3265C28.6042 67.9029 29.2348 67.8468 29.6584 68.2012ZM50.1115 72.1121C50.5965 72.3764 50.7754 72.9837 50.5111 73.4687C49.8221 74.7332 49.2228 75.9832 48.7359 77.215C48.5329 77.7286 47.952 77.9803 47.4383 77.7773C46.9247 77.5743 46.673 76.9933 46.876 76.4797C47.3985 75.158 48.0348 73.8333 48.7549 72.5117C49.0192 72.0268 49.6265 71.8479 50.1115 72.1121ZM23.2781 73.4284C23.5186 73.9256 23.3107 74.5236 22.8135 74.7642C21.5233 75.3885 20.1873 75.9226 18.8571 76.3795C18.3348 76.5589 17.7659 76.2809 17.5865 75.7586C17.4071 75.2363 17.6851 74.6674 18.2074 74.488C19.4752 74.0525 20.7356 73.5479 21.9423 72.9639C22.4395 72.7233 23.0375 72.9313 23.2781 73.4284ZM15.5155 76.3595C15.6474 76.8958 15.3196 77.4375 14.7833 77.5694C14.0771 77.7431 13.3871 77.8974 12.722 78.0344C12.1811 78.1458 11.6522 77.7977 11.5408 77.2567C11.4294 76.7158 11.7775 76.187 12.3184 76.0755C12.9608 75.9432 13.6259 75.7944 14.3057 75.6273C14.842 75.4954 15.3837 75.8232 15.5155 76.3595ZM71.4263 78.3491C71.8382 78.717 71.874 79.3491 71.5061 79.7611C71.0261 80.2986 70.5374 80.8237 70.0417 81.3353C69.6574 81.7319 69.0243 81.7419 68.6277 81.3576C68.231 80.9733 68.2211 80.3402 68.6054 79.9436C69.0823 79.4514 69.5525 78.9461 70.0143 78.4289C70.3822 78.017 71.0143 77.9812 71.4263 78.3491ZM46.7826 79.949C47.3258 80.0493 47.6848 80.5708 47.5845 81.1139C47.4609 81.7836 47.3813 82.4439 47.349 83.0946L47.349 83.0947C47.3129 83.8208 47.3242 84.478 47.377 85.0701C47.426 85.6203 47.0198 86.1059 46.4697 86.1549C45.9195 86.2039 45.4339 85.7977 45.3849 85.2476C45.3229 84.5515 45.3114 83.801 45.3514 82.9954M67.021 82.8854C67.3842 83.3015 67.3413 83.9332 66.9253 84.2964C65.812 85.2682 64.682 86.1667 63.5534 86.9792C63.1051 87.3018 62.4802 87.2 62.1575 86.7518C61.8349 86.3036 61.9367 85.6787 62.3849 85.356C63.4603 84.5819 64.5413 83.7225 65.61 82.7896C66.0261 82.4265 66.6578 82.4693 67.021 82.8854ZM60.2935 87.9476C60.5606 88.431 60.3854 89.0394 59.902 89.3066C58.5317 90.064 57.1832 90.6735 55.8914 91.1046C55.3676 91.2795 54.8011 90.9965 54.6263 90.4727C54.4514 89.9488 54.7344 89.3824 55.2582 89.2075C56.4133 88.822 57.6496 88.2664 58.9345 87.5562C59.4179 87.289 60.0263 87.4643 60.2935 87.9476ZM47.1217 88.3023C47.552 87.956 48.1815 88.0241 48.5277 88.4544C49.2071 89.2986 50.188 89.7582 51.492 89.8303C52.0434 89.8608 52.4657 90.3326 52.4352 90.884C52.4048 91.4355 51.933 91.8578 51.3816 91.8273C49.6313 91.7305 48.0733 91.0797 46.9697 89.7083C46.6234 89.2781 46.6915 88.6486 47.1217 88.3023Z" fill="url(#paint9_linear_2574_158)"/>
<path fill-rule="evenodd" clip-rule="evenodd" d="M74.4805 74.3977C74.9263 74.7238 75.0233 75.3494 74.6973 75.7952C74.572 75.9665 74.4456 76.1371 74.3181 76.3068C74.174 76.4987 73.974 76.6241 73.7577 76.6773C73.762 76.8997 73.6924 77.1249 73.5443 77.3135C73.4139 77.4796 73.2827 77.645 73.151 77.8096C72.806 78.2409 72.1767 78.3108 71.7455 77.9658C71.3142 77.6208 71.2443 76.9915 71.5893 76.5602C71.7174 76.4 71.8449 76.2394 71.9714 76.0782C72.1149 75.8955 72.3092 75.7763 72.5186 75.7249C72.5145 75.5096 72.5795 75.2913 72.7189 75.1058C72.8415 74.9425 72.9629 74.7788 73.083 74.6146C73.409 74.1688 74.0347 74.0717 74.4805 74.3977Z" fill="url(#paint10_linear_2574_158)"/>
<path d="M75.17 70.6649L73.63 69.9449C73.34 69.8049 73.25 69.4449 73.44 69.1849L75.12 66.9649C75.25 66.7949 75.47 66.7249 75.67 66.7849L77.39 67.3249C77.62 67.3949 77.86 67.2949 77.98 67.0949L79.3 64.7849C79.46 64.5049 79.32 64.1449 79 64.0549L72.34 62.1449C72.01 62.0449 71.87 61.6549 72.07 61.3649L73.63 59.2049C73.74 59.0549 73.91 58.9749 74.09 59.0049L81.85 59.8849C82.04 59.9049 82.22 59.8149 82.33 59.6649L84.48 56.3649C84.48 56.3649 85.43 54.8049 86.38 55.1449C87.33 55.4849 88.57 56.0349 87.12 58.5949L85.33 61.2049C85.22 61.3649 85.21 61.5649 85.3 61.7249L89.84 70.0749C89.94 70.2649 89.91 70.4949 89.77 70.6549L88.18 72.4249C87.97 72.6549 87.6 72.6449 87.41 72.3949L83.09 66.6849C82.75 66.2249 82.06 66.2249 81.71 66.6849L80.23 68.6149C80.09 68.7949 80.09 69.0449 80.23 69.2249L81.51 70.9349C81.65 71.1149 81.64 71.3649 81.51 71.5449L79.64 73.9449C79.45 74.1949 79.07 74.2049 78.86 73.9649L77.66 72.5749C76.97 71.7749 76.12 71.1349 75.16 70.6949L75.17 70.6649Z" fill="url(#paint11_linear_2574_158)"/>
<path d="M50.93 114.185C49.01 114.185 47.09 113.695 45.38 112.705L5.55 89.705C2.13 87.725 0 84.045 0 80.085V34.095C0 30.145 2.13 26.455 5.55 24.485L45.38 1.485C48.8 -0.495 53.06 -0.495 56.48 1.485L96.31 24.485C99.73 26.465 101.86 30.145 101.86 34.095V80.085C101.86 84.035 99.73 87.725 96.31 89.705L56.48 112.705C54.77 113.695 52.85 114.185 50.93 114.185ZM47.92 5.88499L8.09 28.885C6.23 29.955 5.08 31.955 5.08 34.105V80.095C5.08 82.245 6.23 84.245 8.09 85.315L47.92 108.315C49.78 109.385 52.09 109.385 53.95 108.315L93.78 85.315C95.64 84.245 96.79 82.245 96.79 80.095V34.105C96.79 31.955 95.64 29.955 93.78 28.885L53.95 5.88499C52.09 4.81499 49.78 4.81499 47.92 5.88499Z" fill="url(#paint12_linear_2574_158)"/>
<defs>
<linearGradient id="paint0_linear_2574_158" x1="168.245" y1="28.3999" x2="168.245" y2="85.5399" gradientUnits="userSpaceOnUse">
<stop stop-color="#25AFB8"/>
<stop offset="1" stop-color="#25A3BE"/>
</linearGradient>
<linearGradient id="paint1_linear_2574_158" x1="225.88" y1="28.3901" x2="225.88" y2="85.5301" gradientUnits="userSpaceOnUse">
<stop stop-color="#25AFB8"/>
<stop offset="1" stop-color="#25A3BE"/>
</linearGradient>
<linearGradient id="paint2_linear_2574_158" x1="288.764" y1="28.4099" x2="288.764" y2="85.5499" gradientUnits="userSpaceOnUse">
<stop stop-color="#25AFB8"/>
<stop offset="1" stop-color="#25A3BE"/>
</linearGradient>
<linearGradient id="paint3_linear_2574_158" x1="351.16" y1="27.02" x2="351.16" y2="86.92" gradientUnits="userSpaceOnUse">
<stop stop-color="#25AFB8"/>
<stop offset="1" stop-color="#25A3BE"/>
</linearGradient>
<linearGradient id="paint4_linear_2574_158" x1="409.955" y1="28.4099" x2="409.955" y2="85.5499" gradientUnits="userSpaceOnUse">
<stop stop-color="#25AFB8"/>
<stop offset="1" stop-color="#25A3BE"/>
</linearGradient>
<linearGradient id="paint5_linear_2574_158" x1="464.58" y1="28.3999" x2="464.58" y2="85.5399" gradientUnits="userSpaceOnUse">
<stop stop-color="#25AFB8"/>
<stop offset="1" stop-color="#25A3BE"/>
</linearGradient>
<linearGradient id="paint6_linear_2574_158" x1="525.045" y1="27" x2="525.045" y2="86.83" gradientUnits="userSpaceOnUse">
<stop stop-color="#25AFB8"/>
<stop offset="1" stop-color="#25A3BE"/>
</linearGradient>
<linearGradient id="paint7_linear_2574_158" x1="584.585" y1="28.3999" x2="584.585" y2="85.5399" gradientUnits="userSpaceOnUse">
<stop stop-color="#25AFB8"/>
<stop offset="1" stop-color="#25A3BE"/>
</linearGradient>
<linearGradient id="paint8_linear_2574_158" x1="6.32514" y1="76.855" x2="6.32514" y2="79.0851" gradientUnits="userSpaceOnUse">
<stop stop-color="#25AFB8"/>
<stop offset="1" stop-color="#25A3BE"/>
</linearGradient>
<linearGradient id="paint9_linear_2574_158" x1="41.6401" y1="19.0774" x2="41.6401" y2="91.8288" gradientUnits="userSpaceOnUse">
<stop stop-color="#25AFB8"/>
<stop offset="1" stop-color="#25A3BE"/>
</linearGradient>
<linearGradient id="paint10_linear_2574_158" x1="73.1302" y1="74.2048" x2="73.1302" y2="78.185" gradientUnits="userSpaceOnUse">
<stop stop-color="#25AFB8"/>
<stop offset="1" stop-color="#25A3BE"/>
</linearGradient>
<linearGradient id="paint11_linear_2574_158" x1="80.9382" y1="55.0964" x2="80.9382" y2="74.1388" gradientUnits="userSpaceOnUse">
<stop stop-color="#25AFB8"/>
<stop offset="1" stop-color="#25A3BE"/>
</linearGradient>
<linearGradient id="paint12_linear_2574_158" x1="50.93" y1="0" x2="50.93" y2="114.185" gradientUnits="userSpaceOnUse">
<stop stop-color="#25AFB8"/>
<stop offset="1" stop-color="#25A3BE"/>
</linearGradient>
</defs>
</svg>
