<svg width="1201" height="961" viewBox="0 0 1201 961" fill="none" xmlns="http://www.w3.org/2000/svg">
<path d="M582.343 29.7354C594.165 24.2002 607.835 24.2001 619.657 29.7354L1065.83 238.634C1081.29 245.875 1091.17 261.408 1091.17 278.483V681.517C1091.17 698.592 1081.29 714.125 1065.83 721.366L619.657 930.265C607.835 935.8 594.165 935.8 582.343 930.265L136.172 721.366C120.708 714.125 110.83 698.592 110.83 681.517V278.483C110.83 261.408 120.708 245.875 136.172 238.634L582.343 29.7354Z" fill="#21A5C3"/>
<path d="M76.9517 691.035C76.9517 695.629 77.6143 700.12 78.8677 704.395L82.2263 703.411C84.5937 711.485 89.2363 718.725 95.5871 724.246L93.2909 726.887C96.6532 729.81 100.459 732.286 104.634 734.203L124.469 743.309L125.929 740.128L165.6 758.341L164.14 761.522L203.81 779.734L205.271 776.553L244.941 794.766L243.481 797.947L283.152 816.159L284.612 812.978L324.283 831.191L322.822 834.372L362.493 852.584L363.953 849.403L403.624 867.616L402.164 870.797L441.834 889.009L443.295 885.828L482.965 904.041L481.505 907.222L521.176 925.434L522.636 922.253L562.307 940.466L560.846 943.647L580.682 952.753C593.263 958.529 607.737 958.529 620.318 952.753L640.154 943.647L638.693 940.466L678.364 922.253L679.824 925.434L719.495 907.222L718.035 904.041L757.705 885.828L759.166 889.009L798.836 870.797L797.376 867.616L837.047 849.403L838.507 852.584L878.178 834.372L876.717 831.191L916.388 812.978L917.848 816.159L957.519 797.947L956.059 794.766L995.729 776.553L997.19 779.734L1036.86 761.522L1035.4 758.341L1075.07 740.128L1076.53 743.309L1096.37 734.203C1100.54 732.286 1104.35 729.81 1107.71 726.887L1105.41 724.246C1111.76 718.725 1116.41 711.485 1118.77 703.411L1122.13 704.395C1123.39 700.12 1124.05 695.629 1124.05 691.035V669.981H1120.55V627.874H1124.05V585.767H1120.55V543.66H1124.05V501.553H1120.55V459.447H1124.05V417.34H1120.55V375.233H1124.05V333.126H1120.55V291.019H1124.05V269.965C1124.05 265.371 1123.39 260.88 1122.13 256.605L1118.77 257.589C1116.41 249.515 1111.76 242.275 1105.41 236.754L1107.71 234.113C1104.35 231.19 1100.54 228.714 1096.37 226.797L1076.53 217.691L1075.07 220.872L1035.4 202.659L1036.86 199.478L997.19 181.266L995.729 184.447L956.059 166.234L957.519 163.053L917.848 144.841L916.388 148.022L876.717 129.809L878.178 126.628L838.507 108.416L837.047 111.597L797.376 93.3842L798.836 90.2034L759.166 71.9909L757.705 75.1717L718.035 56.9592L719.495 53.7784L679.824 35.5659L678.364 38.7467L638.693 20.5342L640.154 17.3534L620.318 8.24714C607.737 2.47136 593.263 2.47138 580.682 8.24715L560.846 17.3534L562.307 20.5342L522.636 38.7467L521.176 35.5659L481.505 53.7784L482.965 56.9592L443.295 75.1717L441.834 71.9909L402.164 90.2034L403.624 93.3842L363.953 111.597L362.493 108.416L322.822 126.628L324.283 129.809L284.612 148.022L283.152 144.841L243.481 163.053L244.941 166.234L205.271 184.447L203.81 181.266L164.14 199.478L165.6 202.659L125.929 220.872L124.469 217.691L104.634 226.797C100.459 228.714 96.6533 231.19 93.2909 234.113L95.5871 236.754C89.2363 242.275 84.5937 249.515 82.2263 257.589L78.8677 256.605C77.6143 260.88 76.9517 265.371 76.9517 269.965V291.019H80.4517V333.126H76.9517V375.233H80.4517V417.34H76.9517V459.447H80.4517V501.553H76.9517V543.66H80.4517V585.767H76.9517V627.874H80.4517V669.981H76.9517V691.035Z" stroke="#21A5C3" stroke-width="7" stroke-dasharray="44 44"/>
</svg>
