<svg width="25" height="25" viewBox="0 0 25 25" fill="none" xmlns="http://www.w3.org/2000/svg">
<path d="M9.5 20.7499H5C4.80109 20.7499 4.61032 20.6709 4.46967 20.5302C4.32902 20.3896 4.25 20.1988 4.25 19.9999V15.8105C4.25 15.7121 4.2694 15.6145 4.30709 15.5235C4.34478 15.4325 4.40003 15.3499 4.46967 15.2802L15.7197 4.03022C15.8603 3.88956 16.0511 3.81055 16.25 3.81055C16.4489 3.81055 16.6397 3.88956 16.7803 4.03022L20.9697 8.21956C21.1103 8.36021 21.1893 8.55097 21.1893 8.74989C21.1893 8.9488 21.1103 9.13956 20.9697 9.28022L9.5 20.7499Z" stroke="#464D61" stroke-width="1.6" stroke-linecap="round" stroke-linejoin="round"/>
<path d="M13.25 6.5L18.5 11.75" stroke="#6c757d" stroke-width="1.6" stroke-linecap="round" stroke-linejoin="round"/>
<path d="M20.7501 20.7501H9.50013L4.29785 15.5479" stroke="#6c757d" stroke-width="1.6" stroke-linecap="round" stroke-linejoin="round"/>
</svg>
