<svg width="144" height="174" viewBox="0 0 144 174" fill="none" xmlns="http://www.w3.org/2000/svg">
<path d="M38.5693 5.13802e-05L135.234 25.6121C136.312 25.8936 137.323 26.385 138.211 27.058C139.099 27.7311 139.845 28.5727 140.407 29.5345C140.969 30.4964 141.335 31.5596 141.486 32.6634C141.636 33.7672 141.568 34.8898 141.284 35.9669L107.05 165.169C106.766 166.244 106.272 167.252 105.597 168.137C104.922 169.021 104.08 169.764 103.118 170.323C102.157 170.882 101.094 171.246 99.9919 171.394C98.8896 171.542 97.7688 171.472 96.6936 171.187L0.000116172 145.567L38.5693 5.13802e-05Z" fill="#4FE1F9"/>
<path d="M74.2355 116.269C72.3041 116.272 70.3808 116.02 68.5155 115.519C65.5687 114.739 62.8122 113.366 60.4151 111.483C58.0181 109.6 56.0309 107.247 54.5755 104.569C51.5474 99.0539 50.7801 92.5784 52.4355 86.5087C55.8155 73.7587 68.5455 66.0287 80.8055 69.2787C83.7523 70.0583 86.5087 71.4317 88.9058 73.3147C91.3029 75.1976 93.2901 77.5504 94.7455 80.2287C97.741 85.7505 98.5086 92.2098 96.8906 98.2799C95.2727 104.35 91.392 109.57 86.0455 112.869C82.4989 115.072 78.4108 116.249 74.2355 116.269ZM75.0855 70.1887C70.2193 70.2744 65.5169 71.9604 61.7048 74.9862C57.8928 78.0119 55.1834 82.209 53.9955 86.9287C52.4542 92.5891 53.1713 98.6268 55.9955 103.769C57.343 106.253 59.1839 108.435 61.4052 110.182C63.6265 111.928 66.1813 113.203 68.9128 113.927C71.6444 114.651 74.4951 114.809 77.2899 114.391C80.0847 113.974 82.7648 112.989 85.1655 111.499C90.1819 108.443 93.8116 103.554 95.2855 97.8687C96.8262 92.2116 96.1091 86.1772 93.2855 81.0387C91.9363 78.5506 90.0923 76.3648 87.8669 74.6159C85.6416 72.8669 83.082 71.5917 80.3455 70.8687C78.6295 70.4126 76.861 70.184 75.0855 70.1887Z" fill="white"/>
<path d="M53.2185 85.2253L52.7959 86.8203L95.9759 98.2612L96.3985 96.6662L53.2185 85.2253Z" fill="white"/>
<path d="M79.3447 70.2033L67.3457 114.969L68.9462 115.398L80.9452 70.6323L79.3447 70.2033Z" fill="white"/>
<path d="M70.1357 115.853L69.3457 114.403C75.5057 111.053 79.8057 107.693 82.8557 103.833C86.6056 98.9176 88.4811 92.8266 88.1457 86.6531C87.6557 80.9031 84.3357 75.6531 81.3957 71.0931L82.7957 70.2031C85.7957 74.9631 89.2757 80.3531 89.7957 86.5131C90.1863 93.1109 88.1798 99.6277 84.1457 104.863C79.9557 110.163 74.1357 113.673 70.1357 115.853Z" fill="white"/>
<path d="M67.4355 115.029C64.1755 110.379 61.0355 105.189 60.0555 98.8189C59.1483 92.2746 60.6363 85.6229 64.2455 80.0889C67.7355 75.0089 73.9855 71.7189 79.0155 69.0889L79.7855 70.5489C74.9255 73.1089 68.8755 76.2889 65.6055 81.0289C62.2606 86.2294 60.8746 92.4502 61.6955 98.5789C62.6155 104.579 65.6955 109.579 68.7855 114.089L67.4355 115.029Z" fill="white"/>
<path d="M88.7758 84.629C78.4169 84.6316 68.3238 81.3512 59.9458 75.259L60.9458 73.9189C70.8552 81.1311 83.1776 84.2144 95.3158 82.519L95.5558 84.149C93.3106 84.4746 91.0445 84.635 88.7758 84.629Z" fill="white"/>
<path d="M88.0654 110.749C77.1254 102.749 64.5454 99.0486 53.5554 100.619L53.3154 98.9786C64.7354 97.3386 77.7554 101.149 89.0454 109.409L88.0654 110.749Z" fill="white"/>
<path d="M7.52547 146.589C7.41547 146.589 15.9255 114.059 26.5255 73.9986C37.1255 33.9386 45.8455 1.48858 45.9555 1.51858C46.0655 1.54858 37.5655 34.0486 26.9555 74.1086C16.3455 114.169 7.64547 146.619 7.52547 146.589Z" fill="white"/>
<path d="M89.5154 150.199C89.5154 150.319 76.8654 147.069 61.3254 142.949C45.7854 138.829 33.2054 135.399 33.2354 135.289C33.2654 135.179 45.8954 138.419 61.4354 142.539C76.9754 146.659 89.5454 150.089 89.5154 150.199Z" fill="white"/>
<path d="M81.1556 153.709C81.1556 153.819 71.7556 151.439 60.2256 148.379C48.6956 145.319 39.3656 142.749 39.3956 142.639C39.4256 142.529 48.7956 144.909 60.3356 147.959C71.8756 151.009 81.1856 153.589 81.1556 153.709Z" fill="white"/>
<path d="M66.4355 35.9586C66.341 36.3585 66.1615 36.7333 65.9091 37.0575C65.6568 37.3817 65.3376 37.6478 64.9732 37.8376C64.6089 38.0274 64.2079 38.1364 63.7975 38.1573C63.3872 38.1782 62.9772 38.1104 62.5955 37.9586L61.3954 37.6386L60.8555 39.6386L58.8555 39.1187L60.9055 31.3687L64.0755 32.2086C64.4964 32.2607 64.9005 32.4057 65.2584 32.6331C65.6164 32.8606 65.9193 33.1648 66.1452 33.5237C66.3711 33.8827 66.5143 34.2874 66.5645 34.7085C66.6147 35.1296 66.5706 35.5567 66.4355 35.9586ZM64.4355 35.4387C64.4907 35.2821 64.5099 35.1151 64.4914 34.9501C64.4729 34.7851 64.4174 34.6264 64.3289 34.486C64.2403 34.3455 64.1212 34.2269 63.9803 34.139C63.8394 34.0512 63.6805 33.9963 63.5154 33.9786L62.4254 33.6887L61.8255 35.9586L62.9155 36.2487C63.0673 36.3146 63.2321 36.3454 63.3976 36.3388C63.563 36.3322 63.7248 36.2883 63.8709 36.2104C64.017 36.1326 64.1437 36.0227 64.2414 35.8891C64.3392 35.7555 64.4055 35.6015 64.4355 35.4387Z" fill="white"/>
<path d="M70.7855 40.7286L67.8555 39.9486L66.9155 41.3086L64.9155 40.7786L70.0255 33.8486L71.9555 34.3586L72.9555 42.9186L70.9555 42.3786L70.7855 40.7286ZM70.6355 38.9586L70.4055 36.2486L68.8555 38.4886L70.6355 38.9586Z" fill="white"/>
<path d="M73.2256 42.2385L74.2956 40.7985C74.8558 41.4589 75.6013 41.9361 76.4356 42.1685C77.2456 42.3785 77.6256 42.1685 77.7256 41.8285C78.0556 40.6085 73.8756 40.4585 74.6356 37.5785C75.0056 36.1985 76.3156 35.3385 78.3756 35.8785C79.2616 36.1003 80.0683 36.5642 80.7056 37.2185L79.7056 38.6885C79.2271 38.1697 78.6199 37.7868 77.9456 37.5785C77.1156 37.3685 76.7456 37.5785 76.6356 37.9785C76.3256 39.1685 80.4856 39.3185 79.7356 42.1785C79.3756 43.5285 78.0556 44.4085 75.9956 43.8685C74.924 43.6294 73.9549 43.0591 73.2256 42.2385Z" fill="white"/>
<path d="M79.6357 43.9387L80.7057 42.4887C81.2416 43.1485 81.9679 43.627 82.7857 43.8587C83.5957 44.0787 83.9857 43.9087 84.0857 43.5287C84.4057 42.2987 80.2357 42.1587 80.9957 39.2787C81.3657 37.8987 82.6657 37.0387 84.7257 37.5787C85.6137 37.8026 86.4232 38.2662 87.0657 38.9187L86.0657 40.3887C85.5907 39.8658 84.9823 39.482 84.3057 39.2787C83.4857 39.0587 83.1057 39.2787 83.0057 39.6787C82.6857 40.8687 86.8557 41.0187 86.0957 43.8787C85.7357 45.2287 84.4257 46.1087 82.3657 45.5587C81.3086 45.3177 80.3538 44.7511 79.6357 43.9387Z" fill="white"/>
<path d="M93.8754 43.2387C93.7807 43.6373 93.6014 44.0109 93.3498 44.3342C93.0981 44.6575 92.7799 44.9229 92.4168 45.1126C92.0536 45.3022 91.6539 45.4116 91.2448 45.4334C90.8357 45.4551 90.4266 45.3887 90.0454 45.2387L88.8354 44.9187L88.2954 46.9187L86.2954 46.3987L88.3454 38.6587L91.5154 39.4987C91.9351 39.551 92.338 39.6959 92.6951 39.9227C93.0521 40.1495 93.3544 40.4527 93.5801 40.8104C93.8058 41.1681 93.9494 41.5715 94.0005 41.9914C94.0515 42.4113 94.0088 42.8373 93.8754 43.2387ZM91.8754 42.7087C91.9328 42.5522 91.9534 42.3846 91.9359 42.2189C91.9183 42.0532 91.863 41.8937 91.7741 41.7527C91.6853 41.6117 91.5653 41.4929 91.4233 41.4055C91.2814 41.3182 91.1213 41.2645 90.9554 41.2487L89.8754 40.9587L89.2754 43.2287L90.3554 43.5187C90.5083 43.5884 90.675 43.6222 90.8429 43.6175C91.0108 43.6128 91.1755 43.5697 91.3242 43.4915C91.4728 43.4133 91.6016 43.3021 91.7007 43.1664C91.7997 43.0307 91.8663 42.8741 91.8954 42.7087H91.8754Z" fill="white"/>
<path d="M94.3058 44.4287C94.5387 43.6795 94.9868 43.0154 95.5944 42.5189C96.2019 42.0224 96.942 41.7156 97.7226 41.6366C98.5031 41.5575 99.2897 41.7098 99.9844 42.0744C100.679 42.439 101.251 42.9999 101.63 43.6872C102.008 44.3745 102.176 45.1579 102.112 45.9399C102.049 46.7219 101.757 47.468 101.273 48.0853C100.788 48.7025 100.133 49.1638 99.3887 49.4115C98.6443 49.6593 97.8434 49.6826 97.0858 49.4787C96.5661 49.3388 96.0799 49.0955 95.6565 48.7632C95.233 48.431 94.8809 48.0167 94.6214 47.5452C94.3618 47.0737 94.2001 46.5547 94.1458 46.0192C94.0916 45.4837 94.146 44.9427 94.3058 44.4287ZM100.026 45.9487C100.071 45.5662 100.004 45.1789 99.8343 44.8332C99.6643 44.4876 99.3982 44.1983 99.0679 44.0003C98.7375 43.8022 98.357 43.7038 97.9721 43.7168C97.5872 43.7297 97.2142 43.8536 96.8979 44.0734C96.5817 44.2933 96.3356 44.5997 96.1893 44.956C96.043 45.3123 96.0027 45.7033 96.0733 46.0819C96.1438 46.4605 96.3222 46.8108 96.5869 47.0905C96.8517 47.3702 97.1916 47.5675 97.5658 47.6587C97.8404 47.7163 98.1237 47.7172 98.3986 47.6614C98.6735 47.6056 98.9342 47.4942 99.1645 47.3341C99.3948 47.174 99.59 46.9685 99.7381 46.7303C99.8862 46.4921 99.9841 46.2261 100.026 45.9487Z" fill="white"/>
<path d="M105.586 49.3586L104.516 49.0786L103.966 51.1386L101.966 50.6187L104.026 42.8687L107.186 43.7086C107.595 43.7681 107.987 43.9155 108.333 44.1408C108.68 44.3661 108.974 44.6639 109.194 45.0137C109.415 45.3635 109.557 45.757 109.611 46.167C109.664 46.577 109.629 46.9938 109.506 47.3886C109.404 47.8904 109.162 48.353 108.808 48.7228C108.454 49.0927 108.003 49.3548 107.506 49.4786L108.356 52.3087L106.256 51.7487L105.586 49.3586ZM106.656 45.3586L105.566 45.0786L104.966 47.3387L106.056 47.6287C106.206 47.6968 106.37 47.7295 106.535 47.7244C106.7 47.7193 106.861 47.6765 107.007 47.5993C107.153 47.522 107.279 47.4124 107.376 47.2788C107.473 47.1452 107.538 46.9912 107.566 46.8286C107.616 46.6746 107.631 46.5115 107.61 46.3509C107.59 46.1903 107.534 46.0362 107.447 45.8996C107.36 45.763 107.244 45.6473 107.108 45.5607C106.971 45.4741 106.816 45.4188 106.656 45.3987V45.3586Z" fill="white"/>
<path d="M112.306 46.8688L110.176 46.3088L110.636 44.5688L116.836 46.2188L116.376 47.9488L114.266 47.3888L112.666 53.3888L110.666 52.8688L112.306 46.8688Z" fill="white"/>
<path d="M116.296 60.2589C116.296 60.3989 102.296 56.8789 85.1758 52.3989C68.0558 47.9189 54.1758 44.1689 54.1758 44.0289C54.1758 43.8889 68.1758 47.4089 85.3058 51.8889C102.436 56.3689 116.336 60.1189 116.296 60.2589Z" fill="white"/>
<path d="M102.086 61.8686C102.086 62.0086 93.7057 59.9486 83.4357 57.2686C73.1657 54.5886 64.8757 52.2686 64.9157 52.1686C64.9557 52.0686 73.3057 54.0886 83.5657 56.7686C93.8257 59.4486 102.126 61.7086 102.086 61.8686Z" fill="white"/>
<path d="M113.106 106.019C112.665 106.81 112.07 107.504 111.356 108.062C110.642 108.619 109.824 109.027 108.949 109.263C108.075 109.499 107.162 109.557 106.265 109.435C105.368 109.312 104.504 109.011 103.726 108.549C103.726 108.549 107.286 102.869 113.106 106.019Z" fill="white"/>
<path d="M107.436 114.379C106.835 114.895 106.137 115.287 105.383 115.53C104.629 115.773 103.834 115.862 103.045 115.793C102.256 115.724 101.488 115.498 100.788 115.128C100.087 114.758 99.4677 114.252 98.9658 113.639C98.9658 113.639 103.616 110.069 107.436 114.379Z" fill="white"/>
<path d="M100.745 120.029C99.9803 120.386 99.1514 120.586 98.3076 120.617C97.4639 120.649 96.6224 120.511 95.8328 120.212C95.0433 119.912 94.3217 119.458 93.7107 118.875C93.0997 118.293 92.6117 117.593 92.2754 116.819C92.2754 116.819 98.0554 114.489 100.745 120.029Z" fill="white"/>
<path d="M99.9357 104.059C100.533 104.58 101.019 105.215 101.367 105.927C101.714 106.639 101.916 107.413 101.96 108.205C102.003 108.996 101.889 109.788 101.622 110.534C101.355 111.28 100.941 111.965 100.406 112.549C100.406 112.549 96.2157 108.479 99.9357 104.059Z" fill="white"/>
<path d="M97.1257 110.339C97.3386 110.91 97.4333 111.518 97.4042 112.127C97.375 112.735 97.2226 113.332 96.9561 113.879C96.6896 114.427 96.3146 114.916 95.8539 115.314C95.3931 115.713 94.8562 116.014 94.2756 116.199C93.9012 115.043 93.9889 113.787 94.5202 112.695C95.0516 111.602 95.9853 110.758 97.1257 110.339Z" fill="white"/>
<path d="M112.555 98.2586C112.444 98.9677 112.192 99.6475 111.815 100.258C111.437 100.868 110.941 101.397 110.355 101.812C109.77 102.228 109.108 102.522 108.407 102.678C107.706 102.833 106.982 102.847 106.275 102.719C106.275 102.719 107.375 97.5386 112.555 98.2586Z" fill="white"/>
<path d="M106.236 91.2388C106.236 91.2388 110.066 94.1888 106.856 98.7388C105.814 97.8041 105.17 96.5065 105.055 95.112C104.939 93.7175 105.362 92.3317 106.236 91.2388Z" fill="white"/>
<path d="M101.726 97.7588C102.495 98.0695 103.195 98.531 103.784 99.116C104.373 99.701 104.839 100.398 105.155 101.165C105.471 101.933 105.63 102.756 105.623 103.586C105.616 104.416 105.444 105.236 105.116 105.999C105.116 105.999 99.5657 103.409 101.726 97.7588Z" fill="white"/>
<path d="M87.8654 117.279H88.1754C88.3754 117.279 88.6755 117.279 89.0555 117.279C90.131 117.234 91.1995 117.083 92.2455 116.829C93.7969 116.451 95.2904 115.866 96.6855 115.089C97.5123 114.638 98.3045 114.127 99.0555 113.559L99.6355 113.099L99.9355 112.859L100.215 112.609L100.785 112.099L101.325 111.549L101.595 111.269L101.855 110.979C102.025 110.789 102.195 110.599 102.355 110.399L102.815 109.809L103.045 109.509L103.255 109.209L103.665 108.609L104.035 107.999L104.215 107.699C104.28 107.6 104.337 107.496 104.385 107.389C104.495 107.189 104.605 106.989 104.705 106.789C105.433 105.367 105.987 103.863 106.355 102.309C106.595 101.256 106.752 100.186 106.825 99.1087C106.825 98.7287 106.825 98.4387 106.825 98.2387V98.0087C106.822 97.9822 106.822 97.9552 106.825 97.9287V98.2387C106.825 98.4387 106.825 98.7287 106.825 99.1187C106.761 100.196 106.607 101.267 106.365 102.319C106.004 103.879 105.457 105.389 104.735 106.819L104.415 107.419L104.245 107.729L104.065 108.029L103.685 108.639L103.275 109.249L103.065 109.549L102.835 109.849L102.375 110.449L101.875 111.029L101.615 111.319L101.345 111.599L100.795 112.149L100.225 112.659L99.9455 112.919L99.6555 113.149L99.0655 113.609C98.3088 114.177 97.5135 114.691 96.6855 115.149C95.2813 115.919 93.7817 116.501 92.2255 116.879C91.1749 117.124 90.1034 117.268 89.0255 117.309H87.8354L87.8654 117.279Z" fill="white"/>
<path d="M34.6356 85.2188C34.6261 86.1239 34.7982 87.0217 35.1417 87.8591C35.4853 88.6966 35.9932 89.4566 36.6356 90.0943C37.278 90.732 38.0417 91.2345 38.8816 91.5719C39.7216 91.9093 40.6206 92.0748 41.5256 92.0587C41.5256 92.0587 41.2356 85.3888 34.6356 85.2188Z" fill="white"/>
<path d="M35.4355 95.2788C35.7016 96.0244 36.1141 96.7093 36.6486 97.2932C37.1832 97.8771 37.829 98.3482 38.5482 98.6789C39.2675 99.0097 40.0456 99.1933 40.8368 99.2191C41.628 99.2448 42.4163 99.1121 43.1555 98.8288C43.1555 98.8288 40.8755 93.4388 35.4355 95.2788Z" fill="white"/>
<path d="M38.4355 103.509C38.9251 104.203 39.5492 104.792 40.271 105.241C40.9927 105.69 41.7973 105.989 42.6368 106.12C43.4764 106.252 44.3339 106.213 45.1582 106.007C45.9826 105.8 46.757 105.43 47.4355 104.918C47.4355 104.918 43.5155 100.039 38.4355 103.509Z" fill="white"/>
<path d="M47.0458 90.0488C46.2695 90.2039 45.5322 90.5131 44.8775 90.9582C44.2229 91.4032 43.6641 91.975 43.2343 92.6398C42.8045 93.3046 42.5123 94.0488 42.3752 94.8284C42.238 95.6081 42.2586 96.4073 42.4358 97.1788C42.4358 97.1788 48.0858 95.7188 47.0458 90.0488Z" fill="white"/>
<path d="M46.3755 96.8687C45.9079 97.2589 45.5244 97.74 45.2482 98.2828C44.972 98.8256 44.8088 99.4189 44.7686 100.027C44.7284 100.634 44.812 101.244 45.0143 101.818C45.2166 102.393 45.5334 102.92 45.9455 103.369C46.8453 102.552 47.3929 101.418 47.4731 100.205C47.5533 98.993 47.1599 97.7967 46.3755 96.8687Z" fill="white"/>
<path d="M38.9558 78.7485C38.6988 79.4207 38.5793 80.1376 38.6043 80.8567C38.6293 81.5759 38.7983 82.2827 39.1014 82.9354C39.4044 83.5881 39.8353 84.1734 40.3685 84.6566C40.9018 85.1398 41.5265 85.5111 42.2058 85.7485C42.2058 85.7485 43.8158 80.6885 38.9558 78.7485Z" fill="white"/>
<path d="M47.9155 75.7886C47.9155 75.7886 43.1355 76.4486 43.6655 81.9886C45.0332 81.6961 46.2365 80.89 47.0273 79.7364C47.8181 78.5828 48.136 77.1697 47.9155 75.7886Z" fill="white"/>
<path d="M48.6157 83.6785C47.7949 83.5696 46.9606 83.6257 46.1618 83.8435C45.3629 84.0613 44.6156 84.4364 43.9636 84.9468C43.3116 85.4572 42.7681 86.0927 42.3649 86.8159C41.9618 87.5391 41.707 88.3356 41.6157 89.1585C41.6157 89.1585 47.6957 89.6585 48.6157 83.6785Z" fill="white"/>
<path d="M50.9857 107.499H50.9157L50.7157 107.389C50.5457 107.289 50.2857 107.149 49.9657 106.939C49.0506 106.359 48.1962 105.689 47.4157 104.939C46.2546 103.841 45.2457 102.594 44.4157 101.229C43.9248 100.423 43.4904 99.5843 43.1157 98.7186L42.8357 98.0286L42.6957 97.6786L42.5757 97.3286L42.3357 96.5986C42.2757 96.3486 42.2057 96.0986 42.1357 95.8486L42.0357 95.4785L41.9657 95.0986C41.9657 94.8486 41.8557 94.5986 41.8157 94.3486C41.7757 94.0986 41.7457 93.8486 41.7057 93.5986C41.6657 93.3486 41.7057 93.3485 41.7057 93.2285V92.8586L41.6457 92.1385C41.6457 91.8986 41.6457 91.6585 41.6457 91.4185V91.0686C41.6457 90.9586 41.6457 90.8386 41.6457 90.7186C41.6457 90.5986 41.6457 90.2686 41.6457 90.0386C41.7244 88.4424 41.9929 86.8612 42.4457 85.3286C42.7565 84.3008 43.1443 83.298 43.6057 82.3286L44.0157 81.5486L44.1257 81.3386V81.2686C44.1286 81.2918 44.1286 81.3153 44.1257 81.3386L44.0157 81.5386L43.5957 82.3086C43.1229 83.2767 42.725 84.2796 42.4057 85.3086C41.9436 86.8428 41.6716 88.428 41.5957 90.0286V90.7086C41.5957 90.8286 41.5957 90.9486 41.5957 91.0586C41.5957 91.1686 41.5957 91.2985 41.5957 91.4185C41.5957 91.5385 41.5957 91.8886 41.5957 92.1286L41.6557 92.8586V93.2285L41.7157 93.5986C41.7157 93.8486 41.7857 94.0986 41.8157 94.3486L41.9657 95.0986C41.9657 95.2286 42.0157 95.3485 42.0457 95.4785L42.1457 95.8586C42.2157 96.1086 42.2757 96.3586 42.3457 96.6086L42.5857 97.3386L42.7057 97.6985C42.7557 97.8085 42.7957 97.9286 42.8457 98.0486L43.1257 98.7386C43.4997 99.6065 43.9376 100.445 44.4357 101.249C45.2638 102.615 46.2729 103.863 47.4357 104.959C48.2183 105.715 49.0799 106.386 50.0057 106.959C50.3357 107.169 50.5957 107.299 50.7757 107.399L50.9757 107.499H50.9857Z" fill="white"/>
</svg>
