<svg width="1019" height="702" viewBox="0 0 1019 702" fill="none" xmlns="http://www.w3.org/2000/svg">
<path d="M823.496 249.491C821.267 255.81 812.715 258.163 812.715 258.163L419.817 277.286C391.973 277.768 372.134 274.637 358.03 269.874C350.031 267.415 342.607 263.606 336.143 258.645C323.275 248.398 323.093 237.743 323.093 237.743L377.342 235.315L391.669 234.648L408.185 233.87C530.322 228.181 742.416 218.36 757.756 218.323C765.941 218.613 774.045 219.909 781.851 222.178C788.974 224.092 795.93 226.489 802.663 229.349C810.769 232.851 817.7 236.761 821.246 240.337C822.502 241.455 823.388 242.875 823.8 244.432C824.146 246.116 824.042 247.852 823.496 249.491Z" fill="#4FE1F9"/>
<path d="M408.185 233.851L391.669 234.629L377.342 235.296L323.093 237.835L316 184.097L339.751 183.189C339.751 183.189 343.986 190.138 360.178 210.744C376.369 231.349 408.185 233.851 408.185 233.851Z" fill="#263238"/>
<path d="M823.495 249.491C821.266 255.81 812.714 258.163 812.714 258.163L419.817 277.287C391.973 277.768 372.134 274.637 358.029 269.874L823.495 249.491Z" fill="#263238"/>
<path opacity="0.1" d="M820.598 239.886L336.02 258.422C323.166 248.11 323.004 237.387 323.004 237.387V236.809L322.559 233.377L316 183.362L339.705 182.448C339.705 182.448 343.956 189.441 360.13 210.179C376.304 230.916 408.085 233.377 408.085 233.377C530.07 227.652 741.933 217.768 757.257 217.731C765.433 218.022 773.529 219.327 781.326 221.61C782.197 221.834 783.047 222.076 783.917 222.337C790.137 224.132 796.223 226.3 802.136 228.827C803.209 229.293 804.16 229.759 805.274 230.244C810.942 232.628 816.125 235.889 820.598 239.886Z" fill="black"/>
<path d="M429.913 240.854L429.063 240.887C427.397 240.952 426.103 242.239 426.173 243.762L426.325 247.039C426.395 248.563 427.803 249.746 429.469 249.681L430.32 249.648C431.986 249.584 433.279 248.297 433.209 246.773L433.057 243.496C432.987 241.973 431.579 240.79 429.913 240.854Z" fill="white"/>
<path d="M443.836 240.304L442.989 240.376C441.328 240.518 440.108 241.864 440.263 243.382L440.596 246.648C440.751 248.166 442.223 249.282 443.883 249.14L444.73 249.068C446.391 248.926 447.611 247.581 447.456 246.062L447.123 242.797C446.968 241.278 445.497 240.162 443.836 240.304Z" fill="white"/>
<path d="M458.537 239.76L457.687 239.793C456.021 239.858 454.727 241.145 454.798 242.669L454.95 245.946C455.021 247.469 456.429 248.652 458.095 248.587L458.945 248.554C460.611 248.489 461.905 247.202 461.834 245.678L461.682 242.402C461.611 240.878 460.203 239.695 458.537 239.76Z" fill="white"/>
<path d="M472.901 239.178L472.051 239.211C470.385 239.275 469.091 240.562 469.162 242.086L469.313 245.363C469.384 246.886 470.791 248.069 472.457 248.005L473.308 247.972C474.974 247.907 476.267 246.62 476.197 245.097L476.046 241.82C475.975 240.296 474.567 239.113 472.901 239.178Z" fill="white"/>
<path d="M488.16 238.589L487.31 238.622C485.644 238.686 484.35 239.973 484.42 241.497L484.572 244.774C484.642 246.297 486.05 247.48 487.716 247.416L488.567 247.383C490.233 247.318 491.526 246.031 491.456 244.508L491.304 241.231C491.234 239.707 489.826 238.524 488.16 238.589Z" fill="white"/>
<path d="M503.076 238.014L502.226 238.047C500.56 238.111 499.266 239.398 499.336 240.922L499.488 244.199C499.558 245.722 500.966 246.905 502.632 246.841L503.483 246.808C505.149 246.743 506.442 245.456 506.372 243.933L506.22 240.656C506.15 239.132 504.742 237.949 503.076 238.014Z" fill="white"/>
<path d="M639.5 232.751L638.65 232.784C636.984 232.848 635.69 234.135 635.76 235.659L635.912 238.936C635.982 240.459 637.39 241.642 639.056 241.578L639.906 241.545C641.573 241.481 642.866 240.193 642.796 238.67L642.644 235.393C642.574 233.869 641.166 232.687 639.5 232.751Z" fill="white"/>
<path d="M654.612 233.587L653.761 233.618C652.093 233.679 650.795 234.965 650.862 236.49L651.005 239.769C651.072 241.294 652.478 242.481 654.146 242.42L654.997 242.389C656.664 242.328 657.962 241.042 657.896 239.517L657.752 236.238C657.685 234.713 656.279 233.526 654.612 233.587Z" fill="white"/>
<path d="M668.22 231.644L667.369 231.676C665.703 231.741 664.41 233.028 664.48 234.551L664.631 237.828C664.702 239.352 666.11 240.535 667.776 240.47L668.626 240.438C670.292 240.373 671.586 239.086 671.515 237.562L671.364 234.285C671.294 232.762 669.886 231.579 668.22 231.644Z" fill="white"/>
<path d="M682.368 231.098L681.518 231.13C679.852 231.195 678.558 232.482 678.628 234.006L678.78 237.283C678.85 238.806 680.258 239.989 681.924 239.924L682.775 239.892C684.441 239.827 685.734 238.54 685.664 237.017L685.512 233.74C685.442 232.216 684.034 231.033 682.368 231.098Z" fill="white"/>
<path d="M695.687 230.584L694.836 230.617C693.17 230.681 691.876 231.968 691.947 233.492L692.098 236.769C692.169 238.292 693.576 239.475 695.243 239.411L696.093 239.378C697.759 239.314 699.053 238.026 698.982 236.503L698.831 233.226C698.76 231.702 697.353 230.52 695.687 230.584Z" fill="white"/>
<path d="M674.909 222.726L529.284 179.162C523.913 177.558 518.273 176.837 512.627 177.031L480 178.05L565.113 227.563L674.909 222.726Z" fill="#263238"/>
<path d="M568.299 270.059L538.043 296.002L549.776 296.502C555.435 296.735 561.093 296.026 566.475 294.408L662.45 265.464L568.299 270.059Z" fill="#263238"/>
<path d="M452.789 268.447L447.641 263.314L399.208 253.104C393.013 251.8 386.646 251.313 380.301 251.659L359.205 252.807L400.08 270.763L452.789 268.447Z" fill="#263238"/>
<path d="M408.206 233.851L323.093 237.261L322.647 233.851L319.81 212.338L318.493 202.405L316.081 184.153L339.811 183.245C339.811 183.245 342.689 187.933 352.68 201.034C354.706 203.758 357.138 206.834 359.894 210.299L360.259 210.762C376.39 231.405 408.206 233.851 408.206 233.851Z" fill="#263238"/>
<path d="M359.833 210.336L319.749 212.338L318.432 202.405L352.619 201.034C354.686 203.814 357.077 206.834 359.833 210.336Z" fill="white"/>
<path d="M805.804 230.738C785.134 232.053 726.629 234.573 717.996 233.999C707.337 233.276 708.735 225.975 708.735 225.975L784.445 222.881C790.672 224.665 796.764 226.819 802.684 229.329C803.737 229.756 804.791 230.256 805.804 230.738Z" fill="white"/>
<path d="M375.64 374.496C377.423 371.049 493.805 265.482 493.805 265.482L500.695 328.031L507.585 390.58" stroke="#263238" stroke-width="0.5" stroke-linecap="round" stroke-linejoin="round"/>
<path d="M397.87 376.312L493.845 265.482L525.134 393.322" stroke="#263238" stroke-width="0.5" stroke-linecap="round" stroke-linejoin="round"/>
<path d="M525.709 392.952L393.615 375.762L380.104 462.572L512.197 479.762L525.709 392.952Z" fill="#263238"/>
<path opacity="0.3" d="M525.709 392.952L393.615 375.762L380.104 462.572L512.197 479.762L525.709 392.952Z" fill="#263238"/>
<path d="M507.608 390.606L375.515 373.416L362.003 460.226L494.097 477.417L507.608 390.606Z" fill="#50B7CD"/>
<path opacity="0.5" d="M435.827 459.318C455.739 458.729 471.359 443.493 470.716 425.286C470.072 407.079 453.41 392.796 433.498 393.384C413.587 393.972 397.967 409.209 398.61 427.416C399.253 445.623 415.916 459.906 435.827 459.318Z" fill="white"/>
<path opacity="0.5" d="M514.124 400.319L490.089 397.191L488.944 404.548L512.979 407.676L514.124 400.319Z" fill="white"/>
<path opacity="0.5" d="M504.941 459.327L480.906 456.199L479.761 463.556L503.796 466.684L504.941 459.327Z" fill="white"/>
<path d="M412.684 410.5L419.899 414.558C420.301 414.82 420.585 415.208 420.697 415.648C420.809 416.088 420.741 416.551 420.507 416.948L417.284 421.711C417.021 422.094 416.604 422.367 416.122 422.471C415.641 422.575 415.134 422.501 414.711 422.267L407.476 418.208C407.44 419.653 407.79 421.083 408.495 422.376C409.201 423.668 410.241 424.784 411.525 425.626C412.809 426.467 414.298 427.01 415.863 427.206C417.428 427.402 419.022 427.246 420.507 426.751C421.589 426.403 422.747 426.298 423.883 426.447C425.019 426.595 426.099 426.992 427.032 427.603L452.647 443.891C453.782 444.644 455.197 444.956 456.583 444.758C457.969 444.56 459.213 443.869 460.044 442.835C460.434 442.321 460.71 441.741 460.855 441.129C461 440.517 461.012 439.885 460.89 439.268C460.767 438.652 460.513 438.064 460.142 437.538C459.771 437.011 459.29 436.557 458.726 436.201L458.24 435.923L430.639 422.304C429.63 421.804 428.767 421.091 428.121 420.224C427.476 419.357 427.068 418.36 426.931 417.319C426.787 416.159 426.395 415.036 425.776 414.015C425.157 412.994 424.324 412.094 423.325 411.368C422.325 410.641 421.178 410.102 419.951 409.782C418.723 409.461 417.438 409.365 416.17 409.499C414.992 409.624 413.851 409.951 412.806 410.463L412.684 410.5ZM458.524 441.686C458.237 442.086 457.792 442.37 457.282 442.477C456.772 442.584 456.237 442.506 455.788 442.261C455.482 441.966 455.29 441.587 455.243 441.183C455.195 440.779 455.294 440.372 455.525 440.024C455.755 439.677 456.104 439.408 456.518 439.26C456.931 439.111 457.387 439.091 457.814 439.203C458.25 439.462 458.56 439.864 458.681 440.326C458.802 440.788 458.723 441.275 458.463 441.686H458.524Z" fill="white"/>
<path d="M677.426 509.358L682.148 258.737L559.504 498.296" stroke="#263238" stroke-width="0.5" stroke-linecap="round" stroke-linejoin="round"/>
<path d="M692.787 512.397L682.148 258.737L580.377 501.502" stroke="#263238" stroke-width="0.5" stroke-linecap="round" stroke-linejoin="round"/>
<path d="M693.648 511.205L574.797 498.15L564.537 576.25L683.387 589.305L693.648 511.205Z" fill="#263238"/>
<path opacity="0.3" d="M693.648 511.205L574.797 498.15L564.537 576.25L683.387 589.305L693.648 511.205Z" fill="black"/>
<path d="M677.381 509.407L558.53 496.352L548.27 574.451L667.121 587.506L677.381 509.407Z" fill="#50B7CD"/>
<path opacity="0.5" d="M640.478 558.055C649.719 544.065 644.807 525.874 629.507 517.424C614.207 508.975 594.313 513.467 585.073 527.457C575.833 541.447 580.745 559.638 596.045 568.087C611.344 576.536 631.238 572.045 640.478 558.055Z" fill="white"/>
<path opacity="0.8" d="M593.144 535.726C594.137 534.652 595.9 534.856 597.339 536.023L606.053 543.769L602.142 547.882C602.142 547.882 596.305 540.637 595.09 539.192C593.874 537.746 592.475 536.449 593.144 535.726Z" fill="white"/>
<path d="M602.749 536.413C602.952 534.894 604.654 534.43 606.62 534.838C608.586 535.246 616.246 538.414 616.246 538.414C616.246 538.414 624.96 537.043 629.479 538.711C630.999 539.248 631.059 540.564 630.553 541.731C630.372 542.257 629.995 542.709 629.488 543.007C628.981 543.305 628.375 543.431 627.776 543.362L615.131 543.455C614.902 543.482 614.671 543.482 614.442 543.455C611.357 541.493 608.127 539.729 604.776 538.174C602.952 537.358 602.607 537.099 602.749 536.413Z" fill="white"/>
<path d="M630.492 539.21C629.154 538.265 626.236 538.154 623.217 538.803C620.044 539.486 617.075 540.802 614.523 542.657H614.239L604.735 543.324L594.785 536.023C593.164 534.911 591.36 534.8 590.529 535.893C589.962 536.635 591.563 537.895 593.002 539.266C594.441 540.637 599.426 545.529 601.006 547.104C601.309 547.407 601.674 547.653 602.08 547.827L604.37 548.846C605.552 549.289 606.823 549.497 608.099 549.458L626.54 547.605L637.341 556.332L638.821 545.214L630.492 539.21Z" fill="white"/>
<path opacity="0.5" d="M683.4 517.997L661.771 515.621L660.903 522.226L682.532 524.602L683.4 517.997Z" fill="white"/>
<path opacity="0.5" d="M676.423 571.097L654.794 568.721L653.926 575.326L675.556 577.701L676.423 571.097Z" fill="white"/>
<path d="M162.636 542.358L153.553 541.363L130.384 538.783L127.943 557.577L156.314 560.709L160.195 561.133L162.636 542.358Z" fill="#0D434F"/>
<path opacity="0.7" d="M162.636 542.358L153.553 541.363L130.384 538.783L127.943 557.577L156.314 560.709L160.195 561.133L162.636 542.358Z" fill="#0D434F"/>
<path d="M72.0227 514.26L69.2217 532.335L96.5518 535.928L100.313 536.425L103.094 518.332L82.5266 515.623L72.0227 514.26Z" fill="#0D434F"/>
<path opacity="0.7" d="M72.0227 514.26L69.2217 532.335L96.5518 535.928L100.313 536.425L103.094 518.332L82.5266 515.623L72.0227 514.26Z" fill="#0D434F"/>
<path d="M226.86 460.035C226.701 459.337 226.326 458.697 225.78 458.192L225.16 457.603C222.953 455.925 220.502 454.542 217.877 453.494L216.856 453.07C214.309 452.027 211.689 451.14 209.014 450.417C205.915 449.521 202.711 448.97 199.47 448.777H198.77C195.529 448.777 171.64 449.827 142.069 451.172L116.459 452.351L96.992 446.529C94.7103 445.831 92.312 445.513 89.9093 445.589L76.0442 446.032L89.049 453.66L50.0545 455.502C45.6292 455.028 41.3436 453.777 37.4298 451.817C34.3643 450.309 31.6995 448.195 29.6269 445.626C27.086 442.365 25.2453 439.914 23.9248 438.109L23.8248 437.961L23.3446 437.317L22.9044 436.672L22.8044 436.543L22.4643 436.064V435.971L22.1442 435.529C21.744 434.94 21.4439 434.534 21.2838 434.258L21.1838 434.092V434L15.1815 434.221L11 434.387L13.9411 456.792V457.142V457.381C13.9695 457.969 14.077 458.551 14.2612 459.113C15.1878 461.944 17.0051 464.457 19.4832 466.336C22.2362 468.458 25.3899 470.094 28.7866 471.163C34.7889 473.153 43.232 474.498 55.0764 474.296L118.24 471.2L105.375 482.255L110.357 482.476C112.771 482.574 115.184 482.268 117.48 481.574L158.315 469.173L222.218 466.041C223.223 465.762 224.151 465.289 224.941 464.653C225.731 464.018 226.365 463.235 226.8 462.356C227.044 461.601 227.065 460.8 226.86 460.035Z" fill="#0D434F"/>
<path opacity="0.7" d="M226.86 460.035C226.701 459.337 226.326 458.697 225.78 458.192L225.16 457.603C222.953 455.925 220.502 454.542 217.877 453.494L216.856 453.07C214.309 452.027 211.689 451.14 209.014 450.417C205.915 449.521 202.711 448.97 199.47 448.777H198.77C195.529 448.777 171.64 449.827 142.069 451.172L116.459 452.351L96.992 446.529C94.7103 445.831 92.312 445.513 89.9093 445.589L76.0442 446.032L89.049 453.66L50.0545 455.502C45.6292 455.028 41.3436 453.777 37.4298 451.817C34.3643 450.309 31.6995 448.195 29.6269 445.626C27.086 442.365 25.2453 439.914 23.9248 438.109L23.8248 437.961L23.3446 437.317L22.9044 436.672L22.8044 436.543L22.4643 436.064V435.971L22.1442 435.529C21.744 434.94 21.4439 434.534 21.2838 434.258L21.1838 434.092V434L15.1815 434.221L11 434.387L13.9411 456.792V457.142V457.381C13.9695 457.969 14.077 458.551 14.2612 459.113C15.1878 461.944 17.0051 464.457 19.4832 466.336C22.2362 468.458 25.3899 470.094 28.7866 471.163C34.7889 473.153 43.232 474.498 55.0764 474.296L118.24 471.2L105.375 482.255L110.357 482.476C112.771 482.574 115.184 482.268 117.48 481.574L158.315 469.173L222.218 466.041C223.223 465.762 224.151 465.289 224.941 464.653C225.731 464.018 226.365 463.235 226.8 462.356C227.044 461.601 227.065 460.8 226.86 460.035Z" fill="#0D434F"/>
<path d="M101.514 521.298L100.954 470.666L72.623 516.471" stroke="#0D434F" stroke-width="0.5" stroke-linecap="round" stroke-linejoin="round"/>
<path d="M161.996 543.574L161.116 466.815L131.045 539.945" stroke="#0D434F" stroke-width="0.5" stroke-linecap="round" stroke-linejoin="round"/>
<path d="M1018.9 569.193C1018.73 568.435 1018.4 567.754 1017.94 567.226L1017.39 566.587C1015.51 564.743 1013.42 563.253 1011.21 562.161L1010.34 561.719C1008.19 560.634 1005.99 559.73 1003.74 559.014C1001.14 558.113 998.459 557.618 995.762 557.539H995.182C992.487 557.67 972.712 559.867 948.218 562.653C941.424 563.407 934.269 564.292 927.011 565.062L910.664 559.162C908.759 558.478 906.774 558.223 904.799 558.408L893.299 559.49L904.373 567.685L872.144 571.405C868.457 571.045 864.857 569.8 861.535 567.734C858.936 566.13 856.651 563.813 854.844 560.948C852.626 557.326 850.976 554.589 849.842 552.573L849.752 552.425L849.339 551.688L848.927 550.983L848.849 550.836L848.553 550.311L848.488 550.196L848.217 549.705L847.444 548.279L847.354 548.098V548L842.468 548.508L839 548.869L842.236 574.405V574.815V575.028C842.283 575.698 842.395 576.359 842.571 576.995C843.428 580.204 845.022 583.013 847.147 585.059C849.511 587.369 852.19 589.103 855.05 590.172C860.104 592.221 867.155 593.45 876.966 592.664L929.28 586.485L918.967 599.761H923.118C925.12 599.78 927.109 599.329 928.983 598.433L962.424 582.518L1015.19 576.109C1015.19 576.109 1018.17 574.815 1018.86 571.668C1019.03 570.858 1019.04 570.01 1018.9 569.193Z" fill="#0D434F"/>
<g filter="url(#filter0_d_1040_218)">
<path d="M389 118.96H4C4 118.96 37.264 76.9445 96.6174 88.949C96.6174 88.949 82.1233 33.7884 148.724 45.7929C148.724 45.7929 180.575 -12.969 228.441 2.63681C276.308 18.2426 268.952 74.6636 268.952 74.6636C268.952 74.6636 378.854 48.2238 389 118.96Z" fill="#DADADA"/>
</g>
<g filter="url(#filter1_d_1040_218)">
<path d="M702 392.247H991.566C991.566 392.247 1010.25 360.06 978.333 360.06C978.333 360.06 972.542 324.601 943.897 319.814C915.251 315.026 898.843 345.049 898.843 345.049C898.843 345.049 885.672 279.729 849.492 286.491C813.312 293.253 813.281 323.276 813.281 323.276C813.281 323.276 792.606 292.577 764.085 304.505C735.565 316.433 744.158 366.065 744.158 366.065C744.158 366.065 702.996 352.352 702 392.247Z" fill="#DADADA"/>
</g>
<g filter="url(#filter2_d_1040_218)">
<path d="M291 693.853H476C476 693.853 459.992 675.932 431.474 681.047C431.474 681.047 438.446 657.493 406.455 662.626C406.455 662.626 391.152 637.533 368.197 644.094C345.241 650.654 348.715 674.82 348.715 674.82C348.715 674.82 295.858 663.645 291 693.853Z" fill="#DADADA"/>
</g>
<defs>
<filter id="filter0_d_1040_218" x="0" y="0" width="393" height="126.96" filterUnits="userSpaceOnUse" color-interpolation-filters="sRGB">
<feFlood flood-opacity="0" result="BackgroundImageFix"/>
<feColorMatrix in="SourceAlpha" type="matrix" values="0 0 0 0 0 0 0 0 0 0 0 0 0 0 0 0 0 0 127 0" result="hardAlpha"/>
<feOffset dy="4"/>
<feGaussianBlur stdDeviation="2"/>
<feComposite in2="hardAlpha" operator="out"/>
<feColorMatrix type="matrix" values="0 0 0 0 0 0 0 0 0 0 0 0 0 0 0 0 0 0 0.25 0"/>
<feBlend mode="normal" in2="BackgroundImageFix" result="effect1_dropShadow_1040_218"/>
<feBlend mode="normal" in="SourceGraphic" in2="effect1_dropShadow_1040_218" result="shape"/>
</filter>
<filter id="filter1_d_1040_218" x="698" y="286" width="303" height="114.247" filterUnits="userSpaceOnUse" color-interpolation-filters="sRGB">
<feFlood flood-opacity="0" result="BackgroundImageFix"/>
<feColorMatrix in="SourceAlpha" type="matrix" values="0 0 0 0 0 0 0 0 0 0 0 0 0 0 0 0 0 0 127 0" result="hardAlpha"/>
<feOffset dy="4"/>
<feGaussianBlur stdDeviation="2"/>
<feComposite in2="hardAlpha" operator="out"/>
<feColorMatrix type="matrix" values="0 0 0 0 0 0 0 0 0 0 0 0 0 0 0 0 0 0 0.25 0"/>
<feBlend mode="normal" in2="BackgroundImageFix" result="effect1_dropShadow_1040_218"/>
<feBlend mode="normal" in="SourceGraphic" in2="effect1_dropShadow_1040_218" result="shape"/>
</filter>
<filter id="filter2_d_1040_218" x="287" y="643" width="193" height="58.8535" filterUnits="userSpaceOnUse" color-interpolation-filters="sRGB">
<feFlood flood-opacity="0" result="BackgroundImageFix"/>
<feColorMatrix in="SourceAlpha" type="matrix" values="0 0 0 0 0 0 0 0 0 0 0 0 0 0 0 0 0 0 127 0" result="hardAlpha"/>
<feOffset dy="4"/>
<feGaussianBlur stdDeviation="2"/>
<feComposite in2="hardAlpha" operator="out"/>
<feColorMatrix type="matrix" values="0 0 0 0 0 0 0 0 0 0 0 0 0 0 0 0 0 0 0.25 0"/>
<feBlend mode="normal" in2="BackgroundImageFix" result="effect1_dropShadow_1040_218"/>
<feBlend mode="normal" in="SourceGraphic" in2="effect1_dropShadow_1040_218" result="shape"/>
</filter>
</defs>
</svg>
