<svg width="221" height="229" viewBox="0 0 221 229" fill="none" xmlns="http://www.w3.org/2000/svg">
<path d="M200.046 59.623L217.765 72.9757C221.089 75.5465 221.264 80.3769 218.133 83.1733L190.666 106.893C188.545 108.706 185.546 109 183.154 107.693L162.649 96.1444C159.901 94.6283 156.565 95.2508 154.49 97.4729L131.377 123.316C128.575 126.449 129.389 131.415 133.232 133.43L213.12 175.842C217.064 178.012 217.795 183.36 214.456 186.511L188.683 209.793C186.872 211.405 184.485 211.962 182.267 211.091L85.5411 178.815C83.1686 178.044 80.626 178.702 78.8149 180.314L42.4201 216.516C42.4201 216.516 26.063 233.81 14.8505 226.9C3.63797 219.99 -10.7097 209.617 14.7411 180.942L44.6697 152.552C46.5078 150.813 47.1771 148.292 46.4609 146.009L11.0871 27.3141C10.3244 24.6222 11.3303 21.7739 13.5516 20.1157L38.6513 1.88428C41.9561 -0.475594 46.6545 0.656217 48.4042 4.35675L88.1169 88.8237C91.2137 95.6066 100.026 97.4798 105.742 92.57L129.87 72.0017C132.145 70.0887 132.822 66.9038 131.522 64.2307L119.804 38.9723C118.503 36.2993 119.308 33.1415 121.456 31.2014L151.838 5.70444C154.941 3.0355 159.821 3.93983 161.854 7.56728L173.416 28.5319C180.062 40.5962 189.185 51.0567 200.255 59.268L200.046 59.623Z" fill="url(#paint0_linear_637_118)"/>
<defs>
<linearGradient id="paint0_linear_637_118" x1="84.2203" y1="242.291" x2="135.782" y2="-0.290084" gradientUnits="userSpaceOnUse">
<stop stop-color="#25AFB8"/>
<stop offset="1" stop-color="#25A3BE"/>
</linearGradient>
</defs>
</svg>
