<svg width="1226" height="744" viewBox="0 0 1226 744" fill="none" xmlns="http://www.w3.org/2000/svg">
<path d="M483.016 354.838L486.693 452.208H477.744V463.231H502.756V452.208H495.461L495.982 354.838H483.016Z" fill="#0D434F"/>
<path d="M473.365 436.592C477.172 436.592 480.259 439.676 480.259 443.481V471.957C480.259 475.762 477.172 478.847 473.365 478.847C469.558 478.847 466.471 475.762 466.471 471.957V443.481C466.471 439.676 469.558 436.592 473.365 436.592Z" fill="#0D434F"/>
<path d="M508.293 436.592C512.1 436.592 515.186 439.676 515.186 443.481V471.957C515.186 475.762 512.1 478.847 508.293 478.847C504.486 478.847 501.399 475.762 501.399 471.957V443.481C501.399 439.676 504.486 436.592 508.293 436.592Z" fill="#0D434F"/>
<path d="M564.361 294.171L422.811 287.741L444.871 277.636L568.957 279.473L564.361 294.171Z" fill="#4FE1F9"/>
<path d="M0 308.449L17.0948 302.019L547.816 315.798L569.876 305.693L560.685 368.157L139.109 323.263L0 308.449Z" fill="#21A5C3"/>
<path d="M136 344.586L138.644 323L565 368.137L562.676 400L136 344.586Z" fill="#0D434F"/>
<path d="M420.054 408.115C444.167 408.115 463.714 387.347 463.714 361.727C463.714 336.107 444.167 315.338 420.054 315.338C395.941 315.338 376.394 336.107 376.394 361.727C376.394 387.347 395.941 408.115 420.054 408.115Z" fill="#0D434F"/>
<path d="M420.054 385.61C437.821 385.61 452.224 371.216 452.224 353.46C452.224 335.704 437.821 321.31 420.054 321.31C402.287 321.31 387.884 335.704 387.884 353.46C387.884 371.216 402.287 385.61 420.054 385.61Z" fill="#4FE1F9"/>
<path d="M778.984 354.838L775.308 452.208H784.257V463.231H759.244V452.208H766.539L766.018 354.838H778.984Z" fill="#0D434F"/>
<path d="M788.635 436.592H788.635C784.828 436.592 781.741 439.676 781.741 443.481V471.957C781.741 475.762 784.828 478.847 788.635 478.847H788.635C792.442 478.847 795.529 475.762 795.529 471.957V443.481C795.529 439.676 792.442 436.592 788.635 436.592Z" fill="#0D434F"/>
<path d="M753.707 436.592H753.707C749.9 436.592 746.813 439.676 746.813 443.481V471.957C746.813 475.762 749.9 478.847 753.707 478.847H753.707C757.514 478.847 760.601 475.762 760.601 471.957V443.481C760.601 439.676 757.514 436.592 753.707 436.592Z" fill="#0D434F"/>
<path d="M697.639 294.171L839.189 287.741L817.129 277.636L693.043 279.473L697.639 294.171Z" fill="#4FE1F9"/>
<path d="M646.975 274.38L640.541 132.918L630.43 154.964L632.268 278.973L646.975 274.38Z" fill="#4FE1F9"/>
<path d="M1262 308.449L1244.91 302.019L714.184 315.798L692.124 305.693L701.316 368.157L1122.89 323.263L1262 308.449Z" fill="#21A5C3"/>
<path d="M1125.51 344.733L1122.89 323.263L701.315 368.157L703.613 399.848L1125.51 344.733Z" fill="#0D434F"/>
<path d="M841.946 408.115C866.059 408.115 885.606 387.347 885.606 361.727C885.606 336.107 866.059 315.338 841.946 315.338C817.833 315.338 798.286 336.107 798.286 361.727C798.286 387.347 817.833 408.115 841.946 408.115Z" fill="#0D434F"/>
<path d="M841.946 385.61C859.714 385.61 874.117 371.216 874.117 353.46C874.117 335.704 859.714 321.31 841.946 321.31C824.179 321.31 809.776 335.704 809.776 353.46C809.776 371.216 824.179 385.61 841.946 385.61Z" fill="#4FE1F9"/>
<path d="M711.196 276.55L709.11 291.915L708.025 374.624C707.943 380.779 707.198 386.86 705.801 392.757C701.775 409.934 692.372 425.56 678.484 436.886C665.882 447.174 648.694 454.963 625.945 453.586C565.281 449.911 559.922 398.314 559.922 398.314L562.211 304.747L562.523 291.915L565.281 268.76C565.281 268.76 572.634 203.541 640.651 205.378C708.669 207.215 711.196 276.55 711.196 276.55Z" fill="#21A5C3"/>
<path d="M579.987 254.981L593.774 232.935L611.238 227.424H670.983L685.69 232.935L699.036 254.981L674.66 243.958H606.28L579.987 254.981Z" fill="#E6E6E6"/>
<path d="M630.548 413.478L632.906 475.942H627.165V483.013H643.211V475.942H638.531L638.865 413.478H630.548Z" fill="#0D434F"/>
<path d="M624.356 465.924C626.799 465.924 628.779 467.903 628.779 470.343V488.611C628.779 491.052 626.799 493.031 624.356 493.031C621.914 493.031 619.934 491.052 619.934 488.611V470.343C619.934 467.903 621.914 465.924 624.356 465.924Z" fill="#0D434F"/>
<path d="M646.763 465.924C649.205 465.924 651.185 467.903 651.185 470.343V488.611C651.185 491.052 649.205 493.031 646.763 493.031C644.321 493.031 642.341 491.052 642.341 488.611V470.343C642.341 467.903 644.321 465.924 646.763 465.924Z" fill="#0D434F"/>
<path d="M613.438 213.884L600.739 259.575L603.186 260.254L615.885 214.563L613.438 213.884Z" fill="#21A5C3"/>
<path d="M671.022 221.174L668.529 221.664L677.678 268.194L680.171 267.705L671.022 221.174Z" fill="#21A5C3"/>
<path d="M838.51 108.999C847.627 108.999 855.019 101.612 855.019 92.4993C855.019 83.387 847.627 76 838.51 76C829.392 76 822 83.387 822 92.4993C822 101.612 829.392 108.999 838.51 108.999Z" fill="#4FE1F9"/>
<path d="M350.51 184.999C359.627 184.999 367.019 177.612 367.019 168.499C367.019 159.387 359.627 152 350.51 152C341.392 152 334 159.387 334 168.499C334 177.612 341.392 184.999 350.51 184.999Z" fill="#4FE1F9"/>
<path d="M960.51 515.999C969.627 515.999 977.019 508.612 977.019 499.499C977.019 490.387 969.627 483 960.51 483C951.392 483 944 490.387 944 499.499C944 508.612 951.392 515.999 960.51 515.999Z" fill="#4FE1F9"/>
<path d="M354.51 509.999C363.627 509.999 371.019 502.612 371.019 493.499C371.019 484.387 363.627 477 354.51 477C345.392 477 338 484.387 338 493.499C338 502.612 345.392 509.999 354.51 509.999Z" fill="#4FE1F9"/>
<path d="M615.51 743.999C624.627 743.999 632.019 736.612 632.019 727.499C632.019 718.387 624.627 711 615.51 711C606.392 711 599 718.387 599 727.499C599 736.612 606.392 743.999 615.51 743.999Z" fill="#4FE1F9"/>
</svg>
