<svg xmlns="http://www.w3.org/2000/svg" viewBox="0 0 500 500"><g id="freepik--Clouds--inject-34"><path id="freepik--Cloud--inject-34" d="M428.61,46.53a10.58,10.58,0,0,0-3.51-.65c-1.13-.09-1.49-.31-1.71-.56a8.37,8.37,0,0,0-10.05-3,6.41,6.41,0,0,0-7.57-4.28c.12-3.53-4.39-7.33-8.44-8.19-3.89-.83-7.27-.48-9.49,2.08-2.37-4.64-11.68-5.94-16.71-3.49-2.9,1.41-5.35,2.85-6.55,5.51a10.92,10.92,0,0,0-1.09,5.27c-2-1.73-5.9-2.2-8.52-1.18-2.82,1.09-3,3.22-3.18,5.39a9.92,9.92,0,0,0-5.14-.1c-1.78.53-2.8,1.93-2.56,3.06-1.41-.08-4.76,1.06-4.38,2.55.43,1.67,4.27,1.5,5.7,1.44a25.85,25.85,0,0,0,4-.63,6.11,6.11,0,0,0,2.09.4c2.44,0,3.47-1.06,3.86-2,1.19,2.51,5.43,4.42,8.43,5.18,5.64,1.45,13.62.57,17.09-3.65a6.41,6.41,0,0,0,1.68,2,9.76,9.76,0,0,0,5.22,2.11c2.32.22,8.54.52,10.29-3.17,1.24,2.45,6.77,3.57,11,3a17.34,17.34,0,0,0,4.72-1.42,28,28,0,0,0,2.7-1.63,2.28,2.28,0,0,1,2.31-.16c2.89.88,6.25,1.23,9.19,0C430.33,49.5,430.82,47.53,428.61,46.53Z" style="fill:#f0f0f0"></path><path id="freepik--cloud--inject-34" d="M108.88,47.14A9,9,0,0,0,106,46.6c-.94-.07-1.24-.26-1.42-.46a7,7,0,0,0-8.35-2.47,5.34,5.34,0,0,0-6.3-3.56c.1-2.94-3.65-6.09-7-6.81s-6-.4-7.89,1.73c-2-3.86-9.71-4.94-13.89-2.9-2.41,1.17-4.45,2.37-5.45,4.58a9.12,9.12,0,0,0-.91,4.38c-1.63-1.44-4.89-1.82-7.07-1-2.35.91-2.53,2.68-2.65,4.48a8.18,8.18,0,0,0-4.27-.08c-1.48.44-2.33,1.6-2.13,2.54-1.17-.07-4,.88-3.64,2.12s3.55,1.24,4.73,1.2a23,23,0,0,0,3.34-.52,5.17,5.17,0,0,0,1.73.33c2,0,2.88-.89,3.21-1.64,1,2.08,4.51,3.67,7,4.31,4.69,1.2,11.33.47,14.21-3a5.25,5.25,0,0,0,1.4,1.7,8,8,0,0,0,4.34,1.76c1.92.18,7.09.43,8.55-2.63,1,2,5.63,3,9.13,2.46a14.26,14.26,0,0,0,3.92-1.18,23.08,23.08,0,0,0,2.25-1.35,1.88,1.88,0,0,1,1.92-.13,11.45,11.45,0,0,0,7.64,0C110.3,49.61,110.71,48,108.88,47.14Z" style="fill:#f0f0f0"></path><path id="freepik--cloud--inject-34" d="M478,77.82a6.59,6.59,0,0,0-2.22-.41c-.72-.06-.94-.2-1.08-.35a5.29,5.29,0,0,0-6.37-1.88,4.06,4.06,0,0,0-4.8-2.72c.08-2.23-2.77-4.64-5.34-5.18s-4.61-.31-6,1.31c-1.51-2.94-7.4-3.76-10.59-2.21-1.83.89-3.39,1.81-4.15,3.49a7,7,0,0,0-.69,3.34,5.9,5.9,0,0,0-5.39-.75c-1.79.69-1.93,2-2,3.42a6.15,6.15,0,0,0-3.26-.06c-1.13.33-1.78,1.22-1.62,1.93-.9,0-3,.67-2.78,1.61s2.7,1,3.61.92a17.31,17.31,0,0,0,2.54-.4,3.57,3.57,0,0,0,1.32.25c1.54,0,2.2-.67,2.45-1.24.75,1.58,3.43,2.79,5.33,3.28,3.58.91,8.63.36,10.83-2.31a4,4,0,0,0,1.07,1.29,6.18,6.18,0,0,0,3.3,1.34c1.47.14,5.41.33,6.52-2,.78,1.56,4.29,2.26,6.95,1.88a10.69,10.69,0,0,0,3-.9,17.77,17.77,0,0,0,1.72-1,1.44,1.44,0,0,1,1.46-.1,8.74,8.74,0,0,0,5.82,0C479,79.7,479.35,78.45,478,77.82Z" style="fill:#f5f5f5"></path></g><g id="freepik--Shadows--inject-34"><path id="freepik--Shadow--inject-34" d="M211.28,421.34c-.28.24-.59.55-.56.92s.38.63.7.83l22,14c1.78,1.14,3.68,2.31,5.79,2.36a10.27,10.27,0,0,0,5-1.51c2.63-1.38,5.16-3,7.86-4.25a80,80,0,0,1,8.75-3,26.52,26.52,0,0,0-5.52-6.06,64.29,64.29,0,0,1,22.42,4.05,20.46,20.46,0,0,0-4-4.09,63.14,63.14,0,0,0-17.22-10.17c-5.45-2.15-12.83-4.82-18.76-3.93a62.72,62.72,0,0,0-17.63,5.27A40,40,0,0,0,211.28,421.34Z" style="fill:#e0e0e0"></path><path id="freepik--shadow--inject-34" d="M87.92,316.44c-.22,1.22-.23,2.57-1,3.52a5.12,5.12,0,0,1-3.21,1.33l-48.88,8c8.11,8.22,20.34,11,31.89,11s23-2.19,34.55-2.22c7.44,0,14.85.88,22.28.9,19.2,0,38.08-5.74,57.28-5.55,11.06.1,22,2.19,32.87,4.28,6.57,1.25,14.41,3.67,15.93,10.19A1029.58,1029.58,0,0,0,118,370.56c.68-.18,4,2.19,4.73,2.55a53.83,53.83,0,0,0,5,2c14.68,5.18,30.84,4.5,46.11,3.13,18-1.61,36-3.47,54-5.59,5-.6,10.08-1.19,15.15-1.45,3.91-.19,8-.91,11.84-.36,3.56.52,7,1.55,10.59,2.1a39.11,39.11,0,0,0,21.28-2.82c5.62-2.44,8.08-4.8,9.42-10.75,8.78,3.83,18,6.94,27,10.35,20.87,7.93,37.7,15.28,58.73,22.71,19.49,6.89,45.55,14.29,65.75,6.1,5.32-2.16,14.39-7.57,11.65-14.66-1.91-5-7.31-8.49-11.57-11.25-27.15-17.63-57.14-29.21-87-41.23-17.17-6.9-34.47-13.73-52.48-18-32.49-7.68-67.64-9.41-100.92-9.35q-33.28,0-66.54,1.93-16.27.92-32.53,2.27C101.55,308.84,89.53,307.79,87.92,316.44Z" style="fill:#e0e0e0"></path><path id="freepik--shadow--inject-34" d="M97.85,379.47c.17.15.36.34.34.57s-.23.38-.42.51l-13.46,8.57a7.25,7.25,0,0,1-3.55,1.44,6.31,6.31,0,0,1-3.05-.92c-1.61-.85-3.16-1.84-4.82-2.61a49.21,49.21,0,0,0-5.36-1.87,15.94,15.94,0,0,1,3.39-3.71,39.3,39.3,0,0,0-13.75,2.48,12.55,12.55,0,0,1,2.43-2.51,38.59,38.59,0,0,1,10.55-6.23c3.34-1.32,7.87-2.95,11.5-2.41A38.86,38.86,0,0,1,92.46,376,25,25,0,0,1,97.85,379.47Z" style="fill:#e0e0e0"></path></g><g id="freepik--Rocks--inject-34"><g id="freepik--Rock--inject-34"><polygon points="322.03 414.87 344.49 421.62 357.92 414.98 347.79 397.54 342.17 398.32 334.31 387.96 322.03 414.87" style="fill:#e0e0e0"></polygon><polygon points="342.17 398.32 335.68 403.4 345.71 402.57 347.79 397.54 342.17 398.32" style="fill:#fafafa"></polygon><polygon points="344.49 421.62 345.71 402.57 347.79 397.54 357.92 414.98 344.49 421.62" style="opacity:0.1"></polygon><polygon points="335.68 403.4 333.17 413.13 331.71 402.12 334.31 387.96 342.17 398.32 335.68 403.4" style="opacity:0.1"></polygon></g><g id="freepik--rock--inject-34"><polygon points="161.18 409.36 142.31 415.03 131.01 409.45 139.53 394.79 144.26 395.45 150.86 386.74 161.18 409.36" style="fill:#e0e0e0"></polygon><polygon points="144.26 395.45 149.71 399.72 141.28 399.02 139.53 394.79 144.26 395.45" style="fill:#fafafa"></polygon><polygon points="142.31 415.03 141.28 399.02 139.53 394.79 131.01 409.45 142.31 415.03" style="opacity:0.1"></polygon><polygon points="149.71 399.72 151.82 407.89 153.04 398.64 150.86 386.74 144.26 395.45 149.71 399.72" style="opacity:0.1"></polygon></g><g id="freepik--rock--inject-34"><polygon points="47.13 343.56 62.71 349.79 72.17 348.2 93.94 351.56 119.64 338.76 109.77 323.13 90.42 319.06 83.38 302.81 65.79 302.81 61.43 320.42 56.25 323.39 47.13 343.56" style="fill:#ebebeb"></polygon><polygon points="93.94 351.56 93.94 325.16 109.77 323.13 119.64 338.76 93.94 351.56" style="opacity:0.1"></polygon><polygon points="93.94 325.16 79.86 323.13 90.42 319.06 109.77 323.13 93.94 325.16" style="fill:#fafafa"></polygon><polygon points="83.38 302.81 76.34 306.87 65.79 302.81 83.38 302.81" style="fill:#fafafa"></polygon><polygon points="76.34 306.87 79.86 323.13 90.42 319.06 83.38 302.81 76.34 306.87" style="opacity:0.1"></polygon><polygon points="56.25 323.39 68.5 326.17 61.06 322.43 61.43 320.42 56.25 323.39" style="fill:#fafafa"></polygon><polygon points="68.5 326.17 62.71 349.79 72.17 348.2 68.5 326.17" style="opacity:0.1"></polygon></g><g id="freepik--rock--inject-34"><polygon points="454.44 319.57 447.27 322.43 442.92 321.7 432.9 323.25 421.08 317.36 425.62 310.17 434.52 308.3 437.76 300.82 445.85 300.82 447.86 308.92 450.24 310.29 454.44 319.57" style="fill:#ebebeb"></polygon><polygon points="432.9 323.25 432.9 311.1 425.62 310.17 421.08 317.36 432.9 323.25" style="opacity:0.1"></polygon><polygon points="432.9 311.1 439.38 310.17 434.52 308.3 425.62 310.17 432.9 311.1" style="fill:#fafafa"></polygon><polygon points="437.76 300.82 441 302.69 445.85 300.82 437.76 300.82" style="fill:#fafafa"></polygon><polygon points="441 302.69 439.38 310.17 434.52 308.3 437.76 300.82 441 302.69" style="opacity:0.1"></polygon><polygon points="450.24 310.29 444.61 311.57 448.03 309.84 447.86 308.92 450.24 310.29" style="fill:#fafafa"></polygon><polygon points="444.61 311.57 447.27 322.43 442.92 321.7 444.61 311.57" style="opacity:0.1"></polygon></g></g><g id="freepik--airplane-part-3--inject-34"><g id="freepik--Plane--inject-34"><g id="freepik--little-wing--inject-34"><path id="freepik--lttle-wing--inject-34" d="M137,223.51c2.71-3.07,3.41-6.65,1.56-8l-3.34-2.44-46.95,22,19.88,21.11Z" style="fill:#ebebeb"></path><path d="M120.38,227.64c3.54.47,8.29,1.06,11.69,1.47l-23.9,27.06L88.29,235.06l47-22S114.22,226.8,120.38,227.64Z" style="fill:#e0e0e0"></path><path d="M135.24,213.07h0l3.34,2.44c1.85,1.35,1.15,4.93-1.56,8l-28.85,32.66s24.22-29.24,26.49-32S141.27,217.16,135.24,213.07Z" style="fill:#fafafa"></path></g><g id="freepik--Body--inject-34"><path d="M161.59,302.92a11.76,11.76,0,0,1-3.7,4.22,7.09,7.09,0,0,1-4.71,1.39l-9.69-7.26c.27.64,6.37,14.7,3.78,18s-8.46,4.22-8.46,4.22l-3.88-7.42.64,8.09L129,325s-2.34,4.14-4.4,4.45h-.18a44.78,44.78,0,0,1-17.08-2.74c-4.4-1.73-7.61-4.11-9.58-6.86,0,0,0,0,0-.06l-.66-1.07a.44.44,0,0,1-.09-.18c-6.43-10.67-12.56-23.43-19.24-41.26-7-18.63-11.88-33.89-15.1-44.83s-4.82-17.57-5.12-18.9a1.24,1.24,0,0,0-.06-.25h0c-.29-1.64.78-3,3-3.4l.21,0a5.08,5.08,0,0,1,1-.08,4.76,4.76,0,0,1,.84,0,2.72,2.72,0,0,1,.28,0c.32,0,.64.08,1,.14,0,0,0,0,.07,0l1,.25c.35.11.71.22,1,.34A9.76,9.76,0,0,1,70,213.32s4.19,3.46,10.37,8.65L82,223.3l1.67,1.4,4,3.4L91,230.85l10,8.52c.68.59,1.34,1.17,2,1.74l2,1.78,2,1.75,2,1.74c.28.26.55.49.84.73h0c3,2.64,5.91,5.22,8.6,7.65,9.55,8.64,25.27,26,40.44,43.5.2.21.38.43.55.64A12.13,12.13,0,0,1,161.59,302.92Z" style="fill:#f5f5f5"></path></g><g id="freepik--body--inject-34"><path d="M62,210.24a3.88,3.88,0,0,1,.48,0h.31c.31,0,.6.07.85.12a.33.33,0,0,0,.15,0l.43.11.46.11.26.09c.26.08.51.16.75.25a9.34,9.34,0,0,1,4,2.63l.06.07s4.26,3.52,10.37,8.66c.53.43,1.06.87,1.59,1.33l.78.65.89.75,4,3.39.43.37,2.81,2.38,10,8.52.42.36,1.62,1.38,2,1.77,1,.88,1,.87,2,1.75.84.73.07,0c3,2.66,5.9,5.21,8.53,7.59,8.18,7.4,21.77,22,40.42,43.48l.52.6a11.74,11.74,0,0,1,2,3.67,11.44,11.44,0,0,1-3.44,3.85,7.08,7.08,0,0,1-4,1.33h-.29l-9.57-7.18a.49.49,0,0,0-.3-.1.49.49,0,0,0-.46.69l0,.06c2.84,6.66,5.55,15.23,3.82,17.45-2.13,2.73-6.53,3.74-7.79,4l-3.71-7.1a.5.5,0,0,0-.45-.27.3.3,0,0,0-.13,0,.49.49,0,0,0-.36.52l.6,7.61-6.08.73a.53.53,0,0,0-.37.25c-.62,1.1-2.55,4-4,4.2h-1.26a43.53,43.53,0,0,1-15.74-2.72,20.45,20.45,0,0,1-9.36-6.68h0l0-.06-.64-1,0-.06a1.17,1.17,0,0,0,0-.11c-6.81-11.3-12.91-24.38-19.2-41.18-5.83-15.53-10.91-30.61-15.09-44.81-3.3-11.09-4.84-17.66-5.11-18.83,0,0,0-.09,0-.13a.71.71,0,0,0,0-.14,2,2,0,0,1,.32-1.58,3.43,3.43,0,0,1,2.3-1.24l.21,0a5.51,5.51,0,0,1,.79-.07H62m0-.5h-.39a6,6,0,0,0-.87.08l-.21,0c-2.25.39-3.32,1.76-3,3.4h0a1.24,1.24,0,0,1,.06.25c.3,1.33,1.87,8,5.12,18.9s8.11,26.2,15.1,44.83c6.68,17.83,12.81,30.59,19.24,41.26a.44.44,0,0,0,.09.18l.66,1.07s0,.05,0,.06c2,2.75,5.18,5.13,9.58,6.86a44.05,44.05,0,0,0,15.93,2.75h1.33c2.06-.31,4.4-4.45,4.4-4.45l6.55-.79-.64-8.09,3.88,7.42s5.82-.83,8.46-4.22-3.51-17.37-3.78-18l9.69,7.26a3,3,0,0,0,.47,0,7.64,7.64,0,0,0,4.24-1.42,11.76,11.76,0,0,0,3.7-4.22,12.13,12.13,0,0,0-2.16-4c-.17-.21-.35-.43-.55-.64-15.17-17.46-30.89-34.86-40.44-43.5-2.69-2.43-5.59-5-8.6-7.65h0c-.29-.24-.56-.47-.84-.73l-2-1.74-2-1.75-2-1.78c-.7-.57-1.36-1.15-2-1.74l-10-8.52-3.24-2.75-4-3.4L82,223.3,80.4,222C74.22,216.78,70,213.32,70,213.32a9.76,9.76,0,0,0-4.17-2.79c-.32-.12-.68-.23-1-.34l-1-.25h-.07a9.64,9.64,0,0,0-1-.14h-.27a5.28,5.28,0,0,0-.55,0Z" style="fill:#e0e0e0"></path></g><path d="M60.3,224.25c.66,2.37,1.43,5.09,2.34,8.17,3.23,10.94,8.12,26.2,15.1,44.83,6.69,17.84,12.81,30.59,19.24,41.27a.69.69,0,0,0,.1.17l.66,1.07s0,.05.05.07c2,2.74,5.18,5.12,9.57,6.86a41.06,41.06,0,0,0,11.7,2.57C103.07,311.92,72.56,255.42,60.3,224.25Z" style="fill:#21A5C3"></path><path d="M60.3,224.25c.66,2.37,1.43,5.09,2.34,8.17,3.23,10.94,8.12,26.2,15.1,44.83,6.69,17.84,12.81,30.59,19.24,41.27a.69.69,0,0,0,.1.17l.66,1.07s0,.05.05.07c2,2.74,5.18,5.12,9.57,6.86a41.06,41.06,0,0,0,11.7,2.57C103.07,311.92,72.56,255.42,60.3,224.25Z" style="fill:#fafafa;opacity:0.75"></path><g id="freepik--little-wign--inject-34"><path id="freepik--lttle-wing--inject-34" d="M114,262.23l-10.76-70.44c-.76-5-3.47-11.56-6-14.64l-4.66-5.58-8.8,60.12a8,8,0,0,0,2.72,6.48Z" style="fill:#f0f0f0"></path><path d="M83.73,231.69a8,8,0,0,0,2.72,6.48L114,262.23c-16-15.64-19.16-41.9-21.47-90.66Z" style="fill:#21A5C3"></path><path d="M83.73,231.69a8,8,0,0,0,2.72,6.48L114,262.23c-16-15.64-19.16-41.9-21.47-90.66Z" style="fill:#fafafa;opacity:0.75"></path><path d="M86.45,238.17l26.4,23.05c-5.52-5-20.46-19.06-23.52-27.53-3.3-9.12,3.2-62.12,3.2-62.12l-8.8,60.12A8,8,0,0,0,86.45,238.17Z" style="fill:#21A5C3;opacity:0.1"></path><path d="M114,262.23l-10.76-70.44c-.76-5-3.47-11.56-6-14.64l-4.66-5.58h0c3.68,5.7,7.35,13.1,10.21,35.68s8.16,52.27,8.16,52.27Z" style="fill:#fafafa"></path></g><g id="freepik--little-wign--inject-34"><path id="freepik--lttle-wing--inject-34" d="M86.49,266.33,31.83,253.86c-3.89-.89-8.81-3.62-11-6.1l-4-4.5,48.36-5.91a5.59,5.59,0,0,1,4.87,2.74Z" style="fill:#f0f0f0"></path><path d="M70.09,240.09,85.8,265.24C82.35,260,72.43,248.07,66,244.94c-6.89-3.37-49.17-1.68-49.17-1.68l48.36-5.91A5.59,5.59,0,0,1,70.09,240.09Z" style="fill:#e0e0e0"></path><path d="M86.49,266.33,31.83,253.86c-3.89-.89-8.81-3.62-11-6.1l-4-4.5h0c4.16,3.6,9.66,7.25,27.23,10.71s40.55,9.41,40.55,9.41Z" style="fill:#fafafa"></path></g><path d="M121.64,314.65l-2.25,3.93a.89.89,0,0,1-1.68,0l-.95-1.63a3.18,3.18,0,0,1,0-2.91l2.24-3.93a.89.89,0,0,1,1.68,0l1,1.63A3.21,3.21,0,0,1,121.64,314.65Z" style="fill:#455a64"></path><path d="M116.35,305.57l-2.25,3.93a.89.89,0,0,1-1.68,0l-1-1.63a3.21,3.21,0,0,1,0-2.91L113.7,301a.89.89,0,0,1,1.68,0l1,1.63A3.24,3.24,0,0,1,116.35,305.57Z" style="fill:#455a64"></path><path d="M111.06,296.49l-2.25,3.93a.89.89,0,0,1-1.68,0l-.95-1.63a3.24,3.24,0,0,1,0-2.91l2.25-3.93a.89.89,0,0,1,1.68,0l1,1.63A3.21,3.21,0,0,1,111.06,296.49Z" style="fill:#455a64"></path><path d="M105.77,287.41l-2.24,3.92a.89.89,0,0,1-1.68,0l-1-1.64a3.24,3.24,0,0,1,0-2.91l2.25-3.92a.89.89,0,0,1,1.68,0l1,1.63A3.21,3.21,0,0,1,105.77,287.41Z" style="fill:#455a64"></path><path d="M100.49,278.33l-2.25,3.92a.89.89,0,0,1-1.68,0l-1-1.64a3.21,3.21,0,0,1,0-2.91l2.24-3.92a.89.89,0,0,1,1.68,0l1,1.64A3.24,3.24,0,0,1,100.49,278.33Z" style="fill:#455a64"></path></g></g><g id="freepik--smoke-3--inject-34"><path d="M175.72,146.29c-5.56-4.93-12.38-8.24-18.08-13-5.89-4.93-10.38-11.28-14.21-17.89-3.7-6.41-4.3-14.1-7.61-20.73C130,83.06,117,76.94,104.33,74.2c-9.67-2.1-20-2.69-29.29.68S57.67,86.2,56.27,96a24.29,24.29,0,0,0-16.54,7.26c-5.56,5.81-5,15.64-1.23,22.28,2.22,3.94,6.11,6.61,10,8.89a109.1,109.1,0,0,0,29.38,11.85c-.33,6,5.47,10.42,10.88,13.07,8.22,4,17.55,7,26.37,9.57-3.51,1.58-7,4.1-7.89,7.84-1.62,6.92,6.51,13.26,5.13,20.23-1.26,6.43-9.68,9-12.06,15.12-1.53,3.93-.18,8.37,1.55,12.22s3.9,7.68,4,11.9c.13,4.9-2.54,9.76-1.46,14.55.87,3.87,3.84,6.7,5.86,10,2.44,3.95,2.11,7.09,1.8,11.49a13.41,13.41,0,0,0,8.65,13.2c2.78,1,6.31,1.33,7.62,4,.76,1.55.45,3.39.46,5.13a13.31,13.31,0,0,0,9.34,12.33c5.5,1.58,13.07.27,15.52,5.45l1.46.36c1.77-2.61.13-6.32-2.36-8.26s-5.64-2.81-8.3-4.49-5-4.79-4.06-7.81c.55-1.81,2.14-3.19,2.57-5,.68-2.92-1.76-5.62-4.26-7.27s-5.45-3.07-6.7-5.79c-2.5-5.4,3.16-10.73,5.95-16a17.7,17.7,0,0,0,1.48-12.65c-.95-3.66-3.1-7.13-2.82-10.9.48-6.19,7.06-9.88,13-11.76s12.71-3.6,15.77-9c3.93-6.93-.54-15.82,1.48-23.52,2.21-8.44,10.8-12.8,15.48-19.64C187.74,162.66,182,151.89,175.72,146.29Z" style="opacity:0.1"></path><path d="M153.67,312.32l1.46.36a4.51,4.51,0,0,0,.71-3c-.57-.31-1.15-.59-1.73-.85-7.78-3.49-17.82-6.21-19.84-14.5-.57-2.33-.36-4.86-1.31-7.07-1.08-2.54-3.49-4.22-5.52-6.1a27.3,27.3,0,0,1-8.29-23.68c.56-3.75,1.92-7.4,1.81-11.19-.12-4-1.86-7.7-3.27-11.42s-2.54-7.82-1.41-11.64,5.3-7,9-5.61c-2.75-5.75-4.08-12.46-2.19-18.55s7.58-11.2,14-11.1a15.43,15.43,0,0,1,.65-28.25,27.36,27.36,0,0,1-25.05-12.58c-5.06.33-10.38.61-14.94-1.62s-7.84-7.89-5.67-12.47a46.64,46.64,0,0,1-27.52-5.73c-3.42-1.94-6.86-4.7-7.54-8.58-.79-4.51,2.62-8.92,6.78-10.81s8.93-1.88,13.51-1.83A22.92,22.92,0,0,1,72.65,83.4a22.53,22.53,0,0,1,7.06-9.86A38.23,38.23,0,0,0,75,74.88C65.74,78.25,57.67,86.2,56.27,96a24.29,24.29,0,0,0-16.54,7.26c-5.56,5.81-5,15.64-1.23,22.28,2.22,3.94,6.11,6.61,10,8.89a109.1,109.1,0,0,0,29.38,11.85c-.33,6,5.47,10.42,10.88,13.07,8.22,4,17.55,7,26.37,9.57-3.51,1.58-7,4.1-7.89,7.84-1.62,6.92,6.51,13.26,5.13,20.23-1.26,6.43-9.68,9-12.06,15.12-1.53,3.93-.18,8.37,1.55,12.22s3.9,7.68,4,11.9c.13,4.9-2.54,9.76-1.46,14.55.87,3.87,3.84,6.7,5.86,10,2.44,3.95,2.11,7.09,1.8,11.49a13.41,13.41,0,0,0,8.65,13.2c2.78,1,6.31,1.33,7.62,4,.76,1.55.45,3.39.46,5.13a13.31,13.31,0,0,0,9.34,12.33C143.65,308.45,151.22,307.14,153.67,312.32Z" style="opacity:0.1"></path></g><g id="freepik--fire-2--inject-34"><g id="freepik--Fire--inject-34"><path d="M172.94,303.11c-1.95-1.63-4.17-2.79-6.07-4.5s-1.39-4.52-2-6.78a9.93,9.93,0,0,0-4.6-6.09c-2.45-1.42-5.61-1.85-7.34-4.09-2.8-3.65.12-9.32-2-13.4-2.22-4.3-8.8-4.7-11.14-8.94.2,2,1.86,3.5,2.94,5.21a9.65,9.65,0,0,1,.71,8.71c-.46,1.1-1.14,2.12-1.5,3.26-.93,2.86-.53,7.27,1.59,9.55a15.39,15.39,0,0,1-4.49-4.78,10.25,10.25,0,0,1-1.05-3.59c-.23-2,0-4.13-.69-6-.78-2.14-2.62-3.68-4.33-5.18a13.11,13.11,0,0,1-3.53-4.21c-.65-1.44-1.72-3.52-.74-5.06-1.83,2.86-1.41,6.63-.29,9.84s2.86,6.21,3.58,9.53c.93,4.34,0,8.83-.14,13.26a18.4,18.4,0,0,0,1.67,9.34c1.52,2.87,4.57,4.51,5.11,7.93.25,1.61,0,3.28.42,4.85a9.11,9.11,0,0,0,3.59,4.64,14.11,14.11,0,0,1,2.09,1.76,12.61,12.61,0,0,0,1.34,1.57,14.56,14.56,0,0,0,4.85,2.47,62.54,62.54,0,0,0,19.19,3.12,10.88,10.88,0,0,0,2.79-.27Z" style="fill:#21A5C3;opacity:0.4"></path><path d="M172.94,307.3a9.82,9.82,0,0,0-.86-.71c-3-2.25-7.11-3.83-9.43-6.9-2.1-2.79-1.62-7-3.89-9.66-1.48-1.74-3.81-2.45-5.72-3.71a11.42,11.42,0,0,1-5-10c-.93,2.63-1.67,5.56-.66,8.17.67,1.73,2.06,3.14,2.59,4.93.67,2.27-.15,4.69-1.12,6.85.07-2.54-2.08-4.58-4.27-5.87s-4.69-2.26-6.24-4.27a13.81,13.81,0,0,1-2.13-5.72,26,26,0,0,1-.4,7.42c-.34,1.67-.84,3.43-.3,5.06.72,2.17,3,3.32,4.64,4.91a10,10,0,0,1,2.88,5.33c.43,2.28.06,4.69.74,6.91a11.9,11.9,0,0,0,1.69,3.26c2.33,3.37,5.56,6.32,9.53,7.33a24.45,24.45,0,0,0,5.4.56l9.17.27a24.13,24.13,0,0,0,3.4-.08Z" style="fill:#21A5C3;opacity:0.6000000000000001"></path></g></g><g id="freepik--airplane-part-2--inject-34"><path d="M258.54,274.91c25.24.57,25.44,57,3.45,56.55l-41.22-.93-.72-56Z" style="fill:#e0e0e0"></path><g id="freepik--plane--inject-34"><path d="M167.52,274.63c-1.23,0-1.62,0-2.26,0a8.32,8.32,0,0,0-1.19.23,12.9,12.9,0,0,0-6.15,4.11c-.25.27-.5.57-.74.88a25.18,25.18,0,0,0-3,4.84h0s0,0,0,.06l3.2,4.5-.15,3.54,5.06,3L155.63,294l-2.9,2.12A10.68,10.68,0,0,0,150.5,302a.26.26,0,0,0,0,.09c0,.66,0,1.31,0,2a43.19,43.19,0,0,0,.74,7,1.57,1.57,0,0,0,0,.23c0,.16,0,.28.06.38s0,.13,0,.17v0h0l4,4.46.61,4.75.36,2.69v.05h0a15.5,15.5,0,0,0,1.72,2c.21.21.41.4.61.58a14.77,14.77,0,0,0,1.52,1.2,10.37,10.37,0,0,0,3.77,1.58h0c.67.08,1.62,0,2.88.06l27.65.62L262,331.46c-4.72-.25-8.44-4.53-10.54-7.61a27.68,27.68,0,0,1-1.85-3.13l-9.14.28,9.34-2.57.2-4.65A33.48,33.48,0,0,1,245.54,300l-10.69-1.88,10.5.24,6-4,1-4.42-3.07-8.24a13.54,13.54,0,0,1,9.2-6.81C236.33,274.34,181.53,274.56,167.52,274.63Z" style="fill:#f5f5f5"></path><path d="M207.44,275c21.79,0,37.95.1,48.11.31a14,14,0,0,0-6.65,6.14.49.49,0,0,0,0,.41l3,8.11-1,4.07-5.73,3.79-10.34-.24h0a.5.5,0,0,0-.09,1l10.31,1.81a34.08,34.08,0,0,0,4.43,13.48l-.19,4.14-9,2.48a.5.5,0,0,0-.36.55.5.5,0,0,0,.49.43h0l8.82-.27a30.74,30.74,0,0,0,1.73,2.9,20.41,20.41,0,0,0,7,6.74l-63.55-1.43-27.64-.62c-.38,0-.74,0-1.06,0h-.73a9.87,9.87,0,0,1-1,0h0a10,10,0,0,1-3.58-1.51A14.26,14.26,0,0,1,159,326.1a7.8,7.8,0,0,1-.59-.57,14.11,14.11,0,0,1-1.59-1.83l-.35-2.63-.62-4.74a.45.45,0,0,0-.12-.27l-3.86-4.36v-.12c0-.1,0-.21-.06-.34l0-.24a42.37,42.37,0,0,1-.73-6.93c0-.58,0-1.26,0-1.95v-.06a10.38,10.38,0,0,1,2.07-5.61l2.66-1.94,6.45,1.76.13,0a.5.5,0,0,0,.46-.31.49.49,0,0,0-.21-.62l-4.8-2.83.14-3.24a.5.5,0,0,0-.1-.31l-3-4.27a25.34,25.34,0,0,1,2.8-4.54c.26-.33.5-.6.73-.86a12.32,12.32,0,0,1,5.89-3.95,7.48,7.48,0,0,1,1.11-.22h2.22c3.22,0,20.24-.1,39.92-.1m0-.5c-17.28,0-33.24.07-39.92.1h-2.26a8.32,8.32,0,0,0-1.19.23,12.9,12.9,0,0,0-6.15,4.11c-.25.27-.5.57-.74.88a25.18,25.18,0,0,0-3,4.84h0s0,0,0,.06l3.2,4.5-.15,3.54,5.06,3L155.63,294l-2.9,2.12A10.68,10.68,0,0,0,150.5,302a.26.26,0,0,0,0,.09c0,.66,0,1.31,0,2a43.19,43.19,0,0,0,.74,7,1.57,1.57,0,0,0,0,.23c0,.16,0,.28.06.38s0,.13,0,.17v0h0l4,4.46.61,4.75.36,2.69v.05h0a15.5,15.5,0,0,0,1.72,2c.21.21.41.4.61.58a14.77,14.77,0,0,0,1.52,1.2,10.37,10.37,0,0,0,3.77,1.58h0a9.23,9.23,0,0,0,1.11,0h.73c.32,0,.67,0,1,0l27.65.62L262,331.46c-4.72-.25-8.44-4.53-10.54-7.61a27.68,27.68,0,0,1-1.85-3.13l-9.14.28,9.34-2.57.2-4.65A33.48,33.48,0,0,1,245.54,300l-10.69-1.88,10.5.24,6-4,1-4.42-3.07-8.24a13.54,13.54,0,0,1,9.2-6.81c-11.62-.3-32.15-.38-51.1-.38Z" style="fill:#e0e0e0"></path><path d="M164.07,274.87c-4.57,1.15-8.38,6.85-9.66,9.9l0,.05,0-.17,3.24,4.48a.2.2,0,0,1,0,.15l-.13,3.54-.13-.23,5.07,3a.28.28,0,0,1-.21.51l-6.69-1.82.25-.05-2.91,2.11c-3.14,3.92-2.17,10-1.46,14.78l.11.77v0s0,0,0-.05,3.91,4.53,3.91,4.56l.53,4.76s-.74-4.89-.67-4.7c0,0-4-4.4-4-4.43a.5.5,0,0,1,0-.12v0l-.13-.78c-.8-5-2-11,1.49-15.27l2.89-2.12a.26.26,0,0,1,.24-.05l6.68,1.83-.21.51-5-3a.25.25,0,0,1-.13-.24l.16-3.54,0,.15L154,284.88a.17.17,0,0,1,0-.17c1.38-3.18,5.37-8.83,10.07-9.84Z" style="fill:#e0e0e0"></path><path d="M262,331.46l-67.49-1.52-27.65-.62c-1.26,0-2.21,0-2.88-.06h0a10.37,10.37,0,0,1-3.77-1.58,14.77,14.77,0,0,1-1.52-1.2c-.2-.18-.4-.37-.61-.58a18.08,18.08,0,0,1-1.73-2.06l-.36-2.69c18.2.57,65.9,2,95.5,2.71C253.55,326.93,257.27,331.21,262,331.46Z" style="fill:#21A5C3"></path><path d="M262,331.46l-67.49-1.52-27.65-.62c-1.26,0-2.21,0-2.88-.06h0a10.37,10.37,0,0,1-3.77-1.58,14.77,14.77,0,0,1-1.52-1.2c-.2-.18-.4-.37-.61-.58a18.08,18.08,0,0,1-1.73-2.06l-.36-2.69c18.2.57,65.9,2,95.5,2.71C253.55,326.93,257.27,331.21,262,331.46Z" style="fill:#fafafa;opacity:0.75"></path><path d="M224.71,309.32l2.17,4c.45.82.06,1.46-.87,1.44l-1.89,0a3.22,3.22,0,0,1-2.49-1.51l-2.17-4c-.45-.81-.06-1.46.87-1.43l1.89,0A3.23,3.23,0,0,1,224.71,309.32Z" style="fill:#455a64"></path><path d="M214.2,309.08l2.18,4c.44.81.05,1.45-.88,1.43l-1.89,0a3.23,3.23,0,0,1-2.49-1.51L209,309c-.44-.82,0-1.46.87-1.44l1.9,0A3.2,3.2,0,0,1,214.2,309.08Z" style="fill:#455a64"></path><path d="M203.7,308.85l2.17,4c.45.82.06,1.46-.87,1.44l-1.89,0a3.23,3.23,0,0,1-2.49-1.52l-2.17-4c-.45-.81-.06-1.46.87-1.44l1.89,0A3.2,3.2,0,0,1,203.7,308.85Z" style="fill:#455a64"></path><path d="M166.93,308l2.17,4c.45.81.06,1.45-.87,1.43l-1.89,0a3.23,3.23,0,0,1-2.49-1.51l-2.17-4c-.45-.82-.05-1.46.87-1.44l1.9,0A3.21,3.21,0,0,1,166.93,308Z" style="fill:#455a64"></path><path d="M193.19,308.61l2.18,4c.44.81,0,1.45-.88,1.43l-1.89,0a3.23,3.23,0,0,1-2.49-1.51l-2.17-4c-.44-.81-.05-1.45.87-1.43l1.9,0A3.21,3.21,0,0,1,193.19,308.61Z" style="fill:#455a64"></path><path d="M182.69,308.38l2.17,4c.45.81.06,1.46-.87,1.44l-1.89,0a3.19,3.19,0,0,1-2.49-1.51l-2.17-4c-.45-.82-.06-1.46.87-1.44l1.89,0A3.24,3.24,0,0,1,182.69,308.38Z" style="fill:#455a64"></path><path d="M245.72,309.79l2.17,4c.45.82.06,1.46-.87,1.44l-1.89,0a3.22,3.22,0,0,1-2.49-1.51l-2.17-4c-.45-.81-.06-1.45.87-1.43l1.89,0A3.23,3.23,0,0,1,245.72,309.79Z" style="fill:#455a64"></path></g><path d="M174.11,286.6c-4.19,7-4.15,15.92-2.3,23.63a40.06,40.06,0,0,0,2.31,7.1c.08.19.44.27.35,0-.82-2.61-1.71-5.18-2.29-7.87a40.39,40.39,0,0,1-1-8.12,34,34,0,0,1,3.05-14.54C174.31,286.69,174.16,286.51,174.11,286.6Z" style="fill:#e0e0e0"></path><path d="M235.52,287.54c-4.19,7-4.15,15.92-2.3,23.63a40.06,40.06,0,0,0,2.31,7.1c.09.19.44.27.35,0-.81-2.61-1.71-5.18-2.29-7.87a41.12,41.12,0,0,1-1-8.12,34,34,0,0,1,3.06-14.54C235.72,287.63,235.58,287.45,235.52,287.54Z" style="fill:#e0e0e0"></path></g><g id="freepik--smoke-2--inject-34"><path d="M262.61,322.56a29.65,29.65,0,0,0-11.18-1.39c-6.22.41-13.07,2.44-18.28-1-2.82-1.85-4.52-5-7-7.24-3.4-3.1-8-4.42-12.22-6.29s-8.48-4.79-9.59-9.26c-1.05-4.26.95-8.55.4-12.83s-3.75-6.89-7.17-9.06c-6.37-4.06-14.36-7-14.67-15.86-.11-3.2.89-6.43.27-9.56-.88-4.49-4.8-7.64-8.32-10.55s-7.19-6.57-7.22-11.15a12.17,12.17,0,0,1,3.3-7.73c4-4.74,10-7.57,16.15-8.67a53,53,0,0,1,32.56,4.79c8.1,4.1,15.79,14.21,13.1,23.67-1.21,4.25-5.17,7.81-6.2,11.88-1,3.89,4,7.91,6,10.68a17.46,17.46,0,0,1,1.59,17.65c-1.22,2.45-3.11,4.86-2.77,7.57.41,3.19,3.63,5.09,6.39,6.75,4.08,2.46,8.08,5.73,9.42,10.31.5,1.71.63,3.58,1.61,5.07,1.94,2.95,5.31,2.54,8.31,3.15,3.3.66,7.11,1.71,9.74,3.89,1.94,1.61,5.23,5.64,5.21,8.36,0,3.72-3.51-.43-5.42-1.46A25.66,25.66,0,0,0,262.61,322.56Z" style="opacity:0.1"></path><path d="M262.61,322.56a25.66,25.66,0,0,1,4,1.74c1.69.92,4.62,4.27,5.28,2.43a38.71,38.71,0,0,0-21.59-10.81c-3.26-.56-16.92-2.43-12.14-8.7-5.76-.69-10.31-2.64-15.39-5.05-4-1.88-8.4-4.25-9.22-9-.9-5.28,3.48-9.87,5.06-15a8.9,8.9,0,0,1-5.36-14.66c-3.73-.41-7.52-.83-11-2.3s-6.56-4.19-7.58-7.8.61-8.05,4.12-9.38c-2.63.59-5.07-2.49-4.45-5.11s3.41-4.31,6.1-4.38a33.49,33.49,0,0,1-8.73-5c-2.52-2.24-4.4-5.47-4.19-8.83s2.46-6.33,5.23-8.24a20.4,20.4,0,0,1,2-1.19,49.87,49.87,0,0,0-7.75.75c-6.14,1.1-12.11,3.93-16.15,8.67a12.17,12.17,0,0,0-3.3,7.73c0,4.58,3.69,8.23,7.22,11.15s7.44,6.06,8.32,10.55c.62,3.13-.38,6.36-.27,9.56.31,8.89,8.3,11.8,14.67,15.86,3.42,2.17,6.63,4.86,7.17,9.06s-1.45,8.57-.4,12.83c1.11,4.47,5.38,7.4,9.59,9.26s8.82,3.19,12.22,6.29c2.49,2.27,4.19,5.39,7,7.24,5.21,3.42,12.06,1.39,18.28,1A29.65,29.65,0,0,1,262.61,322.56Z" style="opacity:0.1"></path></g><g id="freepik--fire-1--inject-34"><g id="freepik--fire--inject-34"><path d="M244.29,294.05c-.53,3.62-1.72,7.19-1.48,10.84A14.17,14.17,0,0,0,249,315.62a22.41,22.41,0,0,1,3.33,2.26c2,1.95,2.55,5,2.44,7.85-.1,2.45-.56,4.9-.47,7.34H281.6c1.22-10,2-20.06.78-30.08-.48-3.95-1.26-7.91-1-11.89.33-5.13,2.37-10.22,1.42-15.27-.68-3.65-2.9-7-3-10.69-.1-4.25,2.48-9-.07-12.42-1.41-1.86-4-2.62-5.14-4.67s-.41-4.4.11-6.59c.95-4.09.81-9.25-2.77-11.45a9.09,9.09,0,0,1,1.11,7.1c-.73,2.8-2.75,5.07-3.95,7.7a14.06,14.06,0,0,0,.32,12.13c.92,1.78,2.25,3.39,2.68,5.34s-.51,4.45-2.5,4.72c-.1-1-1.24-1.53-2.23-1.57a13.47,13.47,0,0,1-3,0c-2.08-.57-2.79-3.2-2.6-5.35s.94-4.34.32-6.41c-.87-2.87-4-4.34-6.65-5.68a3.8,3.8,0,0,1-1.66-1.26,4.5,4.5,0,0,1-.12-3.1c.7-4.14-.75-9.24-4.76-10.49,1.69,1.39,1.78,4,1.08,6.08s-2,3.92-2.66,6-.54,4.7,1.18,6.06c.57.46,1.28.73,1.88,1.15,2.7,1.91,2.41,5.93,1.77,9.17s-1.15,7.18,1.36,9.32c1,.88,2.45,1.29,3.27,2.38,1.66,2.21-.2,5.21-1.25,7.78a12.79,12.79,0,0,0,.13,9.85c.81,1.85,2.06,3.52,2.54,5.48s-.19,4.45-2.11,5.08a3.82,3.82,0,0,1-3.73-1.07,11.36,11.36,0,0,1-2.19-3.42q-1.93-4-3.88-8.07c-1-2.09-2.22-4.38-4.42-5.12C244.5,286.32,244.81,290.43,244.29,294.05Z" style="fill:#21A5C3;opacity:0.4"></path><path d="M260,321.17c.9,2,1,4.21,1.65,6.28a17.41,17.41,0,0,0,3.06,5.62h11.48a96.93,96.93,0,0,0,2.15-23.45,52.89,52.89,0,0,0-.69-7.75,27.21,27.21,0,0,1-.52-8.15c.24-1.83.82-3.61,1.17-5.42a22.06,22.06,0,0,0-.67-10.85,21.86,21.86,0,0,1-1.32-4.59,19.25,19.25,0,0,1,.39-4.59,35.52,35.52,0,0,0,.09-9.44,11.83,11.83,0,0,0-1.51-4.92c-1.34-2.12-3.83-3.58-4.36-6a5.28,5.28,0,0,0,.49,4.32c.67,1.34,1.6,2.54,2.16,3.93a14,14,0,0,1,.7,6A50.73,50.73,0,0,1,272.2,274a3.28,3.28,0,0,1-.83,1.56,2.18,2.18,0,0,1-1.93.38c-1.62-.39-2.65-2-3.23-3.54s-.93-3.27-2-4.58-2.56-2-3.86-3c-3.32-2.55-2.52-8.91-4-11.15.32,2.57-.94,6-1,8.55a9.11,9.11,0,0,0,2.71,6.55c.85.93,2,1.61,2.75,2.62,1.8,2.38,1.11,5.75.21,8.6s-1.94,6-.64,8.69c.62,1.27,1.7,2.28,2.24,3.58.77,1.86.31,4,.11,6a22.05,22.05,0,0,0,1.58,10.62,11,11,0,0,0-5.09-2.32,34.19,34.19,0,0,0-4,.32,8.56,8.56,0,0,1-8.52-7.39c0,3.93.23,8.12,2.51,11.32C252.16,314.87,257.89,316.6,260,321.17Z" style="fill:#21A5C3;opacity:0.6000000000000001"></path></g></g><g id="freepik--smoke-1--inject-34"><path d="M382.05,311.49c3.14-5.83,15.36-10.53,6.59-17.86a34.58,34.58,0,0,0-5.13-3.18,22.73,22.73,0,0,1-7.86-6.73c-2.85-4.22-.77-8.63-3-12.72-3.19-6-11.47-6.28-17.34-9.62a17.67,17.67,0,0,1-8-19.75c1.16-4,3.77-7.71,3.22-11.8-.45-3.38-3-6.09-5.69-8.18-8.19-6.33-18.54-9.05-27.7-13.86s-17.86-13.26-17.61-23.61c.13-5.12,2.44-10.38.7-15.19-1.13-3.12-3.75-5.4-6.16-7.67-6.37-6-12.21-13.94-11.52-22.69.56-7.14,5.57-13.4,11.8-16.94s13.54-4.68,20.7-4.94c8-.29,16.2.51,23.54,3.74,6,2.66,11.26,6.84,17,10,8.14,4.51,17.84,7.78,26.64,10.75,4.25,1.44,8.54,3.17,11.81,6.25,4.43,4.17,5.37,10.52,3.62,16.19-1.38,4.46-6.43,7.54-6.47,12.21,0,2.82,1.85,5.26,3.63,7.44l6.24,7.66a30.6,30.6,0,0,1,4.49,6.65,10.23,10.23,0,0,1,.48,7.82c-1.68,4.16-9.08,7.22-8.77,12,.39,5.8,7,10.78,4.35,17.13-1.53,3.62-5.76,5.08-9.38,6.6s-7.58,4.35-7.25,8.27c.39,4.67,5.67,6.27,8.69,8.84a12.23,12.23,0,0,1,3.79,12.33c-.27.86-.64,1.69-.9,2.55-2.28,7.72,6,12,8.31,18.48s.72,14.5-4.49,19.2c-2.83,2.55-6.46,4.14-9.18,6.82-2.1,2.06-4.1,5.37-4.16,8.4,0,1.59,2.05,4.78.29,5.69-2.68,1.38-5.55-4.26-6.25-6a16.5,16.5,0,0,1-1-8.62A17.34,17.34,0,0,1,382.05,311.49Z" style="opacity:0.1"></path><path d="M387.29,285.28c-1.76-2.46-2-6.51.63-8-6.39-2.45-8.74-11.83-4.25-17-4.53-1-9.14-2-13.12-4.39s-7.29-6.36-7.62-11,3.14-9.54,7.77-9.73a15.13,15.13,0,0,1-.54-25.78c-3.94-1.37-8.18-1.53-12.3-2.18s-8.38-1.95-11.22-5-3.64-8.3-.77-11.33c-7.49-1.7-16.38-4.94-17.66-12.51-1.09-6.44,4.13-12,8.92-16.48-7.89-3.77-14.8-10.43-17-18.89s1.35-18.6,9.24-22.37a16.12,16.12,0,0,1,5.65-1.5,57.85,57.85,0,0,0-19.92-2.36c-7.15.26-14.46,1.41-20.69,4.94s-11.24,9.8-11.8,16.94c-.69,8.75,5.15,16.66,11.52,22.69,2.41,2.27,5,4.55,6.16,7.67,1.74,4.81-.57,10.07-.7,15.19-.25,10.35,8.45,18.79,17.61,23.61s19.51,7.53,27.7,13.86c2.69,2.09,5.24,4.8,5.69,8.18.55,4.09-2.06,7.84-3.22,11.8a17.67,17.67,0,0,0,8,19.75c5.87,3.34,14.15,3.66,17.34,9.62,2.19,4.09.11,8.5,3,12.72a22.73,22.73,0,0,0,7.86,6.73,34.58,34.58,0,0,1,5.13,3.18c8.77,7.33-3.45,12-6.59,17.86a17.34,17.34,0,0,0-1.92,5.72,16.5,16.5,0,0,0,1,8.62c.7,1.71,3.57,7.35,6.25,6a1.61,1.61,0,0,0,.3-.21c-3.13-3.37-5.45-7.87-3.71-12,1.63-3.85,6.08-5.51,9.14-8.36,5.36-5,5.7-14.41.72-19.78C391.81,289.28,389.05,287.73,387.29,285.28Z" style="opacity:0.1"></path></g><g id="freepik--airplane-part-1--inject-34"><g id="freepik--Turbine--inject-34"><path d="M366.36,308.76a8.1,8.1,0,1,1,.06-11.45A8.09,8.09,0,0,1,366.36,308.76Z" style="fill:#e0e0e0"></path><path d="M366.36,308.76a8.1,8.1,0,0,0,.06-11.45,8,8,0,0,0-4.14-2.23,13.65,13.65,0,0,0-6.4,11c0,.81-2.72-2-2.54-6.53a8.09,8.09,0,0,0,13,9.19Z" style="opacity:0.1"></path><path d="M390.92,299.25c-5.5-5.57-24.27-5.8-25.44-5.67h0a6.06,6.06,0,0,0-3.64,1.93,16.3,16.3,0,0,0-3.9,14.23,5.93,5.93,0,0,0,2.31,3.62h0c.94.71,17.24,9.91,24.81,7.92Z" style="fill:#ebebeb"></path><path d="M385.06,321.3l5.59-21c-1.63-1.33-3.15-2.23-4.13-2-3.08.73-6.9,4.25-8.39,8.3s-2.53,4.92-9.95,1.07-8.61-5.58-8-10a16.56,16.56,0,0,0-2.22,12.12,5.93,5.93,0,0,0,2.31,3.62h0C361.19,314.09,377.49,323.29,385.06,321.3Z" style="opacity:0.1"></path><path d="M390.92,299.25c-5.5-5.57-24.27-5.8-25.44-5.67h0a5.72,5.72,0,0,0-3.05,1.41c1.72-1,4.51-.74,8.18-.43a119.76,119.76,0,0,1,14.52,2.51c1.58.56-2.28,2.11-4,6.3l9.56-3.09Z" style="fill:#fafafa"></path><path d="M388.39,319.23c-3.84,3.81-8.07,2.65-9.45-2.58s.64-12.57,4.48-16.37,8.08-2.65,9.45,2.58S392.24,315.43,388.39,319.23Z" style="fill:#455a64"></path><path d="M385.62,309.47l6-.24-6.77,0Zm0-.76,5.73-1.78-6.54,1.71Zm-.17-.74,5.12-3.2-5.93,3.34Zm-.36-.67,4.13-4.4-4.87,4.75Zm6.14,4.22-6.53-1.79.67.47Zm-9.72.13-1.37,5.93L382,311Zm8.77,2-5.84-3.42.53.63Zm-8-1.77.22,6,.05-6.81Zm2.33-5.13,2.85-5.3L384,307.27Zm-.16,4.63,4.41,4.07-4.76-4.81Zm-1.41.53,1.78,5.73-1.72-6.55Zm.74-.18L387,316.8l-3.36-5.88Zm-3.28-3.83-.39.08,1.15.31Zm-.39,2-.59.63,1.86-1Zm.2-1.39-.4.18H381Zm-.1.65-.47.33,1.36-.36Zm.69,2.07-1.57,3.16,2.2-3.68Zm-.49-.65L379.32,312l2.19-2.11Zm2.07-4.5-.76-2.2.69,3Zm-2.13,1.15,1.16.76-.63-.64Zm3.73-1,1.32-5.86-1.9,6.64Zm-.84-.12-.17-4.18-.11,4.95Zm-1.32.46-.07-.25-.82-1,.85,1.7Zm-.4.63-.17-.29-.74-.51.8,1Z" style="fill:#fff;opacity:0.5"></path><path d="M382.53,311l0,9.32a.35.35,0,0,0,.21.32l.21.07h0s0-.1,0-.24L383,311q0-.19.06,0l2.42,9.22a.2.2,0,0,0,.28.14h0a.31.31,0,0,0,.15-.35l-2.39-9.14c0-.13,0-.14.06,0l4.33,7.6a.16.16,0,0,0,.28,0l0,0a.38.38,0,0,0,0-.4L384,310.64c-.07-.12,0-.13.05,0l5.57,5.63a.18.18,0,0,0,.3,0h0a.32.32,0,0,0,0-.38l-5.49-5.55c-.09-.09-.08-.12,0-.05l6.39,3.73a.21.21,0,0,0,.31-.09h0a.28.28,0,0,0-.11-.35l-6.34-3.71c-.12-.06-.11-.09,0-.06l6.95,1.91c.13,0,.25,0,.28-.08a.57.57,0,0,0,0-.14.29.29,0,0,0,0-.09c0-.05-.08-.12-.21-.16l-6.95-1.9c-.13,0-.13-.07,0-.07l7.36,0a.27.27,0,0,0,.27-.24h0a.22.22,0,0,0-.22-.24l-7.41,0c-.14,0-.14,0,0-.06l7.58-2a.32.32,0,0,0,.23-.3v0a.18.18,0,0,0-.24-.18l-7.69,2q-.19,0,0-.06l7.49-4.27a.38.38,0,0,0,.17-.36v0a.17.17,0,0,0-.26-.12l-7.64,4.36c-.11.06-.13,0,0,0l6.76-6.7a.29.29,0,0,0,0-.37h0a.19.19,0,0,0-.31,0l-6.84,6.75c-.09.1-.11.08,0,0l4.84-8.27c.06-.12.1-.22.08-.23h0l-.2,0a.35.35,0,0,0-.33.18L383.63,307c-.07.12-.1.1-.06,0l2-7.47c0-.13,0-.18-.14-.11l-.2.12a.78.78,0,0,0-.27.37l-1.9,7c0,.13-.06.12-.06,0l0-5c0-.13-.06-.16-.15-.06l-.18.2a.75.75,0,0,0-.15.43l0,4.44c0,.13,0,.14-.06,0l-.78-3c0-.13-.12-.14-.18,0l-.11.19a.77.77,0,0,0-.05.45L382,307c0,.13,0,.14-.06,0l-.94-1.66c-.07-.12-.17-.11-.23,0l-.05.1a.58.58,0,0,0,0,.43l.78,1.36c.07.12,0,.14-.05,0l-.89-.9a.14.14,0,0,0-.25.06v.05a.44.44,0,0,0,.09.41l.72.72c.09.1.08.12,0,.05l-.77-.45a.2.2,0,0,0-.29.11h0a.31.31,0,0,0,.13.35l.68.4c.12.07.11.09,0,.06l-.74-.2c-.12,0-.24,0-.26,0l0,.1,0,.14c0,.08.07.17.2.21l.73.19c.13,0,.13.07,0,.07h-.78a.31.31,0,0,0-.29.24h0a.19.19,0,0,0,.19.24h.88c.14,0,.14,0,0,.06l-1,.26a.46.46,0,0,0-.29.3v.06c0,.13.05.21.18.17l1.22-.32c.13,0,.14,0,0,.06l-1.35.77a.52.52,0,0,0-.24.36V311c0,.13.08.19.19.12l1.65-.94c.11-.06.13,0,0,.05L379.32,312a.8.8,0,0,0-.18.42v.21c0,.13.07.16.17.07l2.16-2.14c.1-.1.12-.08,0,0l-2.2,3.77a.79.79,0,0,0-.09.45c0,.09,0,.17,0,.26s.1.14.17,0l2.49-4.27c.07-.11.1-.1.06,0l-1.88,6.86a.77.77,0,0,0,0,.45l.11.21c.06.11.15.1.18,0l2-7.37C382.5,310.9,382.53,310.9,382.53,311Z" style="fill:#37474f"></path><path d="M388.55,310.53a.8.8,0,0,0-.1-.66h0s-2.38-3.71-4.64-4.33a1.75,1.75,0,0,0-1.68.62,5.61,5.61,0,0,0-1.34,4.88,1.78,1.78,0,0,0,1.14,1.39h0c2.26.62,6.2-1.37,6.2-1.37h0A.8.8,0,0,0,388.55,310.53Z" style="fill:#ebebeb"></path><path d="M383.59,310.49c-1.91-.43-1.9-2.22-1.24-3.4a1.91,1.91,0,0,1,2.47-1.1,3.64,3.64,0,0,0-1-.46,1.75,1.75,0,0,0-1.68.62,5.61,5.61,0,0,0-1.34,4.88,1.78,1.78,0,0,0,1.14,1.39h0c2.26.62,6.2-1.37,6.2-1.37h0a.8.8,0,0,0,.42-.51C388.13,311,385.49,310.91,383.59,310.49Z" style="opacity:0.1"></path><path d="M388.13,311a.81.81,0,0,0,.32-1.17h0s-2.38-3.71-4.64-4.33a1.42,1.42,0,0,0-1,.16c.58-.18,1.49.07,3,1.52a13.44,13.44,0,0,1,2.46,2.9.46.46,0,0,0-.47.29c-.16.34.05.72.35.65h0Z" style="fill:#fafafa"></path></g><g id="freepik--Wing--inject-34"><g id="freepik--wing--inject-34"><path id="freepik--wing--inject-34" d="M377.14,319.91a2,2,0,0,0-.43-.75L271.91,198.1a11.47,11.47,0,0,0-9.06-3.48l-6.18.77L332.54,308.1c1.39,2.11,8.51,5.41,16.69,7.65l13,3.54C371,321.7,377.69,322,377.14,319.91Z" style="fill:#f0f0f0"></path><path d="M349.23,315.75l13,3.54a58,58,0,0,0,9.66,1.9c-8.54-.94-32.11-17.08-41.65-28.75s-73.54-97.05-73.54-97.05L332.54,308.1C333.93,310.21,341.05,313.51,349.23,315.75Z" style="fill:#e0e0e0"></path><path d="M377.14,319.91a2,2,0,0,0-.43-.75L271.91,198.1a11.47,11.47,0,0,0-9.06-3.48l-4.46.55h0c3.65-.45,8.09.55,12.31,5.2s59.93,69.47,70.46,81.23,29.82,34.1,31,35.55c1.43,1.8,2.67,4.13.28,4.08C375.58,321.46,377.44,321,377.14,319.91Z" style="fill:#fafafa"></path></g><path d="M328.6,283.93c-4.52-1.91-11.65-4.75-16.25-5.8,0,0-.83.47-.46,1.9a5.5,5.5,0,0,0,1.61,2.47,88.23,88.23,0,0,0,14.74,2.8A.72.72,0,0,0,328.6,283.93Z" style="fill:#21A5C3"></path><path d="M328.6,283.93c-4.52-1.91-11.65-4.75-16.25-5.8,0,0-.83.47-.46,1.9a5.5,5.5,0,0,0,1.61,2.47,88.23,88.23,0,0,0,14.74,2.8A.72.72,0,0,0,328.6,283.93Z" style="opacity:0.1"></path><path d="M311.89,280a5.5,5.5,0,0,0,1.61,2.47,88.23,88.23,0,0,0,14.74,2.8.68.68,0,0,0,.78-.58c-.47.55-1.24.3-5.91-.7s-8.62-1.92-9.82-3.13a3.43,3.43,0,0,1-.94-2.76S311.52,278.6,311.89,280Z" style="opacity:0.15"></path><path d="M308.22,257.63a93.1,93.1,0,0,0-12.72-4.54s-.65.37-.35,1.5a4.27,4.27,0,0,0,1.26,1.94,68.51,68.51,0,0,0,11.52,2.19A.57.57,0,0,0,308.22,257.63Z" style="fill:#21A5C3"></path><path d="M308.22,257.63a93.1,93.1,0,0,0-12.72-4.54s-.65.37-.35,1.5a4.27,4.27,0,0,0,1.26,1.94,68.51,68.51,0,0,0,11.52,2.19A.57.57,0,0,0,308.22,257.63Z" style="opacity:0.1"></path><path d="M295.15,254.59a4.27,4.27,0,0,0,1.26,1.94,68.51,68.51,0,0,0,11.52,2.19.57.57,0,0,0,.51-.93c.11.49-.43.51-3.65-.14s-6.94-1.21-8-2.09a4.26,4.26,0,0,1-1.27-2.47S294.85,253.46,295.15,254.59Z" style="opacity:0.15"></path><path d="M287.62,232.15a.44.44,0,0,0,.23-.83,67.89,67.89,0,0,0-9.19-3.27s-.48.27-.26,1.09a3.09,3.09,0,0,0,.92,1.42A50.68,50.68,0,0,0,287.62,232.15Z" style="fill:#21A5C3"></path><path d="M287.62,232.15a.44.44,0,0,0,.23-.83,67.89,67.89,0,0,0-9.19-3.27s-.48.27-.26,1.09a3.09,3.09,0,0,0,.92,1.42A50.68,50.68,0,0,0,287.62,232.15Z" style="opacity:0.1"></path><path d="M278.4,229.14a3.09,3.09,0,0,0,.92,1.42,50.6,50.6,0,0,0,8.31,1.59.43.43,0,0,0,.43-.64c0,.29-.68.39-3.3-.21s-5.24-.88-6.1-3.25C278.66,228.05,278.18,228.32,278.4,229.14Z" style="opacity:0.15"></path></g><g id="freepik--plane--inject-34"><path d="M446.11,362.28a40.27,40.27,0,0,0-11.7-16.84c-8.83-7.52-34.71-17.95-57.37-27.06-19.73-7.93-73.1-27.35-86.55-32.23-1.15-.4-1.5-.58-2.12-.76a6.88,6.88,0,0,0-1.19-.2,12.7,12.7,0,0,0-7.19,1.73c-.33.17-.67.36-1,.56a25.37,25.37,0,0,0-4.45,3.52h0l0,.05,1.44,5.33-1.36,3.27,3.72,4.54-5.64-4-3.45,1a10.68,10.68,0,0,0-4.15,4.79.92.92,0,0,0,0,.09c-.24.62-.46,1.23-.67,1.85a43.38,43.38,0,0,0-1.73,6.84c0,.09,0,.16-.05.23s-.05.28-.07.38a1.46,1.46,0,0,1,0,.17v0h0l2.16,5.55-1.06,4.67-.6,2.65v.05h0a16,16,0,0,0,1.29,3.23c.12.2.22.39.33.58s.22.37.34.55l.35.51a10.37,10.37,0,0,0,3,2.79l0,0c.6.31,1.52.58,2.68,1.05l25.74,10.15L389.55,384c10.58,4.15,28.85,9.45,42.06,8.68,14.69-.87,19.75-4.71,22.49-7.68C459.79,378.84,454,367.64,446.11,362.28Z" style="fill:#f5f5f5"></path><path d="M286.31,285.65c.27,0,.55,0,.81,0a6.55,6.55,0,0,1,1.11.19c.32.09.56.18.9.31s.66.26,1.19.45c6.63,2.4,65.34,23.7,86.53,32.22,21.57,8.66,48.4,19.45,57.23,27a40.18,40.18,0,0,1,11.56,16.61.49.49,0,0,0,.19.26c5.29,3.59,9.39,9.71,10,14.88a8.55,8.55,0,0,1-2.07,7.09c-2.83,3.06-7.9,6.68-22.16,7.52-.84.05-1.73.08-2.63.08-12.52,0-28.95-4.7-39.22-8.72l-92.86-36.62-25.73-10.15q-.75-.3-1.35-.51c-.5-.19-.94-.35-1.26-.51l0,0a9.8,9.8,0,0,1-2.83-2.64l-.35-.51c-.11-.17-.22-.35-.32-.53l-.18-.31-.14-.25a15.4,15.4,0,0,1-1.21-3l.58-2.59,1.06-4.67a.57.57,0,0,0,0-.29L263,315.51v-.11a2.35,2.35,0,0,0,.06-.34,1.59,1.59,0,0,0,.05-.24,43.21,43.21,0,0,1,1.71-6.76c.19-.54.41-1.18.66-1.83l0-.06a10.37,10.37,0,0,1,3.88-4.54l3.17-.91,5.44,3.89a.52.52,0,0,0,.29.09.5.5,0,0,0,.39-.81l-3.54-4.31,1.26-3a.5.5,0,0,0,0-.32l-1.37-5.06a25.14,25.14,0,0,1,4.19-3.29c.36-.22.68-.39,1-.55a12.84,12.84,0,0,1,6.09-1.71m0-.5a13.29,13.29,0,0,0-6.32,1.77c-.33.17-.67.36-1,.56a25.37,25.37,0,0,0-4.45,3.52h0l0,.05,1.44,5.33-1.36,3.27,3.72,4.54-5.64-4-3.45,1a10.68,10.68,0,0,0-4.15,4.79.92.92,0,0,0,0,.09c-.24.62-.46,1.23-.67,1.85a43.38,43.38,0,0,0-1.73,6.84c0,.09,0,.16-.05.23s-.05.28-.07.38a1.46,1.46,0,0,1,0,.17v0h0l2.16,5.55-1.06,4.67-.6,2.65v.05h0a16,16,0,0,0,1.29,3.23c.12.2.22.39.33.58s.22.37.34.55l.35.51a10.37,10.37,0,0,0,3,2.79l0,0h0c.6.31,1.52.58,2.68,1.05l25.74,10.15L389.55,384c9.89,3.87,26.48,8.76,39.4,8.76.9,0,1.79,0,2.66-.08,14.69-.87,19.75-4.71,22.49-7.68,5.69-6.16-.09-17.36-8-22.72a40.27,40.27,0,0,0-11.7-16.84c-8.83-7.52-34.71-17.95-57.37-27.06-19.73-7.93-73.1-27.35-86.55-32.22-1.15-.41-1.5-.59-2.12-.77a6.88,6.88,0,0,0-1.19-.2,8.44,8.44,0,0,0-.87,0Z" style="fill:#e0e0e0"></path><path d="M454.1,385c-2.74,3-7.8,6.81-22.49,7.68-13.21.77-31.48-4.53-42.06-8.68l-92.86-36.62L271,337.23c-1.16-.47-2.08-.74-2.68-1.05l0,0a10.37,10.37,0,0,1-3-2.79,15.63,15.63,0,0,1-2.3-4.93l.6-2.65c17.26,7,63.16,25.53,90.52,36.3,32.77,12.88,38.44-1.52,56,5.56,16.65,6.71,31.23,1.83,36-5.37C454,367.64,459.79,378.84,454.1,385Z" style="fill:#21A5C3"></path><path d="M454.1,385c-2.74,3-7.8,6.81-22.49,7.68-13.21.77-31.48-4.53-42.06-8.68l-92.86-36.62L271,337.23c-1.16-.47-2.08-.74-2.68-1.05l0,0a10.37,10.37,0,0,1-3-2.79,15.63,15.63,0,0,1-2.3-4.93l.6-2.65c17.26,7,63.16,25.53,90.52,36.3,32.77,12.88,38.44-1.52,56,5.56,16.65,6.71,31.23,1.83,36-5.37C454,367.64,459.79,378.84,454.1,385Z" style="fill:#fafafa;opacity:0.75"></path><path d="M437.29,359.43l3.93,7.4c3-1.78,4.64-3.67,4.9-4.55a36.36,36.36,0,0,0-3.63-7.42A19,19,0,0,1,437.29,359.43Z" style="fill:#455a64"></path><path d="M427.92,362.36l1.51,8.3a29,29,0,0,0,10.8-3.26L436.3,360A22.59,22.59,0,0,1,427.92,362.36Z" style="fill:#455a64"></path><path d="M426.7,362.46a38.75,38.75,0,0,1-10-.83l1.25,8.39a37.48,37.48,0,0,0,10.28.75Z" style="fill:#455a64"></path><path d="M409.9,366.24l.21,1.41a49.09,49.09,0,0,0,6.55,2.08l-1.25-8.38-.11,0A4.4,4.4,0,0,0,409.9,366.24Z" style="fill:#455a64"></path><path d="M389.74,374.54a2.8,2.8,0,0,1-1.41-.2l-5.53-2.18a5.93,5.93,0,0,1-3.37-4.24L376.91,351a2,2,0,0,1,2.95-2.34l5.54,2.18a5.91,5.91,0,0,1,3.36,4.23L391.28,372a2.25,2.25,0,0,1-.67,2.18A1.79,1.79,0,0,1,389.74,374.54Zm-11.12-25a.58.58,0,0,0-.33.13,1.2,1.2,0,0,0-.27,1.14l2.52,16.92a4.82,4.82,0,0,0,2.67,3.35l5.53,2.19a.95.95,0,0,0,1.44-1.14l-2.53-16.92a4.79,4.79,0,0,0-2.67-3.36l-5.53-2.18A1.63,1.63,0,0,0,378.62,349.57Z" style="fill:#455a64"></path><path d="M361.48,350l.67,4.47c.14.92-.45,1.39-1.31,1.05l-1.77-.7a3.23,3.23,0,0,1-1.81-2.28l-.66-4.47c-.14-.91.45-1.38,1.31-1l1.76.69A3.18,3.18,0,0,1,361.48,350Z" style="fill:#455a64"></path><path d="M332.16,338.48l.67,4.47c.13.92-.46,1.38-1.32,1l-1.76-.69a3.2,3.2,0,0,1-1.81-2.28l-.67-4.47c-.14-.92.45-1.39,1.32-1l1.76.69A3.23,3.23,0,0,1,332.16,338.48Z" style="fill:#455a64"></path><path d="M322.38,334.62l.67,4.47c.14.92-.45,1.39-1.31,1.05l-1.77-.69a3.27,3.27,0,0,1-1.81-2.28l-.66-4.47c-.14-.92.45-1.39,1.31-1.05l1.76.7A3.18,3.18,0,0,1,322.38,334.62Z" style="fill:#455a64"></path><path d="M312.61,330.77l.66,4.47c.14.92-.45,1.39-1.31,1.05l-1.76-.7a3.18,3.18,0,0,1-1.81-2.28l-.67-4.47c-.14-.92.45-1.38,1.32-1l1.76.69A3.23,3.23,0,0,1,312.61,330.77Z" style="fill:#455a64"></path><path d="M278.4,317.28l.66,4.47c.14.92-.45,1.39-1.31,1.05l-1.76-.7a3.18,3.18,0,0,1-1.81-2.28l-.67-4.47c-.14-.92.45-1.38,1.31-1l1.77.69A3.23,3.23,0,0,1,278.4,317.28Z" style="fill:#455a64"></path><path d="M302.83,326.91l.67,4.48c.14.91-.45,1.38-1.32,1l-1.76-.69a3.23,3.23,0,0,1-1.81-2.28L298,325c-.14-.92.45-1.39,1.31-1.05l1.76.7A3.18,3.18,0,0,1,302.83,326.91Z" style="fill:#455a64"></path><path d="M293.06,323.06l.66,4.47c.14.92-.45,1.39-1.31,1.05l-1.76-.7a3.18,3.18,0,0,1-1.81-2.28l-.67-4.47c-.14-.92.45-1.38,1.32-1l1.76.69A3.23,3.23,0,0,1,293.06,323.06Z" style="fill:#455a64"></path><path d="M351.71,346.19l.67,4.47c.13.92-.46,1.38-1.32,1L349.3,351a3.2,3.2,0,0,1-1.81-2.28l-.67-4.47c-.14-.92.45-1.39,1.32-1.05l1.76.7A3.23,3.23,0,0,1,351.71,346.19Z" style="fill:#455a64"></path></g><path d="M292.54,299.66c-6.36,5.11-9.4,13.5-10.33,21.38a39.51,39.51,0,0,0-.29,7.45c0,.21.32.41.34.1.14-2.73.18-5.46.57-8.17a41,41,0,0,1,1.91-8,34,34,0,0,1,7.9-12.59C292.69,299.81,292.62,299.59,292.54,299.66Z" style="fill:#e0e0e0"></path><path d="M349.84,321.78c-6.36,5.12-9.41,13.5-10.33,21.38a39.58,39.58,0,0,0-.29,7.46c0,.21.32.4.34.1.14-2.74.18-5.46.57-8.18a40.32,40.32,0,0,1,1.91-8A34.07,34.07,0,0,1,349.93,322C350,321.94,349.92,321.72,349.84,321.78Z" style="fill:#e0e0e0"></path><g id="freepik--turbine--inject-34"><path d="M258.24,342.85a8.09,8.09,0,1,0-7.31,8.81A8.1,8.1,0,0,0,258.24,342.85Z" style="fill:#e0e0e0"></path><path d="M258.24,342.85a8.09,8.09,0,0,1-11.92,7.86,13.66,13.66,0,0,1,2.19-12.56c.52-.62-3.35-.24-6.15,3.37a8.09,8.09,0,0,1,15.88,1.33Z" style="opacity:0.1"></path><path d="M270.94,365.93c-7.8.72-22.32-11.16-23.13-12h0a6,6,0,0,1-1.54-3.82,16.28,16.28,0,0,1,6.16-13.4,6,6,0,0,1,4.1-1.29h0c1.18.05,19.58,3.49,24.1,9.88Z" style="fill:#ebebeb"></path><path d="M280.63,345.27,271.39,365c-2.1,0-3.84-.32-4.45-1.13-1.89-2.54-2.55-7.69-1.08-11.75s1.23-5.4-6.94-7.22-10.18-1.26-12.58,2.53c.55-4.1,3-8.5,6.09-10.72a6,6,0,0,1,4.1-1.29h0C257.71,335.44,276.11,338.88,280.63,345.27Z" style="opacity:0.1"></path><path d="M270.94,365.93c-7.8.72-22.32-11.16-23.13-12h0a5.69,5.69,0,0,1-1.42-3c.68,1.86,3,3.47,6,5.59a117.4,117.4,0,0,0,12.74,7.41c1.57.59-.39-3.08.95-7.42L271.4,365Z" style="fill:#fafafa"></path><path d="M274.76,364.41c-4.42,3.13-8.4,1.3-8.9-4.09S268.54,348,273,344.9s8.4-1.29,8.9,4.1S279.17,361.29,274.76,364.41Z" style="fill:#455a64"></path><path d="M272.69,354.41l5.21,4.33-4.45-4.05Zm-.37.41,3.91,5.53L273,355.29Zm-.47.3,2.39,6.37-1.86-5.74Zm-.52.17.67,6.77-.33-6Zm2.42-1.3-.81-.07,6.15,2.83Zm-2.1-2.77,2.84-6.24-2.77,5.42Zm2.21,2-.81.14,6.68,1.14Zm-1.72-1.77,4.35-5.25-4.07,4.48Zm-1.36,3.85-1.09,6.7,1.22-5.89Zm2.24-2.5,6.74-.62-6,.28Zm-.47-1,5.53-3.91L273,351.17Zm.3.46L279.2,350l-5.72,1.83Zm-3.51.5-1.08-.5.24.3Zm.92-.92-.8-1.94,0,.87Zm-.88.4-.81-.67.2.39Zm.39-.25-.81-1.15.15.55Zm1.34-.93.69-4.24-.83,3.43Zm-.52.6-.31-3-.11,1.79Zm-1.26,2.89-2.46,1.86,2-1.2Zm-.88-1.33.9-.09L268,353Zm1.79,1.95-2.82,6.3,2.76-5.34Zm-.5-.25-3.09,3.86,2.81-3.1Zm-.71-.84-1.75.76,1.26-.2.21-.15Zm-.17-.52-1.23.22.9.08.31-.11Z" style="fill:#fff;opacity:0.5"></path><path d="M272.09,351.51l6-7.16a.36.36,0,0,1,.37-.12l.21.08,0,0s0,.1-.12.2l-6.06,7.29c-.08.1-.06.12,0,.05l7.79-5.51a.19.19,0,0,1,.3.08h0a.31.31,0,0,1-.1.36l-7.72,5.46q-.15.12,0,.06l8.21-3c.13,0,.24,0,.23.16v0a.39.39,0,0,1-.22.33l-8,3c-.12.05-.12.08,0,.06l7.88-.73a.2.2,0,0,1,.22.22h0a.32.32,0,0,1-.27.27l-7.78.72c-.13,0-.13,0,0,.06l7.29,1.25a.22.22,0,0,1,.18.27h0a.27.27,0,0,1-.3.2L273,353.86c-.13,0-.14,0,0,.06l6.54,3c.13.06.2.16.17.24s0,.09,0,.13l-.05.09s-.14,0-.26,0l-6.55-3c-.13-.06-.14,0,0,.05l5.67,4.71a.26.26,0,0,1,.05.35h0a.21.21,0,0,1-.32,0l-5.71-4.74c-.1-.08-.12-.06-.05.05l4.54,6.4a.33.33,0,0,1,0,.38h0a.19.19,0,0,1-.31,0L272,355.11q-.12-.17-.06,0l3,8.08a.38.38,0,0,1-.1.39l0,0a.16.16,0,0,1-.27-.08l-3.05-8.25c-.05-.12-.07-.11-.06,0l.88,9.48a.3.3,0,0,1-.21.31h0a.19.19,0,0,1-.26-.18l-.88-9.57c0-.13,0-.13-.07,0l-1.61,9.44c0,.13-.06.23-.09.22h0l-.18-.1a.35.35,0,0,1-.14-.35l1.59-9.28c0-.13,0-.14-.07,0l-3.23,7c-.06.12-.14.12-.18,0s-.05-.14-.08-.22a.78.78,0,0,1,0-.45l3-6.55c.06-.12,0-.14-.05,0l-3.2,3.86c-.08.1-.15.07-.16-.06s0-.17,0-.26a.81.81,0,0,1,.16-.43l2.84-3.42c.08-.1.07-.12,0,0l-2.52,1.78c-.11.08-.18,0-.16-.1s0-.14.05-.21a.66.66,0,0,1,.25-.38l2.1-1.49c.1-.07.09-.1,0,0l-1.8.66c-.12.05-.2,0-.16-.15l0-.11a.52.52,0,0,1,.29-.31l1.48-.55c.12,0,.12-.07,0-.06l-1.27.12c-.13,0-.2-.08-.15-.21l0-.05a.45.45,0,0,1,.33-.25l1-.09c.13,0,.14,0,0-.07L268,353a.19.19,0,0,1-.15-.27h0a.32.32,0,0,1,.33-.19l.77.14c.13,0,.14,0,0-.06l-.69-.32c-.12-.06-.2-.14-.18-.19l0-.09s.05-.09.07-.13.17-.09.29,0l.68.32c.13.05.14,0,0-.06l-.6-.5a.31.31,0,0,1-.08-.37h0a.19.19,0,0,1,.3-.05l.68.56c.1.09.12.07.05,0l-.59-.83a.43.43,0,0,1,0-.41l0-.06a.14.14,0,0,1,.25,0l.73,1c.08.11.1.09.06,0l-.54-1.46a.48.48,0,0,1,.05-.42l.06-.09c.08-.11.18-.1.22,0l.66,1.77c.05.13.07.12.06,0l-.23-2.54a.72.72,0,0,1,.12-.43l.14-.17c.08-.1.16-.08.17.06l.28,3c0,.13,0,.14.07,0l.74-4.31a.73.73,0,0,1,.22-.4l.2-.16c.11-.09.17-.05.15.08l-.83,4.87c0,.14,0,.14.06,0l3-6.46a.76.76,0,0,1,.32-.32l.22-.09c.12,0,.18,0,.12.14L272,351.48C272,351.6,272,351.61,272.09,351.51Z" style="fill:#37474f"></path><path d="M276.38,355.77a.78.78,0,0,1-.51.43h0s-4.21,1.32-6.34.34a1.79,1.79,0,0,1-.89-1.56,5.58,5.58,0,0,1,2.12-4.59,1.74,1.74,0,0,1,1.76-.34h0c2.13,1,3.87,5,3.87,5h0A.82.82,0,0,1,276.38,355.77Z" style="fill:#ebebeb"></path><path d="M272.55,352.6c-1.74-.9-2.88.48-3.14,1.81a1.92,1.92,0,0,0,1.19,2.43,3.59,3.59,0,0,1-1.07-.29,1.79,1.79,0,0,1-.89-1.56,5.58,5.58,0,0,1,2.12-4.59,1.74,1.74,0,0,1,1.76-.34h0c2.13,1,3.87,5,3.87,5h0a.82.82,0,0,1,0,.67C276.38,355.1,274.28,353.51,272.55,352.6Z" style="opacity:0.1"></path><path d="M276.38,355.1a.82.82,0,0,1,0,.67.78.78,0,0,1-.51.43h0s-4.21,1.32-6.34.34a1.44,1.44,0,0,1-.69-.79c.33.5,1.19.9,3.28.77a13.74,13.74,0,0,0,3.75-.64.46.46,0,0,1-.18-.53c.1-.36.51-.51.7-.27h0Z" style="fill:#fafafa"></path></g><g id="freepik--wing--inject-34"><g id="freepik--wing--inject-34"><path id="freepik--wing--inject-34" d="M285.78,336.41a1.91,1.91,0,0,1-.81.3L126.87,362a11.5,11.5,0,0,1-9.18-3.16l-4.24-4.56L244,316.78c2.43-.72,10,1.33,17.7,4.88L274,327.28C282.23,331.09,287.53,335.18,285.78,336.41Z" style="fill:#f0f0f0"></path><path d="M261.73,321.66,274,327.28a57.81,57.81,0,0,1,8.61,4.76c-7.14-4.77-35.57-7.57-50.38-4.77s-118.73,27.05-118.73,27.05L244,316.78C246.46,316.06,254,318.11,261.73,321.66Z" style="fill:#e0e0e0"></path><path d="M285.78,336.41a1.91,1.91,0,0,1-.81.3L126.87,362a11.5,11.5,0,0,1-9.18-3.16l-3.06-3.29h0c2.51,2.69,6.55,4.77,12.77,3.93S218,344.85,233.6,342.61s44.76-6.94,46.57-7.31c2.25-.45,4.7-1.44,2.84-2.95C285.58,334.22,286.74,335.74,285.78,336.41Z" style="fill:#fafafa"></path></g><path d="M225.47,332.75c-4.69-1.44-12-3.85-16.17-6,0,0-.34-.9.87-1.75a5.47,5.47,0,0,1,2.81-.86,86.32,86.32,0,0,1,13.1,7.34A.71.71,0,0,1,225.47,332.75Z" style="fill:#21A5C3"></path><path d="M225.47,332.75c-4.69-1.44-12-3.85-16.17-6,0,0-.34-.9.87-1.75a5.47,5.47,0,0,1,2.81-.86,86.32,86.32,0,0,1,13.1,7.34A.71.71,0,0,1,225.47,332.75Z" style="opacity:0.1"></path><path d="M210.17,325a5.47,5.47,0,0,1,2.81-.86,86.32,86.32,0,0,1,13.1,7.34.69.69,0,0,1,.23.94c0-.72-.76-1-5-3.26s-7.84-4.08-9.53-3.92a3.42,3.42,0,0,0-2.5,1.51S209,325.85,210.17,325Z" style="opacity:0.15"></path><path d="M193,339.8a92.35,92.35,0,0,1-12.65-4.71s-.27-.7.69-1.38a4.33,4.33,0,0,1,2.21-.67,68.28,68.28,0,0,1,10.24,5.73A.58.58,0,0,1,193,339.8Z" style="fill:#21A5C3"></path><path d="M193,339.8a92.35,92.35,0,0,1-12.65-4.71s-.27-.7.69-1.38a4.33,4.33,0,0,1,2.21-.67,68.28,68.28,0,0,1,10.24,5.73A.58.58,0,0,1,193,339.8Z" style="opacity:0.1"></path><path d="M181,333.71a4.33,4.33,0,0,1,2.21-.67,68.28,68.28,0,0,1,10.24,5.73.57.57,0,0,1-.21,1c.39-.31,0-.67-2.89-2.24s-6.1-3.54-7.48-3.55a4.21,4.21,0,0,0-2.56,1.07S180,334.39,181,333.71Z" style="opacity:0.15"></path><path d="M160.8,346.06a.43.43,0,0,1-.36.78,68.2,68.2,0,0,1-9.14-3.4s-.2-.52.5-1a3.14,3.14,0,0,1,1.61-.49A50.28,50.28,0,0,1,160.8,346.06Z" style="fill:#21A5C3"></path><path d="M160.8,346.06a.43.43,0,0,1-.36.78,68.2,68.2,0,0,1-9.14-3.4s-.2-.52.5-1a3.14,3.14,0,0,1,1.61-.49A50.28,50.28,0,0,1,160.8,346.06Z" style="opacity:0.1"></path><path d="M151.8,342.43a3.14,3.14,0,0,1,1.61-.49,50.28,50.28,0,0,1,7.39,4.12.44.44,0,0,1-.08.77c.18-.23-.27-.73-2.66-2s-4.58-2.69-6.76-1.43C151.3,343.44,151.1,342.92,151.8,342.43Z" style="opacity:0.15"></path></g></g><g id="freepik--airplane-pieces--inject-34"><g id="freepik--Metal--inject-34"><g id="freepik--fire--inject-34"><path d="M237.23,411.13c-.69-1.68-1.71-3.17-2.33-4.9s.65-3.33,1-5a7.13,7.13,0,0,0-.86-5.41c-1.08-1.73-2.94-3.07-3.27-5.08-.55-3.26,3.22-5.86,3.26-9.17,0-3.48-4-5.95-4.06-9.43-.55,1.34,0,2.85.11,4.29a6.92,6.92,0,0,1-2.49,5.77c-.67.54-1.44,1-2,1.56-1.56,1.5-2.8,4.43-2.22,6.59a11.23,11.23,0,0,1-1.23-4.54,7.46,7.46,0,0,1,.55-2.64,18.62,18.62,0,0,0,1.59-4,9.82,9.82,0,0,0-1-4.75,9.36,9.36,0,0,1-.82-3.86c.07-1.13.1-2.81,1.24-3.46-2.12,1.2-3.13,3.73-3.51,6.14s-.28,4.91-.95,7.25c-.87,3.07-2.95,5.61-4.56,8.36a13.26,13.26,0,0,0-2.1,6.49c0,2.34,1.38,4.41.57,6.76a30.12,30.12,0,0,0-1.38,3.21,6.6,6.6,0,0,0,.71,4.16,10.68,10.68,0,0,1,.74,1.82,8.91,8.91,0,0,0,.31,1.45,10.53,10.53,0,0,0,2.25,3.21,45.12,45.12,0,0,0,11.11,8.45,7.94,7.94,0,0,0,1.86.77Z" style="fill:#21A5C3;opacity:0.4"></path><path d="M235.81,413.79a7.65,7.65,0,0,0-.3-.74c-1.16-2.45-3.22-4.83-3.65-7.55-.39-2.49,1.33-5,.79-7.45-.35-1.6-1.58-2.84-2.37-4.28a8.22,8.22,0,0,1,.2-8c-1.48,1.36-2.94,3-3.18,5-.16,1.33.24,2.69,0,4a7.21,7.21,0,0,1-3,4c.91-1.58.23-3.6-.73-5.16s-2.21-3-2.51-4.81a9.86,9.86,0,0,1,.59-4.35,18.54,18.54,0,0,1-2.77,4.57,7.18,7.18,0,0,0-1.9,3.11c-.27,1.61.78,3.12,1.29,4.68a7.25,7.25,0,0,1,0,4.35c-.49,1.59-1.54,3-1.86,4.63a8.65,8.65,0,0,0,0,2.64,12.47,12.47,0,0,0,3.57,7.87,17.77,17.77,0,0,0,3.23,2.18l5.72,3.26a16.6,16.6,0,0,0,2.19,1.1Z" style="fill:#21A5C3;opacity:0.6000000000000001"></path></g><path d="M240.79,436.06a5.32,5.32,0,0,0,3-1.18c2.48-1.77,4.62-3.91,7.31-5.4a12.74,12.74,0,0,1,8.74-1.69,16,16,0,0,0-6.49-7.18c2-.35,3.83.95,5.71,1.67,5.72,2.18,12.67-.93,18,2-3.5-4-8.25-6.76-12.92-9.35-7.12-3.95-14.53-7.87-22.62-8.76A36.15,36.15,0,0,0,226,408.1c-2.19.76-4.87,1.69-6.66,3.16-2,1.68-5.23,4.44-6.31,6.89s4.32,4.41,6,5.47c5.89,3.64,11.75,7.34,17.66,10.94A7.64,7.64,0,0,0,240.79,436.06Z" style="fill:#f5f5f5"></path><path d="M238.16,406.49a30,30,0,0,1,3.32.18c7.79.86,14.77,4.45,22.43,8.71,3.53,1.95,7.81,4.33,11.21,7.59a16.64,16.64,0,0,0-4.57-.53c-1,0-2,0-3,.09s-2,.09-3,.09a14.55,14.55,0,0,1-5.35-.81c-.47-.18-1-.4-1.43-.62a9.16,9.16,0,0,0-3.79-1.14,3.91,3.91,0,0,0-.76.07.49.49,0,0,0-.41.4.5.5,0,0,0,.25.52,15.49,15.49,0,0,1,5.86,6.1,9.39,9.39,0,0,0-1.19-.07,14.47,14.47,0,0,0-6.91,2,32.25,32.25,0,0,0-4.74,3.4c-.85.68-1.72,1.39-2.62,2a4.81,4.81,0,0,1-2.71,1.09h-.08a7.4,7.4,0,0,1-3.67-1.43c-3.94-2.4-7.92-4.88-11.78-7.28l-5.88-3.66c-.35-.22-.84-.47-1.41-.76-1.9-1-5.08-2.61-4.42-4.08,1-2.27,4-4.91,6.17-6.7,1.7-1.41,4.33-2.32,6.45-3l.06,0a36.69,36.69,0,0,1,11.95-2.09m0-.5A37.4,37.4,0,0,0,226,408.1c-2.19.76-4.87,1.69-6.66,3.16-2,1.68-5.23,4.44-6.31,6.89s4.32,4.41,6,5.47c5.89,3.64,11.75,7.34,17.66,10.94a7.92,7.92,0,0,0,3.93,1.5h.1a5.32,5.32,0,0,0,3-1.18c2.48-1.77,4.62-3.91,7.31-5.4a14,14,0,0,1,6.67-1.91,9.58,9.58,0,0,1,2.07.22,16,16,0,0,0-6.49-7.18,3.79,3.79,0,0,1,.67-.06c1.74,0,3.37,1.09,5,1.73a15.39,15.39,0,0,0,5.53.84c2,0,4-.18,6-.18a13.26,13.26,0,0,1,6.53,1.35c-3.5-4-8.25-6.76-12.92-9.35-7.12-3.95-14.53-7.87-22.62-8.76a29.33,29.33,0,0,0-3.38-.19Z" style="fill:#e0e0e0"></path><path d="M219.93,410.85c-.19.14-.38.27-.55.41-2,1.68-5.23,4.44-6.31,6.89s4.32,4.41,6,5.47c5.89,3.64,11.75,7.34,17.66,10.94a7.64,7.64,0,0,0,4,1.5,5.32,5.32,0,0,0,3-1.18c2.42-1.73,4.51-3.8,7.11-5.29C241.27,423.79,228.68,416.18,219.93,410.85Z" style="fill:#21A5C3"></path><path d="M219.93,410.85c-.19.14-.38.27-.55.41-2,1.68-5.23,4.44-6.31,6.89s4.32,4.41,6,5.47c5.89,3.64,11.75,7.34,17.66,10.94a7.64,7.64,0,0,0,4,1.5,5.32,5.32,0,0,0,3-1.18c2.42-1.73,4.51-3.8,7.11-5.29C241.27,423.79,228.68,416.18,219.93,410.85Z" style="fill:#fafafa;opacity:0.75"></path></g><g id="freepik--metal--inject-34"><g id="freepik--fire--inject-34"><path d="M81.94,373.22c.42-1,1-2,1.43-3s-.4-2-.64-3a4.39,4.39,0,0,1,.52-3.32c.66-1.06,1.8-1.88,2-3.11.34-2-2-3.59-2-5.62s2.45-3.65,2.49-5.78a6,6,0,0,1-.07,2.63,4.21,4.21,0,0,0,1.53,3.53c.41.34.88.59,1.26,1a4.67,4.67,0,0,1,1.35,4,6.68,6.68,0,0,0,.76-2.78,4.31,4.31,0,0,0-.34-1.62,12,12,0,0,1-1-2.49,6.23,6.23,0,0,1,.61-2.91,5.7,5.7,0,0,0,.51-2.36c0-.7-.06-1.73-.77-2.12A5,5,0,0,1,91.77,350a36.59,36.59,0,0,0,.58,4.45c.53,1.88,1.81,3.44,2.8,5.12a8.11,8.11,0,0,1,1.28,4c0,1.43-.84,2.7-.34,4.14.23.68.68,1.28.84,2a4.07,4.07,0,0,1-.43,2.55,6.43,6.43,0,0,0-.46,1.12,5.1,5.1,0,0,1-.19.88,6.16,6.16,0,0,1-1.38,2,27.81,27.81,0,0,1-6.81,5.19,5.17,5.17,0,0,1-1.14.47Z" style="fill:#21A5C3;opacity:0.4"></path><path d="M82.81,374.85c.06-.15.11-.31.18-.46.72-1.5,2-3,2.24-4.63.24-1.52-.81-3.05-.48-4.56a10.79,10.79,0,0,1,1.45-2.63,5,5,0,0,0-.12-4.93,5.3,5.3,0,0,1,2,3c.1.82-.15,1.65,0,2.46a4.45,4.45,0,0,0,1.86,2.43,3.23,3.23,0,0,1,.44-3.17,8.61,8.61,0,0,0,1.54-2.95,6.08,6.08,0,0,0-.35-2.66,11.3,11.3,0,0,0,1.69,2.8,4.3,4.3,0,0,1,1.16,1.9c.17,1-.47,1.92-.78,2.87a4.42,4.42,0,0,0,0,2.67,26.3,26.3,0,0,1,1.14,2.84,5.18,5.18,0,0,1,0,1.62,7.61,7.61,0,0,1-2.18,4.82,11.19,11.19,0,0,1-2,1.34l-3.51,2a10.47,10.47,0,0,1-1.34.67Z" style="fill:#21A5C3;opacity:0.6000000000000001"></path></g><path d="M79.76,388.5a3.27,3.27,0,0,1-1.83-.72,48.47,48.47,0,0,0-4.48-3.32,7.81,7.81,0,0,0-5.36-1,9.76,9.76,0,0,1,4-4.4c-1.21-.22-2.35.58-3.5,1-3.5,1.34-7.77-.57-11.06,1.23,2.15-2.47,5.06-4.14,7.92-5.73,4.37-2.42,8.91-4.82,13.87-5.37a22.1,22.1,0,0,1,9.5,1.18,13.63,13.63,0,0,1,4.09,1.94c1.24,1,3.2,2.72,3.86,4.22s-2.65,2.71-3.69,3.35c-3.61,2.24-7.21,4.5-10.83,6.71A4.74,4.74,0,0,1,79.76,388.5Z" style="fill:#f5f5f5"></path><path d="M81.37,370.37a22.77,22.77,0,0,1,7.33,1.28h0a13.42,13.42,0,0,1,4,1.87c1.33,1.1,3.17,2.72,3.78,4.11.4.91-1.55,1.91-2.71,2.5-.35.18-.65.34-.86.47l-3.61,2.24c-2.36,1.47-4.81,3-7.22,4.47a4.62,4.62,0,0,1-2.25.88h0a3,3,0,0,1-1.66-.66c-.55-.4-1.09-.83-1.6-1.25a19.87,19.87,0,0,0-2.91-2.08A8.9,8.9,0,0,0,69.36,383a5.85,5.85,0,0,0-.73,0,9.45,9.45,0,0,1,3.6-3.74.31.31,0,0,0,.15-.32.35.35,0,0,0-.25-.25,3.73,3.73,0,0,0-.47,0,5.63,5.63,0,0,0-2.32.7c-.29.14-.59.27-.88.39a9,9,0,0,1-3.28.49c-.6,0-1.22,0-1.82-.06s-1.23-.05-1.84-.05a10.27,10.27,0,0,0-2.81.32,32.78,32.78,0,0,1,6.87-4.65c4.7-2.61,9-4.81,13.75-5.34a19.47,19.47,0,0,1,2-.11m0-.3a17.83,17.83,0,0,0-2.07.11c-5,.55-9.5,2.95-13.87,5.37-2.86,1.59-5.77,3.26-7.92,5.73a8.2,8.2,0,0,1,4-.83c1.2,0,2.44.12,3.66.12a9.44,9.44,0,0,0,3.39-.52A9.38,9.38,0,0,1,71.66,379a1.9,1.9,0,0,1,.41,0,9.76,9.76,0,0,0-4,4.4,6.08,6.08,0,0,1,1.27-.13,8.62,8.62,0,0,1,4.09,1.16,48.47,48.47,0,0,1,4.48,3.32,3.27,3.27,0,0,0,1.83.72h.06a4.8,4.8,0,0,0,2.41-.92c3.62-2.21,7.22-4.47,10.83-6.71,1-.64,4.34-1.89,3.69-3.35s-2.62-3.19-3.86-4.22a13.63,13.63,0,0,0-4.09-1.94,22.8,22.8,0,0,0-7.43-1.29Z" style="fill:#e0e0e0"></path><path d="M92.55,373.05l.34.25c1.24,1,3.2,2.72,3.86,4.22s-2.65,2.71-3.69,3.35c-3.61,2.24-7.21,4.5-10.83,6.71a4.74,4.74,0,0,1-2.47.92,3.27,3.27,0,0,1-1.83-.72,50.73,50.73,0,0,0-4.36-3.24C79.47,381,87.18,376.31,92.55,373.05Z" style="fill:#21A5C3"></path><path d="M92.55,373.05l.34.25c1.24,1,3.2,2.72,3.86,4.22s-2.65,2.71-3.69,3.35c-3.61,2.24-7.21,4.5-10.83,6.71a4.74,4.74,0,0,1-2.47.92,3.27,3.27,0,0,1-1.83-.72,50.73,50.73,0,0,0-4.36-3.24C79.47,381,87.18,376.31,92.55,373.05Z" style="fill:#fafafa;opacity:0.75"></path></g></g></svg>
