<svg width="1895" height="515" viewBox="0 0 1895 515" fill="none" xmlns="http://www.w3.org/2000/svg">
<g clip-path="url(#clip0_670_752)">
<mask id="mask0_670_752" style="mask-type:alpha" maskUnits="userSpaceOnUse" x="0" y="0" width="1895" height="515">
<path d="M0 145.896L1895 0V515H0V145.896Z" fill="#D9D9D9"/>
</mask>
<g mask="url(#mask0_670_752)">
<path d="M0 515V145.908L1895 0V515H0Z" fill="#383838"/>
<path d="M1163.09 370.813L1054.35 315L953.436 380.76L844.021 324.979L737.192 391.02L626.411 335.304L520.037 401.324L411.987 345.477L303.792 411.583L193.011 355.867L85.726 421.93L-27.7865 366.343L-123.899 431.876" stroke="#1C1D20" stroke-width="8" stroke-dasharray="15 15"/>
<path d="M-11.7307 407.434L61.2481 444.881C66.8223 447.741 70.4422 453.363 70.7392 459.621L74.6032 541.065C74.9002 547.323 71.8289 553.263 66.5506 556.638L-2.55489 600.827C-7.80018 604.181 -14.4325 604.495 -19.9718 601.653L-92.9505 564.206C-98.5248 561.345 -102.145 555.723 -102.442 549.465L-106.307 468.022C-106.603 461.763 -103.532 455.824 -98.2529 452.449L-29.1475 408.26C-23.9022 404.906 -17.2699 404.591 -11.7307 407.434Z" fill="#1C1D20"/>
<path d="M204.41 397.28L276.474 434.641C282.013 437.513 285.604 443.116 285.9 449.348L289.77 530.921C290.066 537.153 287.022 543.071 281.779 546.454L213.576 590.47C208.301 593.875 201.606 594.193 196.032 591.303L123.968 553.941C118.429 551.07 114.838 545.466 114.542 539.234L110.672 457.662C110.376 451.43 113.421 445.512 118.663 442.129L186.866 398.112C192.141 394.708 198.836 394.39 204.41 397.28Z" fill="#1C1D20"/>
<path d="M420.904 386.855L494.34 424.344C499.931 427.199 503.565 432.83 503.863 439.101L507.724 520.481C508.022 526.752 504.937 532.702 499.641 536.073L430.084 580.347C424.854 583.676 418.252 583.989 412.73 581.17L339.294 543.681C333.703 540.827 330.068 535.195 329.771 528.924L325.91 447.544C325.612 441.273 328.697 435.323 333.993 431.952L403.55 387.678C408.78 384.349 415.382 384.036 420.904 386.855Z" fill="#1C1D20"/>
<path d="M638.094 376.652L710.615 414.057C716.172 416.923 719.777 422.535 720.074 428.78L723.941 510.288C724.237 516.533 721.179 522.462 715.919 525.841L647.265 569.944C642.004 573.323 635.341 573.64 629.784 570.774L557.263 533.369C551.706 530.503 548.101 524.89 547.804 518.645L543.937 437.137C543.641 430.892 546.699 424.963 551.959 421.584L620.613 377.481C625.874 374.102 632.537 373.786 638.094 376.652Z" fill="#1C1D20"/>
<path d="M854.654 366.328L927.633 403.776C933.207 406.636 936.827 412.258 937.124 418.516L940.988 499.96C941.285 506.218 938.214 512.158 932.935 515.534L863.83 559.721C858.585 563.075 851.952 563.39 846.413 560.548L773.434 523.1C767.86 520.24 764.24 514.619 763.943 508.361L760.079 426.917C759.782 420.659 762.854 414.719 768.132 411.344L837.237 367.155C842.483 363.8 849.115 363.486 854.654 366.328Z" fill="#1C1D20"/>
<path d="M-11.7307 407.434L61.2481 444.881C66.8223 447.741 70.4422 453.363 70.7392 459.621L74.6032 541.065C74.9002 547.323 71.8289 553.263 66.5506 556.638L-2.55489 600.827C-7.80018 604.181 -14.4325 604.495 -19.9718 601.653L-92.9505 564.206C-98.5248 561.345 -102.145 555.723 -102.442 549.465L-106.307 468.022C-106.603 461.763 -103.532 455.824 -98.2529 452.449L-29.1475 408.26C-23.9022 404.906 -17.2699 404.591 -11.7307 407.434Z" fill="#1C1D20"/>
<path d="M204.41 397.28L276.474 434.641C282.013 437.513 285.604 443.116 285.9 449.348L289.77 530.921C290.066 537.153 287.022 543.071 281.779 546.454L213.576 590.47C208.301 593.875 201.606 594.193 196.032 591.303L123.968 553.941C118.429 551.07 114.838 545.466 114.542 539.234L110.672 457.662C110.376 451.43 113.421 445.512 118.663 442.129L186.866 398.112C192.141 394.708 198.836 394.39 204.41 397.28Z" fill="#1C1D20"/>
<path d="M420.904 386.855L494.34 424.344C499.931 427.199 503.565 432.83 503.863 439.101L507.724 520.481C508.022 526.752 504.937 532.702 499.641 536.073L430.084 580.347C424.854 583.676 418.252 583.989 412.73 581.17L339.294 543.681C333.703 540.827 330.068 535.195 329.771 528.924L325.91 447.544C325.612 441.273 328.697 435.323 333.993 431.952L403.55 387.678C408.78 384.349 415.382 384.036 420.904 386.855Z" fill="#1C1D20"/>
<path d="M638.094 376.652L710.615 414.057C716.172 416.923 719.777 422.535 720.074 428.78L723.941 510.288C724.237 516.533 721.179 522.462 715.919 525.841L647.265 569.944C642.004 573.323 635.341 573.64 629.784 570.774L557.263 533.369C551.706 530.503 548.101 524.89 547.804 518.645L543.937 437.137C543.641 430.892 546.699 424.963 551.959 421.584L620.613 377.481C625.874 374.102 632.537 373.786 638.094 376.652Z" fill="#1C1D20"/>
<path d="M854.654 366.328L927.633 403.776C933.207 406.636 936.827 412.258 937.124 418.516L940.988 499.96C941.285 506.218 938.214 512.158 932.935 515.534L863.83 559.721C858.585 563.075 851.952 563.39 846.413 560.548L773.434 523.1C767.86 520.24 764.24 514.619 763.943 508.361L760.079 426.917C759.782 420.659 762.854 414.719 768.132 411.344L837.237 367.155C842.483 363.8 849.115 363.486 854.654 366.328Z" fill="#1C1D20"/>
<path d="M-11.7307 407.434L61.2481 444.881C66.8223 447.741 70.4422 453.363 70.7392 459.621L74.6032 541.065C74.9002 547.323 71.8289 553.263 66.5506 556.638L-2.55489 600.827C-7.80018 604.181 -14.4325 604.495 -19.9718 601.653L-92.9505 564.206C-98.5248 561.345 -102.145 555.723 -102.442 549.465L-106.307 468.022C-106.603 461.763 -103.532 455.824 -98.2529 452.449L-29.1475 408.26C-23.9022 404.906 -17.2699 404.591 -11.7307 407.434Z" fill="#1C1D20"/>
<path d="M204.41 397.28L276.474 434.641C282.013 437.513 285.604 443.116 285.9 449.348L289.77 530.921C290.066 537.153 287.022 543.071 281.779 546.454L213.576 590.47C208.301 593.875 201.606 594.193 196.032 591.303L123.968 553.941C118.429 551.07 114.838 545.466 114.542 539.234L110.672 457.662C110.376 451.43 113.421 445.512 118.663 442.129L186.866 398.112C192.141 394.708 198.836 394.39 204.41 397.28Z" fill="#1C1D20"/>
<path d="M420.904 386.855L494.34 424.344C499.931 427.199 503.565 432.83 503.863 439.101L507.724 520.481C508.022 526.752 504.937 532.702 499.641 536.073L430.084 580.347C424.854 583.676 418.252 583.989 412.73 581.17L339.294 543.681C333.703 540.827 330.068 535.195 329.771 528.924L325.91 447.544C325.612 441.273 328.697 435.323 333.993 431.952L403.55 387.678C408.78 384.349 415.382 384.036 420.904 386.855Z" fill="#1C1D20"/>
<path d="M638.094 376.652L710.615 414.057C716.172 416.923 719.777 422.535 720.074 428.78L723.941 510.288C724.237 516.533 721.179 522.462 715.919 525.841L647.265 569.944C642.004 573.323 635.341 573.64 629.784 570.774L557.263 533.369C551.706 530.503 548.101 524.89 547.804 518.645L543.937 437.137C543.641 430.892 546.699 424.963 551.959 421.584L620.613 377.481C625.874 374.102 632.537 373.786 638.094 376.652Z" fill="#1C1D20"/>
<path d="M854.654 366.328L927.633 403.776C933.207 406.636 936.827 412.258 937.124 418.516L940.988 499.96C941.285 506.218 938.214 512.158 932.935 515.534L863.83 559.721C858.585 563.075 851.952 563.39 846.413 560.548L773.434 523.1C767.86 520.24 764.24 514.619 763.943 508.361L760.079 426.917C759.782 420.659 762.854 414.719 768.132 411.344L837.237 367.155C842.483 363.8 849.115 363.486 854.654 366.328Z" fill="#1C1D20"/>
<path d="M-11.7307 407.434L61.2481 444.881C66.8223 447.741 70.4422 453.363 70.7392 459.621L74.6032 541.065C74.9002 547.323 71.8289 553.263 66.5506 556.638L-2.55489 600.827C-7.80018 604.181 -14.4325 604.495 -19.9718 601.653L-92.9505 564.206C-98.5248 561.345 -102.145 555.723 -102.442 549.465L-106.307 468.022C-106.603 461.763 -103.532 455.824 -98.2529 452.449L-29.1475 408.26C-23.9022 404.906 -17.2699 404.591 -11.7307 407.434Z" fill="#1C1D20"/>
<path d="M1064.44 356.375L1137.41 393.822C1142.99 396.683 1146.61 402.305 1146.91 408.563L1150.77 490.007C1151.07 496.265 1148 502.204 1142.72 505.579L1073.61 549.768C1068.37 553.122 1061.73 553.437 1056.19 550.594L983.216 513.147C977.641 510.287 974.022 504.665 973.725 498.407L969.861 416.963C969.564 410.705 972.635 404.765 977.913 401.39L1047.02 357.201C1052.26 353.847 1058.9 353.533 1064.44 356.375Z" fill="#1C1D20"/>
<path d="M1064.44 356.375L1137.41 393.822C1142.99 396.683 1146.61 402.305 1146.91 408.563L1150.77 490.007C1151.07 496.265 1148 502.204 1142.72 505.579L1073.61 549.768C1068.37 553.122 1061.73 553.437 1056.19 550.594L983.216 513.147C977.641 510.287 974.022 504.665 973.725 498.407L969.861 416.963C969.564 410.705 972.635 404.765 977.913 401.39L1047.02 357.201C1052.26 353.847 1058.9 353.533 1064.44 356.375Z" fill="#1C1D20"/>
<path d="M1064.44 356.375L1137.41 393.822C1142.99 396.683 1146.61 402.305 1146.91 408.563L1150.77 490.007C1151.07 496.265 1148 502.204 1142.72 505.579L1073.61 549.768C1068.37 553.122 1061.73 553.437 1056.19 550.594L983.216 513.147C977.641 510.287 974.022 504.665 973.725 498.407L969.861 416.963C969.564 410.705 972.635 404.765 977.913 401.39L1047.02 357.201C1052.26 353.847 1058.9 353.533 1064.44 356.375Z" fill="#1C1D20"/>
<path d="M1064.44 356.375L1137.41 393.822C1142.99 396.683 1146.61 402.305 1146.91 408.563L1150.77 490.007C1151.07 496.265 1148 502.204 1142.72 505.579L1073.61 549.768C1068.37 553.122 1061.73 553.437 1056.19 550.594L983.216 513.147C977.641 510.287 974.022 504.665 973.725 498.407L969.861 416.963C969.564 410.705 972.635 404.765 977.913 401.39L1047.02 357.201C1052.26 353.847 1058.9 353.533 1064.44 356.375Z" fill="#1C1D20"/>
<path d="M204.41 397.28L276.474 434.641C282.013 437.513 285.604 443.116 285.9 449.348L289.77 530.921C290.066 537.153 287.022 543.071 281.779 546.454L213.576 590.47C208.301 593.875 201.606 594.193 196.032 591.303L123.968 553.941C118.429 551.07 114.838 545.466 114.542 539.234L110.672 457.662C110.376 451.43 113.421 445.512 118.663 442.129L186.866 398.112C192.141 394.708 198.836 394.39 204.41 397.28Z" fill="#1C1D20"/>
<path d="M420.904 386.855L494.34 424.344C499.931 427.199 503.565 432.83 503.863 439.101L507.724 520.481C508.022 526.752 504.937 532.702 499.641 536.073L430.084 580.347C424.854 583.676 418.252 583.989 412.73 581.17L339.294 543.681C333.703 540.827 330.068 535.195 329.771 528.924L325.91 447.544C325.612 441.273 328.697 435.323 333.993 431.952L403.55 387.678C408.78 384.349 415.382 384.036 420.904 386.855Z" fill="#1C1D20"/>
<path d="M638.094 376.652L710.615 414.057C716.172 416.923 719.777 422.535 720.074 428.78L723.941 510.288C724.237 516.533 721.179 522.462 715.919 525.841L647.265 569.944C642.004 573.323 635.341 573.64 629.784 570.774L557.263 533.369C551.706 530.503 548.101 524.89 547.804 518.645L543.937 437.137C543.641 430.892 546.699 424.963 551.959 421.584L620.613 377.481C625.874 374.102 632.537 373.786 638.094 376.652Z" fill="#1C1D20"/>
<path d="M854.654 366.328L927.633 403.776C933.207 406.636 936.827 412.258 937.124 418.516L940.988 499.96C941.285 506.218 938.214 512.158 932.935 515.534L863.83 559.721C858.585 563.075 851.952 563.39 846.413 560.548L773.434 523.1C767.86 520.24 764.24 514.619 763.943 508.361L760.079 426.917C759.782 420.659 762.854 414.719 768.132 411.344L837.237 367.155C842.483 363.8 849.115 363.486 854.654 366.328Z" fill="#1C1D20"/>
<path d="M1260.83 148.567L1152.17 92.75L1051.34 158.506L942.013 102.721L835.273 168.758L724.58 113.037L618.295 179.053L510.331 123.202L402.227 189.304L291.534 133.583L184.339 199.642L70.9172 144.051L-25.1152 209.58" stroke="#1C1D20" stroke-width="8" stroke-dasharray="15 15"/>
<path d="M86.597 185.261L159.127 222.863C164.666 225.735 168.258 231.338 168.553 237.57L172.448 319.667C172.744 325.899 169.7 331.817 164.457 335.2L95.8129 379.501C90.5377 382.905 83.8429 383.223 78.269 380.333L5.73814 342.73C0.199236 339.859 -3.39197 334.256 -3.68766 328.024L-7.58281 245.927C-7.87849 239.695 -4.83394 233.777 0.408216 230.394L69.0531 186.093C74.3283 182.688 81.0231 182.371 86.597 185.261Z" fill="#1C1D20"/>
<path d="M302.669 175.007L375.201 212.609C380.74 215.481 384.33 221.084 384.625 227.316L388.521 309.413C388.816 315.645 385.772 321.563 380.53 324.946L311.885 369.247C306.61 372.651 299.915 372.969 294.341 370.079L221.81 332.476C216.271 329.605 212.68 324.002 212.384 317.77L208.489 235.673C208.193 229.441 211.238 223.523 216.48 220.14L285.125 175.839C290.4 172.435 297.095 172.117 302.669 175.007Z" fill="#1C1D20"/>
<path d="M519.231 164.681L592.219 202.326C597.776 205.192 601.382 210.805 601.678 217.05L605.57 299.082C605.866 305.327 602.808 311.256 597.548 314.635L528.452 359.022C523.192 362.401 516.528 362.717 510.972 359.851L437.984 322.206C432.427 319.34 428.822 313.727 428.525 307.482L424.633 225.45C424.337 219.205 427.395 213.276 432.655 209.897L501.751 165.51C507.011 162.131 513.675 161.815 519.231 164.681Z" fill="#1C1D20"/>
<path d="M736.352 154.381L809.341 192.026C814.897 194.892 818.503 200.505 818.799 206.75L822.691 288.782C822.987 295.027 819.929 300.956 814.669 304.335L745.573 348.722C740.313 352.101 733.649 352.418 728.093 349.552L655.105 311.906C649.548 309.04 645.943 303.427 645.646 297.182L641.754 215.15C641.458 208.905 644.516 202.976 649.776 199.597L718.872 155.21C724.132 151.831 730.796 151.515 736.352 154.381Z" fill="#1C1D20"/>
<path d="M952.983 144.153L1025.52 181.756C1031.05 184.627 1034.65 190.231 1034.94 196.463L1038.84 278.559C1039.13 284.791 1036.09 290.709 1030.85 294.092L962.199 338.393C956.924 341.798 950.229 342.115 944.655 339.226L872.124 301.623C866.586 298.751 862.994 293.148 862.699 286.916L858.804 204.82C858.508 198.588 861.552 192.669 866.795 189.286L935.439 144.985C940.715 141.581 947.409 141.263 952.983 144.153Z" fill="#1C1D20"/>
<path d="M86.597 185.261L159.127 222.863C164.666 225.735 168.258 231.338 168.553 237.57L172.448 319.667C172.744 325.899 169.7 331.817 164.457 335.2L95.8129 379.501C90.5377 382.905 83.8429 383.223 78.269 380.333L5.73814 342.73C0.199236 339.859 -3.39197 334.256 -3.68766 328.024L-7.58281 245.927C-7.87849 239.695 -4.83394 233.777 0.408216 230.394L69.0531 186.093C74.3283 182.688 81.0231 182.371 86.597 185.261Z" fill="#1C1D20"/>
<path d="M302.669 175.007L375.201 212.609C380.74 215.481 384.33 221.084 384.625 227.316L388.521 309.413C388.816 315.645 385.772 321.563 380.53 324.946L311.885 369.247C306.61 372.651 299.915 372.969 294.341 370.079L221.81 332.476C216.271 329.605 212.68 324.002 212.384 317.77L208.489 235.673C208.193 229.441 211.238 223.523 216.48 220.14L285.125 175.839C290.4 172.435 297.095 172.117 302.669 175.007Z" fill="#1C1D20"/>
<path d="M519.231 164.681L592.219 202.326C597.776 205.192 601.382 210.805 601.678 217.05L605.57 299.082C605.866 305.327 602.808 311.256 597.548 314.635L528.452 359.022C523.192 362.401 516.528 362.717 510.972 359.851L437.984 322.206C432.427 319.34 428.822 313.727 428.525 307.482L424.633 225.45C424.337 219.205 427.395 213.276 432.655 209.897L501.751 165.51C507.011 162.131 513.675 161.815 519.231 164.681Z" fill="#1C1D20"/>
<path d="M736.352 154.381L809.341 192.026C814.897 194.892 818.503 200.505 818.799 206.75L822.691 288.782C822.987 295.027 819.929 300.956 814.669 304.335L745.573 348.722C740.313 352.101 733.649 352.418 728.093 349.552L655.105 311.906C649.548 309.04 645.943 303.427 645.646 297.182L641.754 215.15C641.458 208.905 644.516 202.976 649.776 199.597L718.872 155.21C724.132 151.831 730.796 151.515 736.352 154.381Z" fill="#1C1D20"/>
<path d="M952.983 144.153L1025.52 181.756C1031.05 184.627 1034.65 190.231 1034.94 196.463L1038.84 278.559C1039.13 284.791 1036.09 290.709 1030.85 294.092L962.199 338.393C956.924 341.798 950.229 342.115 944.655 339.226L872.124 301.623C866.586 298.751 862.994 293.148 862.699 286.916L858.804 204.82C858.508 198.588 861.552 192.669 866.795 189.286L935.439 144.985C940.715 141.581 947.409 141.263 952.983 144.153Z" fill="#1C1D20"/>
<path d="M86.597 185.261L159.127 222.863C164.666 225.735 168.258 231.338 168.553 237.57L172.448 319.667C172.744 325.899 169.7 331.817 164.457 335.2L95.8129 379.501C90.5377 382.905 83.8429 383.223 78.269 380.333L5.73814 342.73C0.199236 339.859 -3.39197 334.256 -3.68766 328.024L-7.58281 245.927C-7.87849 239.695 -4.83394 233.777 0.408216 230.394L69.0531 186.093C74.3283 182.688 81.0231 182.371 86.597 185.261Z" fill="#1C1D20"/>
<path d="M302.669 175.007L375.201 212.609C380.74 215.481 384.33 221.084 384.625 227.316L388.521 309.413C388.816 315.645 385.772 321.563 380.53 324.946L311.885 369.247C306.61 372.651 299.915 372.969 294.341 370.079L221.81 332.476C216.271 329.605 212.68 324.002 212.384 317.77L208.489 235.673C208.193 229.441 211.238 223.523 216.48 220.14L285.125 175.839C290.4 172.435 297.095 172.117 302.669 175.007Z" fill="#1C1D20"/>
<path d="M519.231 164.681L592.219 202.326C597.776 205.192 601.382 210.805 601.678 217.05L605.57 299.082C605.866 305.327 602.808 311.256 597.548 314.635L528.452 359.022C523.192 362.401 516.528 362.717 510.972 359.851L437.984 322.206C432.427 319.34 428.822 313.727 428.525 307.482L424.633 225.45C424.337 219.205 427.395 213.276 432.655 209.897L501.751 165.51C507.011 162.131 513.675 161.815 519.231 164.681Z" fill="#1C1D20"/>
<path d="M736.352 154.381L809.341 192.026C814.897 194.892 818.503 200.505 818.799 206.75L822.691 288.782C822.987 295.027 819.929 300.956 814.669 304.335L745.573 348.722C740.313 352.101 733.649 352.418 728.093 349.552L655.105 311.906C649.548 309.04 645.943 303.427 645.646 297.182L641.754 215.15C641.458 208.905 644.516 202.976 649.776 199.597L718.872 155.21C724.132 151.831 730.796 151.515 736.352 154.381Z" fill="#1C1D20"/>
<path d="M952.983 144.153L1025.52 181.756C1031.05 184.627 1034.65 190.231 1034.94 196.463L1038.84 278.559C1039.13 284.791 1036.09 290.709 1030.85 294.092L962.199 338.393C956.924 341.798 950.229 342.115 944.655 339.226L872.124 301.623C866.586 298.751 862.994 293.148 862.699 286.916L858.804 204.82C858.508 198.588 861.552 192.669 866.795 189.286L935.439 144.985C940.715 141.581 947.409 141.263 952.983 144.153Z" fill="#1C1D20"/>
<path d="M86.597 185.261L159.127 222.863C164.666 225.735 168.258 231.338 168.553 237.57L172.448 319.667C172.744 325.899 169.7 331.817 164.457 335.2L95.8129 379.501C90.5377 382.905 83.8429 383.223 78.269 380.333L5.73814 342.73C0.199236 339.859 -3.39197 334.256 -3.68766 328.024L-7.58281 245.927C-7.87849 239.695 -4.83394 233.777 0.408216 230.394L69.0531 186.093C74.3283 182.688 81.0231 182.371 86.597 185.261Z" fill="#1C1D20"/>
<path d="M1162.76 134.2L1235.29 171.803C1240.83 174.674 1244.42 180.277 1244.72 186.509L1248.61 268.606C1248.91 274.838 1245.87 280.756 1240.62 284.139L1171.98 328.44C1166.7 331.845 1160.01 332.162 1154.43 329.272L1081.9 291.67C1076.36 288.798 1072.77 283.195 1072.48 276.963L1068.58 194.866C1068.29 188.634 1071.33 182.716 1076.57 179.333L1145.22 135.032C1150.49 131.628 1157.19 131.31 1162.76 134.2Z" fill="#1C1D20"/>
<path d="M1162.76 134.2L1235.29 171.803C1240.83 174.674 1244.42 180.277 1244.72 186.509L1248.61 268.606C1248.91 274.838 1245.87 280.756 1240.62 284.139L1171.98 328.44C1166.7 331.845 1160.01 332.162 1154.43 329.272L1081.9 291.67C1076.36 288.798 1072.77 283.195 1072.48 276.963L1068.58 194.866C1068.29 188.634 1071.33 182.716 1076.57 179.333L1145.22 135.032C1150.49 131.628 1157.19 131.31 1162.76 134.2Z" fill="#1C1D20"/>
<path d="M1162.76 134.2L1235.29 171.803C1240.83 174.674 1244.42 180.277 1244.72 186.509L1248.61 268.606C1248.91 274.838 1245.87 280.756 1240.62 284.139L1171.98 328.44C1166.7 331.845 1160.01 332.162 1154.43 329.272L1081.9 291.67C1076.36 288.798 1072.77 283.195 1072.48 276.963L1068.58 194.866C1068.29 188.634 1071.33 182.716 1076.57 179.333L1145.22 135.032C1150.49 131.628 1157.19 131.31 1162.76 134.2Z" fill="#1C1D20"/>
<path d="M1162.76 134.2L1235.29 171.803C1240.83 174.674 1244.42 180.277 1244.72 186.509L1248.61 268.606C1248.91 274.838 1245.87 280.756 1240.62 284.139L1171.98 328.44C1166.7 331.845 1160.01 332.162 1154.43 329.272L1081.9 291.67C1076.36 288.798 1072.77 283.195 1072.48 276.963L1068.58 194.866C1068.29 188.634 1071.33 182.716 1076.57 179.333L1145.22 135.032C1150.49 131.628 1157.19 131.31 1162.76 134.2Z" fill="#1C1D20"/>
<path d="M302.669 175.007L375.201 212.609C380.74 215.481 384.33 221.084 384.625 227.316L388.521 309.413C388.816 315.645 385.772 321.563 380.53 324.946L311.885 369.247C306.61 372.651 299.915 372.969 294.341 370.079L221.81 332.476C216.271 329.605 212.68 324.002 212.384 317.77L208.489 235.673C208.193 229.441 211.238 223.523 216.48 220.14L285.125 175.839C290.4 172.435 297.095 172.117 302.669 175.007Z" fill="#1C1D20"/>
<path d="M519.231 164.681L592.219 202.326C597.776 205.192 601.382 210.805 601.678 217.05L605.57 299.082C605.866 305.327 602.808 311.256 597.548 314.635L528.452 359.022C523.192 362.401 516.528 362.717 510.972 359.851L437.984 322.206C432.427 319.34 428.822 313.727 428.525 307.482L424.633 225.45C424.337 219.205 427.395 213.276 432.655 209.897L501.751 165.51C507.011 162.131 513.675 161.815 519.231 164.681Z" fill="#1C1D20"/>
<path d="M736.352 154.381L809.341 192.026C814.897 194.892 818.503 200.505 818.799 206.75L822.691 288.782C822.987 295.027 819.929 300.956 814.669 304.335L745.573 348.722C740.313 352.101 733.649 352.418 728.093 349.552L655.105 311.906C649.548 309.04 645.943 303.427 645.646 297.182L641.754 215.15C641.458 208.905 644.516 202.976 649.776 199.597L718.872 155.21C724.132 151.831 730.796 151.515 736.352 154.381Z" fill="#1C1D20"/>
<path d="M952.983 144.153L1025.52 181.756C1031.05 184.627 1034.65 190.231 1034.94 196.463L1038.84 278.559C1039.13 284.791 1036.09 290.709 1030.85 294.092L962.199 338.393C956.924 341.798 950.229 342.115 944.655 339.226L872.124 301.623C866.586 298.751 862.994 293.148 862.699 286.916L858.804 204.82C858.508 198.588 861.552 192.669 866.795 189.286L935.439 144.985C940.715 141.581 947.409 141.263 952.983 144.153Z" fill="#1C1D20"/>
<path d="M-123.899 431.877L-27.8369 366.346L85.6194 421.936L192.849 355.876L303.575 411.595L411.713 345.491L519.709 401.34L626.028 335.323L736.754 391.042L843.527 325.003L952.888 380.787L1053.75 315.029L1162.44 370.845L1266.25 304.947L1378.61 360.589L1488.12 294.42L1602.23 349.979L1705.6 284.101L1820.82 339.608L1917.51 274.047" stroke="#1C1D20" stroke-width="8" stroke-dasharray="15 15"/>
<path d="M-4.71094 639.625L91.3529 574.094L204.81 629.684L312.04 563.624L422.767 619.343L530.907 553.239L638.904 609.088L745.224 543.072L855.951 598.79L962.726 532.751L1072.09 588.535L1172.95 522.777L1281.64 578.592L1385.46 512.694L1497.82 568.336L1607.33 502.167L1721.44 557.726L1827.32 491.73L1938.89 547.409" stroke="#1C1D20" stroke-width="8" stroke-dasharray="15 15"/>
<path d="M204.41 397.28L276.474 434.641C282.013 437.513 285.604 443.116 285.9 449.348L289.77 530.921C290.066 537.153 287.022 543.071 281.779 546.454L213.576 590.47C208.301 593.875 201.606 594.193 196.032 591.303L123.968 553.941C118.429 551.07 114.838 545.466 114.542 539.234L110.672 457.662C110.376 451.43 113.421 445.512 118.663 442.129L186.866 398.112C192.141 394.708 198.836 394.39 204.41 397.28Z" fill="#1C1D20"/>
<path d="M420.904 386.855L494.34 424.344C499.931 427.199 503.565 432.83 503.863 439.101L507.724 520.481C508.022 526.752 504.937 532.702 499.641 536.073L430.084 580.347C424.854 583.676 418.252 583.989 412.73 581.17L339.294 543.681C333.703 540.827 330.068 535.195 329.771 528.924L325.91 447.544C325.612 441.273 328.697 435.323 333.993 431.952L403.55 387.678C408.78 384.349 415.382 384.036 420.904 386.855Z" fill="#1C1D20"/>
<path d="M638.094 376.652L710.615 414.057C716.172 416.923 719.777 422.535 720.074 428.78L723.941 510.288C724.237 516.533 721.179 522.462 715.919 525.841L647.265 569.944C642.004 573.323 635.341 573.64 629.784 570.774L557.263 533.369C551.706 530.503 548.101 524.89 547.804 518.645L543.937 437.137C543.641 430.892 546.699 424.963 551.959 421.584L620.613 377.481C625.874 374.102 632.537 373.786 638.094 376.652Z" fill="#1C1D20"/>
<path d="M854.654 366.328L927.633 403.776C933.207 406.636 936.827 412.258 937.124 418.516L940.988 499.96C941.285 506.218 938.214 512.158 932.935 515.534L863.83 559.721C858.585 563.075 851.952 563.39 846.413 560.548L773.434 523.1C767.86 520.24 764.24 514.619 763.943 508.361L760.079 426.917C759.782 420.659 762.854 414.719 768.132 411.344L837.237 367.155C842.483 363.8 849.115 363.486 854.654 366.328Z" fill="#1C1D20"/>
<path d="M204.41 397.28L276.474 434.641C282.013 437.513 285.604 443.116 285.9 449.348L289.77 530.921C290.066 537.153 287.022 543.071 281.779 546.454L213.576 590.47C208.301 593.875 201.606 594.193 196.032 591.303L123.968 553.941C118.429 551.07 114.838 545.466 114.542 539.234L110.672 457.662C110.376 451.43 113.421 445.512 118.663 442.129L186.866 398.112C192.141 394.708 198.836 394.39 204.41 397.28Z" fill="#1C1D20"/>
<path d="M420.904 386.855L494.34 424.344C499.931 427.199 503.565 432.83 503.863 439.101L507.724 520.481C508.022 526.752 504.937 532.702 499.641 536.073L430.084 580.347C424.854 583.676 418.252 583.989 412.73 581.17L339.294 543.681C333.703 540.827 330.068 535.195 329.771 528.924L325.91 447.544C325.612 441.273 328.697 435.323 333.993 431.952L403.55 387.678C408.78 384.349 415.382 384.036 420.904 386.855Z" fill="#1C1D20"/>
<path d="M638.094 376.652L710.615 414.057C716.172 416.923 719.777 422.535 720.074 428.78L723.941 510.288C724.237 516.533 721.179 522.462 715.919 525.841L647.265 569.944C642.004 573.323 635.341 573.64 629.784 570.774L557.263 533.369C551.706 530.503 548.101 524.89 547.804 518.645L543.937 437.137C543.641 430.892 546.699 424.963 551.959 421.584L620.613 377.481C625.874 374.102 632.537 373.786 638.094 376.652Z" fill="#1C1D20"/>
<path d="M854.654 366.328L927.633 403.776C933.207 406.636 936.827 412.258 937.124 418.516L940.988 499.96C941.285 506.218 938.214 512.158 932.935 515.534L863.83 559.721C858.585 563.075 851.952 563.39 846.413 560.548L773.434 523.1C767.86 520.24 764.24 514.619 763.943 508.361L760.079 426.917C759.782 420.659 762.854 414.719 768.132 411.344L837.237 367.155C842.483 363.8 849.115 363.486 854.654 366.328Z" fill="#1C1D20"/>
<path d="M204.41 397.28L276.474 434.641C282.013 437.513 285.604 443.116 285.9 449.348L289.77 530.921C290.066 537.153 287.022 543.071 281.779 546.454L213.576 590.47C208.301 593.875 201.606 594.193 196.032 591.303L123.968 553.941C118.429 551.07 114.838 545.466 114.542 539.234L110.672 457.662C110.376 451.43 113.421 445.512 118.663 442.129L186.866 398.112C192.141 394.708 198.836 394.39 204.41 397.28Z" fill="#1C1D20"/>
<path d="M420.904 386.855L494.34 424.344C499.931 427.199 503.565 432.83 503.863 439.101L507.724 520.481C508.022 526.752 504.937 532.702 499.641 536.073L430.084 580.347C424.854 583.676 418.252 583.989 412.73 581.17L339.294 543.681C333.703 540.827 330.068 535.195 329.771 528.924L325.91 447.544C325.612 441.273 328.697 435.323 333.993 431.952L403.55 387.678C408.78 384.349 415.382 384.036 420.904 386.855Z" fill="#1C1D20"/>
<path d="M638.094 376.652L710.615 414.057C716.172 416.923 719.777 422.535 720.074 428.78L723.941 510.288C724.237 516.533 721.179 522.462 715.919 525.841L647.265 569.944C642.004 573.323 635.341 573.64 629.784 570.774L557.263 533.369C551.706 530.503 548.101 524.89 547.804 518.645L543.937 437.137C543.641 430.892 546.699 424.963 551.959 421.584L620.613 377.481C625.874 374.102 632.537 373.786 638.094 376.652Z" fill="#1C1D20"/>
<path d="M854.654 366.328L927.633 403.776C933.207 406.636 936.827 412.258 937.124 418.516L940.988 499.96C941.285 506.218 938.214 512.158 932.935 515.534L863.83 559.721C858.585 563.075 851.952 563.39 846.413 560.548L773.434 523.1C767.86 520.24 764.24 514.619 763.943 508.361L760.079 426.917C759.782 420.659 762.854 414.719 768.132 411.344L837.237 367.155C842.483 363.8 849.115 363.486 854.654 366.328Z" fill="#1C1D20"/>
<path d="M1064.44 356.375L1137.41 393.822C1142.99 396.683 1146.61 402.305 1146.91 408.563L1150.77 490.007C1151.07 496.265 1148 502.204 1142.72 505.579L1073.61 549.768C1068.37 553.122 1061.73 553.437 1056.19 550.594L983.216 513.147C977.641 510.287 974.022 504.665 973.725 498.407L969.861 416.963C969.564 410.705 972.635 404.765 977.913 401.39L1047.02 357.201C1052.26 353.847 1058.9 353.533 1064.44 356.375Z" fill="#1C1D20"/>
<path d="M1064.44 356.375L1137.41 393.822C1142.99 396.683 1146.61 402.305 1146.91 408.563L1150.77 490.007C1151.07 496.265 1148 502.204 1142.72 505.579L1073.61 549.768C1068.37 553.122 1061.73 553.437 1056.19 550.594L983.216 513.147C977.641 510.287 974.022 504.665 973.725 498.407L969.861 416.963C969.564 410.705 972.635 404.765 977.913 401.39L1047.02 357.201C1052.26 353.847 1058.9 353.533 1064.44 356.375Z" fill="#1C1D20"/>
<path d="M1064.44 356.375L1137.41 393.822C1142.99 396.683 1146.61 402.305 1146.91 408.563L1150.77 490.007C1151.07 496.265 1148 502.204 1142.72 505.579L1073.61 549.768C1068.37 553.122 1061.73 553.437 1056.19 550.594L983.216 513.147C977.641 510.287 974.022 504.665 973.725 498.407L969.861 416.963C969.564 410.705 972.635 404.765 977.913 401.39L1047.02 357.201C1052.26 353.847 1058.9 353.533 1064.44 356.375Z" fill="#1C1D20"/>
<path d="M1064.44 356.375L1137.41 393.822C1142.99 396.683 1146.61 402.305 1146.91 408.563L1150.77 490.007C1151.07 496.265 1148 502.204 1142.72 505.579L1073.61 549.768C1068.37 553.122 1061.73 553.437 1056.19 550.594L983.216 513.147C977.641 510.287 974.022 504.665 973.725 498.407L969.861 416.963C969.564 410.705 972.635 404.765 977.913 401.39L1047.02 357.201C1052.26 353.847 1058.9 353.533 1064.44 356.375Z" fill="#1C1D20"/>
<path d="M204.41 397.28L276.474 434.641C282.013 437.513 285.604 443.116 285.9 449.348L289.77 530.921C290.066 537.153 287.022 543.071 281.779 546.454L213.576 590.47C208.301 593.875 201.606 594.193 196.032 591.303L123.968 553.941C118.429 551.07 114.838 545.466 114.542 539.234L110.672 457.662C110.376 451.43 113.421 445.512 118.663 442.129L186.866 398.112C192.141 394.708 198.836 394.39 204.41 397.28Z" fill="#1C1D20"/>
<path d="M420.904 386.855L494.34 424.344C499.931 427.199 503.565 432.83 503.863 439.101L507.724 520.481C508.022 526.752 504.937 532.702 499.641 536.073L430.084 580.347C424.854 583.676 418.252 583.989 412.73 581.17L339.294 543.681C333.703 540.827 330.068 535.195 329.771 528.924L325.91 447.544C325.612 441.273 328.697 435.323 333.993 431.952L403.55 387.678C408.78 384.349 415.382 384.036 420.904 386.855Z" fill="#1C1D20"/>
<path d="M638.094 376.652L710.615 414.057C716.172 416.923 719.777 422.535 720.074 428.78L723.941 510.288C724.237 516.533 721.179 522.462 715.919 525.841L647.265 569.944C642.004 573.323 635.341 573.64 629.784 570.774L557.263 533.369C551.706 530.503 548.101 524.89 547.804 518.645L543.937 437.137C543.641 430.892 546.699 424.963 551.959 421.584L620.613 377.481C625.874 374.102 632.537 373.786 638.094 376.652Z" fill="#1C1D20"/>
<path d="M854.654 366.328L927.633 403.776C933.207 406.636 936.827 412.258 937.124 418.516L940.988 499.96C941.285 506.218 938.214 512.158 932.935 515.534L863.83 559.721C858.585 563.075 851.952 563.39 846.413 560.548L773.434 523.1C767.86 520.24 764.24 514.619 763.943 508.361L760.079 426.917C759.782 420.659 762.854 414.719 768.132 411.344L837.237 367.155C842.483 363.8 849.115 363.486 854.654 366.328Z" fill="#1C1D20"/>
<path d="M-25.1152 209.581L70.9429 144.05L184.394 199.64L291.617 133.58L402.338 189.3L510.472 123.197L618.463 179.046L724.776 113.029L835.497 168.748L942.266 102.71L1051.62 158.494L1152.48 92.7359L1261.16 148.552L1367.72 82.5234L1474.8 138.416" stroke="#1C1D20" stroke-width="8" stroke-dasharray="15 15"/>
<path d="M86.597 185.261L159.127 222.863C164.666 225.735 168.258 231.338 168.553 237.57L172.448 319.667C172.744 325.899 169.7 331.817 164.457 335.2L95.8129 379.501C90.5377 382.905 83.8429 383.223 78.269 380.333L5.73814 342.73C0.199236 339.859 -3.39197 334.256 -3.68766 328.024L-7.58281 245.927C-7.87849 239.695 -4.83394 233.777 0.408216 230.394L69.0531 186.093C74.3283 182.688 81.0231 182.371 86.597 185.261Z" fill="#1C1D20"/>
<path d="M302.669 175.007L375.201 212.609C380.74 215.481 384.33 221.084 384.625 227.316L388.521 309.413C388.816 315.645 385.772 321.563 380.53 324.946L311.885 369.247C306.61 372.651 299.915 372.969 294.341 370.079L221.81 332.476C216.271 329.605 212.68 324.002 212.384 317.77L208.489 235.673C208.193 229.441 211.238 223.523 216.48 220.14L285.125 175.839C290.4 172.435 297.095 172.117 302.669 175.007Z" fill="#1C1D20"/>
<path d="M519.231 164.681L592.219 202.326C597.776 205.192 601.382 210.805 601.678 217.05L605.57 299.082C605.866 305.327 602.808 311.256 597.548 314.635L528.452 359.022C523.192 362.401 516.528 362.717 510.972 359.851L437.984 322.206C432.427 319.34 428.822 313.727 428.525 307.482L424.633 225.45C424.337 219.205 427.395 213.276 432.655 209.897L501.751 165.51C507.011 162.131 513.675 161.815 519.231 164.681Z" fill="#1C1D20"/>
<path d="M736.352 154.381L809.341 192.026C814.897 194.892 818.503 200.505 818.799 206.75L822.691 288.782C822.987 295.027 819.929 300.956 814.669 304.335L745.573 348.722C740.313 352.101 733.649 352.418 728.093 349.552L655.105 311.906C649.548 309.04 645.943 303.427 645.646 297.182L641.754 215.15C641.458 208.905 644.516 202.976 649.776 199.597L718.872 155.21C724.132 151.831 730.796 151.515 736.352 154.381Z" fill="#1C1D20"/>
<path d="M952.983 144.153L1025.52 181.756C1031.05 184.627 1034.65 190.231 1034.94 196.463L1038.84 278.559C1039.13 284.791 1036.09 290.709 1030.85 294.092L962.199 338.393C956.924 341.798 950.229 342.115 944.655 339.226L872.124 301.623C866.586 298.751 862.994 293.148 862.699 286.916L858.804 204.82C858.508 198.588 861.552 192.669 866.795 189.286L935.439 144.985C940.715 141.581 947.409 141.263 952.983 144.153Z" fill="#1C1D20"/>
<path d="M86.597 185.261L159.127 222.863C164.666 225.735 168.258 231.338 168.553 237.57L172.448 319.667C172.744 325.899 169.7 331.817 164.457 335.2L95.8129 379.501C90.5377 382.905 83.8429 383.223 78.269 380.333L5.73814 342.73C0.199236 339.859 -3.39197 334.256 -3.68766 328.024L-7.58281 245.927C-7.87849 239.695 -4.83394 233.777 0.408216 230.394L69.0531 186.093C74.3283 182.688 81.0231 182.371 86.597 185.261Z" fill="#1C1D20"/>
<path d="M302.669 175.007L375.201 212.609C380.74 215.481 384.33 221.084 384.625 227.316L388.521 309.413C388.816 315.645 385.772 321.563 380.53 324.946L311.885 369.247C306.61 372.651 299.915 372.969 294.341 370.079L221.81 332.476C216.271 329.605 212.68 324.002 212.384 317.77L208.489 235.673C208.193 229.441 211.238 223.523 216.48 220.14L285.125 175.839C290.4 172.435 297.095 172.117 302.669 175.007Z" fill="#1C1D20"/>
<path d="M519.231 164.681L592.219 202.326C597.776 205.192 601.382 210.805 601.678 217.05L605.57 299.082C605.866 305.327 602.808 311.256 597.548 314.635L528.452 359.022C523.192 362.401 516.528 362.717 510.972 359.851L437.984 322.206C432.427 319.34 428.822 313.727 428.525 307.482L424.633 225.45C424.337 219.205 427.395 213.276 432.655 209.897L501.751 165.51C507.011 162.131 513.675 161.815 519.231 164.681Z" fill="#1C1D20"/>
<path d="M736.352 154.381L809.341 192.026C814.897 194.892 818.503 200.505 818.799 206.75L822.691 288.782C822.987 295.027 819.929 300.956 814.669 304.335L745.573 348.722C740.313 352.101 733.649 352.418 728.093 349.552L655.105 311.906C649.548 309.04 645.943 303.427 645.646 297.182L641.754 215.15C641.458 208.905 644.516 202.976 649.776 199.597L718.872 155.21C724.132 151.831 730.796 151.515 736.352 154.381Z" fill="#1C1D20"/>
<path d="M952.983 144.153L1025.52 181.756C1031.05 184.627 1034.65 190.231 1034.94 196.463L1038.84 278.559C1039.13 284.791 1036.09 290.709 1030.85 294.092L962.199 338.393C956.924 341.798 950.229 342.115 944.655 339.226L872.124 301.623C866.586 298.751 862.994 293.148 862.699 286.916L858.804 204.82C858.508 198.588 861.552 192.669 866.795 189.286L935.439 144.985C940.715 141.581 947.409 141.263 952.983 144.153Z" fill="#1C1D20"/>
<path d="M86.597 185.261L159.127 222.863C164.666 225.735 168.258 231.338 168.553 237.57L172.448 319.667C172.744 325.899 169.7 331.817 164.457 335.2L95.8129 379.501C90.5377 382.905 83.8429 383.223 78.269 380.333L5.73814 342.73C0.199236 339.859 -3.39197 334.256 -3.68766 328.024L-7.58281 245.927C-7.87849 239.695 -4.83394 233.777 0.408216 230.394L69.0531 186.093C74.3283 182.688 81.0231 182.371 86.597 185.261Z" fill="#1C1D20"/>
<path d="M302.669 175.007L375.201 212.609C380.74 215.481 384.33 221.084 384.625 227.316L388.521 309.413C388.816 315.645 385.772 321.563 380.53 324.946L311.885 369.247C306.61 372.651 299.915 372.969 294.341 370.079L221.81 332.476C216.271 329.605 212.68 324.002 212.384 317.77L208.489 235.673C208.193 229.441 211.238 223.523 216.48 220.14L285.125 175.839C290.4 172.435 297.095 172.117 302.669 175.007Z" fill="#1C1D20"/>
<path d="M519.231 164.681L592.219 202.326C597.776 205.192 601.382 210.805 601.678 217.05L605.57 299.082C605.866 305.327 602.808 311.256 597.548 314.635L528.452 359.022C523.192 362.401 516.528 362.717 510.972 359.851L437.984 322.206C432.427 319.34 428.822 313.727 428.525 307.482L424.633 225.45C424.337 219.205 427.395 213.276 432.655 209.897L501.751 165.51C507.011 162.131 513.675 161.815 519.231 164.681Z" fill="#1C1D20"/>
<path d="M736.352 154.381L809.341 192.026C814.897 194.892 818.503 200.505 818.799 206.75L822.691 288.782C822.987 295.027 819.929 300.956 814.669 304.335L745.573 348.722C740.313 352.101 733.649 352.418 728.093 349.552L655.105 311.906C649.548 309.04 645.943 303.427 645.646 297.182L641.754 215.15C641.458 208.905 644.516 202.976 649.776 199.597L718.872 155.21C724.132 151.831 730.796 151.515 736.352 154.381Z" fill="#1C1D20"/>
<path d="M952.983 144.153L1025.52 181.756C1031.05 184.627 1034.65 190.231 1034.94 196.463L1038.84 278.559C1039.13 284.791 1036.09 290.709 1030.85 294.092L962.199 338.393C956.924 341.798 950.229 342.115 944.655 339.226L872.124 301.623C866.586 298.751 862.994 293.148 862.699 286.916L858.804 204.82C858.508 198.588 861.552 192.669 866.795 189.286L935.439 144.985C940.715 141.581 947.409 141.263 952.983 144.153Z" fill="#1C1D20"/>
<path d="M86.597 185.261L159.127 222.863C164.666 225.735 168.258 231.338 168.553 237.57L172.448 319.667C172.744 325.899 169.7 331.817 164.457 335.2L95.8129 379.501C90.5377 382.905 83.8429 383.223 78.269 380.333L5.73814 342.73C0.199236 339.859 -3.39197 334.256 -3.68766 328.024L-7.58281 245.927C-7.87849 239.695 -4.83394 233.777 0.408216 230.394L69.0531 186.093C74.3283 182.688 81.0231 182.371 86.597 185.261Z" fill="#1C1D20"/>
<path d="M1162.76 134.2L1235.29 171.803C1240.83 174.674 1244.42 180.277 1244.72 186.509L1248.61 268.606C1248.91 274.838 1245.87 280.756 1240.62 284.139L1171.98 328.44C1166.7 331.845 1160.01 332.162 1154.43 329.272L1081.9 291.67C1076.36 288.798 1072.77 283.195 1072.48 276.963L1068.58 194.866C1068.29 188.634 1071.33 182.716 1076.57 179.333L1145.22 135.032C1150.49 131.628 1157.19 131.31 1162.76 134.2Z" fill="#1C1D20"/>
<path d="M1162.76 134.2L1235.29 171.803C1240.83 174.674 1244.42 180.277 1244.72 186.509L1248.61 268.606C1248.91 274.838 1245.87 280.756 1240.62 284.139L1171.98 328.44C1166.7 331.845 1160.01 332.162 1154.43 329.272L1081.9 291.67C1076.36 288.798 1072.77 283.195 1072.48 276.963L1068.58 194.866C1068.29 188.634 1071.33 182.716 1076.57 179.333L1145.22 135.032C1150.49 131.628 1157.19 131.31 1162.76 134.2Z" fill="#1C1D20"/>
<path d="M1162.76 134.2L1235.29 171.803C1240.83 174.674 1244.42 180.277 1244.72 186.509L1248.61 268.606C1248.91 274.838 1245.87 280.756 1240.62 284.139L1171.98 328.44C1166.7 331.845 1160.01 332.162 1154.43 329.272L1081.9 291.67C1076.36 288.798 1072.77 283.195 1072.48 276.963L1068.58 194.866C1068.29 188.634 1071.33 182.716 1076.57 179.333L1145.22 135.032C1150.49 131.628 1157.19 131.31 1162.76 134.2Z" fill="#1C1D20"/>
<path d="M1162.76 134.2L1235.29 171.803C1240.83 174.674 1244.42 180.277 1244.72 186.509L1248.61 268.606C1248.91 274.838 1245.87 280.756 1240.62 284.139L1171.98 328.44C1166.7 331.845 1160.01 332.162 1154.43 329.272L1081.9 291.67C1076.36 288.798 1072.77 283.195 1072.48 276.963L1068.58 194.866C1068.29 188.634 1071.33 182.716 1076.57 179.333L1145.22 135.032C1150.49 131.628 1157.19 131.31 1162.76 134.2Z" fill="#1C1D20"/>
<path d="M302.669 175.007L375.201 212.609C380.74 215.481 384.33 221.084 384.625 227.316L388.521 309.413C388.816 315.645 385.772 321.563 380.53 324.946L311.885 369.247C306.61 372.651 299.915 372.969 294.341 370.079L221.81 332.476C216.271 329.605 212.68 324.002 212.384 317.77L208.489 235.673C208.193 229.441 211.238 223.523 216.48 220.14L285.125 175.839C290.4 172.435 297.095 172.117 302.669 175.007Z" fill="#1C1D20"/>
<path d="M1912.19 117.663L1801.35 61.9492L1694 128.016L1580.42 72.4314L1484.24 137.968" stroke="#1C1D20" stroke-width="8" stroke-dasharray="15 15"/>
<path d="M1596.97 113.546L1669.49 150.951C1675.05 153.817 1678.65 159.43 1678.95 165.675L1682.82 247.183C1683.11 253.428 1680.06 259.357 1674.8 262.736L1606.14 306.839C1600.88 310.218 1594.22 310.534 1588.66 307.668L1516.14 270.263C1510.58 267.397 1506.98 261.785 1506.68 255.54L1502.81 174.032C1502.52 167.787 1505.58 161.858 1510.84 158.479L1579.49 114.376C1584.75 110.997 1591.41 110.68 1596.97 113.546Z" fill="#1C1D20"/>
<path d="M1813.04 103.294L1885.56 140.699C1891.12 143.565 1894.73 149.178 1895.02 155.423L1898.89 236.931C1899.19 243.176 1896.13 249.105 1890.87 252.484L1822.21 296.587C1816.95 299.966 1810.29 300.282 1804.73 297.416L1732.21 260.011C1726.66 257.145 1723.05 251.533 1722.75 245.288L1718.89 163.78C1718.59 157.535 1721.65 151.606 1726.91 148.227L1795.56 104.124C1800.82 100.745 1807.49 100.428 1813.04 103.294Z" fill="#1C1D20"/>
<path d="M1596.97 113.546L1669.49 150.951C1675.05 153.817 1678.65 159.43 1678.95 165.675L1682.82 247.183C1683.11 253.428 1680.06 259.357 1674.8 262.736L1606.14 306.839C1600.88 310.218 1594.22 310.534 1588.66 307.668L1516.14 270.263C1510.58 267.397 1506.98 261.785 1506.68 255.54L1502.81 174.032C1502.52 167.787 1505.58 161.858 1510.84 158.479L1579.49 114.376C1584.75 110.997 1591.41 110.68 1596.97 113.546Z" fill="#1C1D20"/>
<path d="M1813.04 103.294L1885.56 140.699C1891.12 143.565 1894.73 149.178 1895.02 155.423L1898.89 236.931C1899.19 243.176 1896.13 249.105 1890.87 252.484L1822.21 296.587C1816.95 299.966 1810.29 300.282 1804.73 297.416L1732.21 260.011C1726.66 257.145 1723.05 251.533 1722.75 245.288L1718.89 163.78C1718.59 157.535 1721.65 151.606 1726.91 148.227L1795.56 104.124C1800.82 100.745 1807.49 100.428 1813.04 103.294Z" fill="#1C1D20"/>
<path d="M1596.97 113.546L1669.49 150.951C1675.05 153.817 1678.65 159.43 1678.95 165.675L1682.82 247.183C1683.11 253.428 1680.06 259.357 1674.8 262.736L1606.14 306.839C1600.88 310.218 1594.22 310.534 1588.66 307.668L1516.14 270.263C1510.58 267.397 1506.98 261.785 1506.68 255.54L1502.81 174.032C1502.52 167.787 1505.58 161.858 1510.84 158.479L1579.49 114.376C1584.75 110.997 1591.41 110.68 1596.97 113.546Z" fill="#1C1D20"/>
<path d="M1813.04 103.294L1885.56 140.699C1891.12 143.565 1894.73 149.178 1895.02 155.423L1898.89 236.931C1899.19 243.176 1896.13 249.105 1890.87 252.484L1822.21 296.587C1816.95 299.966 1810.29 300.282 1804.73 297.416L1732.21 260.011C1726.66 257.145 1723.05 251.533 1722.75 245.288L1718.89 163.78C1718.59 157.535 1721.65 151.606 1726.91 148.227L1795.56 104.124C1800.82 100.745 1807.49 100.428 1813.04 103.294Z" fill="#1C1D20"/>
<path d="M1596.97 113.546L1669.49 150.951C1675.05 153.817 1678.65 159.43 1678.95 165.675L1682.82 247.183C1683.11 253.428 1680.06 259.357 1674.8 262.736L1606.14 306.839C1600.88 310.218 1594.22 310.534 1588.66 307.668L1516.14 270.263C1510.58 267.397 1506.98 261.785 1506.68 255.54L1502.81 174.032C1502.52 167.787 1505.58 161.858 1510.84 158.479L1579.49 114.376C1584.75 110.997 1591.41 110.68 1596.97 113.546Z" fill="#1C1D20"/>
<path d="M1813.04 103.294L1885.56 140.699C1891.12 143.565 1894.73 149.178 1895.02 155.423L1898.89 236.931C1899.19 243.176 1896.13 249.105 1890.87 252.484L1822.21 296.587C1816.95 299.966 1810.29 300.282 1804.73 297.416L1732.21 260.011C1726.66 257.145 1723.05 251.533 1722.75 245.288L1718.89 163.78C1718.59 157.535 1721.65 151.606 1726.91 148.227L1795.56 104.124C1800.82 100.745 1807.49 100.428 1813.04 103.294Z" fill="#1C1D20"/>
<path d="M1912.19 117.663L1801.35 61.9492L1694 128.016L1580.42 72.4314L1484.24 137.968" stroke="#1C1D20" stroke-width="8" stroke-dasharray="15 15"/>
<path d="M1596.97 113.546L1669.49 150.951C1675.05 153.817 1678.65 159.43 1678.95 165.675L1682.82 247.183C1683.11 253.428 1680.06 259.357 1674.8 262.736L1606.14 306.839C1600.88 310.218 1594.22 310.534 1588.66 307.668L1516.14 270.263C1510.58 267.397 1506.98 261.785 1506.68 255.54L1502.81 174.032C1502.52 167.787 1505.58 161.858 1510.84 158.479L1579.49 114.376C1584.75 110.997 1591.41 110.68 1596.97 113.546Z" fill="#1C1D20"/>
<path d="M1813.04 103.294L1885.56 140.699C1891.12 143.565 1894.73 149.178 1895.02 155.423L1898.89 236.931C1899.19 243.176 1896.13 249.105 1890.87 252.484L1822.21 296.587C1816.95 299.966 1810.29 300.282 1804.73 297.416L1732.21 260.011C1726.66 257.145 1723.05 251.533 1722.75 245.288L1718.89 163.78C1718.59 157.535 1721.65 151.606 1726.91 148.227L1795.56 104.124C1800.82 100.745 1807.49 100.428 1813.04 103.294Z" fill="#1C1D20"/>
<path d="M1596.97 113.546L1669.49 150.951C1675.05 153.817 1678.65 159.43 1678.95 165.675L1682.82 247.183C1683.11 253.428 1680.06 259.357 1674.8 262.736L1606.14 306.839C1600.88 310.218 1594.22 310.534 1588.66 307.668L1516.14 270.263C1510.58 267.397 1506.98 261.785 1506.68 255.54L1502.81 174.032C1502.52 167.787 1505.58 161.858 1510.84 158.479L1579.49 114.376C1584.75 110.997 1591.41 110.68 1596.97 113.546Z" fill="#1C1D20"/>
<path d="M1813.04 103.294L1885.56 140.699C1891.12 143.565 1894.73 149.178 1895.02 155.423L1898.89 236.931C1899.19 243.176 1896.13 249.105 1890.87 252.484L1822.21 296.587C1816.95 299.966 1810.29 300.282 1804.73 297.416L1732.21 260.011C1726.66 257.145 1723.05 251.533 1722.75 245.288L1718.89 163.78C1718.59 157.535 1721.65 151.606 1726.91 148.227L1795.56 104.124C1800.82 100.745 1807.49 100.428 1813.04 103.294Z" fill="#1C1D20"/>
<path d="M1596.97 113.546L1669.49 150.951C1675.05 153.817 1678.65 159.43 1678.95 165.675L1682.82 247.183C1683.11 253.428 1680.06 259.357 1674.8 262.736L1606.14 306.839C1600.88 310.218 1594.22 310.534 1588.66 307.668L1516.14 270.263C1510.58 267.397 1506.98 261.785 1506.68 255.54L1502.81 174.032C1502.52 167.787 1505.58 161.858 1510.84 158.479L1579.49 114.376C1584.75 110.997 1591.41 110.68 1596.97 113.546Z" fill="#1C1D20"/>
<path d="M1813.04 103.294L1885.56 140.699C1891.12 143.565 1894.73 149.178 1895.02 155.423L1898.89 236.931C1899.19 243.176 1896.13 249.105 1890.87 252.484L1822.21 296.587C1816.95 299.966 1810.29 300.282 1804.73 297.416L1732.21 260.011C1726.66 257.145 1723.05 251.533 1722.75 245.288L1718.89 163.78C1718.59 157.535 1721.65 151.606 1726.91 148.227L1795.56 104.124C1800.82 100.745 1807.49 100.428 1813.04 103.294Z" fill="#1C1D20"/>
<path d="M1596.97 113.546L1669.49 150.951C1675.05 153.817 1678.65 159.43 1678.95 165.675L1682.82 247.183C1683.11 253.428 1680.06 259.357 1674.8 262.736L1606.14 306.839C1600.88 310.218 1594.22 310.534 1588.66 307.668L1516.14 270.263C1510.58 267.397 1506.98 261.785 1506.68 255.54L1502.81 174.032C1502.52 167.787 1505.58 161.858 1510.84 158.479L1579.49 114.376C1584.75 110.997 1591.41 110.68 1596.97 113.546Z" fill="#1C1D20"/>
<path d="M1813.04 103.294L1885.56 140.699C1891.12 143.565 1894.73 149.178 1895.02 155.423L1898.89 236.931C1899.19 243.176 1896.13 249.105 1890.87 252.484L1822.21 296.587C1816.95 299.966 1810.29 300.282 1804.73 297.416L1732.21 260.011C1726.66 257.145 1723.05 251.533 1722.75 245.288L1718.89 163.78C1718.59 157.535 1721.65 151.606 1726.91 148.227L1795.56 104.124C1800.82 100.745 1807.49 100.428 1813.04 103.294Z" fill="#1C1D20"/>
<path d="M1936.46 310.895L2008.99 348.498C2014.53 351.369 2018.12 356.973 2018.42 363.205L2022.31 445.301C2022.61 451.533 2019.56 457.451 2014.32 460.835L1945.68 505.135C1940.4 508.54 1933.71 508.857 1928.13 505.968L1855.6 468.365C1850.06 465.494 1846.47 459.89 1846.18 453.658L1842.28 371.562C1841.99 365.33 1845.03 359.412 1850.27 356.029L1918.92 311.728C1924.19 308.323 1930.89 308.006 1936.46 310.895Z" fill="#1C1D20"/>
<path d="M519.231 164.681L592.219 202.326C597.776 205.192 601.382 210.805 601.678 217.05L605.57 299.082C605.866 305.327 602.808 311.256 597.548 314.635L528.452 359.022C523.192 362.401 516.528 362.717 510.972 359.851L437.984 322.206C432.427 319.34 428.822 313.727 428.525 307.482L424.633 225.45C424.337 219.205 427.395 213.276 432.655 209.897L501.751 165.51C507.011 162.131 513.675 161.815 519.231 164.681Z" fill="#1C1D20"/>
<path d="M736.352 154.381L809.341 192.026C814.897 194.892 818.503 200.505 818.799 206.75L822.691 288.782C822.987 295.027 819.929 300.956 814.669 304.335L745.573 348.722C740.313 352.101 733.649 352.418 728.093 349.552L655.105 311.906C649.548 309.04 645.943 303.427 645.646 297.182L641.754 215.15C641.458 208.905 644.516 202.976 649.776 199.597L718.872 155.21C724.132 151.831 730.796 151.515 736.352 154.381Z" fill="#1C1D20"/>
<path d="M952.983 144.153L1025.52 181.756C1031.05 184.627 1034.65 190.231 1034.94 196.463L1038.84 278.559C1039.13 284.791 1036.09 290.709 1030.85 294.092L962.199 338.393C956.924 341.798 950.229 342.115 944.655 339.226L872.124 301.623C866.586 298.751 862.994 293.148 862.699 286.916L858.804 204.82C858.508 198.588 861.552 192.669 866.795 189.286L935.439 144.985C940.715 141.581 947.409 141.263 952.983 144.153Z" fill="#1C1D20"/>
<path d="M1379.33 123.873L1452.31 161.518C1457.87 164.384 1461.48 169.997 1461.77 176.242L1465.66 258.274C1465.96 264.52 1462.9 270.448 1457.64 273.828L1388.55 318.214C1383.29 321.594 1376.62 321.91 1371.07 319.044L1298.08 281.398C1292.52 278.532 1288.92 272.92 1288.62 266.675L1284.73 184.642C1284.43 178.397 1287.49 172.468 1292.75 169.089L1361.84 124.702C1367.11 121.323 1373.77 121.007 1379.33 123.873Z" fill="#1C1D20"/>
<path d="M1379.33 123.873L1452.31 161.518C1457.87 164.384 1461.48 169.997 1461.77 176.242L1465.66 258.274C1465.96 264.52 1462.9 270.448 1457.64 273.828L1388.55 318.214C1383.29 321.594 1376.62 321.91 1371.07 319.044L1298.08 281.398C1292.52 278.532 1288.92 272.92 1288.62 266.675L1284.73 184.642C1284.43 178.397 1287.49 172.468 1292.75 169.089L1361.84 124.702C1367.11 121.323 1373.77 121.007 1379.33 123.873Z" fill="#1C1D20"/>
<path d="M1379.33 123.873L1452.31 161.518C1457.87 164.384 1461.48 169.997 1461.77 176.242L1465.66 258.274C1465.96 264.52 1462.9 270.448 1457.64 273.828L1388.55 318.214C1383.29 321.594 1376.62 321.91 1371.07 319.044L1298.08 281.398C1292.52 278.532 1288.92 272.92 1288.62 266.675L1284.73 184.642C1284.43 178.397 1287.49 172.468 1292.75 169.089L1361.84 124.702C1367.11 121.323 1373.77 121.007 1379.33 123.873Z" fill="#1C1D20"/>
<path d="M1379.33 123.873L1452.31 161.518C1457.87 164.384 1461.48 169.997 1461.77 176.242L1465.66 258.274C1465.96 264.52 1462.9 270.448 1457.64 273.828L1388.55 318.214C1383.29 321.594 1376.62 321.91 1371.07 319.044L1298.08 281.398C1292.52 278.532 1288.92 272.92 1288.62 266.675L1284.73 184.642C1284.43 178.397 1287.49 172.468 1292.75 169.089L1361.84 124.702C1367.11 121.323 1373.77 121.007 1379.33 123.873Z" fill="#1C1D20"/>
<path d="M1379.33 123.873L1452.31 161.518C1457.87 164.384 1461.48 169.997 1461.77 176.242L1465.66 258.274C1465.96 264.52 1462.9 270.448 1457.64 273.828L1388.55 318.214C1383.29 321.594 1376.62 321.91 1371.07 319.044L1298.08 281.398C1292.52 278.532 1288.92 272.92 1288.62 266.675L1284.73 184.642C1284.43 178.397 1287.49 172.468 1292.75 169.089L1361.84 124.702C1367.11 121.323 1373.77 121.007 1379.33 123.873Z" fill="#1C1D20"/>
<path d="M1379.33 123.873L1452.31 161.518C1457.87 164.384 1461.48 169.997 1461.77 176.242L1465.66 258.274C1465.96 264.52 1462.9 270.448 1457.64 273.828L1388.55 318.214C1383.29 321.594 1376.62 321.91 1371.07 319.044L1298.08 281.398C1292.52 278.532 1288.92 272.92 1288.62 266.675L1284.73 184.642C1284.43 178.397 1287.49 172.468 1292.75 169.089L1361.84 124.702C1367.11 121.323 1373.77 121.007 1379.33 123.873Z" fill="#1C1D20"/>
<path d="M1379.33 123.873L1452.31 161.518C1457.87 164.384 1461.48 169.997 1461.77 176.242L1465.66 258.274C1465.96 264.52 1462.9 270.448 1457.64 273.828L1388.55 318.214C1383.29 321.594 1376.62 321.91 1371.07 319.044L1298.08 281.398C1292.52 278.532 1288.92 272.92 1288.62 266.675L1284.73 184.642C1284.43 178.397 1287.49 172.468 1292.75 169.089L1361.84 124.702C1367.11 121.323 1373.77 121.007 1379.33 123.873Z" fill="#1C1D20"/>
<path d="M1379.33 123.873L1452.31 161.518C1457.87 164.384 1461.48 169.997 1461.77 176.242L1465.66 258.274C1465.96 264.52 1462.9 270.448 1457.64 273.828L1388.55 318.214C1383.29 321.594 1376.62 321.91 1371.07 319.044L1298.08 281.398C1292.52 278.532 1288.92 272.92 1288.62 266.675L1284.73 184.642C1284.43 178.397 1287.49 172.468 1292.75 169.089L1361.84 124.702C1367.11 121.323 1373.77 121.007 1379.33 123.873Z" fill="#1C1D20"/>
<path d="M1278.46 347.27L1351.44 384.717C1357.01 387.577 1360.63 393.199 1360.93 399.457L1364.79 480.901C1365.09 487.159 1362.02 493.099 1356.74 496.474L1287.64 540.663C1282.39 544.017 1275.76 544.331 1270.22 541.489L1197.24 504.042C1191.67 501.181 1188.05 495.559 1187.75 489.301L1183.88 407.857C1183.59 401.599 1186.66 395.66 1191.94 392.285L1261.04 348.096C1266.29 344.742 1272.92 344.427 1278.46 347.27Z" fill="#1C1D20"/>
<path d="M1278.46 347.27L1351.44 384.717C1357.01 387.577 1360.63 393.199 1360.93 399.457L1364.79 480.901C1365.09 487.159 1362.02 493.099 1356.74 496.474L1287.64 540.663C1282.39 544.017 1275.76 544.331 1270.22 541.489L1197.24 504.042C1191.67 501.181 1188.05 495.559 1187.75 489.301L1183.88 407.857C1183.59 401.599 1186.66 395.66 1191.94 392.285L1261.04 348.096C1266.29 344.742 1272.92 344.427 1278.46 347.27Z" fill="#1C1D20"/>
<path d="M1278.46 347.27L1351.44 384.717C1357.01 387.577 1360.63 393.199 1360.93 399.457L1364.79 480.901C1365.09 487.159 1362.02 493.099 1356.74 496.474L1287.64 540.663C1282.39 544.017 1275.76 544.331 1270.22 541.489L1197.24 504.042C1191.67 501.181 1188.05 495.559 1187.75 489.301L1183.88 407.857C1183.59 401.599 1186.66 395.66 1191.94 392.285L1261.04 348.096C1266.29 344.742 1272.92 344.427 1278.46 347.27Z" fill="#1C1D20"/>
<path d="M1278.46 347.27L1351.44 384.717C1357.01 387.577 1360.63 393.199 1360.93 399.457L1364.79 480.901C1365.09 487.159 1362.02 493.099 1356.74 496.474L1287.64 540.663C1282.39 544.017 1275.76 544.331 1270.22 541.489L1197.24 504.042C1191.67 501.181 1188.05 495.559 1187.75 489.301L1183.88 407.857C1183.59 401.599 1186.66 395.66 1191.94 392.285L1261.04 348.096C1266.29 344.742 1272.92 344.427 1278.46 347.27Z" fill="#1C1D20"/>
<path d="M1278.46 347.27L1351.44 384.717C1357.01 387.577 1360.63 393.199 1360.93 399.457L1364.79 480.901C1365.09 487.159 1362.02 493.099 1356.74 496.474L1287.64 540.663C1282.39 544.017 1275.76 544.331 1270.22 541.489L1197.24 504.042C1191.67 501.181 1188.05 495.559 1187.75 489.301L1183.88 407.857C1183.59 401.599 1186.66 395.66 1191.94 392.285L1261.04 348.096C1266.29 344.742 1272.92 344.427 1278.46 347.27Z" fill="#1C1D20"/>
<path d="M1278.46 347.27L1351.44 384.717C1357.01 387.577 1360.63 393.199 1360.93 399.457L1364.79 480.901C1365.09 487.159 1362.02 493.099 1356.74 496.474L1287.64 540.663C1282.39 544.017 1275.76 544.331 1270.22 541.489L1197.24 504.042C1191.67 501.181 1188.05 495.559 1187.75 489.301L1183.88 407.857C1183.59 401.599 1186.66 395.66 1191.94 392.285L1261.04 348.096C1266.29 344.742 1272.92 344.427 1278.46 347.27Z" fill="#1C1D20"/>
<path d="M1278.46 347.27L1351.44 384.717C1357.01 387.577 1360.63 393.199 1360.93 399.457L1364.79 480.901C1365.09 487.159 1362.02 493.099 1356.74 496.474L1287.64 540.663C1282.39 544.017 1275.76 544.331 1270.22 541.489L1197.24 504.042C1191.67 501.181 1188.05 495.559 1187.75 489.301L1183.88 407.857C1183.59 401.599 1186.66 395.66 1191.94 392.285L1261.04 348.096C1266.29 344.742 1272.92 344.427 1278.46 347.27Z" fill="#1C1D20"/>
<path d="M1278.46 347.27L1351.44 384.717C1357.01 387.577 1360.63 393.199 1360.93 399.457L1364.79 480.901C1365.09 487.159 1362.02 493.099 1356.74 496.474L1287.64 540.663C1282.39 544.017 1275.76 544.331 1270.22 541.489L1197.24 504.042C1191.67 501.181 1188.05 495.559 1187.75 489.301L1183.88 407.857C1183.59 401.599 1186.66 395.66 1191.94 392.285L1261.04 348.096C1266.29 344.742 1272.92 344.427 1278.46 347.27Z" fill="#1C1D20"/>
<path d="M1495.58 336.97L1568.56 374.417C1574.13 377.277 1577.75 382.899 1578.05 389.158L1581.91 470.601C1582.21 476.859 1579.14 482.799 1573.86 486.174L1504.76 530.363C1499.51 533.717 1492.88 534.032 1487.34 531.189L1414.36 493.742C1408.79 490.882 1405.17 485.26 1404.87 479.001L1401.01 397.558C1400.71 391.299 1403.78 385.36 1409.06 381.985L1478.16 337.796C1483.41 334.442 1490.04 334.127 1495.58 336.97Z" fill="#1C1D20"/>
<path d="M1495.58 336.97L1568.56 374.417C1574.13 377.277 1577.75 382.899 1578.05 389.158L1581.91 470.601C1582.21 476.859 1579.14 482.799 1573.86 486.174L1504.76 530.363C1499.51 533.717 1492.88 534.032 1487.34 531.189L1414.36 493.742C1408.79 490.882 1405.17 485.26 1404.87 479.001L1401.01 397.558C1400.71 391.299 1403.78 385.36 1409.06 381.985L1478.16 337.796C1483.41 334.442 1490.04 334.127 1495.58 336.97Z" fill="#1C1D20"/>
<path d="M1495.58 336.97L1568.56 374.417C1574.13 377.277 1577.75 382.899 1578.05 389.158L1581.91 470.601C1582.21 476.859 1579.14 482.799 1573.86 486.174L1504.76 530.363C1499.51 533.717 1492.88 534.032 1487.34 531.189L1414.36 493.742C1408.79 490.882 1405.17 485.26 1404.87 479.001L1401.01 397.558C1400.71 391.299 1403.78 385.36 1409.06 381.985L1478.16 337.796C1483.41 334.442 1490.04 334.127 1495.58 336.97Z" fill="#1C1D20"/>
<path d="M1495.58 336.97L1568.56 374.417C1574.13 377.277 1577.75 382.899 1578.05 389.158L1581.91 470.601C1582.21 476.859 1579.14 482.799 1573.86 486.174L1504.76 530.363C1499.51 533.717 1492.88 534.032 1487.34 531.189L1414.36 493.742C1408.79 490.882 1405.17 485.26 1404.87 479.001L1401.01 397.558C1400.71 391.299 1403.78 385.36 1409.06 381.985L1478.16 337.796C1483.41 334.442 1490.04 334.127 1495.58 336.97Z" fill="#1C1D20"/>
<path d="M1495.58 336.97L1568.56 374.417C1574.13 377.277 1577.75 382.899 1578.05 389.158L1581.91 470.601C1582.21 476.859 1579.14 482.799 1573.86 486.174L1504.76 530.363C1499.51 533.717 1492.88 534.032 1487.34 531.189L1414.36 493.742C1408.79 490.882 1405.17 485.26 1404.87 479.001L1401.01 397.558C1400.71 391.299 1403.78 385.36 1409.06 381.985L1478.16 337.796C1483.41 334.442 1490.04 334.127 1495.58 336.97Z" fill="#1C1D20"/>
<path d="M1495.58 336.97L1568.56 374.417C1574.13 377.277 1577.75 382.899 1578.05 389.158L1581.91 470.601C1582.21 476.859 1579.14 482.799 1573.86 486.174L1504.76 530.363C1499.51 533.717 1492.88 534.032 1487.34 531.189L1414.36 493.742C1408.79 490.882 1405.17 485.26 1404.87 479.001L1401.01 397.558C1400.71 391.299 1403.78 385.36 1409.06 381.985L1478.16 337.796C1483.41 334.442 1490.04 334.127 1495.58 336.97Z" fill="#1C1D20"/>
<path d="M1495.58 336.97L1568.56 374.417C1574.13 377.277 1577.75 382.899 1578.05 389.158L1581.91 470.601C1582.21 476.859 1579.14 482.799 1573.86 486.174L1504.76 530.363C1499.51 533.717 1492.88 534.032 1487.34 531.189L1414.36 493.742C1408.79 490.882 1405.17 485.26 1404.87 479.001L1401.01 397.558C1400.71 391.299 1403.78 385.36 1409.06 381.985L1478.16 337.796C1483.41 334.442 1490.04 334.127 1495.58 336.97Z" fill="#1C1D20"/>
<path d="M1495.58 336.97L1568.56 374.417C1574.13 377.277 1577.75 382.899 1578.05 389.158L1581.91 470.601C1582.21 476.859 1579.14 482.799 1573.86 486.174L1504.76 530.363C1499.51 533.717 1492.88 534.032 1487.34 531.189L1414.36 493.742C1408.79 490.882 1405.17 485.26 1404.87 479.001L1401.01 397.558C1400.71 391.299 1403.78 385.36 1409.06 381.985L1478.16 337.796C1483.41 334.442 1490.04 334.127 1495.58 336.97Z" fill="#1C1D20"/>
<path d="M1716.19 321.346L1788.72 358.949C1794.26 361.821 1797.85 367.424 1798.15 373.656L1802.04 455.752C1802.34 461.984 1799.3 467.903 1794.05 471.286L1725.41 515.587C1720.13 518.991 1713.44 519.309 1707.86 516.419L1635.33 478.816C1629.79 475.945 1626.2 470.341 1625.91 464.109L1622.01 382.013C1621.72 375.781 1624.76 369.863 1630 366.48L1698.65 322.179C1703.92 318.774 1710.62 318.457 1716.19 321.346Z" fill="#1C1D20"/>
<path d="M-32.8239 -26.7367L39.6976 10.6681C45.2542 13.5341 48.8597 19.1467 49.156 25.3918L53.0232 106.899C53.3195 113.145 50.2616 119.073 45.0013 122.453L-23.653 166.556C-28.9132 169.935 -35.5767 170.251 -41.1333 167.385L-113.654 129.98C-119.211 127.114 -122.816 121.502 -123.113 115.256L-126.98 33.7488C-127.276 27.5037 -124.218 21.5749 -118.958 18.1957L-50.3042 -25.9073C-45.044 -29.2865 -38.3805 -29.6027 -32.8239 -26.7367Z" fill="#1C1D20"/>
<path d="M183.249 -36.9867L255.77 0.418137C261.327 3.28408 264.933 8.8967 265.229 15.1418L269.096 96.6497C269.392 102.895 266.334 108.823 261.074 112.203L192.42 156.306C187.16 159.685 180.496 160.001 174.94 157.135L102.418 119.73C96.861 116.864 93.2555 111.252 92.9592 105.006L89.092 23.4988C88.7956 17.2537 91.8536 11.3249 97.1139 7.94571L165.769 -36.1573C171.029 -39.5365 177.692 -39.8526 183.249 -36.9867Z" fill="#1C1D20"/>
<path d="M399.812 -47.3121L472.79 -9.86463C478.364 -7.00434 481.984 -1.38235 482.281 4.87586L486.145 86.3195C486.442 92.5777 483.371 98.5175 478.093 101.892L408.987 146.081C403.742 149.435 397.11 149.749 391.57 146.907L318.592 109.46C313.017 106.599 309.398 100.977 309.101 94.7197L305.237 13.2758C304.94 7.01771 308.011 1.07825 313.289 -2.29695L382.395 -46.4857C387.64 -49.8398 394.272 -50.1544 399.812 -47.3121Z" fill="#1C1D20"/>
<path d="M616.933 -57.6128L689.911 -20.1655C695.486 -17.3052 699.105 -11.6832 699.402 -5.42495L703.267 76.0187C703.563 82.2769 700.492 88.2163 695.214 91.5915L626.108 135.78C620.863 139.134 614.231 139.449 608.691 136.606L535.713 99.1594C530.139 96.2989 526.519 90.6769 526.222 84.4187L522.358 2.97509C522.061 -3.28311 525.132 -9.22257 530.41 -12.5978L599.516 -56.7865C604.761 -60.1405 611.393 -60.4552 616.933 -57.6128Z" fill="#1C1D20"/>
<path d="M833.561 -67.8422L906.083 -30.4374C911.639 -27.5714 915.245 -21.9588 915.541 -15.7136L919.409 65.7942C919.705 72.0393 916.647 77.9681 911.387 81.3473L842.732 125.45C837.472 128.829 830.809 129.145 825.252 126.28L752.731 88.8749C747.174 86.0089 743.568 80.3963 743.272 74.1512L739.405 -7.35662C739.109 -13.6018 742.167 -19.5306 747.427 -22.9098L816.081 -67.0128C821.341 -70.392 828.005 -70.7081 833.561 -67.8422Z" fill="#1C1D20"/>
<path d="M-32.8239 -26.7367L39.6976 10.6681C45.2542 13.5341 48.8597 19.1467 49.156 25.3918L53.0232 106.899C53.3195 113.145 50.2616 119.073 45.0013 122.453L-23.653 166.556C-28.9132 169.935 -35.5767 170.251 -41.1333 167.385L-113.654 129.98C-119.211 127.114 -122.816 121.502 -123.113 115.256L-126.98 33.7488C-127.276 27.5037 -124.218 21.5749 -118.958 18.1957L-50.3042 -25.9073C-45.044 -29.2865 -38.3805 -29.6027 -32.8239 -26.7367Z" fill="#1C1D20"/>
<path d="M183.249 -36.9867L255.77 0.418137C261.327 3.28408 264.933 8.8967 265.229 15.1418L269.096 96.6497C269.392 102.895 266.334 108.823 261.074 112.203L192.42 156.306C187.16 159.685 180.496 160.001 174.94 157.135L102.418 119.73C96.861 116.864 93.2555 111.252 92.9592 105.006L89.092 23.4988C88.7956 17.2537 91.8536 11.3249 97.1139 7.94571L165.769 -36.1573C171.029 -39.5365 177.692 -39.8526 183.249 -36.9867Z" fill="#1C1D20"/>
<path d="M399.812 -47.3121L472.79 -9.86463C478.364 -7.00434 481.984 -1.38235 482.281 4.87586L486.145 86.3195C486.442 92.5777 483.371 98.5175 478.093 101.892L408.987 146.081C403.742 149.435 397.11 149.749 391.57 146.907L318.592 109.46C313.017 106.599 309.398 100.977 309.101 94.7197L305.237 13.2758C304.94 7.01771 308.011 1.07825 313.289 -2.29695L382.395 -46.4857C387.64 -49.8398 394.272 -50.1544 399.812 -47.3121Z" fill="#1C1D20"/>
<path d="M616.933 -57.6128L689.911 -20.1655C695.486 -17.3052 699.105 -11.6832 699.402 -5.42495L703.267 76.0187C703.563 82.2769 700.492 88.2163 695.214 91.5915L626.108 135.78C620.863 139.134 614.231 139.449 608.691 136.606L535.713 99.1594C530.139 96.2989 526.519 90.6769 526.222 84.4187L522.358 2.97509C522.061 -3.28311 525.132 -9.22257 530.41 -12.5978L599.516 -56.7865C604.761 -60.1405 611.393 -60.4552 616.933 -57.6128Z" fill="#1C1D20"/>
<path d="M833.561 -67.8422L906.083 -30.4374C911.639 -27.5714 915.245 -21.9588 915.541 -15.7136L919.409 65.7942C919.705 72.0393 916.647 77.9681 911.387 81.3473L842.732 125.45C837.472 128.829 830.809 129.145 825.252 126.28L752.731 88.8749C747.174 86.0089 743.568 80.3963 743.272 74.1512L739.405 -7.35662C739.109 -13.6018 742.167 -19.5306 747.427 -22.9098L816.081 -67.0128C821.341 -70.392 828.005 -70.7081 833.561 -67.8422Z" fill="#1C1D20"/>
<path d="M-32.8239 -26.7367L39.6976 10.6681C45.2542 13.5341 48.8597 19.1467 49.156 25.3918L53.0232 106.899C53.3195 113.145 50.2616 119.073 45.0013 122.453L-23.653 166.556C-28.9132 169.935 -35.5767 170.251 -41.1333 167.385L-113.654 129.98C-119.211 127.114 -122.816 121.502 -123.113 115.256L-126.98 33.7488C-127.276 27.5037 -124.218 21.5749 -118.958 18.1957L-50.3042 -25.9073C-45.044 -29.2865 -38.3805 -29.6027 -32.8239 -26.7367Z" fill="#1C1D20"/>
<path d="M183.249 -36.9867L255.77 0.418137C261.327 3.28408 264.933 8.8967 265.229 15.1418L269.096 96.6497C269.392 102.895 266.334 108.823 261.074 112.203L192.42 156.306C187.16 159.685 180.496 160.001 174.94 157.135L102.418 119.73C96.861 116.864 93.2555 111.252 92.9592 105.006L89.092 23.4988C88.7956 17.2537 91.8536 11.3249 97.1139 7.94571L165.769 -36.1573C171.029 -39.5365 177.692 -39.8526 183.249 -36.9867Z" fill="#1C1D20"/>
<path d="M399.812 -47.3121L472.79 -9.86463C478.364 -7.00434 481.984 -1.38235 482.281 4.87586L486.145 86.3195C486.442 92.5777 483.371 98.5175 478.093 101.892L408.987 146.081C403.742 149.435 397.11 149.749 391.57 146.907L318.592 109.46C313.017 106.599 309.398 100.977 309.101 94.7197L305.237 13.2758C304.94 7.01771 308.011 1.07825 313.289 -2.29695L382.395 -46.4857C387.64 -49.8398 394.272 -50.1544 399.812 -47.3121Z" fill="#1C1D20"/>
<path d="M616.933 -57.6128L689.911 -20.1655C695.486 -17.3052 699.105 -11.6832 699.402 -5.42495L703.267 76.0187C703.563 82.2769 700.492 88.2163 695.214 91.5915L626.108 135.78C620.863 139.134 614.231 139.449 608.691 136.606L535.713 99.1594C530.139 96.2989 526.519 90.6769 526.222 84.4187L522.358 2.97509C522.061 -3.28311 525.132 -9.22257 530.41 -12.5978L599.516 -56.7865C604.761 -60.1405 611.393 -60.4552 616.933 -57.6128Z" fill="#1C1D20"/>
<path d="M833.561 -67.8422L906.083 -30.4374C911.639 -27.5714 915.245 -21.9588 915.541 -15.7136L919.409 65.7942C919.705 72.0393 916.647 77.9681 911.387 81.3473L842.732 125.45C837.472 128.829 830.809 129.145 825.252 126.28L752.731 88.8749C747.174 86.0089 743.568 80.3963 743.272 74.1512L739.405 -7.35662C739.109 -13.6018 742.167 -19.5306 747.427 -22.9098L816.081 -67.0128C821.341 -70.392 828.005 -70.7081 833.561 -67.8422Z" fill="#1C1D20"/>
<path d="M-32.8239 -26.7367L39.6976 10.6681C45.2542 13.5341 48.8597 19.1467 49.156 25.3918L53.0232 106.899C53.3195 113.145 50.2616 119.073 45.0013 122.453L-23.653 166.556C-28.9132 169.935 -35.5767 170.251 -41.1333 167.385L-113.654 129.98C-119.211 127.114 -122.816 121.502 -123.113 115.256L-126.98 33.7488C-127.276 27.5037 -124.218 21.5749 -118.958 18.1957L-50.3042 -25.9073C-45.044 -29.2865 -38.3805 -29.6027 -32.8239 -26.7367Z" fill="#1C1D20"/>
<path d="M1043.34 -77.7953L1115.86 -40.3905C1121.42 -37.5245 1125.03 -31.9119 1125.32 -25.6667L1129.19 55.8411C1129.49 62.0862 1126.43 68.015 1121.17 71.3942L1052.51 115.497C1047.25 118.876 1040.59 119.192 1035.03 116.326L962.512 78.9218C956.955 76.0558 953.35 70.4432 953.053 64.1981L949.186 -17.3098C948.89 -23.5549 951.948 -29.4837 957.208 -32.8629L1025.86 -76.9659C1031.12 -80.3451 1037.79 -80.6612 1043.34 -77.7953Z" fill="#1C1D20"/>
<path d="M1043.34 -77.7953L1115.86 -40.3905C1121.42 -37.5245 1125.03 -31.9119 1125.32 -25.6667L1129.19 55.8411C1129.49 62.0862 1126.43 68.015 1121.17 71.3942L1052.51 115.497C1047.25 118.876 1040.59 119.192 1035.03 116.326L962.512 78.9218C956.955 76.0558 953.35 70.4432 953.053 64.1981L949.186 -17.3098C948.89 -23.5549 951.948 -29.4837 957.208 -32.8629L1025.86 -76.9659C1031.12 -80.3451 1037.79 -80.6612 1043.34 -77.7953Z" fill="#1C1D20"/>
<path d="M1043.34 -77.7953L1115.86 -40.3905C1121.42 -37.5245 1125.03 -31.9119 1125.32 -25.6667L1129.19 55.8411C1129.49 62.0862 1126.43 68.015 1121.17 71.3942L1052.51 115.497C1047.25 118.876 1040.59 119.192 1035.03 116.326L962.512 78.9218C956.955 76.0558 953.35 70.4432 953.053 64.1981L949.186 -17.3098C948.89 -23.5549 951.948 -29.4837 957.208 -32.8629L1025.86 -76.9659C1031.12 -80.3451 1037.79 -80.6612 1043.34 -77.7953Z" fill="#1C1D20"/>
<path d="M1043.34 -77.7953L1115.86 -40.3905C1121.42 -37.5245 1125.03 -31.9119 1125.32 -25.6667L1129.19 55.8411C1129.49 62.0862 1126.43 68.015 1121.17 71.3942L1052.51 115.497C1047.25 118.876 1040.59 119.192 1035.03 116.326L962.512 78.9218C956.955 76.0558 953.35 70.4432 953.053 64.1981L949.186 -17.3098C948.89 -23.5549 951.948 -29.4837 957.208 -32.8629L1025.86 -76.9659C1031.12 -80.3451 1037.79 -80.6612 1043.34 -77.7953Z" fill="#1C1D20"/>
<path d="M183.249 -36.9867L255.77 0.418137C261.327 3.28408 264.933 8.8967 265.229 15.1418L269.096 96.6497C269.392 102.895 266.334 108.823 261.074 112.203L192.42 156.306C187.16 159.685 180.496 160.001 174.94 157.135L102.418 119.73C96.861 116.864 93.2555 111.252 92.9592 105.006L89.092 23.4988C88.7956 17.2537 91.8536 11.3249 97.1139 7.94571L165.769 -36.1573C171.029 -39.5365 177.692 -39.8526 183.249 -36.9867Z" fill="#1C1D20"/>
<path d="M399.812 -47.3121L472.79 -9.86463C478.364 -7.00434 481.984 -1.38235 482.281 4.87586L486.145 86.3195C486.442 92.5777 483.371 98.5175 478.093 101.892L408.987 146.081C403.742 149.435 397.11 149.749 391.57 146.907L318.592 109.46C313.017 106.599 309.398 100.977 309.101 94.7197L305.237 13.2758C304.94 7.01771 308.011 1.07825 313.289 -2.29695L382.395 -46.4857C387.64 -49.8398 394.272 -50.1544 399.812 -47.3121Z" fill="#1C1D20"/>
<path d="M616.933 -57.6128L689.911 -20.1655C695.486 -17.3052 699.105 -11.6832 699.402 -5.42495L703.267 76.0187C703.563 82.2769 700.492 88.2163 695.214 91.5915L626.108 135.78C620.863 139.134 614.231 139.449 608.691 136.606L535.713 99.1594C530.139 96.2989 526.519 90.6769 526.222 84.4187L522.358 2.97509C522.061 -3.28311 525.132 -9.22257 530.41 -12.5978L599.516 -56.7865C604.761 -60.1405 611.393 -60.4552 616.933 -57.6128Z" fill="#1C1D20"/>
<path d="M833.561 -67.8422L906.083 -30.4374C911.639 -27.5714 915.245 -21.9588 915.541 -15.7136L919.409 65.7942C919.705 72.0393 916.647 77.9681 911.387 81.3473L842.732 125.45C837.472 128.829 830.809 129.145 825.252 126.28L752.731 88.8749C747.174 86.0089 743.568 80.3963 743.272 74.1512L739.405 -7.35662C739.109 -13.6018 742.167 -19.5306 747.427 -22.9098L816.081 -67.0128C821.341 -70.392 828.005 -70.7081 833.561 -67.8422Z" fill="#1C1D20"/>
<path d="M183.249 -36.9867L255.77 0.418137C261.327 3.28408 264.933 8.8967 265.229 15.1418L269.096 96.6497C269.392 102.895 266.334 108.823 261.074 112.203L192.42 156.306C187.16 159.685 180.496 160.001 174.94 157.135L102.418 119.73C96.861 116.864 93.2555 111.252 92.9592 105.006L89.092 23.4988C88.7956 17.2537 91.8536 11.3249 97.1139 7.94571L165.769 -36.1573C171.029 -39.5365 177.692 -39.8526 183.249 -36.9867Z" fill="#1C1D20"/>
<path d="M399.812 -47.3121L472.79 -9.86463C478.364 -7.00434 481.984 -1.38235 482.281 4.87586L486.145 86.3195C486.442 92.5777 483.371 98.5175 478.093 101.892L408.987 146.081C403.742 149.435 397.11 149.749 391.57 146.907L318.592 109.46C313.017 106.599 309.398 100.977 309.101 94.7197L305.237 13.2758C304.94 7.01771 308.011 1.07825 313.289 -2.29695L382.395 -46.4857C387.64 -49.8398 394.272 -50.1544 399.812 -47.3121Z" fill="#1C1D20"/>
<path d="M616.933 -57.6128L689.911 -20.1655C695.486 -17.3052 699.105 -11.6832 699.402 -5.42495L703.267 76.0187C703.563 82.2769 700.492 88.2163 695.214 91.5915L626.108 135.78C620.863 139.134 614.231 139.449 608.691 136.606L535.713 99.1594C530.139 96.2989 526.519 90.6769 526.222 84.4187L522.358 2.97509C522.061 -3.28311 525.132 -9.22257 530.41 -12.5978L599.516 -56.7865C604.761 -60.1405 611.393 -60.4552 616.933 -57.6128Z" fill="#1C1D20"/>
<path d="M833.561 -67.8422L906.083 -30.4374C911.639 -27.5714 915.245 -21.9588 915.541 -15.7136L919.409 65.7942C919.705 72.0393 916.647 77.9681 911.387 81.3473L842.732 125.45C837.472 128.829 830.809 129.145 825.252 126.28L752.731 88.8749C747.174 86.0089 743.568 80.3963 743.272 74.1512L739.405 -7.35662C739.109 -13.6018 742.167 -19.5306 747.427 -22.9098L816.081 -67.0128C821.341 -70.392 828.005 -70.7081 833.561 -67.8422Z" fill="#1C1D20"/>
<path d="M183.249 -36.9867L255.77 0.418137C261.327 3.28408 264.933 8.8967 265.229 15.1418L269.096 96.6497C269.392 102.895 266.334 108.823 261.074 112.203L192.42 156.306C187.16 159.685 180.496 160.001 174.94 157.135L102.418 119.73C96.861 116.864 93.2555 111.252 92.9592 105.006L89.092 23.4988C88.7956 17.2537 91.8536 11.3249 97.1139 7.94571L165.769 -36.1573C171.029 -39.5365 177.692 -39.8526 183.249 -36.9867Z" fill="#1C1D20"/>
<path d="M399.812 -47.3121L472.79 -9.86463C478.364 -7.00434 481.984 -1.38235 482.281 4.87586L486.145 86.3195C486.442 92.5777 483.371 98.5175 478.093 101.892L408.987 146.081C403.742 149.435 397.11 149.749 391.57 146.907L318.592 109.46C313.017 106.599 309.398 100.977 309.101 94.7197L305.237 13.2758C304.94 7.01771 308.011 1.07825 313.289 -2.29695L382.395 -46.4857C387.64 -49.8398 394.272 -50.1544 399.812 -47.3121Z" fill="#1C1D20"/>
<path d="M616.933 -57.6128L689.911 -20.1655C695.486 -17.3052 699.105 -11.6832 699.402 -5.42495L703.267 76.0187C703.563 82.2769 700.492 88.2163 695.214 91.5915L626.108 135.78C620.863 139.134 614.231 139.449 608.691 136.606L535.713 99.1594C530.139 96.2989 526.519 90.6769 526.222 84.4187L522.358 2.97509C522.061 -3.28311 525.132 -9.22257 530.41 -12.5978L599.516 -56.7865C604.761 -60.1405 611.393 -60.4552 616.933 -57.6128Z" fill="#1C1D20"/>
<path d="M833.561 -67.8422L906.083 -30.4374C911.639 -27.5714 915.245 -21.9588 915.541 -15.7136L919.409 65.7942C919.705 72.0393 916.647 77.9681 911.387 81.3473L842.732 125.45C837.472 128.829 830.809 129.145 825.252 126.28L752.731 88.8749C747.174 86.0089 743.568 80.3963 743.272 74.1512L739.405 -7.35662C739.109 -13.6018 742.167 -19.5306 747.427 -22.9098L816.081 -67.0128C821.341 -70.392 828.005 -70.7081 833.561 -67.8422Z" fill="#1C1D20"/>
<path d="M183.249 -36.9867L255.77 0.418137C261.327 3.28408 264.933 8.8967 265.229 15.1418L269.096 96.6497C269.392 102.895 266.334 108.823 261.074 112.203L192.42 156.306C187.16 159.685 180.496 160.001 174.94 157.135L102.418 119.73C96.861 116.864 93.2555 111.252 92.9592 105.006L89.092 23.4988C88.7956 17.2537 91.8536 11.3249 97.1139 7.94571L165.769 -36.1573C171.029 -39.5365 177.692 -39.8526 183.249 -36.9867Z" fill="#1C1D20"/>
<path d="M399.812 -47.3121L472.79 -9.86463C478.364 -7.00434 481.984 -1.38235 482.281 4.87586L486.145 86.3195C486.442 92.5777 483.371 98.5175 478.093 101.892L408.987 146.081C403.742 149.435 397.11 149.749 391.57 146.907L318.592 109.46C313.017 106.599 309.398 100.977 309.101 94.7197L305.237 13.2758C304.94 7.01771 308.011 1.07825 313.289 -2.29695L382.395 -46.4857C387.64 -49.8398 394.272 -50.1544 399.812 -47.3121Z" fill="#1C1D20"/>
<path d="M616.933 -57.6128L689.911 -20.1655C695.486 -17.3052 699.105 -11.6832 699.402 -5.42495L703.267 76.0187C703.563 82.2769 700.492 88.2163 695.214 91.5915L626.108 135.78C620.863 139.134 614.231 139.449 608.691 136.606L535.713 99.1594C530.139 96.2989 526.519 90.6769 526.222 84.4187L522.358 2.97509C522.061 -3.28311 525.132 -9.22257 530.41 -12.5978L599.516 -56.7865C604.761 -60.1405 611.393 -60.4552 616.933 -57.6128Z" fill="#1C1D20"/>
<path d="M833.561 -67.8422L906.083 -30.4374C911.639 -27.5714 915.245 -21.9588 915.541 -15.7136L919.409 65.7942C919.705 72.0393 916.647 77.9681 911.387 81.3473L842.732 125.45C837.472 128.829 830.809 129.145 825.252 126.28L752.731 88.8749C747.174 86.0089 743.568 80.3963 743.272 74.1512L739.405 -7.35662C739.109 -13.6018 742.167 -19.5306 747.427 -22.9098L816.081 -67.0128C821.341 -70.392 828.005 -70.7081 833.561 -67.8422Z" fill="#1C1D20"/>
<path d="M1043.34 -77.7953L1115.86 -40.3905C1121.42 -37.5245 1125.03 -31.9119 1125.32 -25.6667L1129.19 55.8411C1129.49 62.0862 1126.43 68.015 1121.17 71.3942L1052.51 115.497C1047.25 118.876 1040.59 119.192 1035.03 116.326L962.512 78.9218C956.955 76.0558 953.35 70.4432 953.053 64.1981L949.186 -17.3098C948.89 -23.5549 951.948 -29.4837 957.208 -32.8629L1025.86 -76.9659C1031.12 -80.3451 1037.79 -80.6612 1043.34 -77.7953Z" fill="#1C1D20"/>
<path d="M1043.34 -77.7953L1115.86 -40.3905C1121.42 -37.5245 1125.03 -31.9119 1125.32 -25.6667L1129.19 55.8411C1129.49 62.0862 1126.43 68.015 1121.17 71.3942L1052.51 115.497C1047.25 118.876 1040.59 119.192 1035.03 116.326L962.512 78.9218C956.955 76.0558 953.35 70.4432 953.053 64.1981L949.186 -17.3098C948.89 -23.5549 951.948 -29.4837 957.208 -32.8629L1025.86 -76.9659C1031.12 -80.3451 1037.79 -80.6612 1043.34 -77.7953Z" fill="#1C1D20"/>
<path d="M1043.34 -77.7953L1115.86 -40.3905C1121.42 -37.5245 1125.03 -31.9119 1125.32 -25.6667L1129.19 55.8411C1129.49 62.0862 1126.43 68.015 1121.17 71.3942L1052.51 115.497C1047.25 118.876 1040.59 119.192 1035.03 116.326L962.512 78.9218C956.955 76.0558 953.35 70.4432 953.053 64.1981L949.186 -17.3098C948.89 -23.5549 951.948 -29.4837 957.208 -32.8629L1025.86 -76.9659C1031.12 -80.3451 1037.79 -80.6612 1043.34 -77.7953Z" fill="#1C1D20"/>
<path d="M1043.34 -77.7953L1115.86 -40.3905C1121.42 -37.5245 1125.03 -31.9119 1125.32 -25.6667L1129.19 55.8411C1129.49 62.0862 1126.43 68.015 1121.17 71.3942L1052.51 115.497C1047.25 118.876 1040.59 119.192 1035.03 116.326L962.512 78.9218C956.955 76.0558 953.35 70.4432 953.053 64.1981L949.186 -17.3098C948.89 -23.5549 951.948 -29.4837 957.208 -32.8629L1025.86 -76.9659C1031.12 -80.3451 1037.79 -80.6612 1043.34 -77.7953Z" fill="#1C1D20"/>
<path d="M183.249 -36.9867L255.77 0.418137C261.327 3.28408 264.933 8.8967 265.229 15.1418L269.096 96.6497C269.392 102.895 266.334 108.823 261.074 112.203L192.42 156.306C187.16 159.685 180.496 160.001 174.94 157.135L102.418 119.73C96.861 116.864 93.2555 111.252 92.9592 105.006L89.092 23.4988C88.7956 17.2537 91.8536 11.3249 97.1139 7.94571L165.769 -36.1573C171.029 -39.5365 177.692 -39.8526 183.249 -36.9867Z" fill="#1C1D20"/>
<path d="M399.812 -47.3121L472.79 -9.86463C478.364 -7.00434 481.984 -1.38235 482.281 4.87586L486.145 86.3195C486.442 92.5777 483.371 98.5175 478.093 101.892L408.987 146.081C403.742 149.435 397.11 149.749 391.57 146.907L318.592 109.46C313.017 106.599 309.398 100.977 309.101 94.7197L305.237 13.2758C304.94 7.01771 308.011 1.07825 313.289 -2.29695L382.395 -46.4857C387.64 -49.8398 394.272 -50.1544 399.812 -47.3121Z" fill="#1C1D20"/>
<path d="M616.933 -57.6128L689.911 -20.1655C695.486 -17.3052 699.105 -11.6832 699.402 -5.42495L703.267 76.0187C703.563 82.2769 700.492 88.2163 695.214 91.5915L626.108 135.78C620.863 139.134 614.231 139.449 608.691 136.606L535.713 99.1594C530.139 96.2989 526.519 90.6769 526.222 84.4187L522.358 2.97509C522.061 -3.28311 525.132 -9.22257 530.41 -12.5978L599.516 -56.7865C604.761 -60.1405 611.393 -60.4552 616.933 -57.6128Z" fill="#1C1D20"/>
<path d="M833.561 -67.8422L906.083 -30.4374C911.639 -27.5714 915.245 -21.9588 915.541 -15.7136L919.409 65.7942C919.705 72.0393 916.647 77.9681 911.387 81.3473L842.732 125.45C837.472 128.829 830.809 129.145 825.252 126.28L752.731 88.8749C747.174 86.0089 743.568 80.3963 743.272 74.1512L739.405 -7.35662C739.109 -13.6018 742.167 -19.5306 747.427 -22.9098L816.081 -67.0128C821.341 -70.392 828.005 -70.7081 833.561 -67.8422Z" fill="#1C1D20"/>
<path d="M1257.37 -86.8968L1329.89 -49.492C1335.44 -46.6261 1339.05 -41.0134 1339.35 -34.7683L1343.21 46.7396C1343.51 52.9847 1340.45 58.9135 1335.19 62.2927L1266.54 106.395C1261.28 109.775 1254.61 110.091 1249.06 107.225L1176.54 69.8203C1170.98 66.9543 1167.37 61.3417 1167.08 55.0965L1163.21 -26.4113C1162.91 -32.6565 1165.97 -38.5852 1171.23 -41.9644L1239.89 -86.0675C1245.15 -89.4466 1251.81 -89.7628 1257.37 -86.8968Z" fill="#1C1D20"/>
<path d="M1257.37 -86.8968L1329.89 -49.492C1335.44 -46.6261 1339.05 -41.0134 1339.35 -34.7683L1343.21 46.7396C1343.51 52.9847 1340.45 58.9135 1335.19 62.2927L1266.54 106.395C1261.28 109.775 1254.61 110.091 1249.06 107.225L1176.54 69.8203C1170.98 66.9543 1167.37 61.3417 1167.08 55.0965L1163.21 -26.4113C1162.91 -32.6565 1165.97 -38.5852 1171.23 -41.9644L1239.89 -86.0675C1245.15 -89.4466 1251.81 -89.7628 1257.37 -86.8968Z" fill="#1C1D20"/>
<path d="M1257.37 -86.8968L1329.89 -49.492C1335.44 -46.6261 1339.05 -41.0134 1339.35 -34.7683L1343.21 46.7396C1343.51 52.9847 1340.45 58.9135 1335.19 62.2927L1266.54 106.395C1261.28 109.775 1254.61 110.091 1249.06 107.225L1176.54 69.8203C1170.98 66.9543 1167.37 61.3417 1167.08 55.0965L1163.21 -26.4113C1162.91 -32.6565 1165.97 -38.5852 1171.23 -41.9644L1239.89 -86.0675C1245.15 -89.4466 1251.81 -89.7628 1257.37 -86.8968Z" fill="#1C1D20"/>
<path d="M1257.37 -86.8968L1329.89 -49.492C1335.44 -46.6261 1339.05 -41.0134 1339.35 -34.7683L1343.21 46.7396C1343.51 52.9847 1340.45 58.9135 1335.19 62.2927L1266.54 106.395C1261.28 109.775 1254.61 110.091 1249.06 107.225L1176.54 69.8203C1170.98 66.9543 1167.37 61.3417 1167.08 55.0965L1163.21 -26.4113C1162.91 -32.6565 1165.97 -38.5852 1171.23 -41.9644L1239.89 -86.0675C1245.15 -89.4466 1251.81 -89.7628 1257.37 -86.8968Z" fill="#1C1D20"/>
<path d="M1257.37 -86.8968L1329.89 -49.492C1335.44 -46.6261 1339.05 -41.0134 1339.35 -34.7683L1343.21 46.7396C1343.51 52.9847 1340.45 58.9135 1335.19 62.2927L1266.54 106.395C1261.28 109.775 1254.61 110.091 1249.06 107.225L1176.54 69.8203C1170.98 66.9543 1167.37 61.3417 1167.08 55.0965L1163.21 -26.4113C1162.91 -32.6565 1165.97 -38.5852 1171.23 -41.9644L1239.89 -86.0675C1245.15 -89.4466 1251.81 -89.7628 1257.37 -86.8968Z" fill="#1C1D20"/>
<path d="M1257.37 -86.8968L1329.89 -49.492C1335.44 -46.6261 1339.05 -41.0134 1339.35 -34.7683L1343.21 46.7396C1343.51 52.9847 1340.45 58.9135 1335.19 62.2927L1266.54 106.395C1261.28 109.775 1254.61 110.091 1249.06 107.225L1176.54 69.8203C1170.98 66.9543 1167.37 61.3417 1167.08 55.0965L1163.21 -26.4113C1162.91 -32.6565 1165.97 -38.5852 1171.23 -41.9644L1239.89 -86.0675C1245.15 -89.4466 1251.81 -89.7628 1257.37 -86.8968Z" fill="#1C1D20"/>
<path d="M1257.37 -86.8968L1329.89 -49.492C1335.44 -46.6261 1339.05 -41.0134 1339.35 -34.7683L1343.21 46.7396C1343.51 52.9847 1340.45 58.9135 1335.19 62.2927L1266.54 106.395C1261.28 109.775 1254.61 110.091 1249.06 107.225L1176.54 69.8203C1170.98 66.9543 1167.37 61.3417 1167.08 55.0965L1163.21 -26.4113C1162.91 -32.6565 1165.97 -38.5852 1171.23 -41.9644L1239.89 -86.0675C1245.15 -89.4466 1251.81 -89.7628 1257.37 -86.8968Z" fill="#1C1D20"/>
<path d="M1257.37 -86.8968L1329.89 -49.492C1335.44 -46.6261 1339.05 -41.0134 1339.35 -34.7683L1343.21 46.7396C1343.51 52.9847 1340.45 58.9135 1335.19 62.2927L1266.54 106.395C1261.28 109.775 1254.61 110.091 1249.06 107.225L1176.54 69.8203C1170.98 66.9543 1167.37 61.3417 1167.08 55.0965L1163.21 -26.4113C1162.91 -32.6565 1165.97 -38.5852 1171.23 -41.9644L1239.89 -86.0675C1245.15 -89.4466 1251.81 -89.7628 1257.37 -86.8968Z" fill="#1C1D20"/>
<path d="M1474.52 -97.1496L1547.05 -59.5469C1552.59 -56.6753 1556.18 -51.0721 1556.48 -44.8401L1560.37 37.2565C1560.67 43.4885 1557.62 49.4065 1552.38 52.7896L1483.74 97.0906C1478.46 100.495 1471.77 100.813 1466.19 97.9231L1393.66 60.3203C1388.12 57.4488 1384.53 51.8455 1384.24 45.6135L1380.34 -36.4831C1380.05 -42.7151 1383.09 -48.6332 1388.33 -52.0163L1456.98 -96.3172C1462.25 -99.7216 1468.95 -100.039 1474.52 -97.1496Z" fill="#1C1D20"/>
<path d="M1474.52 -97.1496L1547.05 -59.5469C1552.59 -56.6753 1556.18 -51.0721 1556.48 -44.8401L1560.37 37.2565C1560.67 43.4885 1557.62 49.4065 1552.38 52.7896L1483.74 97.0906C1478.46 100.495 1471.77 100.813 1466.19 97.9231L1393.66 60.3203C1388.12 57.4488 1384.53 51.8455 1384.24 45.6135L1380.34 -36.4831C1380.05 -42.7151 1383.09 -48.6332 1388.33 -52.0163L1456.98 -96.3172C1462.25 -99.7216 1468.95 -100.039 1474.52 -97.1496Z" fill="#1C1D20"/>
<path d="M1474.52 -97.1496L1547.05 -59.5469C1552.59 -56.6753 1556.18 -51.0721 1556.48 -44.8401L1560.37 37.2565C1560.67 43.4885 1557.62 49.4065 1552.38 52.7896L1483.74 97.0906C1478.46 100.495 1471.77 100.813 1466.19 97.9231L1393.66 60.3203C1388.12 57.4488 1384.53 51.8455 1384.24 45.6135L1380.34 -36.4831C1380.05 -42.7151 1383.09 -48.6332 1388.33 -52.0163L1456.98 -96.3172C1462.25 -99.7216 1468.95 -100.039 1474.52 -97.1496Z" fill="#1C1D20"/>
<path d="M1474.52 -97.1496L1547.05 -59.5469C1552.59 -56.6753 1556.18 -51.0721 1556.48 -44.8401L1560.37 37.2565C1560.67 43.4885 1557.62 49.4065 1552.38 52.7896L1483.74 97.0906C1478.46 100.495 1471.77 100.813 1466.19 97.9231L1393.66 60.3203C1388.12 57.4488 1384.53 51.8455 1384.24 45.6135L1380.34 -36.4831C1380.05 -42.7151 1383.09 -48.6332 1388.33 -52.0163L1456.98 -96.3172C1462.25 -99.7216 1468.95 -100.039 1474.52 -97.1496Z" fill="#1C1D20"/>
<path d="M1474.52 -97.1496L1547.05 -59.5469C1552.59 -56.6753 1556.18 -51.0721 1556.48 -44.8401L1560.37 37.2565C1560.67 43.4885 1557.62 49.4065 1552.38 52.7896L1483.74 97.0906C1478.46 100.495 1471.77 100.813 1466.19 97.9231L1393.66 60.3203C1388.12 57.4488 1384.53 51.8455 1384.24 45.6135L1380.34 -36.4831C1380.05 -42.7151 1383.09 -48.6332 1388.33 -52.0163L1456.98 -96.3172C1462.25 -99.7216 1468.95 -100.039 1474.52 -97.1496Z" fill="#1C1D20"/>
<path d="M1474.52 -97.1496L1547.05 -59.5469C1552.59 -56.6753 1556.18 -51.0721 1556.48 -44.8401L1560.37 37.2565C1560.67 43.4885 1557.62 49.4065 1552.38 52.7896L1483.74 97.0906C1478.46 100.495 1471.77 100.813 1466.19 97.9231L1393.66 60.3203C1388.12 57.4488 1384.53 51.8455 1384.24 45.6135L1380.34 -36.4831C1380.05 -42.7151 1383.09 -48.6332 1388.33 -52.0163L1456.98 -96.3172C1462.25 -99.7216 1468.95 -100.039 1474.52 -97.1496Z" fill="#1C1D20"/>
<path d="M1474.52 -97.1496L1547.05 -59.5469C1552.59 -56.6753 1556.18 -51.0721 1556.48 -44.8401L1560.37 37.2565C1560.67 43.4885 1557.62 49.4065 1552.38 52.7896L1483.74 97.0906C1478.46 100.495 1471.77 100.813 1466.19 97.9231L1393.66 60.3203C1388.12 57.4488 1384.53 51.8455 1384.24 45.6135L1380.34 -36.4831C1380.05 -42.7151 1383.09 -48.6332 1388.33 -52.0163L1456.98 -96.3172C1462.25 -99.7216 1468.95 -100.039 1474.52 -97.1496Z" fill="#1C1D20"/>
<path d="M1474.52 -97.1496L1547.05 -59.5469C1552.59 -56.6753 1556.18 -51.0721 1556.48 -44.8401L1560.37 37.2565C1560.67 43.4885 1557.62 49.4065 1552.38 52.7896L1483.74 97.0906C1478.46 100.495 1471.77 100.813 1466.19 97.9231L1393.66 60.3203C1388.12 57.4488 1384.53 51.8455 1384.24 45.6135L1380.34 -36.4831C1380.05 -42.7151 1383.09 -48.6332 1388.33 -52.0163L1456.98 -96.3172C1462.25 -99.7216 1468.95 -100.039 1474.52 -97.1496Z" fill="#1C1D20"/>
<path d="M1694.81 -106.6L1767.33 -69.1949C1772.88 -66.329 1776.49 -60.7163 1776.79 -54.4712L1780.65 27.0366C1780.95 33.2818 1777.89 39.2106 1772.63 42.5897L1703.98 86.6928C1698.72 90.0719 1692.05 90.3881 1686.5 87.5221L1613.97 50.1173C1608.42 47.2514 1604.81 41.6387 1604.52 35.3936L1600.65 -46.1143C1600.35 -52.3594 1603.41 -58.2882 1608.67 -61.6673L1677.33 -105.771C1682.59 -109.15 1689.25 -109.466 1694.81 -106.6Z" fill="#1C1D20"/>
<path d="M1915.07 -117.053L1987.59 -79.6485C1993.15 -76.7825 1996.76 -71.1699 1997.05 -64.9248L2000.92 16.5831C2001.22 22.8282 1998.16 28.757 1992.9 32.1362L1924.24 76.2392C1918.98 79.6184 1912.32 79.9345 1906.76 77.0686L1834.24 39.6638C1828.69 36.7978 1825.08 31.1852 1824.78 24.9401L1820.92 -56.5678C1820.62 -62.8129 1823.68 -68.7417 1828.94 -72.1209L1897.59 -116.224C1902.85 -119.603 1909.52 -119.919 1915.07 -117.053Z" fill="#1C1D20"/>
</g>
</g>
<defs>
<clipPath id="clip0_670_752">
<rect width="1895" height="515" fill="white"/>
</clipPath>
</defs>
</svg>
