<svg width="64" height="64" viewBox="0 0 72 72" fill="none" xmlns="http://www.w3.org/2000/svg">
<path opacity="0.5" d="M37.5475 11.8862H32.7931C28.3105 11.8862 26.0693 11.8862 24.6767 13.2788C23.2842 14.6713 23.2842 16.9126 23.2842 21.3951V26.1496V29.7154H47.0564V26.1496V21.3951C47.0564 16.9126 47.0564 14.6713 45.6639 13.2788C44.2713 11.8862 42.0301 11.8862 37.5475 11.8862Z" fill="white"/>
<path fill-rule="evenodd" clip-rule="evenodd" d="M38.5834 20.8796C36.4552 19.7192 33.8833 19.7192 31.7551 20.8796L20.3581 27.0941C18.0665 28.3436 16.6406 30.7453 16.6406 33.3554V45.0933C16.6406 47.7035 18.0665 50.1051 20.3581 51.3546L31.7551 57.5691C33.8833 58.7296 36.4552 58.7296 38.5834 57.5691L49.9804 51.3546C52.272 50.1051 53.6979 47.7035 53.6979 45.0933V33.3554C53.6979 30.7453 52.272 28.3436 49.9804 27.0941L38.5834 20.8796ZM35.1697 32.0927C34.4945 32.0927 34.0428 32.903 33.1395 34.5235L32.9058 34.9427C32.6491 35.4032 32.5207 35.6334 32.3206 35.7854C32.1205 35.9373 31.8712 35.9937 31.3728 36.1065L30.9189 36.2091C29.1648 36.606 28.2877 36.8045 28.079 37.4755C27.8703 38.1465 28.4683 38.8458 29.6642 40.2442L29.9735 40.606C30.3134 41.0033 30.4833 41.202 30.5597 41.4478C30.6362 41.6937 30.6105 41.9588 30.5591 42.489L30.5123 42.9717C30.3315 44.8375 30.2411 45.7703 30.7874 46.1851C31.3337 46.5998 32.155 46.2217 33.7974 45.4654L34.2223 45.2698C34.689 45.0549 34.9224 44.9475 35.1697 44.9475C35.4171 44.9475 35.6505 45.0549 36.1172 45.2698L36.5421 45.4654C38.1845 46.2217 39.0057 46.5998 39.552 46.1851C40.0984 45.7703 40.008 44.8375 39.8272 42.9717L39.7804 42.489C39.729 41.9588 39.7033 41.6937 39.7798 41.4478C39.8562 41.202 40.0261 41.0033 40.3659 40.606L40.6753 40.2442C41.8712 38.8458 42.4691 38.1465 42.2605 37.4755C42.0518 36.8045 41.1747 36.606 39.4205 36.2091L38.9667 36.1065C38.4682 35.9937 38.219 35.9373 38.0189 35.7854C37.8188 35.6334 37.6904 35.4032 37.4337 34.9427L37.2 34.5235C36.2967 32.903 35.845 32.0927 35.1697 32.0927Z" fill="white"/>
</svg>
